<svg version="1.1" xmlns="http://www.w3.org/2000/svg" viewBox="0 0 48 32" xmlns:bx="https://boxy-svg.com">
  <defs></defs>
  <path style="transform-origin: 24px 16px; fill: rgb(255, 255, 255);" d="M 54 15.5 L 54 16.5 L 24 16"></path>
  <path style="stroke-width: 1; transform-origin: 24px 16px; fill: rgb(255, 255, 255);" d="M 53 16 L 24 16" transform="matrix(0.087156, 0.996195, -0.996195, 0.087156, -0.000001, -0.000001)"></path>
  <path style="transform-origin: 24px 16px; stroke-width: 1; fill: rgb(255, 255, 255);" d="M 54 15.5 L 54 16.5 L 24 16" transform="matrix(0.996195, 0.087156, -0.087156, 0.996195, 0, 0)"></path>
  <path style="stroke-width: 1; transform-origin: 24px 16px; fill: rgb(255, 255, 255);" d="M 54 15.5 L 54 16.5 L 24 16" transform="matrix(0.965926, 0.25882, -0.25882, 0.965926, 0, 0)"></path>
  <path style="stroke-width: 1; transform-origin: 24px 16px; fill: rgb(255, 255, 255);" d="M 54 15.5 L 54 16.5 L 24 16" transform="matrix(0.906307, 0.422619, -0.422619, 0.906307, 0, 0)"></path>
  <path style="stroke-width: 1; transform-origin: 24px 16px; fill: rgb(255, 255, 255);" d="M 54 15.5 L 54 16.5 L 24 16" transform="matrix(0.939692, 0.342021, -0.342021, 0.939692, 0, 0)"></path>
  <path style="stroke-width: 1; transform-origin: 24px 16px; fill: rgb(255, 255, 255);" d="M 54 15.5 L 54 16.5 L 24 16" transform="matrix(0.906307, 0.422619, -0.422619, 0.906307, 0, 0)"></path>
  <path style="stroke-width: 1; transform-origin: 24px 16px; fill: rgb(255, 255, 255);" d="M 54 15.5 L 54 16.5 L 24 16" transform="matrix(0.866025, 0.500001, -0.500001, 0.866025, 0, 0)"></path>
  <path style="stroke-width: 1; transform-origin: 24px 16px; fill: rgb(255, 255, 255);" d="M 54 15.5 L 54 16.5 L 24 16" transform="matrix(0.819151, 0.573577, -0.573577, 0.819151, -0.000001, 0)"></path>
  <path style="stroke-width: 1; transform-origin: 24px 16px; fill: rgb(255, 255, 255);" d="M 54 15.5 L 54 16.5 L 24 16" transform="matrix(0.707107, 0.707107, -0.707107, 0.707107, -0.000001, 0)"></path>
  <path style="stroke-width: 1; transform-origin: 24px 16px; fill: rgb(255, 255, 255);" d="M 54 15.5 L 54 16.5 L 24 16" transform="matrix(0.766044, 0.642788, -0.642788, 0.766044, -0.000001, 0)"></path>
  <path style="stroke-width: 1; transform-origin: 24px 16px; fill: rgb(255, 255, 255);" d="M 54 15.5 L 54 16.5 L 24 16" transform="matrix(0.707106, 0.707107, -0.707107, 0.707106, -0.000001, 0)"></path>
  <path style="stroke-width: 1; transform-origin: 24px 16px; fill: rgb(255, 255, 255);" d="M 54 15.5 L 54 16.5 L 24 16" transform="matrix(0.642787, 0.766045, -0.766045, 0.642787, -0.000001, 0)"></path>
  <path style="stroke-width: 1; transform-origin: 24px 16px; fill: rgb(255, 255, 255);" d="M 54 15.5 L 54 16.5 L 24 16" transform="matrix(0.573576, 0.819153, -0.819153, 0.573576, -0.000001, 0)"></path>
  <path style="stroke-width: 1; transform-origin: 24px 16px; fill: rgb(255, 255, 255);" d="M 54 15.5 L 54 16.5 L 24 16" transform="matrix(0.499999, 0.866026, -0.866026, 0.499999, -0.000001, 0)"></path>
  <path style="stroke-width: 1; transform-origin: 24px 16px; fill: rgb(255, 255, 255);" d="M 54 15.5 L 54 16.5 L 24 16" transform="matrix(0.422617, 0.906308, -0.906308, 0.422617, -0.000001, 0)"></path>
  <path style="stroke-width: 1; transform-origin: 24px 16px; fill: rgb(255, 255, 255);" d="M 54 15.5 L 54 16.5 L 24 16" transform="matrix(0.342019, 0.939693, -0.939693, 0.342019, -0.000001, -0.000001)"></path>
  <path style="stroke-width: 1; transform-origin: 24px 16px; fill: rgb(255, 255, 255);" d="M 54 15.5 L 54 16.5 L 24 16" transform="matrix(0.258818, 0.965926, -0.965926, 0.258818, -0.000001, -0.000001)"></path>
  <path style="stroke-width: 1; transform-origin: 24px 16px; fill: rgb(255, 255, 255);" d="M 54 15.5 L 54 16.5 L 24 16" transform="matrix(0.173647, 0.984808, -0.984808, 0.173647, -0.000001, -0.000001)"></path>
  <path style="stroke-width: 1; transform-origin: 24px 16px; fill: rgb(255, 255, 255);" d="M 54 15.5 L 54 16.5 L 24 16" transform="matrix(0.087155, 0.996195, -0.996195, 0.087155, -0.000001, -0.000001)"></path>
  <path style="stroke-width: 1; transform-origin: 24px 16px; fill: rgb(255, 255, 255);" d="M 54 15.5 L 54 16.5 L 24 16" transform="matrix(-0.000001, 1, -1, -0.000001, -0.000001, -0.000001)"></path>
  <path style="stroke-width: 1; transform-origin: 24px 16px; fill: rgb(255, 255, 255);" d="M 54 15.5 L 54 16.5 L 24 16" transform="matrix(-0.087157, 0.996195, -0.996195, -0.087157, -0.000001, -0.000001)"></path>
  <path style="stroke-width: 1; transform-origin: 24px 16px; fill: rgb(255, 255, 255);" d="M 54 15.5 L 54 16.5 L 24 16" transform="matrix(-0.25882, 0.965926, -0.965926, -0.25882, -0.000001, -0.000001)"></path>
  <path style="stroke-width: 1; transform-origin: 24px 16px; fill: rgb(255, 255, 255);" d="M 54 15.5 L 54 16.5 L 24 16" transform="matrix(-0.17365, 0.984807, -0.984807, -0.17365, -0.000001, -0.000001)"></path>
  <path style="stroke-width: 1; transform-origin: 24px 16px; fill: rgb(255, 255, 255);" d="M 54 15.5 L 54 16.5 L 24 16" transform="matrix(-0.258821, 0.965925, -0.965925, -0.258821, -0.000001, -0.000001)"></path>
  <path style="stroke-width: 1; transform-origin: 24px 16px; fill: rgb(255, 255, 255);" d="M 54 15.5 L 54 16.5 L 24 16" transform="matrix(-0.342022, 0.939692, -0.939692, -0.342022, -0.000001, -0.000001)"></path>
  <path style="stroke-width: 1; transform-origin: 24px 16px; fill: rgb(255, 255, 255);" d="M 54 15.5 L 54 16.5 L 24 16" transform="matrix(-0.42262, 0.906307, -0.906307, -0.42262, -0.000001, -0.000001)"></path>
  <path style="stroke-width: 1; transform-origin: 24px 16px; fill: rgb(255, 255, 255);" d="M 54 15.5 L 54 16.5 L 24 16" transform="matrix(-0.500002, 0.866024, -0.866024, -0.500002, -0.000001, -0.000001)"></path>
  <path style="stroke-width: 1; transform-origin: 24px 16px; fill: rgb(255, 255, 255);" d="M 54 15.5 L 54 16.5 L 24 16" transform="matrix(-0.573578, 0.819151, -0.819151, -0.573578, -0.000001, -0.000001)"></path>
  <path style="stroke-width: 1; transform-origin: 24px 16px; fill: rgb(255, 255, 255);" d="M 54 15.5 L 54 16.5 L 24 16" transform="matrix(-0.642789, 0.766043, -0.766043, -0.642789, -0.000001, -0.000001)"></path>
  <path style="stroke-width: 1; transform-origin: 24px 16px; fill: rgb(255, 255, 255);" d="M 54 15.5 L 54 16.5 L 24 16" transform="matrix(-0.707108, 0.707105, -0.707105, -0.707108, -0.000001, -0.000002)"></path>
  <path style="stroke-width: 1; transform-origin: 24px 16px; fill: rgb(255, 255, 255);" d="M 54 15.5 L 54 16.5 L 24 16" transform="matrix(-0.819153, 0.573575, -0.573575, -0.819153, -0.000001, -0.000002)"></path>
  <path style="stroke-width: 1; transform-origin: 24px 16px; fill: rgb(255, 255, 255);" d="M 54 15.5 L 54 16.5 L 24 16" transform="matrix(-0.766045, 0.642786, -0.642786, -0.766045, -0.000001, -0.000002)"></path>
  <path style="stroke-width: 1; transform-origin: 24px 16px; fill: rgb(255, 255, 255);" d="M 54 15.5 L 54 16.5 L 24 16" transform="matrix(-0.866026, 0.499999, -0.499999, -0.866026, -0.000001, -0.000002)"></path>
  <path style="stroke-width: 1; transform-origin: 24px 16px; fill: rgb(255, 255, 255);" d="M 54 15.5 L 54 16.5 L 24 16" transform="matrix(-0.906308, 0.422617, -0.422617, -0.906308, -0.000001, -0.000002)"></path>
  <path style="stroke-width: 1; transform-origin: 24px 16px; fill: rgb(255, 255, 255);" d="M 54 15.5 L 54 16.5 L 24 16" transform="matrix(-0.939693, 0.342019, -0.342019, -0.939693, 0, -0.000002)"></path>
  <path style="stroke-width: 1; transform-origin: 24px 16px; fill: rgb(255, 255, 255);" d="M 54 15.5 L 54 16.5 L 24 16" transform="matrix(-0.965926, 0.258818, -0.258818, -0.965926, 0, -0.000002)"></path>
  <path style="stroke-width: 1; transform-origin: 24px 16px; fill: rgb(255, 255, 255);" d="M 54 15.5 L 54 16.5 L 24 16" transform="matrix(-0.984808, 0.173647, -0.173647, -0.984808, 0, -0.000002)"></path>
  <path style="stroke-width: 1; transform-origin: 24px 16px; fill: rgb(255, 255, 255);" d="M 54 15.5 L 54 16.5 L 24 16" transform="matrix(-0.996195, 0.087155, -0.087155, -0.996195, 0, -0.000002)"></path>
  <path style="stroke-width: 1; transform-origin: 24px 16px; fill: rgb(255, 255, 255);" d="M 54 15.5 L 54 16.5 L 24 16" transform="matrix(-1, 0, 0, -1, 0, -0.000002)"></path>
  <path style="fill: rgb(216, 216, 216); stroke-width: 1; transform-origin: 24px 16px;" d="M 53 16 L 24 16" transform="matrix(0.087156, 0.996195, -0.996195, 0.087156, -0.000001, -0.000001)"></path>
  <path style="fill: rgb(255, 0, 0); stroke-width: 1; transform-origin: 24px 16px;" d="M 54 15.5 L 54 16.5 L 24 16" transform="matrix(0.906307, 0.422619, -0.422619, 0.906307, 0, 0)"></path>
  <path style="fill: rgb(255, 0, 0); stroke-width: 1; transform-origin: 24px 16px;" d="M 54 15.5 L 54 16.5 L 24 16" transform="matrix(0.707107, 0.707107, -0.707107, 0.707107, 0.000001, 0)"></path>
  <path style="stroke-width: 1; transform-origin: 24px 16px; fill: rgb(255, 255, 255);" d="M 54 15.5 L 54 16.5 L 24 16" transform="matrix(0.984808, 0.173648, -0.173648, 0.984808, 0, 0)"></path>
  <path style="fill: rgb(255, 0, 0); stroke-width: 1; transform-origin: 24px 16px;" d="M 54 15.5 L 54 16.5 L 24 16" transform="matrix(-0.25882, 0.965926, -0.965926, -0.25882, 0.000001, 0.000001)"></path>
  <path style="" d="M 0 0 H 48 L 48 0 V 32 L 48 32 H 0 L 0 32 V 0 L 0 0 Z" bx:shape="rect 0 0 48 32 1 0 0 2@69dc098c"></path>
  <g>
    <g>
      <path style="fill: rgb(231, 0, 255);" d="M 53.929 18.117 L 53.842 19.113 L 24 16 M 53.107 23.282 L 52.848 24.248 L 24 16 M 51.401 28.225 L 50.978 29.132 L 24 16 M 48.861 32.798 L 48.288 33.617 L 24 16 M 45.567 36.86 L 44.86 37.567 L 24 16 M 41.617 40.288 L 40.798 40.861 L 24 16 M 37.132 42.978 L 36.225 43.401 L 24 16 M 32.248 44.848 L 31.282 45.107 L 24 16 M 27.113 45.842 L 26.117 45.929 L 24 16 M 21.883 45.929 L 20.887 45.842 L 24 16 M 16.718 45.107 L 15.752 44.848 L 24 16 M 11.775 43.401 L 10.868 42.978 L 24 16 M 7.202 40.861 L 6.383 40.288 L 24 16 M 3.14 37.567 L 2.433 36.86 L 24 16 M -0.28800000000000003 33.617 L -0.8610000000000001 32.798 L 24 16 M -2.9779999999999998 29.132 L -3.401 28.225 L 24 16 M -4.848 24.248 L -5.107 23.282 L 24 16 M -5.8420000000000005 19.113 L -5.929 18.117 L 24 16"></path>
    </g>
  </g>
  <rect width="48" height="0.1" style="fill: rgb(226, 0, 255);" y="16"></rect>
  <rect width="48" height="0.2" style="fill: rgb(226, 0, 255);" y="17"></rect>
  <rect width="48" height="0.3" style="fill: rgb(226, 0, 255);" y="18.5"></rect>
  <rect width="48" height="0.4" style="fill: rgb(226, 0, 255);" y="20.5"></rect>
  <rect width="48" height="0.5" style="fill: rgb(226, 0, 255);" y="23"></rect>
  <rect width="48" height="0.6" style="fill: rgb(226, 0, 255);" y="26"></rect>
  <rect width="48" height="0.7" style="fill: rgb(226, 0, 255);" y="29.5"></rect>
</svg>