<svg version="1.1" xmlns="http://www.w3.org/2000/svg" viewBox="0 0 48 32" xmlns:bx="https://boxy-svg.com">
  <rect width="48" height="32" style=""></rect>
  <ellipse style="fill: rgb(255, 255, 0);" cx="10" cy="12" rx="6" ry="6"></ellipse>
  <path d="M 31.218 8.104 C 31.166 8.038 31.088 8 31.006 8 L 28.178 8 C 28.048 8 27.936 8.092 27.912 8.218 L 26.82 13.772 L 25.284 8.198 C 25.274 8.166 25.258 8.136 25.238 8.11 C 25.238 8.11 25.238 8.106 25.236 8.104 C 25.232 8.1 25.226 8.1 25.222 8.094 C 25.204 8.072 25.18 8.054 25.154 8.038 C 25.146 8.034 25.138 8.028 25.128 8.026 C 25.096 8.01 25.06 8 25.02 8 L 22.978 8 C 22.94 8 22.904 8.01 22.87 8.026 C 22.862 8.03 22.854 8.034 22.844 8.038 C 22.818 8.054 22.796 8.072 22.776 8.094 C 22.772 8.1 22.768 8.1 22.764 8.104 C 22.762 8.108 22.762 8.11 22.76 8.11 C 22.74 8.136 22.724 8.166 22.716 8.198 L 21.182 13.772 L 20.088 8.218 C 20.062 8.092 19.952 8 19.822 8 L 16.996 8 C 16.912 8 16.832 8.038 16.782 8.104 C 16.73 8.168 16.712 8.256 16.732 8.336 L 19.558 19.792 C 19.56 19.796 19.564 19.8 19.564 19.804 C 19.57 19.826 19.578 19.844 19.59 19.864 C 19.592 19.87 19.596 19.876 19.6 19.882 C 19.602 19.884 19.604 19.888 19.606 19.892 C 19.62 19.91 19.636 19.924 19.654 19.94 C 19.656 19.942 19.66 19.942 19.662 19.946 C 19.68 19.958 19.702 19.97 19.722 19.978 C 19.728 19.98 19.736 19.982 19.742 19.986 C 19.768 19.994 19.794 19.998 19.822 19.998 L 22.078 19.998 C 22.116 19.998 22.15 19.99 22.184 19.974 C 22.192 19.97 22.2 19.966 22.21 19.962 C 22.232 19.948 22.254 19.932 22.272 19.912 C 22.276 19.906 22.284 19.904 22.288 19.9 C 22.29 19.896 22.29 19.892 22.292 19.89 C 22.314 19.86 22.332 19.83 22.34 19.794 L 24 13.34 L 25.66 19.796 C 25.668 19.832 25.686 19.862 25.708 19.89 C 25.71 19.894 25.71 19.898 25.714 19.9 C 25.716 19.906 25.724 19.908 25.728 19.912 C 25.746 19.932 25.766 19.948 25.79 19.962 C 25.8 19.966 25.808 19.972 25.816 19.976 C 25.85 19.99 25.884 20 25.922 20 L 28.178 20 C 28.206 20 28.232 19.994 28.258 19.986 C 28.264 19.984 28.27 19.982 28.278 19.98 C 28.298 19.972 28.32 19.96 28.338 19.946 C 28.342 19.944 28.344 19.942 28.348 19.94 C 28.364 19.926 28.38 19.912 28.394 19.892 C 28.396 19.89 28.398 19.886 28.402 19.882 C 28.404 19.876 28.408 19.872 28.412 19.866 C 28.422 19.846 28.432 19.826 28.438 19.804 C 28.44 19.802 28.442 19.798 28.442 19.794 L 31.27 8.336 C 31.288 8.256 31.27 8.168 31.218 8.104 Z" style="stroke-width: 1; fill: rgb(255, 255, 0);"></path>
  <ellipse style="fill: rgb(255, 255, 0);" cx="38" cy="12" rx="6" ry="6"></ellipse>
  <rect width="48" height="16" style="" y="16"></rect>
  <path d="M -1 16 L 49 16 M -1.641 16.128 L 49.641 16.128 M -2.316 16.263 L 50.316 16.263 M -3.027 16.405 L 51.027 16.405 M -3.778 16.556 L 51.778 16.556 M -4.571 16.714 L 52.571 16.714 M -5.412 16.882 L 53.412 16.882 M -6.303 17.061 L 54.303 17.061 M -7.25 17.25 L 55.25 17.25 M -8.258 17.452 L 56.258 17.452 M -9.333 17.667 L 57.333 17.667 M -10.483 17.897 L 58.483 17.897 M -11.714 18.143 L 59.714 18.143 M -13.037 18.407 L 61.037 18.407 M -14.462 18.692 L 62.462 18.692 M -16 19 L 64 19 M -17.667 19.333 L 65.667 19.333 M -19.478 19.696 L 67.478 19.696 M -21.455 20.091 L 69.455 20.091 M -23.619 20.524 L 71.619 20.524 M -26 21 L 74 21 M -28.632 21.526 L 76.632 21.526 M -31.556 22.111 L 79.556 22.111 M -34.824 22.765 L 82.824 22.765 M -38.5 23.5 L 86.5 23.5 M -42.667 24.333 L 90.667 24.333 M -47.429 25.286 L 95.429 25.286 M -52.923 26.385 L 100.923 26.385 M -59.333 27.667 L 107.333 27.667 M -66.909 29.182 L 114.909 29.182 M -76 31 L 124 31 M -87.111 33.222 L 135.111 33.222 M -101 36 L 149 36 M -118.86 39.571 L 166.857 39.571 M -142.67 44.333 L 190.667 44.333 M -176 51 L 224 51 M -226 61 L 274 61 M -309.33 77.667 L 357.333 77.667 M -476 111 L 524 111 M -976 211 L 1024 211 M -1 16 L -976 211 M 1.5 16 L -876 211 M 4 16 L -776 211 M 6.5 16 L -676 211 M 9 16 L -576 211 M 11.5 16 L -476 211 M 14 16 L -376 211 M 16.5 16 L -276 211 M 19 16 L -176 211 M 21.5 16 L -76 211 M 24 16 L 24 211 M 26.5 16 L 124 211 M 29 16 L 224 211 M 31.5 16 L 324 211 M 34 16 L 424 211 M 36.5 16 L 524 211 M 39 16 L 624 211 M 41.5 16 L 724 211 M 44 16 L 824 211 M 46.5 16 L 924 211 M 49 16 L 1024 211" stroke="magenta" stroke-width="0.1" stroke-linecap="round" stroke-linejoin="round" fill="none"></path>
  <g fill="#000000" transform="matrix(0.166667, 0, 0, 0.166667, 5.384686, 15.079157)">
    <g transform="translate(0, 0)">
      <path d="M4.00 46.30Q3.10 46.30 2.17 46.02Q1.25 45.75 0.62 45.02Q0 44.30 0 43.05Q0 42.35 0.52 41.48Q1.05 40.60 1.80 40.60Q1.40 41.20 1.40 42.05Q1.40 42.95 2.15 43.58Q2.90 44.20 4.55 44.20Q6.45 44.20 8.55 43.13Q10.65 42.05 12.80 40.27Q14.95 38.50 17 36.35Q19.05 34.20 20.80 32Q22.80 29.50 24.85 27.10Q26.90 24.70 28.83 22.77Q30.75 20.85 32.25 19.80Q32.75 19.45 33.93 18.65Q35.10 17.85 36.95 17.20Q35.10 17.25 33.08 17.13Q31.05 17 29.15 16.75Q28.10 16.60 27 16.50Q25.90 16.40 24.75 16.40Q21.70 16.40 19 17.20Q16.30 18 14.85 20Q14 21.20 14 22.35Q14 23.15 14.35 23.65Q14.55 23.85 14.80 24.07Q15.05 24.30 15.20 24.30Q15 24.50 14.70 24.50Q14.35 24.50 14.03 24.32Q13.70 24.15 13.50 23.95Q13 23.40 12.75 22.67Q12.50 21.95 12.50 21.25Q12.50 19.85 13.20 18.90Q14.60 17 16.80 16.10Q19 15.20 22.35 15.20Q23.80 15.20 25.50 15.38Q27.20 15.55 29.20 15.85Q33.40 16.55 37.20 16.55Q39.10 16.55 40.45 16.32Q41.80 16.10 42.15 15.60Q42.70 15.60 42.50 16.05Q42.35 16.70 41.85 16.85Q41.35 17 40.75 17.25Q39.60 17.65 38.15 19.15Q36.70 20.65 35.18 22.85Q33.65 25.05 32.15 27.52Q30.65 30 29.35 32.38Q28.05 34.75 27.10 36.60Q26.60 37.55 25.85 38.80Q25.10 40.05 24.20 41.10Q25.60 40.05 27.50 38.15Q29.40 36.25 31.48 33.85Q33.55 31.45 35.50 29Q37.35 26.60 39.65 23.90Q41.95 21.20 44.38 18.75Q46.80 16.30 49.18 14.67Q51.55 13.05 53.55 12.80Q53.80 12.75 53.98 12.75Q54.15 12.75 54.35 12.75Q55.80 12.75 56.68 13.42Q57.55 14.10 57.60 15.65Q57.60 16.20 57.30 16.85Q57.00 17.50 56.35 17.70Q56.55 17.45 56.63 16.95Q56.70 16.45 56.75 16.10Q56.70 15.25 55.98 14.72Q55.25 14.20 53.80 14.20Q51.80 14.20 49.48 15.70Q47.15 17.20 44.78 19.55Q42.40 21.90 40.18 24.55Q37.95 27.20 36.15 29.50Q34.25 31.95 32 34.63Q29.75 37.30 27.65 39.45Q25.55 41.60 24 42.65Q23.70 42.85 23.10 43.05Q22.50 43.25 21.90 43.25Q21.40 43.25 20.95 42.98Q20.50 42.70 20.40 42.05Q20.50 42.10 20.75 42.15Q21 42.20 21.30 42.20Q21.85 42.20 22.55 41.80Q23.25 41.40 23.75 40Q24.85 37.15 26.23 34.02Q27.60 30.90 29.40 27.82Q31.20 24.75 33.58 22.02Q35.95 19.30 39 17.20Q38.55 17.20 38.05 17.32Q37.55 17.45 37.55 17.45Q36.15 17.95 34.68 18.88Q33.20 19.80 32.15 20.70Q30.80 21.85 29 23.77Q27.20 25.70 25.25 27.98Q23.30 30.25 21.45 32.60Q19.60 34.95 17.57 37.35Q15.55 39.75 13.35 41.77Q11.15 43.80 8.82 45.05Q6.50 46.30 4.00 46.30ZM37.35 42.75Q35.90 42.75 35.27 42.02Q34.65 41.30 34.65 40.20Q34.65 38.80 35.48 36.90Q36.30 35 37.70 33.05Q39.10 31.10 40.85 29.42Q42.60 27.75 44.42 26.73Q46.25 25.70 47.95 25.70Q49.20 25.70 49.75 26.35Q50.30 27 50.30 28.05Q50.30 29.45 49.50 31.38Q48.70 33.30 47.33 35.27Q45.95 37.25 44.27 38.95Q42.60 40.65 40.80 41.70Q39 42.75 37.35 42.75M37.95 41.80Q39 41.80 40.48 40.73Q41.95 39.65 43.50 37.95Q45.05 36.25 46.38 34.33Q47.70 32.40 48.52 30.67Q49.35 28.95 49.35 27.85Q49.35 26.65 48.20 26.65Q47.25 26.65 45.83 27.77Q44.40 28.90 42.88 30.65Q41.35 32.40 40 34.35Q38.65 36.30 37.82 38.05Q37 39.80 37 40.80Q37 41.80 37.95 41.80ZM49.45 42.70Q48.20 42.70 47.70 42.10Q47.20 41.50 47.20 40.55Q47.20 38.90 48.40 36.80Q49.10 35.60 50.32 34.02Q51.55 32.45 53.10 30.67Q54.65 28.90 56.20 27.20L52.85 27.20L53.40 26.50L56.85 26.50Q58.25 25.05 59.47 23.77Q60.70 22.50 61.50 21.70Q63.70 19.50 65.58 18.35Q67.45 17.20 68.55 17.20Q67.75 17.90 66.22 19.40Q64.70 20.90 62.88 22.75Q61.05 24.60 59.30 26.50L62.75 26.50L62.20 27.20L58.70 27.20Q57.75 28.30 56.92 29.25Q56.10 30.20 55.50 31.05Q53.15 34.25 51.70 36.30Q50.25 38.35 49.80 39.40Q49.45 40.25 49.45 40.80Q49.45 41.75 50.35 41.75Q51.10 41.75 51.95 41.25Q53.20 40.55 54.47 39.23Q55.75 37.90 56.55 36.95Q56.75 36.95 56.75 37.25Q56.75 37.70 56.55 37.95Q54.65 40.15 53 41.42Q51.35 42.70 49.45 42.70ZM69 23.70Q68 23.70 68 22.90Q68 22.65 68.15 22.35Q68.40 21.75 69.03 21.27Q69.65 20.80 70.25 20.80Q71.20 20.80 71.20 21.60Q71.20 22.35 70.50 23Q69.80 23.65 69 23.70M58.15 42.60Q56.80 42.60 56.22 41.88Q55.65 41.15 55.65 40.05Q55.65 38.60 56.52 36.92Q57.40 35.25 58.70 33.58Q60 31.90 61.35 30.42Q62.70 28.95 63.70 28Q64.65 27.05 65.65 26.60Q66.65 26.15 67.38 25.97Q68.10 25.80 68.10 25.80Q67 27.05 65.10 29.35Q63.20 31.65 61.35 34.25Q61.20 34.45 60.65 35.25Q60.10 36.05 59.42 37.10Q58.75 38.15 58.27 39.15Q57.80 40.15 57.80 40.75Q57.80 41.70 58.80 41.70Q59.55 41.70 60.42 41.15Q61.30 40.60 62.20 39.80Q63.10 39 63.82 38.23Q64.55 37.45 64.95 36.95Q65.15 36.95 65.15 37.25Q65.15 37.70 64.95 37.95Q63.05 40.15 61.52 41.38Q60 42.60 58.15 42.60ZM68.85 42.85Q67.90 42.85 66.90 42.58Q65.90 42.30 65.25 41.50Q64.60 40.70 64.60 39.15Q64.60 37.45 65.50 35.60Q66.40 33.75 67.92 32Q69.45 30.25 71.25 28.85Q73.05 27.45 74.88 26.63Q76.70 25.80 78.25 25.80Q79.20 25.80 79.58 26.27Q79.95 26.75 79.95 27.40Q79.95 28.05 79.65 28.65Q79.20 29.70 78.08 30.77Q76.95 31.85 75.50 31.85Q74.95 31.85 74.88 31.45Q74.80 31.05 74.90 30.85Q75.60 30.65 76.80 29.98Q78 29.30 78.70 27.90Q78.85 27.60 78.85 27.35Q78.85 26.60 77.95 26.60Q76.80 26.60 74.98 28.02Q73.15 29.45 70.95 32.10Q69.40 33.90 68.38 35.73Q67.35 37.55 67.35 39.45Q67.35 40.60 67.80 41.27Q68.25 41.95 69.45 41.95Q71 41.95 72.28 41.20Q73.55 40.45 74.65 39.27Q75.75 38.10 76.75 36.95Q76.95 36.95 76.95 37.25Q76.95 37.70 76.75 37.95Q75.75 39.10 74.60 40.25Q73.45 41.40 72.05 42.13Q70.65 42.85 68.85 42.85ZM80.55 42.85Q78.25 42.85 77.30 41.85Q76.35 40.85 76.35 39.15Q76.35 37.50 77.28 35.67Q78.20 33.85 79.60 32.20Q80.45 31.20 81.70 30.10Q82.95 29 84.40 28.02Q85.85 27.05 87.28 26.43Q88.70 25.80 89.80 25.80Q90.40 25.80 90.90 26.07Q91.40 26.35 91.40 27.25Q91.40 28.50 90.20 29.63Q89 30.75 87.50 31.70Q85.80 32.80 83.95 33.55Q82.10 34.30 80.75 34.70Q80 35.90 79.55 37.15Q79.10 38.40 79.10 39.60Q79.10 40.90 79.72 41.38Q80.35 41.85 81.20 41.85Q82.75 41.85 84.03 41.13Q85.30 40.40 86.40 39.25Q87.50 38.10 88.50 36.95Q88.70 36.95 88.70 37.25Q88.70 37.70 88.50 37.95Q87.50 39.10 86.33 40.25Q85.15 41.40 83.75 42.13Q82.35 42.85 80.55 42.85M81.35 34Q82.65 33.55 84.42 32.75Q86.20 31.95 87.55 31Q87.85 30.80 88.60 30.17Q89.35 29.55 90 28.77Q90.65 28 90.65 27.40Q90.65 26.60 89.85 26.60Q89 26.60 87.92 27.35Q86.85 28.10 86.20 28.65Q85 29.75 83.70 31.10Q82.40 32.45 81.35 34ZM92.65 42.85Q91.65 42.85 90.72 42.65Q89.80 42.45 89.10 41.95Q88.55 41.55 88.17 40.85Q87.80 40.15 87.80 39.05Q87.80 37.75 88.42 37.05Q89.05 36.35 89.75 36.35Q90.30 35.65 91.25 34.38Q92.20 33.10 93.38 31.55Q94.55 30 95.80 28.42Q97.05 26.85 98.15 25.60Q98.85 24.90 99.63 24.10Q100.40 23.30 101.38 22.72Q102.35 22.15 103.45 22.15Q104.30 22.15 104.67 22.55Q105.05 22.95 105.05 23.50Q105.05 23.80 104.90 24.05Q104.35 23.95 103.35 24.22Q102.35 24.50 101.15 25.20Q99.85 26 98.50 27.20Q98.45 27.80 98.38 29.02Q98.30 30.25 98.20 31.77Q98.10 33.30 97.88 34.83Q97.65 36.35 97.30 37.50Q97.05 38.30 96.50 39.27Q95.95 40.25 95.03 41.08Q94.10 41.90 92.75 42.20Q94.55 42.20 95.75 41.65Q96.95 41.10 97.78 40.38Q98.60 39.65 99.10 39.20Q99.50 38.80 100.20 38.05Q100.90 37.30 101.20 36.95Q101.40 36.95 101.40 37.25Q101.40 37.70 101.20 37.95Q99.10 40.20 97.70 41.25Q96.45 42.20 95.15 42.52Q93.85 42.85 92.65 42.85M90.90 41.90Q91.75 41.90 92.47 41.23Q93.20 40.55 93.80 39.63Q94.40 38.70 94.75 37.90Q95.30 36.70 95.90 34.85Q96.50 33 97.05 31.07Q97.60 29.15 97.95 27.75Q96.55 29.10 95.17 30.70Q93.80 32.30 92.65 33.75Q91.50 35.20 90.75 36.15Q90.10 37 89.75 37.95Q89.40 38.90 89.40 39.75Q89.40 40.70 89.80 41.30Q90.20 41.90 90.90 41.90ZM111.60 44.05Q112.55 42.75 114.05 40.52Q115.55 38.30 117.15 35.85L111.15 35.85Q110.95 35.90 110.78 35.90Q110.60 35.90 110.45 35.90Q110 35.90 110 35.80Q111.25 34.35 113.25 32.80Q115.25 31.25 117.40 29.70Q118.55 28.85 119.88 27.88Q121.20 26.90 122.50 25.90Q122.90 25.55 123.80 24.90Q124.70 24.25 125.70 23.70Q126.70 23.15 127.30 23.10Q127.70 23.10 127.35 23.68Q127 24.25 126.45 25.05Q125.05 27.15 123.60 29.45Q122.15 31.75 120.45 34.55Q121.20 34.45 122 34.38Q122.80 34.30 123.65 34.15Q123.65 34.35 123.13 34.98Q122.60 35.60 121.95 35.85L119.65 35.85L116.75 40.70Q115.60 42.50 114.58 43.17Q113.55 43.85 111.80 44.05L111.60 44.05M112.85 34.90L114.65 34.80Q115.45 34.80 116.28 34.77Q117.10 34.75 117.90 34.70L118.50 33.80Q120.15 31.30 121.53 29.20Q122.90 27.10 123.45 26.40Q121.75 27.50 119.78 29Q117.80 30.50 115.98 32.05Q114.15 33.60 112.85 34.90ZM126.15 42.60Q123.55 42.60 123.55 39.85Q123.55 39.45 123.60 38.98Q123.65 38.50 123.75 38Q124.20 35.45 125.65 32.90Q127.10 30.35 128.75 28.35Q130.85 25.70 133.15 24.30Q135.45 22.90 136.90 22.90Q138.15 22.90 138.85 23.52Q139.55 24.15 139.55 25.60Q139.55 27.25 138.70 29.45Q137.85 31.65 136.43 33.95Q135 36.25 133.25 38.20Q131.50 40.15 129.65 41.38Q127.80 42.60 126.15 42.60M126.40 41.80Q127.25 42 128.75 40.42Q130.25 38.85 132.75 35.40Q133.30 34.70 134.20 33.15Q135.10 31.60 135.93 29.85Q136.75 28.10 137.15 26.80Q137.30 26.20 137.43 25.70Q137.55 25.20 137.55 24.85Q137.55 23.70 136.80 23.70Q136.15 23.70 135.05 24.75Q133.95 25.80 132.70 27.40Q131.45 29 130.25 30.65Q128.95 32.55 127.80 34.98Q126.65 37.40 126.05 39.20Q125.80 40.10 125.80 40.65Q125.80 41.80 126.40 41.80ZM138.40 44.05Q139.35 42.75 140.85 40.52Q142.35 38.30 143.95 35.85L137.95 35.85Q137.75 35.90 137.57 35.90Q137.40 35.90 137.25 35.90Q136.80 35.90 136.80 35.80Q138.05 34.35 140.05 32.80Q142.05 31.25 144.20 29.70Q145.35 28.85 146.68 27.88Q148 26.90 149.30 25.90Q149.70 25.55 150.60 24.90Q151.50 24.25 152.50 23.70Q153.50 23.15 154.10 23.10Q154.50 23.10 154.15 23.68Q153.80 24.25 153.25 25.05Q151.85 27.15 150.40 29.45Q148.95 31.75 147.25 34.55Q148 34.45 148.80 34.38Q149.60 34.30 150.45 34.15Q150.45 34.35 149.93 34.98Q149.40 35.60 148.75 35.85L146.45 35.85L143.55 40.70Q142.40 42.50 141.38 43.17Q140.35 43.85 138.60 44.05L138.40 44.05M139.65 34.90L141.45 34.80Q142.25 34.80 143.07 34.77Q143.90 34.75 144.70 34.70L145.30 33.80Q146.95 31.30 148.32 29.20Q149.70 27.10 150.25 26.40Q148.55 27.50 146.57 29Q144.60 30.50 142.78 32.05Q140.95 33.60 139.65 34.90ZM161.65 42.85Q159.35 42.85 158.40 41.85Q157.45 40.85 157.45 39.15Q157.45 37.50 158.38 35.67Q159.30 33.85 160.70 32.20Q161.55 31.20 162.80 30.10Q164.05 29 165.50 28.02Q166.95 27.05 168.38 26.43Q169.80 25.80 170.90 25.80Q171.50 25.80 172 26.07Q172.50 26.35 172.50 27.25Q172.50 28.50 171.30 29.63Q170.10 30.75 168.60 31.70Q166.90 32.80 165.05 33.55Q163.20 34.30 161.85 34.70Q161.10 35.90 160.65 37.15Q160.20 38.40 160.20 39.60Q160.20 40.90 160.82 41.38Q161.45 41.85 162.30 41.85Q163.85 41.85 165.13 41.13Q166.40 40.40 167.50 39.25Q168.60 38.10 169.60 36.95Q169.80 36.95 169.80 37.25Q169.80 37.70 169.60 37.95Q168.60 39.10 167.42 40.25Q166.25 41.40 164.85 42.13Q163.45 42.85 161.65 42.85M162.45 34Q163.75 33.55 165.53 32.75Q167.30 31.95 168.65 31Q168.95 30.80 169.70 30.17Q170.45 29.55 171.10 28.77Q171.75 28 171.75 27.40Q171.75 26.60 170.95 26.60Q170.10 26.60 169.03 27.35Q167.95 28.10 167.30 28.65Q166.10 29.75 164.80 31.10Q163.50 32.45 162.45 34ZM175.60 42.60Q174.35 42.60 173.82 41.95Q173.30 41.30 173.30 40.35Q173.30 39.75 173.45 39.15Q173.75 37.65 174.95 36Q176.15 34.35 177.80 32.70Q179.45 31.05 181.17 29.70Q182.90 28.35 184.25 27.45Q183.65 27.55 182.70 27.55Q181.60 27.55 180.40 27.42Q179.20 27.30 178.75 27Q178.55 27.35 177.78 28.32Q177 29.30 175.88 30.65Q174.75 32 173.55 33.40Q172.35 34.80 171.30 36.02Q170.25 37.25 169.60 37.95Q168.95 38.70 167.82 39.73Q166.70 40.75 165.57 41.55Q164.45 42.35 163.70 42.35Q163.35 42.35 163.28 42.20Q163.20 42.05 163.20 42Q164 42 165.57 40.88Q167.15 39.75 169.60 36.95Q172.55 33.55 175.17 29.63Q177.80 25.70 179.90 21.45L179.95 21.45Q180.60 21.45 180.60 22.70Q180.60 23.85 179.80 25.40Q179.60 25.75 179.20 26.35Q180.20 26.55 181.20 26.63Q182.20 26.70 183.05 26.70Q183.75 26.70 184.35 26.65Q184.95 26.60 185.30 26.50Q185.75 26.50 185.78 26.67Q185.80 26.85 185.70 26.95Q185.50 27.15 184.88 27.85Q184.25 28.55 183.47 29.38Q182.70 30.20 182.05 30.92Q181.40 31.65 181.10 32Q179.55 33.85 178.03 36.05Q176.50 38.25 175.90 40Q175.70 40.45 175.70 40.85Q175.70 41.55 176.35 41.55Q177.05 41.55 178.10 40.73Q179.15 39.90 180.22 38.80Q181.30 37.70 181.95 36.95Q182.15 36.95 182.15 37.25Q182.15 37.70 181.95 37.95Q179.65 40.65 178.22 41.63Q176.80 42.60 175.60 42.60ZM187.95 42.60Q186.70 42.60 186.17 41.95Q185.65 41.30 185.65 40.35Q185.65 39.75 185.80 39.15Q186.10 37.65 187.30 36Q188.50 34.35 190.15 32.70Q191.80 31.05 193.52 29.70Q195.25 28.35 196.60 27.45Q196 27.55 195.05 27.55Q193.95 27.55 192.75 27.42Q191.55 27.30 191.10 27Q190.90 27.35 190.13 28.32Q189.35 29.30 188.22 30.65Q187.10 32 185.90 33.40Q184.70 34.80 183.65 36.02Q182.60 37.25 181.95 37.95Q181.30 38.70 180.17 39.73Q179.05 40.75 177.92 41.55Q176.80 42.35 176.05 42.35Q175.70 42.35 175.63 42.20Q175.55 42.05 175.55 42Q176.35 42 177.92 40.88Q179.50 39.75 181.95 36.95Q184.90 33.55 187.52 29.63Q190.15 25.70 192.25 21.45L192.30 21.45Q192.95 21.45 192.95 22.70Q192.95 23.85 192.15 25.40Q191.95 25.75 191.55 26.35Q192.55 26.55 193.55 26.63Q194.55 26.70 195.40 26.70Q196.10 26.70 196.70 26.65Q197.30 26.60 197.65 26.50Q198.10 26.50 198.13 26.67Q198.15 26.85 198.05 26.95Q197.85 27.15 197.22 27.85Q196.60 28.55 195.82 29.38Q195.05 30.20 194.40 30.92Q193.75 31.65 193.45 32Q191.90 33.85 190.38 36.05Q188.85 38.25 188.25 40Q188.05 40.45 188.05 40.85Q188.05 41.55 188.70 41.55Q189.40 41.55 190.45 40.73Q191.50 39.90 192.57 38.80Q193.65 37.70 194.30 36.95Q194.50 36.95 194.50 37.25Q194.50 37.70 194.30 37.95Q192 40.65 190.57 41.63Q189.15 42.60 187.95 42.60ZM196.25 42.75Q194.80 42.75 194.17 42.02Q193.55 41.30 193.55 40.20Q193.55 38.80 194.37 36.90Q195.20 35 196.60 33.05Q198.00 31.10 199.75 29.42Q201.50 27.75 203.32 26.73Q205.15 25.70 206.85 25.70Q208.10 25.70 208.65 26.35Q209.20 27 209.20 28.05Q209.20 29.45 208.40 31.38Q207.60 33.30 206.22 35.27Q204.85 37.25 203.17 38.95Q201.50 40.65 199.70 41.70Q197.90 42.75 196.25 42.75M196.85 41.80Q197.90 41.80 199.37 40.73Q200.85 39.65 202.40 37.95Q203.95 36.25 205.27 34.33Q206.60 32.40 207.42 30.67Q208.25 28.95 208.25 27.85Q208.25 26.65 207.10 26.65Q206.15 26.65 204.72 27.77Q203.30 28.90 201.77 30.65Q200.25 32.40 198.90 34.35Q197.55 36.30 196.72 38.05Q195.90 39.80 195.90 40.80Q195.90 41.80 196.85 41.80ZM213.20 42.60Q211.95 42.60 211.42 41.95Q210.90 41.30 210.90 40.35Q210.90 39.75 211.05 39.15Q211.35 37.65 212.55 36Q213.75 34.35 215.40 32.70Q217.05 31.05 218.77 29.70Q220.50 28.35 221.85 27.45Q221.25 27.55 220.30 27.55Q219.20 27.55 218 27.42Q216.80 27.30 216.35 27Q216.15 27.35 215.38 28.32Q214.60 29.30 213.47 30.65Q212.35 32 211.15 33.40Q209.95 34.80 208.90 36.02Q207.85 37.25 207.20 37.95Q206.55 38.70 205.42 39.73Q204.30 40.75 203.17 41.55Q202.05 42.35 201.30 42.35Q200.95 42.35 200.88 42.20Q200.80 42.05 200.80 42Q201.60 42 203.17 40.88Q204.75 39.75 207.20 36.95Q210.15 33.55 212.77 29.63Q215.40 25.70 217.50 21.45L217.55 21.45Q218.20 21.45 218.20 22.70Q218.20 23.85 217.40 25.40Q217.20 25.75 216.80 26.35Q217.80 26.55 218.80 26.63Q219.80 26.70 220.65 26.70Q221.35 26.70 221.95 26.65Q222.55 26.60 222.90 26.50Q223.35 26.50 223.38 26.67Q223.40 26.85 223.30 26.95Q223.10 27.15 222.47 27.85Q221.85 28.55 221.07 29.38Q220.30 30.20 219.65 30.92Q219 31.65 218.70 32Q217.15 33.85 215.63 36.05Q214.10 38.25 213.50 40Q213.30 40.45 213.30 40.85Q213.30 41.55 213.95 41.55Q214.65 41.55 215.70 40.73Q216.75 39.90 217.82 38.80Q218.90 37.70 219.55 36.95Q219.75 36.95 219.75 37.25Q219.75 37.70 219.55 37.95Q217.25 40.65 215.82 41.63Q214.40 42.60 213.20 42.60Z" style="fill: rgb(255, 255, 255);"></path>
    </g>
  </g>
  <g fill="#000000" transform="matrix(0.083333, 0, 0, 0.083333, 3.508414, 22.60001)">
    <g transform="translate(0, 0)">
      <path d="M23.50 20.80Q23.50 17.80 20.50 17.80L12 17.80Q9 17.80 9 20.80L9 36.80Q9 39.80 12 39.80L20.50 39.80Q23.50 39.80 23.50 36.80L23.50 20.80M32.50 36.80Q32.50 42.05 30.13 44.43Q27.75 46.80 22.50 46.80L10 46.80Q4.75 46.80 2.38 44.43Q0 42.05 0 36.80L0 20.80Q0 15.55 2.38 13.18Q4.75 10.80 10 10.80L22.50 10.80Q27.75 10.80 30.13 13.18Q32.50 15.55 32.50 20.80L32.50 36.80ZM65 35.80L69.50 19.80L79 19.80L70.75 46.30L61.50 46.30L56.50 30.30L51.50 46.30L42.25 46.30L34 19.80L43.50 19.80L48 35.80L52.50 19.80L60.50 19.80L65 35.80ZM104 20.80Q104 17.80 101 17.80L92.50 17.80Q89.50 17.80 89.50 20.80L89.50 36.80Q89.50 39.80 92.50 39.80L101 39.80Q104 39.80 104 36.80L104 20.80M113 36.80Q113 42.05 110.63 44.43Q108.25 46.80 103 46.80L90.50 46.80Q85.25 46.80 82.88 44.43Q80.50 42.05 80.50 36.80L80.50 20.80Q80.50 15.55 82.88 13.18Q85.25 10.80 90.50 10.80L103 10.80Q108.25 10.80 110.63 13.18Q113 15.55 113 20.80L113 36.80ZM138.75 31.05Q136.45 31.05 134.25 33.80L130.50 29.80Q131.80 26.55 134.70 24.55Q136.15 23.55 138 23.55Q139.85 23.55 140.88 24.03Q141.90 24.50 142.72 25.05Q143.55 25.60 144.32 26.08Q145.10 26.55 146.25 26.55Q148.55 26.55 150.80 23.80L154.55 27.80Q153.15 31.15 150.30 33.10Q148.85 34.05 147 34.05Q145.15 34.05 144.13 33.58Q143.10 33.10 142.28 32.55Q141.45 32 140.65 31.53Q139.85 31.05 138.75 31.05ZM200.55 35.80L205.05 19.80L214.55 19.80L206.30 46.30L197.05 46.30L192.05 30.30L187.05 46.30L177.80 46.30L169.55 19.80L179.05 19.80L183.55 35.80L188.05 19.80L196.05 19.80L200.55 35.80ZM225.30 20.30Q230.15 19.30 233.80 19.30L236.05 19.30Q239.45 19.30 241.50 21.35Q243.55 23.40 243.55 26.80L243.55 46.30L234.80 46.30L234.80 27.80Q234.80 27.05 234.30 26.55Q233.80 26.05 233.05 26.05L231.30 26.05Q229.40 26.05 227.83 26.25Q226.25 26.45 225.30 26.55L225.30 46.30L216.55 46.30L216.55 11.30L225.30 11.30L225.30 20.30ZM258.55 39.80Q261.20 39.80 264.55 38.80L264.55 35.80L257.30 35.80Q256.55 35.80 256.05 36.30Q255.55 36.80 255.55 37.55L255.55 38.05Q255.55 38.80 256.05 39.30Q256.55 39.80 257.30 39.80L258.55 39.80M249.30 20.30Q258.45 19.30 265.80 19.30Q269.20 19.30 271.25 21.35Q273.30 23.40 273.30 26.80L273.30 46.30L265.55 46.30L265.05 43.80Q262.70 45.35 260.23 46.08Q257.75 46.80 256.05 46.80L254.30 46.80Q250.90 46.80 248.85 44.75Q246.80 42.70 246.80 39.30L246.80 37.05Q246.80 33.65 248.85 31.60Q250.90 29.55 254.30 29.55L264.55 29.55L264.55 27.55Q264.55 26.80 264.05 26.30Q263.55 25.80 262.80 25.80Q259.55 25.80 255.63 26.10Q251.70 26.40 249.30 26.55L249.30 20.30ZM296.30 46.30Q291.45 46.80 286.80 46.80Q283.40 46.80 281.35 44.75Q279.30 42.70 279.30 39.30L279.30 26.55L276.30 26.55L276.30 19.80L279.30 19.80L280.30 13.80L288.05 13.80L288.05 19.80L294.30 19.80L294.30 26.55L288.05 26.55L288.05 38.05Q288.05 38.80 288.55 39.30Q289.05 39.80 289.80 39.80L296.30 39.80L296.30 46.30ZM298.80 39.30Q308.95 40.05 314.80 40.05Q315.55 40.05 316.05 39.55Q316.55 39.05 316.55 38.30L316.55 36.55L305.80 36.55Q302.40 36.55 300.35 34.50Q298.30 32.45 298.30 29.05L298.30 27.30Q298.30 23.90 300.35 21.85Q302.40 19.80 305.80 19.80L322.80 19.80L322.80 26.30L308.80 26.30Q308.05 26.30 307.55 26.80Q307.05 27.30 307.05 28.05Q307.05 28.80 307.55 29.30Q308.05 29.80 308.80 29.80L317.80 29.80Q321.20 29.80 323.25 31.85Q325.30 33.90 325.30 37.30L325.30 39.30Q325.30 42.70 323.25 44.75Q321.20 46.80 317.80 46.80Q308.95 46.80 298.80 45.80L298.80 39.30ZM362.30 46.30Q357.45 46.80 352.80 46.80Q349.40 46.80 347.35 44.75Q345.30 42.70 345.30 39.30L345.30 26.55L342.30 26.55L342.30 19.80L345.30 19.80L346.30 13.80L354.05 13.80L354.05 19.80L360.30 19.80L360.30 26.55L354.05 26.55L354.05 38.05Q354.05 38.80 354.55 39.30Q355.05 39.80 355.80 39.80L362.30 39.80L362.30 46.30ZM374.55 20.30Q379.40 19.30 383.05 19.30L385.30 19.30Q388.70 19.30 390.75 21.35Q392.80 23.40 392.80 26.80L392.80 46.30L384.05 46.30L384.05 27.80Q384.05 27.05 383.55 26.55Q383.05 26.05 382.30 26.05L380.55 26.05Q378.65 26.05 377.07 26.25Q375.50 26.45 374.55 26.55L374.55 46.30L365.80 46.30L365.80 11.30L374.55 11.30L374.55 20.30ZM408.30 20.80L408.30 46.30L399.55 46.30L399.55 27.55L395.80 27.55L395.80 20.80L408.30 20.80M399.55 10.80L408.30 10.80L408.30 17.80L399.55 17.80L399.55 10.80ZM412.30 39.30Q422.45 40.05 428.30 40.05Q429.05 40.05 429.55 39.55Q430.05 39.05 430.05 38.30L430.05 36.55L419.30 36.55Q415.90 36.55 413.85 34.50Q411.80 32.45 411.80 29.05L411.80 27.30Q411.80 23.90 413.85 21.85Q415.90 19.80 419.30 19.80L436.30 19.80L436.30 26.30L422.30 26.30Q421.55 26.30 421.05 26.80Q420.55 27.30 420.55 28.05Q420.55 28.80 421.05 29.30Q421.55 29.80 422.30 29.80L431.30 29.80Q434.70 29.80 436.75 31.85Q438.80 33.90 438.80 37.30L438.80 39.30Q438.80 42.70 436.75 44.75Q434.70 46.80 431.30 46.80Q422.45 46.80 412.30 45.80L412.30 39.30ZM441.30 38.80L450.30 38.80L450.30 46.30L441.30 46.30L441.30 38.80ZM453.30 38.80L462.30 38.80L462.30 46.30L453.30 46.30L453.30 38.80ZM464.30 11.80Q473.95 10.80 482.30 10.80Q487.20 10.80 489.50 13.10Q491.80 15.40 491.80 20.30L491.80 22.55Q491.80 26.30 490.30 28.25Q488.80 30.25 485.05 31.55L480.05 33.30L480.05 35.80L471.05 35.80L471.05 28.80L482.80 24.55L482.80 20.30Q482.80 19.15 482.13 18.48Q481.45 17.80 479.80 17.80Q476.80 17.80 472.03 18.10Q467.25 18.40 464.30 18.55L464.30 11.80M471.05 38.80L480.05 38.80L480.05 46.30L471.05 46.30L471.05 38.80Z" style="fill: rgb(200, 200, 200);"></path>
    </g>
  </g>
</svg>