<svg version="1.1" xmlns="http://www.w3.org/2000/svg" viewBox="0 0 48 32" xmlns:bx="https://boxy-svg.com">
  <rect width="48" height="32" style=""></rect>
  <ellipse style="fill: rgb(255, 255, 0);" cx="10" cy="12" rx="6" ry="6"></ellipse>
  <path d="M 31.218 8.104 C 31.166 8.038 31.088 8 31.006 8 L 28.178 8 C 28.048 8 27.936 8.092 27.912 8.218 L 26.82 13.772 L 25.284 8.198 C 25.274 8.166 25.258 8.136 25.238 8.11 C 25.238 8.11 25.238 8.106 25.236 8.104 C 25.232 8.1 25.226 8.1 25.222 8.094 C 25.204 8.072 25.18 8.054 25.154 8.038 C 25.146 8.034 25.138 8.028 25.128 8.026 C 25.096 8.01 25.06 8 25.02 8 L 22.978 8 C 22.94 8 22.904 8.01 22.87 8.026 C 22.862 8.03 22.854 8.034 22.844 8.038 C 22.818 8.054 22.796 8.072 22.776 8.094 C 22.772 8.1 22.768 8.1 22.764 8.104 C 22.762 8.108 22.762 8.11 22.76 8.11 C 22.74 8.136 22.724 8.166 22.716 8.198 L 21.182 13.772 L 20.088 8.218 C 20.062 8.092 19.952 8 19.822 8 L 16.996 8 C 16.912 8 16.832 8.038 16.782 8.104 C 16.73 8.168 16.712 8.256 16.732 8.336 L 19.558 19.792 C 19.56 19.796 19.564 19.8 19.564 19.804 C 19.57 19.826 19.578 19.844 19.59 19.864 C 19.592 19.87 19.596 19.876 19.6 19.882 C 19.602 19.884 19.604 19.888 19.606 19.892 C 19.62 19.91 19.636 19.924 19.654 19.94 C 19.656 19.942 19.66 19.942 19.662 19.946 C 19.68 19.958 19.702 19.97 19.722 19.978 C 19.728 19.98 19.736 19.982 19.742 19.986 C 19.768 19.994 19.794 19.998 19.822 19.998 L 22.078 19.998 C 22.116 19.998 22.15 19.99 22.184 19.974 C 22.192 19.97 22.2 19.966 22.21 19.962 C 22.232 19.948 22.254 19.932 22.272 19.912 C 22.276 19.906 22.284 19.904 22.288 19.9 C 22.29 19.896 22.29 19.892 22.292 19.89 C 22.314 19.86 22.332 19.83 22.34 19.794 L 24 13.34 L 25.66 19.796 C 25.668 19.832 25.686 19.862 25.708 19.89 C 25.71 19.894 25.71 19.898 25.714 19.9 C 25.716 19.906 25.724 19.908 25.728 19.912 C 25.746 19.932 25.766 19.948 25.79 19.962 C 25.8 19.966 25.808 19.972 25.816 19.976 C 25.85 19.99 25.884 20 25.922 20 L 28.178 20 C 28.206 20 28.232 19.994 28.258 19.986 C 28.264 19.984 28.27 19.982 28.278 19.98 C 28.298 19.972 28.32 19.96 28.338 19.946 C 28.342 19.944 28.344 19.942 28.348 19.94 C 28.364 19.926 28.38 19.912 28.394 19.892 C 28.396 19.89 28.398 19.886 28.402 19.882 C 28.404 19.876 28.408 19.872 28.412 19.866 C 28.422 19.846 28.432 19.826 28.438 19.804 C 28.44 19.802 28.442 19.798 28.442 19.794 L 31.27 8.336 C 31.288 8.256 31.27 8.168 31.218 8.104 Z" style="stroke-width: 1; fill: rgb(255, 255, 0);"></path>
  <ellipse style="fill: rgb(255, 255, 0);" cx="38" cy="12" rx="6" ry="6"></ellipse>
  <rect width="48" height="16" style="" y="16"></rect>
  <path d="M -1 16 L 49 16 M -1.641 16.128 L 49.641 16.128 M -2.316 16.263 L 50.316 16.263 M -3.027 16.405 L 51.027 16.405 M -3.778 16.556 L 51.778 16.556 M -4.571 16.714 L 52.571 16.714 M -5.412 16.882 L 53.412 16.882 M -6.303 17.061 L 54.303 17.061 M -7.25 17.25 L 55.25 17.25 M -8.258 17.452 L 56.258 17.452 M -9.333 17.667 L 57.333 17.667 M -10.483 17.897 L 58.483 17.897 M -11.714 18.143 L 59.714 18.143 M -13.037 18.407 L 61.037 18.407 M -14.462 18.692 L 62.462 18.692 M -16 19 L 64 19 M -17.667 19.333 L 65.667 19.333 M -19.478 19.696 L 67.478 19.696 M -21.455 20.091 L 69.455 20.091 M -23.619 20.524 L 71.619 20.524 M -26 21 L 74 21 M -28.632 21.526 L 76.632 21.526 M -31.556 22.111 L 79.556 22.111 M -34.824 22.765 L 82.824 22.765 M -38.5 23.5 L 86.5 23.5 M -42.667 24.333 L 90.667 24.333 M -47.429 25.286 L 95.429 25.286 M -52.923 26.385 L 100.923 26.385 M -59.333 27.667 L 107.333 27.667 M -66.909 29.182 L 114.909 29.182 M -76 31 L 124 31 M -87.111 33.222 L 135.111 33.222 M -101 36 L 149 36 M -118.86 39.571 L 166.857 39.571 M -142.67 44.333 L 190.667 44.333 M -176 51 L 224 51 M -226 61 L 274 61 M -309.33 77.667 L 357.333 77.667 M -476 111 L 524 111 M -976 211 L 1024 211 M -1 16 L -976 211 M 1.5 16 L -876 211 M 4 16 L -776 211 M 6.5 16 L -676 211 M 9 16 L -576 211 M 11.5 16 L -476 211 M 14 16 L -376 211 M 16.5 16 L -276 211 M 19 16 L -176 211 M 21.5 16 L -76 211 M 24 16 L 24 211 M 26.5 16 L 124 211 M 29 16 L 224 211 M 31.5 16 L 324 211 M 34 16 L 424 211 M 36.5 16 L 524 211 M 39 16 L 624 211 M 41.5 16 L 724 211 M 44 16 L 824 211 M 46.5 16 L 924 211 M 49 16 L 1024 211" stroke="magenta" stroke-width="0.1" stroke-linecap="round" stroke-linejoin="round" fill="none"></path>
</svg>