<svg viewBox="0,0,720,540" height="540" width="720" xmlns="http://www.w3.org/2000/svg" version="1.1">
  <defs>
    <clipPath id="clip-3">
      <path fill="none" d="M165.082,100.20385h140.13375v141.5575h-140.13375z"></path>
    </clipPath>
    <clipPath id="clip-4">
      <path fill="none" d="M305.21575,170.98385c0,39.09 -31.37,70.7775 -70.065,70.7775c-38.6975,0 -70.06875,-31.6875 -70.06875,-70.7775c0,-39.0925 31.37125,-70.78 70.06875,-70.78c38.695,0 70.065,31.6875 70.065,70.78"></path>
    </clipPath>
    <radialGradient id="color-1" gradientUnits="userSpaceOnUse" r="70.06109" cy="170.9826" cx="235.147">
      <stop stop-color="#868484" offset="0"></stop>
      <stop stop-color="#bdbcbc" offset="0.926"></stop>
      <stop stop-color="#bdbcbc" offset="0.926"></stop>
      <stop stop-color="#ffffff" offset="1"></stop>
    </radialGradient>
    <linearGradient id="color-2" gradientUnits="userSpaceOnUse" y2="235.24449" x2="238.46825" y1="100.2426" x1="238.46825">
      <stop stop-color="#f4f4f4" offset="0"></stop>
      <stop stop-color="#d3d2d2" offset="1"></stop>
    </linearGradient>
    <linearGradient id="color-3" gradientUnits="userSpaceOnUse" y2="233.00449" x2="238.46825" y1="102.45885" x1="238.46825">
      <stop stop-color="#c8c7c7" offset="0"></stop>
      <stop stop-color="#ffffff" offset="0.955"></stop>
      <stop stop-color="#ffffff" offset="1"></stop>
    </linearGradient>
    <clipPath id="clip-9">
      <path fill="none" d="M290.73575,108.24385h50.84625v51.36125h-50.84625z"></path>
    </clipPath>
    <radialGradient id="color-4" gradientUnits="userSpaceOnUse" r="25.4209" cy="133.92385" cx="316.1595">
      <stop stop-color="#868484" offset="0"></stop>
      <stop stop-color="#bdbcbc" offset="0.926"></stop>
      <stop stop-color="#bdbcbc" offset="0.926"></stop>
      <stop stop-color="#ffffff" offset="1"></stop>
    </radialGradient>
    <linearGradient id="color-5" gradientUnits="userSpaceOnUse" y2="155.73285" x2="317.40075" y1="104.4726" x1="317.40075">
      <stop stop-color="#ffffff" offset="0"></stop>
      <stop stop-color="#deddde" offset="1"></stop>
    </linearGradient>
    <linearGradient id="color-6" gradientUnits="userSpaceOnUse" y2="107.71749" x2="317.40075" y1="152.50135" x1="317.40075">
      <stop stop-color="#ffffff" offset="0"></stop>
      <stop stop-color="#c8c7c7" offset="1"></stop>
    </linearGradient>
    <linearGradient id="color-7" gradientUnits="userSpaceOnUse" y2="204.89558" x2="273.78211" y1="178.14522" x1="245.78163">
      <stop stop-color="#9d79c3" offset="0"></stop>
      <stop stop-color="#503685" offset="1"></stop>
    </linearGradient>
    <linearGradient id="color-8" gradientUnits="userSpaceOnUse" y2="131.07353" x2="276.22918" y1="167.57387" x1="246.22933">
      <stop stop-color="#e1a374" offset="0"></stop>
      <stop stop-color="#d45914" offset="0.755"></stop>
      <stop stop-color="#d45914" offset="1"></stop>
    </linearGradient>
    <linearGradient id="color-9" gradientUnits="userSpaceOnUse" y2="129.14522" x2="203.16537" y1="156.14566" x1="233.35312">
      <stop stop-color="#f35b9d" offset="0"></stop>
      <stop stop-color="#e41d25" offset="0.712"></stop>
      <stop stop-color="#d01a21" offset="0.995"></stop>
      <stop stop-color="#d01a21" offset="1"></stop>
    </linearGradient>
    <clipPath id="clip-10">
      <path fill="none" d="M-137.653,-177.1449h765v990h-765z"></path>
    </clipPath>
    <linearGradient id="color-10" gradientUnits="userSpaceOnUse" y2="120.78367" x2="324.55137" y1="150.08167" x1="301.72954">
      <stop stop-color="#82bae7" offset="0"></stop>
      <stop stop-color="#4c83cc" offset="1"></stop>
    </linearGradient>
    <linearGradient id="color-11" gradientUnits="userSpaceOnUse" y2="203.67129" x2="200.52318" y1="168.04624" x1="233.33607">
      <stop stop-color="#b3db18" offset="0"></stop>
      <stop stop-color="#28ab43" offset="1"></stop>
    </linearGradient>
  </defs>
  <g transform="translate(120,90)">
    <g stroke-miterlimit="10" stroke="none" clip-path="">
      <g stroke-width="1" clip-path="">
        <path fill="#b3db18" d="M322.962,278.3801h-157.17375c-13.25375,0 -24.0375,-10.78375 -24.0375,-24.04v-139.92875c0,-13.25375 10.78375,-24.0375 24.0375,-24.0375h157.17375c13.255,0 24.03875,10.78375 24.03875,24.0375v139.92875c0,13.25625 -10.78375,24.04 -24.03875,24.04"></path>
        <path fill="#ffffff" d="M322.962,89.74885c13.6,0 24.6625,11.06375 24.6625,24.6625v139.92875c0,13.59875 -11.0625,24.6625 -24.6625,24.6625h-157.17375c-13.6,0 -24.66375,-11.06375 -24.66375,-24.6625v-139.92875c0,-13.59875 11.06375,-24.6625 24.66375,-24.6625h157.17375M165.78825,90.99885c-12.8775,0 -23.41375,10.53625 -23.41375,23.4125v139.92875c0,12.8775 10.53625,23.4125 23.41375,23.4125h157.17375c12.8775,0 23.4125,-10.535 23.4125,-23.4125v-139.92875c0,-12.87625 -10.535,-23.4125 -23.4125,-23.4125z"></path>
      </g>
      <g stroke-width="1" clip-path="">
        <g clip-path="url(#clip-3)">
          <g clip-path="url(#clip-4)">
            <path fill="url(#color-1)" d="M305.21575,170.98385c0,39.09 -31.37,70.7775 -70.065,70.7775c-38.6975,0 -70.06875,-31.6875 -70.06875,-70.7775c0,-39.0925 31.37125,-70.78 70.06875,-70.78c38.695,0 70.065,31.6875 70.065,70.78"></path>
          </g>
        </g>
      </g>
      <g stroke-width="1" clip-path="">
        <path fill="url(#color-2)" d="M170.312,167.42135c0,-37.64125 30.515,-68.15625 68.15625,-68.15625c37.64125,0 68.15625,30.515 68.15625,68.15625c0,37.64125 -30.515,68.15625 -68.15625,68.15625c-37.64125,0 -68.15625,-30.515 -68.15625,-68.15625"></path>
      </g>
      <g stroke-width="1" clip-path="">
        <path fill="url(#color-3)" d="M172.562,167.42135c0,-36.4 29.50625,-65.9075 65.90625,-65.9075c36.39875,0 65.90625,29.5075 65.90625,65.9075c0,36.39875 -29.5075,65.90625 -65.90625,65.90625c-36.4,0 -65.90625,-29.5075 -65.90625,-65.90625"></path>
      </g>
      <g stroke-width="1" clip-path="">
        <path fill="#ffffff" d="M161.657,154.0076c-1.5625,1.35625 -1.07125,5.63875 -1.07125,8.745c0,3.1775 2.08125,43.975 2.0325,44.66c-0.1875,4.05375 -1.8625,5.39375 -3.91125,5.56125v0.00375l-0.015,-0.00125l-0.01375,0.00125v-0.00375c-2.04875,-0.1675 -3.72375,-1.5075 -3.91125,-5.56125c-0.04875,-0.685 2.03125,-41.4825 2.03125,-44.66c0,-3.10625 0.4925,-7.38875 -1.07,-8.745c0,0 -3.7625,-3.67625 -3.8225,-7.775c-0.05875,-4.1 1.94625,-24.49625 1.94625,-24.49625h0.0025c0.015,-0.28375 0.20875,-0.51125 0.44875,-0.51125c0.23875,0 0.4325,0.2275 0.4475,0.51125l0.25375,20.74875c0,0.33375 0.2375,0.6025 0.53125,0.605h0.3725c0.295,-0.0025 0.5325,-0.27125 0.5325,-0.605l0.25,-20.71v-0.01375l0.00125,-0.025h0.00125c0.00918,-0.27992 0.23502,-0.50411 0.515,-0.51125c0.28019,0.0071 0.50643,0.23114 0.51625,0.51125l0.24875,20.74875c0,0.33375 0.23875,0.6025 0.5325,0.605h0.3725c0.295,-0.0025 0.53125,-0.27125 0.53125,-0.605l0.2525,-20.74875h0.00125c0.00914,-0.27944 0.23426,-0.50347 0.51375,-0.51125c0.27948,0.00778 0.50461,0.23181 0.51375,0.51125l0.2525,20.74875c0,0.33375 0.23875,0.6025 0.5325,0.605h0.37125c0.295,-0.0025 0.53375,-0.27125 0.53375,-0.605l0.24625,-20.7025c0,-0.3 0.20375,-0.54375 0.45625,-0.54375c0.25,0 0.455,0.24375 0.455,0.54375c0,0.00375 1.9975,20.4625 1.94125,24.45c-0.05875,4.09875 -3.8225,7.775 -3.8225,7.775"></path>
      </g>
      <g stroke-width="1" clip-path="">
        <g clip-path="url(#clip-9)">
          <path fill="url(#color-4)" d="M341.582,133.9251c0,14.18375 -11.385,25.68 -25.42375,25.68c-14.04125,0 -25.4225,-11.49625 -25.4225,-25.68c0,-14.1825 11.38125,-25.68125 25.4225,-25.68125c14.03875,0 25.42375,11.4975 25.42375,25.68125"></path>
        </g>
      </g>
      <path stroke-width="1" fill="url(#color-5)" d="M291.392,129.95885c0,-14.36375 11.64375,-26.00875 26.01,-26.00875c14.36625,0 26.01,11.645 26.01,26.00875c0,14.36625 -11.64375,26.01125 -26.01,26.01125c-14.365,0 -26.01,-11.645 -26.01,-26.01125"></path>
      <path stroke-width="1" fill="url(#color-6)" d="M293.92075,129.95885c0,-12.96625 10.51,-23.47875 23.48,-23.47875c12.97,0 23.48125,10.5125 23.48125,23.47875c0,12.97 -10.51125,23.48125 -23.48125,23.48125c-12.96875,0 -23.48,-10.51125 -23.48,-23.48125"></path>
      <path stroke-width="1" fill="#ffffff" d="M152.922,253.59135v-0.03875c0,-3.80875 2.8475,-6.96375 6.81,-6.96375c2.44375,0 3.905,0.86625 5.25125,2.135l-1.0375,1.11625c-1.135,-1.0775 -2.405,-1.84625 -4.2325,-1.84625c-2.9825,0 -5.21375,2.42375 -5.21375,5.52v0.03875c0,3.11625 2.25125,5.56 5.21375,5.56c1.84625,0 3.0575,-0.71125 4.3475,-1.94375l1,0.98125c-1.40375,1.42375 -2.94375,2.36625 -5.38625,2.36625c-3.88625,0 -6.7525,-3.0575 -6.7525,-6.925"></path>
      <path stroke-width="1" fill="#ffffff" d="M166.502,246.2426h1.48125v5.82875c0.65375,-1.07625 1.6925,-1.9425 3.405,-1.9425c2.405,0 3.80875,1.615 3.80875,3.9825v6.17375h-1.48125v-5.80875c0,-1.84625 -1,-3 -2.75125,-3c-1.71125,0 -2.98125,1.25 -2.98125,3.11625v5.6925h-1.48125z"></path>
      <path stroke-width="1" fill="#ffffff" d="M185.142,255.36135v-0.0375c0,-2.13625 -1.59625,-3.8875 -3.69375,-3.8875c-2.155,0 -3.635,1.75125 -3.635,3.8475v0.04c0,2.135 1.57625,3.86625 3.67375,3.86625c2.155,0 3.655,-1.73125 3.655,-3.82875M176.29325,255.36135v-0.0375c0,-2.80875 2.1925,-5.195 5.19375,-5.195c2.98125,0 5.175,2.34625 5.175,5.155v0.04c0,2.80875 -2.2125,5.1925 -5.21375,5.1925c-2.98125,0 -5.155,-2.34625 -5.155,-5.155"></path>
      <path stroke-width="1" fill="#ffffff" d="M196.12575,255.36135v-0.0375c0,-2.13625 -1.59625,-3.8875 -3.69375,-3.8875c-2.155,0 -3.635,1.75125 -3.635,3.8475v0.04c0,2.135 1.57625,3.86625 3.67375,3.86625c2.155,0 3.655,-1.73125 3.655,-3.82875M187.277,255.36135v-0.0375c0,-2.80875 2.1925,-5.195 5.19375,-5.195c2.98125,0 5.175,2.34625 5.175,5.155v0.04c0,2.80875 -2.2125,5.1925 -5.21375,5.1925c-2.98125,0 -5.155,-2.34625 -5.155,-5.155"></path>
      <path stroke-width="1" fill="#ffffff" d="M198.0495,259.0176l0.75,-1.05875c1.0775,0.8075 2.27,1.27 3.44375,1.27c1.1925,0 2.0575,-0.61625 2.0575,-1.5775v-0.03875c0,-0.99875 -1.1725,-1.385 -2.48,-1.75c-1.55875,-0.4425 -3.29,-0.98125 -3.29,-2.80875v-0.03875c0,-1.71125 1.4225,-2.8475 3.385,-2.8475c1.2125,0 2.55875,0.42375 3.57875,1.0975l-0.67375,1.115c-0.92375,-0.59625 -1.98125,-0.96125 -2.9425,-0.96125c-1.17375,0 -1.925,0.615 -1.925,1.4425v0.03875c0,0.9425 1.23125,1.3075 2.55875,1.7125c1.54,0.46125 3.19375,1.0575 3.19375,2.84625v0.03875c0,1.885 -1.55875,2.98125 -3.54,2.98125c-1.42375,0 -3,-0.5575 -4.11625,-1.46125"></path>
      <path stroke-width="1" fill="#ffffff" d="M214.30325,254.72635c-0.17375,-1.8075 -1.2125,-3.3475 -3.175,-3.3475c-1.71125,0 -3.02,1.42375 -3.23125,3.3475zM211.39825,259.22885c1.36625,0 2.3275,-0.55875 3.13625,-1.405l0.9225,0.8275c-1,1.115 -2.2125,1.865 -4.0975,1.865c-2.7325,0 -4.9625,-2.09625 -4.9625,-5.1925c0,-2.88625 2.01875,-5.195 4.77,-5.195c2.94375,0 4.63625,2.34625 4.63625,5.27125c0,0.13375 0,0.28875 -0.01875,0.51875h-7.8875c0.21125,2.0975 1.75,3.31 3.50125,3.31"></path>
      <path stroke-width="1" fill="#231f20" d="M217.13075,246.8201h4.69375l2.885,4.7325l2.88625,-4.7325h4.69375v13.465h-4.4825v-6.67375l-3.0975,4.79h-0.07625l-3.0975,-4.79v6.67375h-4.405z"></path>
      <path stroke-width="1" fill="#231f20" d="M233.327,262.3251l1.27,-2.9825c0.7875,0.4425 1.51875,0.69375 1.92375,0.69375c0.25,0 0.48,-0.03875 0.71125,-0.15375l-4.11625,-10.1h4.52l1.8275,5.54l1.67375,-5.54h4.445l-3.63625,9.7725c-1.02,2.75 -2.135,3.86625 -4.56,3.86625c-1.52,0 -2.88625,-0.4425 -4.05875,-1.09625"></path>
      <path stroke-width="1" fill="#231f20" d="M252.082,253.4176c1.155,0 1.92375,-0.51875 1.92375,-1.48125v-0.03875c0,-0.98 -0.71125,-1.48 -1.90375,-1.48h-1.2325v3zM246.3695,246.8201h6.05875c3.57875,0 6.0225,1.59625 6.0225,4.79v0.0375c0,3.2525 -2.48375,4.9825 -6.11875,4.9825h-1.4625v3.655h-4.5z"></path>
      <path stroke-width="1" fill="#231f20" d="M259.3345,246.2426h4.36625v14.0425h-4.36625z"></path>
      <path stroke-width="1" fill="#231f20" d="M271.1645,256.4001v-0.4425c-0.25,-0.09625 -0.635,-0.1725 -1,-0.1725c-0.86625,0 -1.3475,0.51875 -1.3475,1.1725v0.04c0,0.615 0.44375,1.01875 1.00125,1.01875c0.76875,0 1.34625,-0.61625 1.34625,-1.61625M264.64325,257.3051v-0.03875c0,-2.09625 1.5575,-3.27125 4,-3.27125c0.88625,0 2.02125,0.1925 2.48375,0.385v-0.17375c0,-0.96125 -0.5975,-1.52 -1.94375,-1.52c-1.07625,0 -1.98125,0.2325 -2.905,0.5975l-0.76875,-2.905c1.21,-0.4625 2.5975,-0.77 4.42375,-0.77c2.13625,0 3.52,0.4425 4.44375,1.36625c0.78875,0.78875 1.09625,1.80875 1.09625,3.32875v5.98125h-4.36625v-1.05625c-0.73125,0.78875 -1.7125,1.3075 -3.02,1.3075c-2.02,0 -3.44375,-1.15375 -3.44375,-3.23125"></path>
      <path stroke-width="1" fill="#231f20" d="M277.41825,256.76635v-3.6175h-1.23125v-3.36625h1.23125v-2.635h4.3675v2.635h2.42375v3.36625h-2.42375v2.65375c0,0.79 0.365,1.07875 1.0575,1.07875c0.40375,0 0.865,-0.115 1.3275,-0.3275v3.36625c-0.6925,0.365 -1.73125,0.59625 -2.79,0.59625c-2.5775,0 -3.9625,-1.1925 -3.9625,-3.75"></path>
      <path stroke-width="1" fill="#231f20" d="M291.462,254.1301c-0.09625,-1 -0.6925,-1.5775 -1.46125,-1.5775c-0.73125,0 -1.25125,0.61625 -1.385,1.5775zM284.57575,255.09385v-0.04c0,-3.13625 2.25,-5.52125 5.405,-5.52125c3.7325,0 5.465,2.5975 5.465,5.79125c0,0.23125 0,0.5 -0.02,0.73125h-6.7525c0.3075,0.9225 1.03875,1.40375 1.98125,1.40375c0.78875,0 1.44375,-0.36625 2.13625,-1.0775l2.34625,1.86625c-1.04,1.34625 -2.52,2.28875 -4.79125,2.28875c-3.4425,0 -5.77,-2.1725 -5.77,-5.4425"></path>
      <path stroke-width="1" fill="#ffffff" d="M297.232,258.26635h1.77v2.02h-1.77z"></path>
      <path stroke-width="1" fill="#ffffff" d="M308.52325,254.8426v-0.03875c0,-2.04 -1.77,-3.36625 -3.655,-3.36625c-1.885,0 -3.44375,1.30875 -3.44375,3.3475v0.03875c0,2 1.5975,3.38625 3.44375,3.38625c1.885,0 3.655,-1.36625 3.655,-3.3675M300.367,262.01885l0.67375,-1.155c1.135,0.8275 2.40375,1.27 3.8275,1.27c2.1925,0 3.6175,-1.2125 3.6175,-3.54v-1.1725c-0.86625,1.15375 -2.0775,2.09625 -3.905,2.09625c-2.38625,0 -4.67625,-1.78875 -4.67625,-4.65625v-0.0375c0,-2.905 2.31,-4.695 4.67625,-4.695c1.865,0 3.0775,0.92375 3.885,2.0025v-1.79h1.48125v8.21375c0,1.54 -0.46125,2.7125 -1.27,3.52125c-0.88375,0.885 -2.21125,1.32625 -3.78875,1.32625c-1.65375,0 -3.19375,-0.46125 -4.52125,-1.38375"></path>
      <path stroke-width="1" fill="#ffffff" d="M320.047,255.36135v-0.0375c0,-2.13625 -1.59625,-3.8875 -3.69375,-3.8875c-2.155,0 -3.63625,1.75125 -3.63625,3.8475v0.04c0,2.135 1.57625,3.86625 3.67375,3.86625c2.155,0 3.65625,-1.73125 3.65625,-3.82875M311.197,255.36135v-0.0375c0,-2.80875 2.1925,-5.195 5.19375,-5.195c2.9825,0 5.175,2.34625 5.175,5.155v0.04c0,2.80875 -2.2125,5.1925 -5.2125,5.1925c-2.9825,0 -5.15625,-2.34625 -5.15625,-5.155"></path>
      <path stroke-width="1" fill="#ffffff" d="M321.237,250.3401h1.63625l3.34625,8.25375l3.3675,-8.25375h1.59625l-4.32875,10.0225h-1.3075z"></path>
      <g stroke-width="1">
        <path fill="#3f2a66" d="M295.54575,173.8051c-0.1705,1.50809 -0.39817,3.00917 -0.6825,4.5c-4.67625,24.3625 -24.75625,43.24125 -49.71375,46.11125c-1.49501,0.17301 -2.99612,0.28851 -4.5,0.34625v-50.9575z"></path>
        <path fill="#9d79c3" d="M293.507,176.0576c-0.11667,0.755 -0.24959,1.505 -0.39875,2.25c-4.6375,23.40875 -23.95375,41.53125 -47.95875,44.37875c-0.74583,0.09 -1.49583,0.16416 -2.25,0.2225v-46.85125z"></path>
        <path fill="url(#color-7)" d="M290.18825,178.30885c-4.57125,21.82 -22.61625,38.685 -45.035,41.49125v-41.49125z"></path>
        <path fill="#ffffff" d="M251.9145,189.5301c0.69375,0 1.0875,-0.44875 1.0875,-1.14375c0,-0.68375 -0.39375,-1.12375 -1.0675,-1.12375h-1.00375v2.2675zM249.702,187.2626h-0.60875v-1.04h3.04625c1.2475,0 2.11875,0.87125 2.11875,2.16375c0,1.2925 -0.87125,2.19375 -2.11875,2.19375h-1.20875v2.29625h-1.22875z"></path>
        <path fill="#ffffff" d="M255.22575,189.3151c0,-0.14125 -0.07625,-0.20625 -0.20625,-0.20625h-0.375v-1.0125h1.08625c0.4225,0 0.6375,0.1775 0.6375,0.58125v0.28125c0,0.1775 -0.01875,0.3 -0.01875,0.3h0.01875c0.21625,-0.685 0.78875,-1.2275 1.51875,-1.2275c0.1025,0 0.21625,0.0175 0.21625,0.0175v1.1725c0,0 -0.1225,-0.01875 -0.29125,-0.01875c-0.50625,0 -1.0875,0.29 -1.3025,1.0025c-0.06994,0.25321 -0.10485,0.51481 -0.10375,0.7775v1.89375h-1.18z"></path>
        <path fill="#ffffff" d="M261.04575,191.97635c0.77875,0 1.42625,-0.59875 1.42625,-1.49c0,-0.88 -0.6475,-1.49 -1.42625,-1.49c-0.7675,0 -1.415,0.61 -1.415,1.49c0,0.89125 0.6475,1.49 1.415,1.49M261.04575,187.98385c1.4625,0 2.625,1.04125 2.625,2.5025c0,1.47125 -1.1625,2.5025 -2.625,2.5025c-1.4525,0 -2.615,-1.03125 -2.615,-2.5025c0,-1.46125 1.1625,-2.5025 2.615,-2.5025"></path>
        <path fill="#ffffff" d="M264.7695,189.0426h-0.61875v-0.94625h0.64625v-1.30375h1.1625v1.30375h1.0875v0.94625h-1.0875v1.93125c0,0.7875 0.61875,0.9 0.94625,0.9c0.13125,0 0.21625,-0.01875 0.21625,-0.01875v1.04c0,0 -0.15,0.0275 -0.365,0.0275c-0.66625,0 -1.9875,-0.19625 -1.9875,-1.79875z"></path>
        <path fill="#ffffff" d="M270.99325,189.8676c-0.01875,-0.5725 -0.4125,-0.965 -0.9,-0.965c-0.61,0 -1.04125,0.365 -1.17125,0.965zM270.09325,187.98385c1.3675,0 2.11875,1.0025 2.11875,2.2675c0,0.14125 -0.02875,0.44 -0.02875,0.44h-3.3c0.095,0.84375 0.7125,1.285 1.435,1.285c0.76875,0 1.34,-0.535 1.34,-0.535l0.49625,0.825c0,0 -0.73,0.7225 -1.92,0.7225c-1.585,0 -2.56875,-1.14375 -2.56875,-2.5025c0,-1.4725 0.99375,-2.5025 2.4275,-2.5025"></path>
        <path fill="#ffffff" d="M273.4595,186.22135h1.03125v1.09625h-1.03125zM273.40325,189.3151c0,-0.14125 -0.075,-0.20625 -0.20625,-0.20625h-0.375v-1.0125h1.13375c0.44125,0 0.6275,0.1975 0.6275,0.6375v2.93375c0,0.13 0.07625,0.20625 0.2075,0.20625h0.37375v1.0025h-1.13375c-0.44125,0 -0.6275,-0.1875 -0.6275,-0.6375z"></path>
        <path fill="#ffffff" d="M276.16825,189.3151c0,-0.14125 -0.075,-0.20625 -0.205,-0.20625h-0.37625v-1.0125h1.0975c0.42125,0 0.6275,0.1975 0.6275,0.53375v0.14125c0,0.1025 -0.01875,0.205 -0.01875,0.205h0.01875c0.32476,-0.62789 0.98091,-1.01381 1.6875,-0.9925c1.05875,0 1.66875,0.5525 1.66875,1.81875v1.865c0,0.13 0.07375,0.20625 0.20625,0.20625h0.37375v1.0025h-1.13375c-0.45,0 -0.6375,-0.1875 -0.6375,-0.6375v-2.19375c0,-0.58 -0.15,-0.97375 -0.75,-0.97375c-0.6375,0 -1.115,0.4025 -1.28375,0.97375c-0.06563,0.20643 -0.09729,0.42216 -0.09375,0.63875v2.1925h-1.18125z"></path>
      </g>
      <g stroke-width="1">
        <path fill="#a9460f" d="M296.15387,166.36073c0.00583,0.29166 0.00916,0.58334 0.01,0.875c0,0.46 -0.01125,0.9175 -0.0225,1.375c-0.0175,0.75333 -0.04917,1.50333 -0.095,2.25h-55.1325v-60.9575c1.50399,0.05731 3.00514,0.17365 4.5,0.34875c28.28125,3.2525 50.305,27.06 50.74,56.10875"></path>
        <path fill="#e1a374" d="M294.16825,166.5576c0.00583,0.29166 0.00916,0.58334 0.01,0.875c-0.00167,0.45917 -0.00959,0.9175 -0.02375,1.375h-51.255v-56.85125c0.75417,0.06 1.50417,0.135 2.25,0.225c27.32875,3.2425 48.585,26.2775 49.01875,54.37625"></path>
        <path fill="url(#color-8)" d="M245.15325,115.0701c25.74125,3.225 45.71875,24.97625 46.15,51.48875h-46.15z"></path>
        <path fill="#ffffff" d="M253.97575,144.2851c1.63125,0 2.4275,0.84375 2.4275,0.84375l-0.6925,0.88125c0,0 -0.69375,-0.59125 -1.70625,-0.59125c-1.1525,0 -2.1375,0.91 -2.1375,2.26c0,1.4525 0.99375,2.3425 2.185,2.3425c1.05875,0 1.68625,-0.69375 1.68625,-0.69375v-0.49625c0,-0.14125 -0.07375,-0.20625 -0.20625,-0.20625h-0.4025v-1.04h1.0775c0.45,0 0.6375,0.18625 0.6375,0.6275v2.84h-1.05v-0.31875c0,-0.14125 0.01,-0.28125 0.01,-0.28125h-0.02c0,0 -0.71125,0.7125 -1.9575,0.7125c-1.74375,0 -3.235,-1.33125 -3.235,-3.4775c0,-1.9125 1.45375,-3.4025 3.38375,-3.4025"></path>
        <path fill="#ffffff" d="M258.122,147.4901c0,-0.14 -0.07625,-0.20625 -0.2075,-0.20625h-0.375v-1.0125h1.0875c0.4225,0 0.6375,0.17875 0.6375,0.58125v0.28125c0,0.1775 -0.01875,0.3 -0.01875,0.3h0.01875c0.21625,-0.68375 0.7875,-1.2275 1.51875,-1.2275c0.1025,0 0.21625,0.01875 0.21625,0.01875v1.17125c0,0 -0.1225,-0.01875 -0.2925,-0.01875c-0.505,0 -1.08625,0.29125 -1.30125,1.0025c-0.07006,0.25361 -0.10496,0.51564 -0.10375,0.77875v1.89375h-1.18z"></path>
        <path fill="#ffffff" d="M263.1545,150.23635c0.63875,0 1.0875,-0.675 1.0875,-1.25625v-0.1125h-0.20625c-0.61875,0 -1.6025,0.085 -1.6025,0.75c0,0.31875 0.23375,0.61875 0.72125,0.61875M264.07325,148.0526h0.14875v-0.0375c0,-0.685 -0.27,-0.9375 -0.88,-0.9375c-0.215,0 -0.63625,0.05625 -0.63625,0.31875v0.2525h-1.10625v-0.50625c0,-0.89 1.25625,-0.98375 1.75125,-0.98375c1.595,0 2.06375,0.83375 2.06375,1.9025v1.78125c0,0.13125 0.07375,0.20625 0.205,0.20625h0.375v1.0025h-1.06875c-0.44,0 -0.6075,-0.24375 -0.6075,-0.525c0,-0.12125 0.00875,-0.20625 0.00875,-0.20625h-0.01875c0,0 -0.36625,0.84375 -1.44375,0.84375c-0.85375,0 -1.63,-0.535 -1.63,-1.49c0,-1.5 2.06,-1.62125 2.83875,-1.62125"></path>
        <path fill="#ffffff" d="M267.04575,144.39635h1.03125v1.09625h-1.03125zM266.9895,147.4901c0,-0.14 -0.07625,-0.20625 -0.20625,-0.20625h-0.375v-1.0125h1.13375c0.44125,0 0.6275,0.1975 0.6275,0.6375v2.93375c0,0.13125 0.07625,0.20625 0.20625,0.20625h0.375v1.00375h-1.13375c-0.44125,0 -0.6275,-0.18875 -0.6275,-0.63875z"></path>
        <path fill="#ffffff" d="M269.7545,147.4901c0,-0.14 -0.075,-0.20625 -0.20625,-0.20625h-0.375v-1.0125h1.09625c0.4225,0 0.62875,0.1975 0.62875,0.535v0.14c0,0.1025 -0.01875,0.20625 -0.01875,0.20625h0.01875c0.32476,-0.62789 0.98091,-1.01381 1.6875,-0.9925c1.05875,0 1.66875,0.5525 1.66875,1.8175v1.865c0,0.13125 0.07375,0.20625 0.205,0.20625h0.375v1.00375h-1.135c-0.44875,0 -0.6375,-0.18875 -0.6375,-0.63875v-2.1925c0,-0.58125 -0.14875,-0.975 -0.74875,-0.975c-0.6375,0 -1.115,0.4025 -1.28375,0.975c-0.0655,0.20604 -0.09716,0.42133 -0.09375,0.6375v2.19375h-1.18125z"></path>
        <path fill="#ffffff" d="M275.802,149.53385c0,0 0.60875,0.70375 1.425,0.70375c0.365,0 0.64625,-0.15125 0.64625,-0.46875c0,-0.67625 -2.52125,-0.66625 -2.52125,-2.2125c0,-0.95625 0.8625,-1.39625 1.85625,-1.39625c0.6475,0 1.6775,0.215 1.6775,0.9925v0.4975h-1.05v-0.235c0,-0.225 -0.3375,-0.3375 -0.60125,-0.3375c-0.42,0 -0.71125,0.15 -0.71125,0.43125c0,0.75 2.54,0.6 2.54,2.19375c0,0.89875 -0.79625,1.4625 -1.83625,1.4625c-1.3125,0 -1.9875,-0.85375 -1.9875,-0.85375z"></path>
      </g>
      <g stroke-width="1">
        <path fill="#a9151a" d="M235.65075,110.1351c0.74947,-0.03812 1.49962,-0.06187 2.25,-0.07125v50.40625h-56.32875c0.18375,-1.50906 0.42727,-3.01024 0.73,-4.5c4.98125,-24.5625 25.65125,-43.425 51.09875,-45.67875c0.74891,-0.06679 1.49905,-0.11888 2.25,-0.15625"></path>
        <path fill="#f35b9d" d="M233.3995,112.0201c0.74884,-0.06879 1.499,-0.12255 2.25,-0.16125v46.3625h-52.01625c0.12562,-0.75286 0.2669,-1.50302 0.42375,-2.25c4.9425,-23.61 24.8475,-41.71375 49.3425,-43.95125"></path>
        <path fill="url(#color-9)" d="M186.9945,155.97385c4.87625,-22.02 23.50125,-38.865 46.40875,-41.07375v41.07375h-46.40875"></path>
        <path fill="#ffffff" d="M201.04575,139.4501h-0.61v-1.04h3.79625c0.45,0 0.6375,0.19625 0.6375,0.6375v1.01125h-1.10625v-0.4025c0,-0.13125 -0.075,-0.20625 -0.20625,-0.20625h-1.28375v1.88375h2.1275v1.04125h-2.1275v2.68875h-1.2275z"></path>
        <path fill="#ffffff" d="M205.82575,141.50385c0,-0.14125 -0.075,-0.20625 -0.20625,-0.20625h-0.375v-1.0125h1.0875c0.42125,0 0.6375,0.1775 0.6375,0.58125v0.28125c0,0.1775 -0.01875,0.3 -0.01875,0.3h0.01875c0.215,-0.685 0.7875,-1.2275 1.51875,-1.2275c0.1025,0 0.215,0.0175 0.215,0.0175v1.1725c0,0 -0.12125,-0.01875 -0.29125,-0.01875c-0.505,0 -1.08625,0.29 -1.3025,1.0025c-0.06952,0.25327 -0.10401,0.51487 -0.1025,0.7775v1.89375h-1.18125z"></path>
        <path fill="#ffffff" d="M209.72575,141.50385c0,-0.14125 -0.075,-0.20625 -0.20625,-0.20625h-0.375v-1.0125h1.13375c0.44125,0 0.62875,0.1975 0.62875,0.6275v2.2025c0,0.58125 0.14875,0.975 0.74,0.975c0.8625,0 1.34,-0.75875 1.34,-1.6125v-2.1925h1.19125v3.57125c0,0.13 0.075,0.20625 0.20625,0.20625h0.37375v1.0025h-1.09625c-0.4125,0 -0.6275,-0.1975 -0.6275,-0.535v-0.13125c0,-0.11125 0.00875,-0.215 0.00875,-0.215h-0.0175c-0.22625,0.4975 -0.82625,0.99375 -1.65,0.99375c-1.0225,0 -1.65,-0.51625 -1.65,-1.81875z"></path>
        <path fill="#ffffff" d="M215.8195,138.4101h1.03125v1.09625h-1.03125zM215.76325,141.50385c0,-0.14125 -0.075,-0.20625 -0.20625,-0.20625h-0.37375v-1.0125h1.13375c0.44,0 0.6275,0.1975 0.6275,0.6375v2.93375c0,0.13 0.075,0.20625 0.20625,0.20625h0.375v1.0025h-1.135c-0.44,0 -0.6275,-0.1875 -0.6275,-0.6375z"></path>
        <path fill="#ffffff" d="M218.547,141.23135h-0.61875v-0.94625h0.64625v-1.30375h1.16375v1.30375h1.08625v0.94625h-1.08625v1.93125c0,0.7875 0.6175,0.9 0.945,0.9c0.13125,0 0.21625,-0.01875 0.21625,-0.01875v1.04c0,0 -0.15,0.0275 -0.36625,0.0275c-0.665,0 -1.98625,-0.19625 -1.98625,-1.79875z"></path>
        <path fill="#ffffff" d="M222.01575,143.54635c0,0 0.60875,0.7025 1.425,0.7025c0.36625,0 0.64625,-0.15 0.64625,-0.46875c0,-0.675 -2.52125,-0.665 -2.52125,-2.2125c0,-0.955 0.8625,-1.39625 1.85625,-1.39625c0.64625,0 1.6775,0.21625 1.6775,0.99375v0.4975h-1.05v-0.235c0,-0.225 -0.3375,-0.33625 -0.6,-0.33625c-0.42125,0 -0.7125,0.14875 -0.7125,0.43c0,0.75 2.54,0.6 2.54,2.19375c0,0.9 -0.79625,1.4625 -1.83625,1.4625c-1.3125,0 -1.9875,-0.8525 -1.9875,-0.8525z"></path>
      </g>
      <g stroke-width="1">
        <g clip-path="url(#clip-10)">
          <path fill="#3e6ba7" d="M338.587,129.9576c0,11.7 -9.485,21.18875 -21.18375,21.18875c-11.70125,0 -21.1875,-9.48875 -21.1875,-21.18875c0,-11.7 9.48625,-21.18375 21.1875,-21.18375c11.69875,0 21.18375,9.48375 21.18375,21.18375"></path>
          <path fill="#82bae7" d="M336.75575,129.9576c0,10.69 -8.66375,19.355 -19.3525,19.355c-10.68875,0 -19.355,-8.665 -19.355,-19.355c0,-10.69 8.66625,-19.3525 19.355,-19.3525c10.68875,0 19.3525,8.66375 19.3525,19.3525"></path>
        </g>
        <path fill="url(#color-10)" d="M300.417,129.9576c0,-9.38125 7.60375,-16.98375 16.98625,-16.98375c9.3775,0 16.9825,7.6025 16.9825,16.98375c0,9.38 -7.605,16.9875 -16.9825,16.9875c-9.3825,0 -16.98625,-7.6075 -16.98625,-16.9875"></path>
        <path fill="#ffffff" d="M307.51325,131.47135h0.6c1.33125,0 2.185,-0.79625 2.185,-2.29625c0,-1.48125 -0.8725,-2.2775 -2.185,-2.2775h-0.805v4.3675c0,0.13125 0.075,0.20625 0.205,0.20625M306.08075,126.8976h-0.61125v-1.04125h2.71c2.0525,0 3.3925,1.21875 3.3925,3.31875c0,2.1 -1.34,3.3375 -3.3925,3.3375h-1.4625c-0.45,0 -0.63625,-0.18875 -0.63625,-0.63875z"></path>
        <path fill="#ffffff" d="M314.132,131.69635c0.63875,0 1.0875,-0.675 1.0875,-1.25625v-0.1125h-0.20625c-0.6175,0 -1.60125,0.085 -1.60125,0.75c0,0.31875 0.2325,0.61875 0.72,0.61875M315.05075,129.5126h0.15v-0.0375c0,-0.685 -0.27125,-0.9375 -0.88125,-0.9375c-0.21375,0 -0.63625,0.05625 -0.63625,0.31875v0.2525h-1.10625v-0.50625c0,-0.89 1.25625,-0.98375 1.7525,-0.98375c1.59375,0 2.0625,0.83375 2.0625,1.9025v1.78125c0,0.13125 0.07375,0.20625 0.20625,0.20625h0.37375v1.0025h-1.0675c-0.44125,0 -0.61,-0.24375 -0.61,-0.525c0,-0.12125 0.01,-0.20625 0.01,-0.20625h-0.01875c0,0 -0.365,0.84375 -1.44375,0.84375c-0.8525,0 -1.63125,-0.535 -1.63125,-1.49c0,-1.5 2.0625,-1.62125 2.84,-1.62125"></path>
        <path fill="#ffffff" d="M318.02325,125.85635h1.03125v1.0975h-1.03125zM317.967,128.9501c0,-0.14 -0.075,-0.20625 -0.20625,-0.20625h-0.375v-1.0125h1.13375c0.44125,0 0.6275,0.1975 0.6275,0.6375v2.93375c0,0.13125 0.07625,0.20625 0.20625,0.20625h0.375v1.00375h-1.13375c-0.44,0 -0.6275,-0.18875 -0.6275,-0.63875z"></path>
        <path fill="#ffffff" d="M320.732,128.9501c0,-0.14 -0.075,-0.20625 -0.20625,-0.20625h-0.375v-1.0125h1.0875c0.4225,0 0.6375,0.17875 0.6375,0.58125v0.28125c0,0.1775 -0.01875,0.3 -0.01875,0.3h0.01875c0.215,-0.68375 0.7875,-1.2275 1.51875,-1.2275c0.1025,0 0.21625,0.01875 0.21625,0.01875v1.17125c0,0 -0.1225,-0.01875 -0.2925,-0.01875c-0.505,0 -1.08625,0.29125 -1.30125,1.0025c-0.07006,0.25361 -0.10496,0.51564 -0.10375,0.77875v1.89375h-1.18125z"></path>
        <path fill="#ffffff" d="M325.09075,133.4776c0.32875,0 0.61875,-0.1975 0.7875,-0.60875l0.16,-0.36625l-1.595,-3.59c-0.05625,-0.14 -0.12125,-0.16875 -0.2525,-0.16875h-0.14v-1.01125h0.7875c0.33625,0 0.50625,0.12125 0.62875,0.45l0.93625,2.38875c0.09375,0.245 0.17,0.63875 0.17,0.63875h0.0175c0,0 0.075,-0.39375 0.15875,-0.63875l0.815,-2.38875c0.11375,-0.32875 0.31,-0.45 0.6375,-0.45h0.8075v1.01125h-0.1425c-0.14,0 -0.21375,0.02875 -0.27,0.16875l-1.71625,4.32125c-0.3375,0.8625 -1.01125,1.24625 -1.72375,1.24625c-0.75,0 -1.20875,-0.48625 -1.20875,-0.48625l0.45875,-0.84375c0,0 0.29125,0.3275 0.68375,0.3275"></path>
      </g>
      <g stroke-width="1">
        <path fill="#168235" d="M237.8995,163.2226v61.57625c-1.50246,-0.01868 -3.00361,-0.09623 -4.5,-0.2325c-29.18875,-2.585 -52.0975,-27.0175 -52.24625,-56.84375c-0.00083,-0.0975 -0.00209,-0.19458 -0.00375,-0.29125c0.00113,-0.65309 0.01363,-1.3061 0.0375,-1.95875c0.02414,-0.75071 0.06331,-1.50086 0.1175,-2.25z"></path>
        <path fill="#b3db18" d="M235.65075,165.47385v57.53c-0.75097,-0.03976 -1.50111,-0.09394 -2.25,-0.1625c-28.2375,-2.58 -50.3775,-26.2425 -50.525,-55.1175c-0.00167,-0.09667 -0.00292,-0.19375 -0.00375,-0.29125c0.0006,-0.65309 0.0131,-1.30612 0.0375,-1.95875z"></path>
        <path fill="url(#color-11)" d="M233.40325,167.7251v52.2375c-26.65125,-2.57 -47.50875,-24.9475 -47.6575,-52.2375z"></path>
        <path fill="#ffffff" d="M188.347,179.1451c-0.05625,-0.16 -0.13125,-0.20625 -0.29,-0.20625h-0.16875v-1.04125h0.7775c0.46875,0 0.6375,0.1225 0.7875,0.54375l1.27375,3.7125c0.1325,0.375 0.2525,0.975 0.2525,0.975h0.02c0,0 0.12125,-0.6 0.2525,-0.975l1.275,-3.7125c0.15,-0.42125 0.31,-0.54375 0.77875,-0.54375h0.7875v1.04125h-0.17875c-0.16,0 -0.235,0.04625 -0.29,0.20625l-1.9875,5.4075h-1.29375z"></path>
        <path fill="#ffffff" d="M197.1395,181.54385c-0.01875,-0.57125 -0.4125,-0.965 -0.9,-0.965c-0.60875,0 -1.04,0.36625 -1.17125,0.965zM196.2395,179.6601c1.36875,0 2.11875,1.0025 2.11875,2.26875c0,0.14 -0.02875,0.44 -0.02875,0.44h-3.29875c0.09375,0.84375 0.7125,1.285 1.43375,1.285c0.76875,0 1.34125,-0.535 1.34125,-0.535l0.49625,0.825c0,0 -0.73125,0.72125 -1.92125,0.72125c-1.585,0 -2.56875,-1.14375 -2.56875,-2.5025c0,-1.47125 0.99375,-2.5025 2.4275,-2.5025"></path>
        <path fill="#ffffff" d="M202.362,182.0501c0,-1.0875 -0.54375,-1.37875 -1.19,-1.37875c-0.72125,0 -1.11625,0.525 -1.11625,1.33125c0,0.835 0.4225,1.45375 1.19,1.45375c0.5725,0 1.11625,-0.32875 1.11625,-1.40625M200.96575,179.6601c1.10625,0 1.47125,0.675 1.47125,0.675h0.01875v-0.1225c0,-0.215 0.15,-0.44 0.525,-0.44h1.10625v1.0125h-0.36625c-0.12125,0 -0.20625,0.065 -0.20625,0.1875v3.29c0,1.64 -1.275,2.2575 -2.52125,2.2575c-0.6,0 -1.23625,-0.16875 -1.69625,-0.41125l0.36625,-0.9375c0,0 0.58875,0.31875 1.32,0.31875c0.7225,0 1.35125,-0.31 1.35125,-1.1725v-0.22375c0,-0.1125 0.00875,-0.25375 0.00875,-0.25375h-0.01875c-0.28125,0.40375 -0.69375,0.61875 -1.33125,0.61875c-1.3675,0 -2.14625,-1.10625 -2.14625,-2.41875c0,-1.3125 0.74,-2.38 2.11875,-2.38"></path>
        <path fill="#ffffff" d="M207.7245,181.54385c-0.01875,-0.57125 -0.4125,-0.965 -0.9,-0.965c-0.61,0 -1.04,0.36625 -1.17125,0.965zM206.8245,179.6601c1.36875,0 2.11875,1.0025 2.11875,2.26875c0,0.14 -0.02875,0.44 -0.02875,0.44h-3.3c0.095,0.84375 0.71375,1.285 1.435,1.285c0.76875,0 1.34,-0.535 1.34,-0.535l0.4975,0.825c0,0 -0.73125,0.72125 -1.92125,0.72125c-1.585,0 -2.56875,-1.14375 -2.56875,-2.5025c0,-1.47125 0.99375,-2.5025 2.4275,-2.5025"></path>
        <path fill="#ffffff" d="M209.92825,180.71885h-0.61875v-0.94625h0.64625v-1.3025h1.1625v1.3025h1.0875v0.94625h-1.0875v1.93c0,0.7875 0.61875,0.90125 0.9475,0.90125c0.07208,-0.00004 0.14401,-0.00631 0.215,-0.01875v1.04c0,0 -0.15,0.0275 -0.365,0.0275c-0.665,0 -1.9875,-0.19625 -1.9875,-1.79875z"></path>
        <path fill="#ffffff" d="M214.61575,183.7376c0.6375,0 1.0875,-0.675 1.0875,-1.25625v-0.1125h-0.20625c-0.61875,0 -1.6025,0.085 -1.6025,0.75c0,0.31875 0.23375,0.61875 0.72125,0.61875M215.53325,181.55385h0.15v-0.0375c0,-0.68375 -0.27125,-0.9375 -0.88125,-0.9375c-0.21375,0 -0.63625,0.05625 -0.63625,0.31875v0.25375h-1.10625v-0.5075c0,-0.89 1.25625,-0.98375 1.7525,-0.98375c1.59375,0 2.0625,0.835 2.0625,1.90375v1.78c0,0.13125 0.075,0.20625 0.20625,0.20625h0.37375v1.0025h-1.0675c-0.44125,0 -0.60875,-0.24375 -0.60875,-0.525c0,-0.12125 0.01,-0.20625 0.01,-0.20625h-0.02c0,0 -0.365,0.84375 -1.4425,0.84375c-0.85375,0 -1.63125,-0.53375 -1.63125,-1.49c0,-1.49875 2.06125,-1.62125 2.83875,-1.62125"></path>
        <path fill="#ffffff" d="M220.5295,183.6626c0.6475,0 1.2,-0.53375 1.2,-1.48125c0,-0.90875 -0.4875,-1.49875 -1.19,-1.49875c-0.61875,0 -1.2,0.45 -1.2,1.50875c0,0.74125 0.39375,1.47125 1.19,1.47125M218.18575,179.1176c0,-0.14125 -0.07375,-0.20625 -0.20625,-0.20625h-0.37375v-1.0125h1.13375c0.44,0 0.6375,0.19625 0.6375,0.6375v1.38625c0.00101,0.13483 -0.00525,0.2696 -0.01875,0.40375h0.01875c0,0 0.4225,-0.66625 1.43375,-0.66625c1.29375,0 2.1175,1.0225 2.1175,2.5025c0,1.51875 -0.9275,2.5025 -2.1925,2.5025c-0.99375,0 -1.425,-0.675 -1.425,-0.675h-0.01875c0,0 0.01875,0.1325 0.01875,0.31875v0.24375h-1.125z"></path>
        <path fill="#ffffff" d="M223.727,179.1176c0,-0.14125 -0.075,-0.20625 -0.20625,-0.20625h-0.375v-1.0125h1.13375c0.44125,0 0.6375,0.1975 0.6375,0.6375v4.8075c0,0.13125 0.07625,0.20625 0.20625,0.20625h0.36625v1.00375h-1.125c-0.45,0 -0.6375,-0.1875 -0.6375,-0.6375z"></path>
        <path fill="#ffffff" d="M229.14575,181.54385c-0.01875,-0.57125 -0.4125,-0.965 -0.9,-0.965c-0.61,0 -1.04,0.36625 -1.17125,0.965zM228.24575,179.6601c1.36875,0 2.11875,1.0025 2.11875,2.26875c0,0.14 -0.02875,0.44 -0.02875,0.44h-3.29875c0.09375,0.84375 0.71125,1.285 1.43375,1.285c0.76875,0 1.34,-0.535 1.34,-0.535l0.49625,0.825c0,0 -0.73,0.72125 -1.92,0.72125c-1.585,0 -2.56875,-1.14375 -2.56875,-2.5025c0,-1.47125 0.99375,-2.5025 2.4275,-2.5025"></path>
        <path fill="#ffffff" d="M231.3495,183.0351c0,0 0.61,0.70375 1.425,0.70375c0.365,0 0.64625,-0.15125 0.64625,-0.46875c0,-0.67625 -2.52125,-0.66625 -2.52125,-2.2125c0,-0.95625 0.8625,-1.39625 1.85625,-1.39625c0.64625,0 1.6775,0.215 1.6775,0.99375v0.49625h-1.05v-0.23375c0,-0.225 -0.3375,-0.3375 -0.6,-0.3375c-0.42125,0 -0.71125,0.14875 -0.71125,0.43125c0,0.74875 2.53875,0.59875 2.53875,2.1925c0,0.9 -0.79625,1.4625 -1.83625,1.4625c-1.3125,0 -1.9875,-0.8525 -1.9875,-0.8525z"></path>
      </g>
    </g>
  </g>
</svg>