<svg version="1.1" xmlns="http://www.w3.org/2000/svg" xmlns:xlink="http://www.w3.org/1999/xlink" width="765" height="990" viewBox="0,0,765,990"><defs><clipPath id="clip-1"><path d="M136.2495,84.873h765v990h-765z" fill="none"/></clipPath><clipPath id="clip-2"><path d="M136.2495,84.873h765v990h-765z" fill="none"/></clipPath><clipPath id="clip-3"><path d="M438.9845,362.222h140.134v141.556h-140.134z" fill="none"/></clipPath><clipPath id="clip-4"><path d="M579.1185,433.002c0,39.09 -31.37,70.777 -70.065,70.777c-38.697,0 -70.069,-31.687 -70.069,-70.777c0,-39.093 31.372,-70.78 70.069,-70.78c38.695,0 70.065,31.687 70.065,70.78" fill="none"/></clipPath><radialGradient cx="509.0505" cy="433" r="70.061" fx="509.0505" fy="433" gradientUnits="userSpaceOnUse" id="color-1"><stop offset="0" stop-color="#868484"/><stop offset="0.926" stop-color="#bdbcbc"/><stop offset="0.926" stop-color="#bdbcbc"/><stop offset="1" stop-color="#ffffff"/></radialGradient><clipPath id="clip-5"><path d="M444.2145,429.439c0,-37.641 30.515,-68.156 68.157,-68.156c37.64,0 68.156,30.515 68.156,68.156c0,37.641 -30.515,68.156 -68.156,68.156c-37.641,0 -68.157,-30.515 -68.157,-68.156" fill="none"/></clipPath><linearGradient x1="512.3705" y1="362.259" x2="512.3705" y2="497.261" gradientUnits="userSpaceOnUse" id="color-2"><stop offset="0" stop-color="#f4f4f4"/><stop offset="1" stop-color="#d3d2d2"/></linearGradient><clipPath id="clip-6"><path d="M446.4645,429.439c0,-36.4 29.506,-65.907 65.907,-65.907c36.398,0 65.906,29.507 65.906,65.907c0,36.4 -29.508,65.906 -65.906,65.906c-36.4,0 -65.907,-29.507 -65.907,-65.906" fill="none"/></clipPath><linearGradient x1="512.3705" y1="364.477" x2="512.3705" y2="495.022" gradientUnits="userSpaceOnUse" id="color-3"><stop offset="0" stop-color="#c8c7c7"/><stop offset="0.955" stop-color="#ffffff"/><stop offset="1" stop-color="#ffffff"/></linearGradient><clipPath id="clip-7"><path d="M136.2495,84.873h765v990h-765z" fill="none"/></clipPath><clipPath id="clip-8"><path d="M136.2495,84.873h765v990h-765z" fill="none"/></clipPath><clipPath id="clip-9"><path d="M564.6385,370.262h50.846v51.36h-50.846z" fill="none"/></clipPath><radialGradient cx="590.0635" cy="395.942" r="25.421" fx="590.0635" fy="395.942" gradientUnits="userSpaceOnUse" id="color-4"><stop offset="0" stop-color="#868484"/><stop offset="0.926" stop-color="#bdbcbc"/><stop offset="0.926" stop-color="#bdbcbc"/><stop offset="1" stop-color="#ffffff"/></radialGradient><linearGradient x1="591.3035" y1="366.491" x2="591.3035" y2="417.751" gradientUnits="userSpaceOnUse" id="color-5"><stop offset="0" stop-color="#ffffff"/><stop offset="1" stop-color="#deddde"/></linearGradient><linearGradient x1="591.3035" y1="414.519" x2="591.3035" y2="369.735" gradientUnits="userSpaceOnUse" id="color-6"><stop offset="0" stop-color="#ffffff"/><stop offset="1" stop-color="#c8c7c7"/></linearGradient><clipPath id="clip-10"><path d="M136.2495,84.873h765v990h-765z" fill="none"/></clipPath><linearGradient x1="575.6335" y1="412.092" x2="598.45449" y2="382.794" gradientUnits="userSpaceOnUse" id="color-7"><stop offset="0" stop-color="#82bae7"/><stop offset="1" stop-color="#4c83cc"/></linearGradient><clipPath id="clip-11"><path d="M136.2495,84.873h765v990h-765z" fill="none"/></clipPath><linearGradient x1="507.2375" y1="430.065" x2="474.4245" y2="465.69" gradientUnits="userSpaceOnUse" id="color-8"><stop offset="0" stop-color="#b3db18"/><stop offset="1" stop-color="#28ab43"/></linearGradient><linearGradient x1="507.2555" y1="418.163" x2="477.0675" y2="391.163" gradientUnits="userSpaceOnUse" id="color-9"><stop offset="0" stop-color="#f35b9d"/><stop offset="0.712" stop-color="#e41d25"/><stop offset="0.995" stop-color="#d01a21"/><stop offset="1" stop-color="#d01a21"/></linearGradient><linearGradient x1="519.68549" y1="440.162" x2="547.68549" y2="466.913" gradientUnits="userSpaceOnUse" id="color-10"><stop offset="0" stop-color="#9d79c3"/><stop offset="1" stop-color="#503685"/></linearGradient><linearGradient x1="520.1315" y1="429.599" x2="550.1315" y2="393.099" gradientUnits="userSpaceOnUse" id="color-11"><stop offset="0" stop-color="#e1a374"/><stop offset="0.755" stop-color="#d45914"/><stop offset="1" stop-color="#d45914"/></linearGradient><clipPath id="clip-12"><path d="M136.2495,84.873h765v990h-765z" fill="none"/></clipPath></defs><g transform="translate(-136.24949,-84.873)"><g stroke="none" stroke-miterlimit="10"><g clip-path="url(#clip-1)"><path d="M596.8655,540.398h-157.175c-13.254,0 -24.038,-10.785 -24.038,-24.04v-139.93c0,-13.253 10.784,-24.037 24.038,-24.037h157.174c13.254,0 24.038,10.784 24.038,24.037v139.93c0,13.255 -10.784,24.04 -24.039,24.04" fill="#b3db18"/><path d="M596.8655,351.766c13.6,0 24.662,11.064 24.662,24.663v139.928c0,13.6 -11.062,24.663 -24.662,24.663h-157.175c-13.6,0 -24.664,-11.064 -24.664,-24.663v-139.928c0,-13.6 11.064,-24.663 24.664,-24.663zM596.8655,353.016h-157.175c-12.878,0 -23.414,10.536 -23.414,23.413v139.928c0,12.878 10.536,23.413 23.414,23.413h157.174c12.877,0 23.412,-10.535 23.412,-23.413v-139.928c0,-12.877 -10.535,-23.413 -23.412,-23.413" fill="#ffffff"/></g><g clip-path="url(#clip-2)"><g clip-path="url(#clip-3)"><g clip-path="url(#clip-4)"><path d="M579.1185,433.002c0,39.09 -31.37,70.777 -70.065,70.777c-38.697,0 -70.069,-31.687 -70.069,-70.777c0,-39.093 31.372,-70.78 70.069,-70.78c38.695,0 70.065,31.687 70.065,70.78" fill="url(#color-1)"/></g></g></g><g clip-path="url(#clip-5)"><path d="M444.2145,429.439c0,-37.641 30.515,-68.156 68.157,-68.156c37.64,0 68.156,30.515 68.156,68.156c0,37.641 -30.515,68.156 -68.156,68.156c-37.641,0 -68.157,-30.515 -68.157,-68.156" fill="url(#color-2)"/></g><g clip-path="url(#clip-6)"><path d="M446.4645,429.439c0,-36.4 29.506,-65.907 65.907,-65.907c36.398,0 65.906,29.507 65.906,65.907c0,36.4 -29.508,65.906 -65.906,65.906c-36.4,0 -65.907,-29.507 -65.907,-65.906" fill="url(#color-3)"/></g><g clip-path="url(#clip-7)"><path d="M435.5595,416.026c-1.562,1.356 -1.071,5.639 -1.071,8.745c0,3.177 2.081,43.975 2.032,44.66c-0.187,4.054 -1.862,5.394 -3.911,5.561v0.004l-0.015,-0.001h-0.014v-0.003c-2.048,-0.167 -3.723,-1.507 -3.911,-5.561c-0.049,-0.685 2.031,-41.483 2.031,-44.66c0,-3.106 0.493,-7.389 -1.07,-8.745c0,0 -3.762,-3.676 -3.822,-7.775c-0.059,-4.1 1.946,-24.496 1.946,-24.496h0.003c0.015,-0.284 0.208,-0.512 0.448,-0.512c0.239,0 0.433,0.228 0.448,0.512l0.254,20.748c0,0.334 0.237,0.603 0.53,0.605h0.373c0.295,-0.002 0.533,-0.27 0.533,-0.605l0.25,-20.71v-0.013l0.001,-0.025h0.001c0.00941,-0.27994 0.23501,-0.50423 0.515,-0.512c0.28038,0.00725 0.50657,0.23169 0.516,0.512l0.25,20.748c0,0.334 0.238,0.603 0.532,0.605h0.372c0.295,-0.002 0.531,-0.27 0.531,-0.605l0.253,-20.748h0.001c0.00937,-0.27956 0.2344,-0.50371 0.514,-0.512c0.275,0 0.497,0.228 0.514,0.512l0.252,20.748c0,0.334 0.239,0.603 0.533,0.605h0.371c0.295,-0.002 0.534,-0.27 0.534,-0.605l0.246,-20.702c0,-0.3 0.204,-0.544 0.456,-0.544c0.25,0 0.455,0.244 0.455,0.544c0,0.004 1.998,20.462 1.941,24.45c-0.058,4.099 -3.822,7.775 -3.822,7.775" fill="#ffffff"/></g><g clip-path="url(#clip-8)"><g clip-path="url(#clip-9)"><path d="M615.4845,395.943c0,14.184 -11.385,25.68 -25.424,25.68c-14.039,0 -25.422,-11.496 -25.422,-25.68c0,-14.184 11.381,-25.681 25.423,-25.681c14.038,0 25.423,11.497 25.423,25.68" fill="url(#color-4)"/></g></g><path d="M565.2945,391.977c0,-14.364 11.645,-26.01 26.01,-26.01c14.365,0 26.01,11.646 26.01,26.01c0,14.366 -11.644,26.01 -26.01,26.01c-14.365,0 -26.01,-11.644 -26.01,-26.01" fill="url(#color-5)"/><path d="M567.8235,391.977c0,-12.967 10.511,-23.48 23.48,-23.48c12.969,0 23.481,10.513 23.481,23.48c0,12.97 -10.511,23.48 -23.481,23.48c-12.969,0 -23.48,-10.51 -23.48,-23.48" fill="url(#color-6)"/><g clip-path="url(#clip-10)"><path d="M612.4905,391.975c0,11.7 -9.486,21.189 -21.184,21.189c-11.701,0 -21.188,-9.49 -21.188,-21.19c0,-11.7 9.486,-21.183 21.188,-21.183c11.699,0 21.184,9.484 21.184,21.184" fill="#3e6ba7"/><path d="M610.6585,391.975c0,10.69 -8.663,19.355 -19.352,19.355c-10.689,0 -19.355,-8.665 -19.355,-19.355c0,-10.688 8.666,-19.352 19.355,-19.352c10.689,0 19.352,8.664 19.352,19.352" fill="#82bae7"/></g><path d="M574.31949,391.975c0,-9.38 7.604,-16.983 16.987,-16.983c9.377,0 16.982,7.602 16.982,16.983c0,9.381 -7.605,16.988 -16.982,16.988c-9.383,0 -16.987,-7.608 -16.987,-16.988" fill="url(#color-7)"/><g clip-path="url(#clip-11)"><path d="M511.8025,425.24v61.576c-1.50244,-0.01898 -3.00358,-0.09636 -4.5,-0.232c-29.189,-2.585 -52.098,-27.018 -52.246,-56.844c-0.00133,-0.09666 -0.00266,-0.19367 -0.004,-0.291c0.00133,-0.656 0.01367,-1.309 0.037,-1.959c0.024,-0.754 0.06333,-1.504 0.118,-2.25z" fill="#168235"/><path d="M509.5525,372.153c0.74947,-0.03822 1.49961,-0.06189 2.25,-0.071v50.406h-56.328c0.092,-0.75466 0.19867,-1.50466 0.32,-2.25c0.122,-0.75466 0.25867,-1.50466 0.41,-2.25c4.981,-24.562 25.651,-43.425 51.099,-45.679c0.744,-0.065 1.494,-0.12 2.25,-0.156" fill="#a9151a"/><path d="M569.4485,435.824c-0.16837,1.50835 -0.39588,3.0095 -0.682,4.5c-4.677,24.362 -24.757,43.241 -49.714,46.111c-1.49495,0.17368 -2.99608,0.2891 -4.5,0.346v-50.957z" fill="#3f2a66"/><path d="M569.7925,428.574c0.006,0.29066 0.00933,0.58234 0.01,0.875c0,0.46 -0.011,0.917 -0.023,1.375c-0.0171,0.75054 -0.04877,1.50068 -0.095,2.25h-55.132v-60.958c1.50398,0.05748 3.00513,0.1739 4.5,0.349c28.281,3.253 50.305,27.06 50.74,56.109" fill="#a9460f"/><path d="M509.5525,427.491v57.53c-0.75098,-0.03941 -1.50112,-0.09342 -2.25,-0.162c-28.237,-2.58 -50.377,-26.243 -50.525,-55.118c-0.00133,-0.09666 -0.00266,-0.19367 -0.004,-0.291c0.00067,-0.65533 0.01333,-1.30833 0.038,-1.959z" fill="#b3db18"/><path d="M507.3025,374.038c0.74885,-0.06877 1.49899,-0.12245 2.25,-0.161v46.362h-52.016c0.126,-0.75534 0.26734,-1.50534 0.424,-2.25c4.942,-23.61 24.847,-41.714 49.342,-43.951" fill="#f35b9d"/><path d="M567.4105,438.075c-0.11667,0.75466 -0.24967,1.50466 -0.399,2.25c-4.637,23.408 -23.954,41.531 -47.959,44.378c-0.74533,0.09 -1.49533,0.16433 -2.25,0.223v-46.851z" fill="#9d79c3"/><path d="M568.0715,428.575c0.006,0.29134 0.00933,0.583 0.01,0.875c0,0.46 -0.012,0.918 -0.024,1.375h-51.255v-56.851c0.754,0.06 1.504,0.135 2.25,0.225c27.328,3.242 48.585,26.277 49.018,54.376" fill="#e1a374"/></g><path d="M507.3065,429.743v52.237c-26.652,-2.57 -47.51,-24.947 -47.658,-52.237z" fill="url(#color-8)"/><path d="M460.8975,417.992c4.876,-22.02 23.501,-38.865 46.409,-41.074v41.074z" fill="url(#color-9)"/><path d="M564.0915,440.327c-4.572,21.82 -22.617,38.685 -45.036,41.49v-41.49z" fill="url(#color-10)"/><path d="M519.0565,377.088c25.74,3.225 45.718,24.976 46.15,51.489h-46.15z" fill="url(#color-11)"/><g clip-path="url(#clip-12)"><path d="M426.8245,515.609v-0.039c0,-3.809 2.847,-6.964 6.81,-6.964c2.443,0 3.905,0.867 5.25,2.135l-1.037,1.117c-1.135,-1.078 -2.405,-1.847 -4.232,-1.847c-2.983,0 -5.214,2.424 -5.214,5.52v0.04c0,3.115 2.251,5.56 5.214,5.56c1.846,0 3.057,-0.712 4.347,-1.945l1,0.982c-1.403,1.423 -2.943,2.366 -5.386,2.366c-3.886,0 -6.752,-3.058 -6.752,-6.925M440.4055,508.26h1.48v5.83c0.654,-1.077 1.693,-1.943 3.406,-1.943c2.405,0 3.808,1.615 3.808,3.982v6.174h-1.48v-5.809c0,-1.846 -1,-3 -2.752,-3c-1.711,0 -2.981,1.25 -2.981,3.116v5.693h-1.481zM459.0455,517.379v-0.038c0,-2.136 -1.597,-3.887 -3.694,-3.887c-2.155,0 -3.635,1.751 -3.635,3.847v0.04c0,2.135 1.576,3.867 3.674,3.867c2.155,0 3.655,-1.732 3.655,-3.829M450.1955,517.379v-0.038c0,-2.808 2.193,-5.195 5.195,-5.195c2.98,0 5.175,2.347 5.175,5.155v0.04c0,2.81 -2.213,5.193 -5.214,5.193c-2.981,0 -5.155,-2.346 -5.155,-5.155M470.0295,517.379v-0.038c0,-2.136 -1.597,-3.887 -3.694,-3.887c-2.155,0 -3.635,1.751 -3.635,3.847v0.04c0,2.135 1.576,3.867 3.674,3.867c2.155,0 3.655,-1.732 3.655,-3.829M461.1795,517.379v-0.038c0,-2.808 2.193,-5.195 5.195,-5.195c2.98,0 5.174,2.347 5.174,5.155v0.04c0,2.81 -2.212,5.193 -5.213,5.193c-2.981,0 -5.155,-2.346 -5.155,-5.155M471.9525,521.034l0.75,-1.058c1.077,0.807 2.27,1.27 3.443,1.27c1.192,0 2.057,-0.617 2.057,-1.578v-0.039c0,-0.998 -1.172,-1.385 -2.48,-1.75c-1.558,-0.442 -3.29,-0.98 -3.29,-2.808v-0.04c0,-1.71 1.423,-2.847 3.385,-2.847c1.213,0 2.56,0.424 3.58,1.098l-0.675,1.115c-0.923,-0.596 -1.98,-0.961 -2.942,-0.961c-1.174,0 -1.925,0.615 -1.925,1.442v0.039c0,0.942 1.231,1.307 2.559,1.712c1.54,0.462 3.193,1.058 3.193,2.847v0.038c0,1.885 -1.558,2.982 -3.54,2.982c-1.423,0 -3,-0.558 -4.116,-1.462M488.2065,516.744c-0.174,-1.807 -1.212,-3.347 -3.175,-3.347c-1.711,0 -3.02,1.423 -3.231,3.347zM485.3015,521.247c1.366,0 2.328,-0.559 3.136,-1.405l0.923,0.827c-1,1.115 -2.213,1.865 -4.098,1.865c-2.732,0 -4.962,-2.096 -4.962,-5.192c0,-2.887 2.019,-5.195 4.77,-5.195c2.944,0 4.636,2.346 4.636,5.271c0,0.134 0,0.289 -0.019,0.519h-7.887c0.211,2.097 1.75,3.31 3.501,3.31" fill="#ffffff"/><path d="M491.0335,508.838h4.694l2.885,4.732l2.886,-4.732h4.694v13.465h-4.483v-6.674l-3.097,4.79h-0.076l-3.098,-4.79v6.674h-4.405zM507.2305,524.343l1.27,-2.982c0.787,0.442 1.518,0.693 1.923,0.693c0.25,0 0.48,-0.038 0.712,-0.153l-4.117,-10.1h4.52l1.828,5.54l1.674,-5.54h4.445l-3.637,9.772c-1.02,2.75 -2.135,3.866 -4.56,3.866c-1.52,0 -2.886,-0.442 -4.058,-1.096M525.9845,515.436c1.155,0 1.924,-0.52 1.924,-1.482v-0.038c0,-0.98 -0.711,-1.48 -1.904,-1.48h-1.232v3zM520.2725,508.838h6.059c3.578,0 6.022,1.596 6.022,4.79v0.038c0,3.252 -2.484,4.982 -6.119,4.982h-1.462v3.655h-4.5zM533.2375,508.26h4.366v14.043h-4.366zM545.0665,518.418v-0.443c-0.32115,-0.1137 -0.65932,-0.17187 -1,-0.172c-0.866,0 -1.347,0.518 -1.347,1.172v0.04c0,0.615 0.444,1.019 1.001,1.019c0.769,0 1.346,-0.616 1.346,-1.616M538.5465,519.323v-0.039c0,-2.096 1.557,-3.271 4,-3.271c0.885,0 2.02,0.192 2.483,0.385v-0.174c0,-0.961 -0.598,-1.52 -1.944,-1.52c-1.076,0 -1.981,0.232 -2.905,0.597l-0.769,-2.905c1.21,-0.462 2.598,-0.77 4.424,-0.77c2.136,0 3.52,0.443 4.444,1.367c0.789,0.788 1.096,1.808 1.096,3.328v5.982h-4.366v-1.057c-0.731,0.79 -1.713,1.308 -3.02,1.308c-2.02,0 -3.444,-1.154 -3.444,-3.231M551.3205,518.784v-3.618h-1.231v-3.366h1.231v-2.635h4.368v2.635h2.423v3.366h-2.424v2.654c0,0.79 0.365,1.079 1.058,1.079c0.404,0 0.865,-0.115 1.328,-0.328v3.367c-0.693,0.365 -1.732,0.596 -2.79,0.596c-2.578,0 -3.963,-1.193 -3.963,-3.75M565.3645,516.148c-0.096,-1 -0.692,-1.578 -1.461,-1.578c-0.731,0 -1.251,0.616 -1.385,1.577zM558.47849,517.111v-0.04c0,-3.136 2.25,-5.521 5.405,-5.521c3.733,0 5.465,2.597 5.465,5.791c0,0.231 0,0.5 -0.02,0.731h-6.752c0.307,0.923 1.038,1.404 1.98,1.404c0.79,0 1.444,-0.366 2.137,-1.078l2.346,1.867c-1.04,1.346 -2.52,2.288 -4.791,2.288c-3.442,0 -5.77,-2.172 -5.77,-5.442" fill="#231f20"/><path d="M571.1345,520.284h1.77v2.02h-1.77zM582.4265,516.86v-0.04c0,-2.04 -1.77,-3.365 -3.655,-3.365c-1.885,0 -3.444,1.308 -3.444,3.347v0.039c0,2 1.598,3.386 3.444,3.386c1.885,0 3.655,-1.366 3.655,-3.367M574.2705,524.036l0.674,-1.155c1.135,0.827 2.403,1.27 3.827,1.27c2.192,0 3.617,-1.213 3.617,-3.54v-1.173c-0.866,1.154 -2.077,2.097 -3.905,2.097c-2.386,0 -4.676,-1.79 -4.676,-4.657v-0.037c0,-2.905 2.31,-4.695 4.677,-4.695c1.865,0 3.077,0.924 3.885,2.002v-1.79h1.48v8.214c0,1.54 -0.46,2.713 -1.27,3.521c-0.883,0.885 -2.21,1.327 -3.788,1.327c-1.654,0 -3.194,-0.462 -4.521,-1.384M593.9505,517.379v-0.038c0,-2.136 -1.597,-3.887 -3.694,-3.887c-2.155,0 -3.636,1.751 -3.636,3.847v0.04c0,2.135 1.576,3.867 3.673,3.867c2.155,0 3.656,-1.732 3.656,-3.829M585.0995,517.379v-0.038c0,-2.808 2.193,-5.195 5.194,-5.195c2.983,0 5.175,2.347 5.175,5.155v0.04c0,2.81 -2.212,5.193 -5.212,5.193c-2.983,0 -5.156,-2.346 -5.156,-5.155M595.1405,512.358h1.636l3.346,8.254l3.368,-8.254h1.596l-4.329,10.023h-1.307zM527.8785,406.302c1.63,0 2.427,0.844 2.427,0.844l-0.692,0.881c0,0 -0.694,-0.59 -1.707,-0.59c-1.152,0 -2.137,0.91 -2.137,2.26c0,1.452 0.994,2.342 2.185,2.342c1.059,0 1.686,-0.694 1.686,-0.694v-0.496c0,-0.142 -0.074,-0.207 -0.206,-0.207h-0.403v-1.04h1.078c0.45,0 0.637,0.187 0.637,0.628v2.84h-1.05v-0.319c0,-0.141 0.01,-0.281 0.01,-0.281h-0.02c0,0 -0.71,0.712 -1.957,0.712c-1.744,0 -3.235,-1.33 -3.235,-3.477c0,-1.913 1.454,-3.403 3.384,-3.403M532.0235,409.508c0,-0.14 -0.076,-0.206 -0.207,-0.206h-0.375v-1.013h1.087c0.423,0 0.638,0.179 0.638,0.581v0.282c0,0.177 -0.02,0.3 -0.02,0.3h0.02c0.216,-0.684 0.787,-1.228 1.518,-1.228c0.103,0 0.217,0.019 0.217,0.019v1.171c0,0 -0.123,-0.019 -0.293,-0.019c-0.505,0 -1.086,0.292 -1.301,1.003c-0.06867,0.25399 -0.10365,0.5159 -0.104,0.779v1.893h-1.18zM537.0565,412.254c0.639,0 1.088,-0.675 1.088,-1.256v-0.112h-0.207c-0.618,0 -1.602,0.085 -1.602,0.75c0,0.318 0.234,0.618 0.721,0.618M537.9755,410.071h0.149v-0.038c0,-0.685 -0.27,-0.937 -0.88,-0.937c-0.215,0 -0.637,0.056 -0.637,0.318v0.253h-1.105v-0.506c0,-0.89 1.256,-0.984 1.751,-0.984c1.595,0 2.064,0.834 2.064,1.902v1.782c0,0.131 0.074,0.206 0.205,0.206h0.375v1.002h-1.069c-0.44,0 -0.607,-0.243 -0.607,-0.525c0,-0.12 0.009,-0.206 0.009,-0.206h-0.02c0,0 -0.365,0.844 -1.443,0.844c-0.854,0 -1.63,-0.535 -1.63,-1.49c0,-1.5 2.06,-1.621 2.839,-1.621M540.9485,406.414h1.031v1.096h-1.031zM540.8925,409.508c0,-0.14 -0.076,-0.206 -0.206,-0.206h-0.375v-1.013h1.133c0.442,0 0.628,0.198 0.628,0.638v2.933c0,0.132 0.076,0.207 0.206,0.207h0.375v1.003h-1.134c-0.441,0 -0.627,-0.188 -0.627,-0.638zM543.6575,409.508c0,-0.14 -0.075,-0.206 -0.207,-0.206h-0.375v-1.013h1.096c0.423,0 0.63,0.198 0.63,0.535v0.14c0,0.103 -0.02,0.206 -0.02,0.206h0.02c0.206,-0.402 0.72,-0.992 1.687,-0.992c1.059,0 1.669,0.552 1.669,1.817v1.865c0,0.132 0.073,0.207 0.205,0.207h0.375v1.003h-1.135c-0.45,0 -0.638,-0.188 -0.638,-0.638v-2.193c0,-0.581 -0.149,-0.975 -0.749,-0.975c-0.637,0 -1.115,0.403 -1.283,0.975c-0.06564,0.20618 -0.09739,0.42165 -0.094,0.638v2.193h-1.181zM549.70449,411.551c0,0 0.609,0.704 1.425,0.704c0.365,0 0.646,-0.151 0.646,-0.469c0,-0.676 -2.521,-0.666 -2.521,-2.212c0,-0.956 0.862,-1.396 1.856,-1.396c0.648,0 1.678,0.215 1.678,0.992v0.498h-1.05v-0.235c0,-0.225 -0.338,-0.338 -0.602,-0.338c-0.42,0 -0.71,0.15 -0.71,0.431c0,0.75 2.54,0.6 2.54,2.194c0,0.899 -0.797,1.463 -1.837,1.463c-1.313,0 -1.988,-0.854 -1.988,-0.854zM581.4155,393.489h0.6c1.332,0 2.185,-0.796 2.185,-2.296c0,-1.481 -0.872,-2.278 -2.185,-2.278h-0.805v4.368c0,0.131 0.075,0.206 0.205,0.206M579.98349,388.915h-0.611v-1.04h2.71c2.052,0 3.392,1.218 3.392,3.318c0,2.1 -1.34,3.337 -3.392,3.337h-1.463c-0.45,0 -0.636,-0.188 -0.636,-0.638zM588.0345,393.714c0.639,0 1.087,-0.675 1.087,-1.256v-0.112h-0.206c-0.617,0 -1.601,0.085 -1.601,0.75c0,0.318 0.232,0.618 0.72,0.618M588.9535,391.531h0.15v-0.038c0,-0.685 -0.272,-0.937 -0.882,-0.937c-0.213,0 -0.636,0.056 -0.636,0.318v0.253h-1.106v-0.506c0,-0.89 1.256,-0.984 1.752,-0.984c1.594,0 2.063,0.834 2.063,1.902v1.782c0,0.13 0.074,0.206 0.206,0.206h0.374v1.002h-1.068c-0.44,0 -0.61,-0.243 -0.61,-0.525c0,-0.12 0.01,-0.206 0.01,-0.206h-0.018c0,0 -0.365,0.844 -1.444,0.844c-0.853,0 -1.631,-0.535 -1.631,-1.49c0,-1.5 2.062,-1.621 2.84,-1.621M591.9265,387.874h1.03v1.098h-1.03zM591.8695,390.968c0,-0.14 -0.075,-0.206 -0.206,-0.206h-0.375v-1.013h1.134c0.441,0 0.627,0.198 0.627,0.638v2.933c0,0.132 0.076,0.207 0.206,0.207h0.375v1.003h-1.133c-0.44,0 -0.628,-0.188 -0.628,-0.638zM594.6345,390.968c0,-0.14 -0.075,-0.206 -0.206,-0.206h-0.375v-1.013h1.088c0.422,0 0.637,0.179 0.637,0.581v0.282c0,0.177 -0.019,0.3 -0.019,0.3h0.019c0.215,-0.684 0.788,-1.228 1.519,-1.228c0.102,0 0.216,0.019 0.216,0.019v1.171c0,0 -0.122,-0.019 -0.292,-0.019c-0.506,0 -1.087,0.292 -1.302,1.003c-0.06867,0.25399 -0.10364,0.5159 -0.104,0.779v1.893h-1.18zM598.9935,395.495c0.33,0 0.62,-0.198 0.788,-0.609l0.16,-0.366l-1.595,-3.59c-0.056,-0.14 -0.121,-0.169 -0.253,-0.169h-0.14v-1.011h0.788c0.336,0 0.506,0.121 0.629,0.45l0.936,2.389c0.094,0.245 0.17,0.638 0.17,0.638h0.017c0,0 0.075,-0.393 0.16,-0.638l0.814,-2.39c0.114,-0.328 0.31,-0.45 0.638,-0.45h0.807v1.012h-0.142c-0.14,0 -0.214,0.029 -0.27,0.169l-1.717,4.321c-0.337,0.863 -1.01,1.246 -1.723,1.246c-0.75,0 -1.21,-0.486 -1.21,-0.486l0.46,-0.844c0,0 0.29,0.328 0.683,0.328M474.9475,401.468h-0.61v-1.04h3.797c0.45,0 0.637,0.197 0.637,0.638v1.011h-1.106v-0.402c0,-0.132 -0.075,-0.207 -0.206,-0.207h-1.284v1.884h2.127v1.041h-2.127v2.69h-1.228zM479.7285,403.521c0,-0.14 -0.075,-0.206 -0.206,-0.206h-0.375v-1.012h1.087c0.422,0 0.638,0.177 0.638,0.581v0.281c0,0.178 -0.019,0.3 -0.019,0.3h0.019c0.215,-0.685 0.787,-1.227 1.519,-1.227c0.102,0 0.215,0.017 0.215,0.017v1.173c0,0 -0.122,-0.019 -0.292,-0.019c-0.505,0 -1.086,0.29 -1.302,1.002c-0.06825,0.25371 -0.10288,0.51528 -0.103,0.778v1.894h-1.18zM483.6285,403.521c0,-0.14 -0.075,-0.206 -0.206,-0.206h-0.375v-1.012h1.134c0.441,0 0.629,0.197 0.629,0.627v2.203c0,0.581 0.148,0.975 0.74,0.975c0.862,0 1.34,-0.759 1.34,-1.613v-2.192h1.19v3.571c0,0.13 0.076,0.206 0.207,0.206h0.374v1.003h-1.096c-0.413,0 -0.628,-0.198 -0.628,-0.535v-0.132c0,-0.11 0.009,-0.215 0.009,-0.215h-0.018c-0.226,0.498 -0.826,0.994 -1.65,0.994c-1.022,0 -1.65,-0.516 -1.65,-1.819zM489.7225,400.428h1.031v1.096h-1.031zM489.6665,403.522c0,-0.142 -0.076,-0.207 -0.207,-0.207h-0.374v-1.012h1.134c0.44,0 0.628,0.197 0.628,0.637v2.934c0,0.13 0.075,0.206 0.206,0.206h0.375v1.003h-1.135c-0.44,0 -0.627,-0.188 -0.627,-0.638zM492.4505,403.249h-0.619v-0.946h0.646v-1.304h1.164v1.304h1.086v0.946h-1.086v1.932c0,0.787 0.618,0.9 0.945,0.9c0.131,0 0.216,-0.02 0.216,-0.02v1.04c0,0 -0.15,0.028 -0.366,0.028c-0.665,0 -1.986,-0.196 -1.986,-1.798zM495.9195,405.564c0,0 0.608,0.703 1.425,0.703c0.366,0 0.646,-0.15 0.646,-0.469c0,-0.675 -2.521,-0.665 -2.521,-2.212c0,-0.955 0.862,-1.397 1.856,-1.397c0.646,0 1.677,0.217 1.677,0.994v0.498h-1.05v-0.235c0,-0.225 -0.337,-0.337 -0.6,-0.337c-0.421,0 -0.712,0.15 -0.712,0.43c0,0.75 2.54,0.6 2.54,2.194c0,0.9 -0.796,1.463 -1.836,1.463c-1.313,0 -1.988,-0.853 -1.988,-0.853zM462.2495,441.163c-0.056,-0.16 -0.131,-0.206 -0.29,-0.206h-0.169v-1.041h0.778c0.469,0 0.637,0.122 0.787,0.543l1.274,3.713c0.133,0.375 0.253,0.975 0.253,0.975h0.02c0,0 0.12,-0.6 0.252,-0.975l1.275,-3.713c0.15,-0.42 0.31,-0.543 0.779,-0.543h0.787v1.04h-0.178c-0.16,0 -0.235,0.047 -0.29,0.207l-1.988,5.408h-1.294zM471.0425,443.562c-0.019,-0.571 -0.413,-0.965 -0.9,-0.965c-0.609,0 -1.04,0.366 -1.172,0.965zM470.1425,441.678c1.368,0 2.118,1.003 2.118,2.269c0,0.14 -0.028,0.44 -0.028,0.44h-3.299c0.094,0.844 0.712,1.285 1.434,1.285c0.768,0 1.341,-0.535 1.341,-0.535l0.496,0.825c0,0 -0.731,0.721 -1.921,0.721c-1.585,0 -2.569,-1.144 -2.569,-2.502c0,-1.472 0.994,-2.503 2.428,-2.503M476.2645,444.068c0,-1.087 -0.544,-1.378 -1.19,-1.378c-0.721,0 -1.116,0.525 -1.116,1.33c0,0.836 0.422,1.455 1.19,1.455c0.572,0 1.116,-0.33 1.116,-1.407M474.8685,441.678c1.106,0 1.47,0.675 1.47,0.675h0.02v-0.122c0,-0.215 0.15,-0.44 0.525,-0.44h1.106v1.012h-0.366c-0.122,0 -0.207,0.065 -0.207,0.188v3.29c0,1.64 -1.275,2.257 -2.52,2.257c-0.6,0 -1.237,-0.168 -1.697,-0.41l0.366,-0.938c0,0 0.589,0.318 1.32,0.318c0.723,0 1.351,-0.31 1.351,-1.172v-0.224c0,-0.112 0.01,-0.254 0.01,-0.254h-0.02c-0.28,0.404 -0.693,0.62 -1.33,0.62c-1.368,0 -2.147,-1.107 -2.147,-2.42c0,-1.313 0.74,-2.38 2.119,-2.38M481.6275,443.562c-0.02,-0.571 -0.413,-0.965 -0.9,-0.965c-0.61,0 -1.04,0.366 -1.172,0.965zM480.7275,441.678c1.368,0 2.118,1.003 2.118,2.269c0,0.14 -0.029,0.44 -0.029,0.44h-3.3c0.095,0.844 0.714,1.285 1.435,1.285c0.77,0 1.34,-0.535 1.34,-0.535l0.498,0.825c0,0 -0.731,0.721 -1.921,0.721c-1.585,0 -2.569,-1.144 -2.569,-2.502c0,-1.472 0.994,-2.503 2.428,-2.503M483.8305,442.738h-0.619v-0.947h0.646v-1.303h1.163v1.303h1.087v0.946h-1.087v1.93c0,0.788 0.619,0.901 0.947,0.901c0.07211,0.00177 0.14419,-0.00426 0.215,-0.018v1.04c0,0 -0.15,0.027 -0.365,0.027c-0.665,0 -1.987,-0.196 -1.987,-1.799zM488.5175,445.755c0.638,0 1.088,-0.675 1.088,-1.256v-0.112h-0.206c-0.62,0 -1.603,0.085 -1.603,0.75c0,0.318 0.234,0.618 0.721,0.618M489.4355,443.572h0.15v-0.038c0,-0.684 -0.271,-0.937 -0.881,-0.937c-0.214,0 -0.637,0.056 -0.637,0.318v0.254h-1.106v-0.507c0,-0.89 1.256,-0.984 1.753,-0.984c1.593,0 2.062,0.835 2.062,1.904v1.78c0,0.131 0.075,0.206 0.206,0.206h0.374v1.002h-1.067c-0.442,0 -0.61,-0.243 -0.61,-0.525c0,-0.12 0.01,-0.206 0.01,-0.206h-0.02c0,0 -0.364,0.844 -1.442,0.844c-0.853,0 -1.63,-0.534 -1.63,-1.49c0,-1.499 2.06,-1.621 2.838,-1.621M494.4325,445.68c0.648,0 1.2,-0.533 1.2,-1.48c0,-0.91 -0.487,-1.5 -1.19,-1.5c-0.619,0 -1.2,0.45 -1.2,1.51c0,0.74 0.394,1.47 1.19,1.47M492.0885,441.135c0,-0.14 -0.073,-0.206 -0.206,-0.206h-0.374v-1.011h1.134c0.44,0 0.638,0.196 0.638,0.637v1.386c0,0.235 -0.019,0.404 -0.019,0.404h0.019c0,0 0.422,-0.666 1.433,-0.666c1.294,0 2.118,1.022 2.118,2.502c0,1.52 -0.928,2.503 -2.193,2.503c-0.993,0 -1.425,-0.675 -1.425,-0.675h-0.018c0,0 0.018,0.132 0.018,0.319v0.243h-1.125zM497.6305,441.135c0,-0.141 -0.075,-0.206 -0.206,-0.206h-0.375v-1.013h1.133c0.442,0 0.638,0.198 0.638,0.638v4.807c0,0.132 0.076,0.207 0.206,0.207h0.366v1.003h-1.125c-0.45,0 -0.637,-0.187 -0.637,-0.637zM503.0485,443.562c-0.019,-0.571 -0.412,-0.965 -0.9,-0.965c-0.61,0 -1.04,0.366 -1.171,0.965zM502.1485,441.678c1.369,0 2.119,1.003 2.119,2.269c0,0.14 -0.029,0.44 -0.029,0.44h-3.299c0.094,0.844 0.711,1.285 1.434,1.285c0.769,0 1.34,-0.535 1.34,-0.535l0.496,0.825c0,0 -0.73,0.721 -1.92,0.721c-1.585,0 -2.568,-1.144 -2.568,-2.502c0,-1.472 0.993,-2.503 2.427,-2.503M505.2525,445.052c0,0 0.61,0.704 1.424,0.704c0.365,0 0.647,-0.151 0.647,-0.469c0,-0.676 -2.522,-0.666 -2.522,-2.212c0,-0.956 0.863,-1.396 1.857,-1.396c0.646,0 1.677,0.215 1.677,0.993v0.497h-1.05v-0.234c0,-0.225 -0.337,-0.338 -0.6,-0.338c-0.421,0 -0.711,0.15 -0.711,0.432c0,0.748 2.539,0.598 2.539,2.192c0,0.9 -0.797,1.463 -1.837,1.463c-1.312,0 -1.987,-0.853 -1.987,-0.853zM525.8175,451.548c0.694,0 1.088,-0.45 1.088,-1.144c0,-0.684 -0.394,-1.124 -1.068,-1.124h-1.004v2.268zM523.6055,449.28h-0.61v-1.04h3.047c1.248,0 2.119,0.871 2.119,2.164c0,1.293 -0.871,2.194 -2.119,2.194h-1.209v2.296h-1.228zM529.1285,451.333c0,-0.141 -0.077,-0.206 -0.207,-0.206h-0.375v-1.013h1.087c0.422,0 0.637,0.178 0.637,0.581v0.282c0,0.177 -0.019,0.3 -0.019,0.3h0.02c0.215,-0.685 0.788,-1.228 1.518,-1.228c0.102,0 0.216,0.018 0.216,0.018v1.172c0,0 -0.122,-0.019 -0.291,-0.019c-0.506,0 -1.088,0.29 -1.303,1.003c-0.06817,0.25338 -0.10279,0.51461 -0.103,0.777v1.894h-1.18zM534.9485,453.994c0.779,0 1.426,-0.599 1.426,-1.49c0,-0.88 -0.647,-1.49 -1.426,-1.49c-0.767,0 -1.415,0.61 -1.415,1.49c0,0.891 0.648,1.49 1.415,1.49M534.9485,450.001c1.463,0 2.625,1.042 2.625,2.503c0,1.471 -1.162,2.502 -2.625,2.502c-1.452,0 -2.615,-1.03 -2.615,-2.502c0,-1.461 1.163,-2.503 2.615,-2.503M538.6725,451.061h-0.62v-0.947h0.647v-1.303h1.162v1.303h1.088v0.947h-1.088v1.93c0,0.788 0.619,0.9 0.946,0.9c0.132,0 0.217,-0.018 0.217,-0.018v1.04c0,0 -0.15,0.028 -0.365,0.028c-0.667,0 -1.988,-0.197 -1.988,-1.8zM544.89649,451.886c-0.02,-0.573 -0.413,-0.965 -0.9,-0.965c-0.61,0 -1.042,0.365 -1.172,0.965zM543.9965,450.002c1.367,0 2.118,1.003 2.118,2.268c0,0.14 -0.029,0.44 -0.029,0.44h-3.3c0.095,0.843 0.713,1.285 1.435,1.285c0.77,0 1.34,-0.535 1.34,-0.535l0.497,0.825c0,0 -0.73,0.722 -1.92,0.722c-1.585,0 -2.569,-1.144 -2.569,-2.502c0,-1.473 0.994,-2.503 2.427,-2.503M547.3625,448.239h1.031v1.096h-1.031zM547.3065,451.333c0,-0.141 -0.075,-0.206 -0.207,-0.206h-0.375v-1.013h1.134c0.441,0 0.628,0.198 0.628,0.638v2.933c0,0.13 0.076,0.207 0.207,0.207h0.374v1.002h-1.134c-0.441,0 -0.628,-0.187 -0.628,-0.637zM550.0705,451.333c0,-0.141 -0.075,-0.206 -0.205,-0.206h-0.376v-1.013h1.097c0.421,0 0.628,0.198 0.628,0.534v0.141c0,0.103 -0.019,0.205 -0.019,0.205h0.019c0.206,-0.402 0.721,-0.992 1.687,-0.992c1.059,0 1.669,0.552 1.669,1.818v1.865c0,0.13 0.074,0.207 0.206,0.207h0.374v1.002h-1.134c-0.45,0 -0.637,-0.187 -0.637,-0.637v-2.194c0,-0.58 -0.15,-0.974 -0.75,-0.974c-0.638,0 -1.115,0.403 -1.284,0.974c-0.06574,0.2065 -0.0975,0.42232 -0.094,0.639v2.192h-1.181z" fill="#ffffff"/></g></g></g></svg>