<svg version="1.1" xmlns="http://www.w3.org/2000/svg" xmlns:xlink="http://www.w3.org/1999/xlink" width="42.371" height="42.373" viewBox="0,0,42.371,42.373"><defs><linearGradient x1="60.13488" y1="185.24577" x2="82.95671" y2="155.94776" gradientUnits="userSpaceOnUse" id="color-1"><stop offset="0" stop-color="#ffe5b3"/><stop offset="1" stop-color="#fad69e"/></linearGradient></defs><g transform="translate(-54.622,-143.93705)"><g stroke-miterlimit="10"><g stroke="none" stroke-width="1"><path d="M96.993,165.12105c0,11.7 -9.485,21.189 -21.184,21.189c-11.701,0 -21.187,-9.489 -21.187,-21.189c0,-11.7 9.486,-21.184 21.187,-21.184c11.699,0 21.184,9.484 21.184,21.184" fill="#f0b878"/><path d="M95.16,165.12105c0,10.69 -8.664,19.355 -19.352,19.355c-10.689,0 -19.355,-8.665 -19.355,-19.355c0,-10.69 8.666,-19.352 19.355,-19.352c10.688,0 19.352,8.663 19.352,19.352" fill="#ffe5b3"/><path d="M58.822,165.12105c0,-9.381 7.604,-16.983 16.987,-16.983c9.377,0 16.982,7.602 16.982,16.983c0,9.38 -7.605,16.988 -16.982,16.988c-9.383,0 -16.987,-7.608 -16.987,-16.988" fill="url(#color-1)"/></g><path d="M57.53031,162.23424h1.87869c1.31776,0 2.07458,0.54313 2.07458,1.48693c0,0.54313 -0.26711,1.05064 -0.68559,1.29105c0.7123,0.2404 1.14859,0.82805 1.14859,1.60268c0,1.13078 -0.83695,1.79856 -2.26156,1.79856h-2.15471zM58.26932,167.78131h1.50474c0.98832,0 1.4157,-0.30273 1.4157,-1.01503c0,-0.76572 -0.50751,-1.26433 -1.29105,-1.26433h-1.62939zM60.72676,163.91707c0,-0.7034 -0.463,-1.05064 -1.40679,-1.05064h-1.05064v2.02115h1.70952c0.01781,0 0.04452,0 0.06233,0c0.48971,-0.24931 0.68559,-0.53423 0.68559,-0.97051zM63.05858,164.12186h0.58765l0.08013,0.62326c0.32054,-0.41848 0.80134,-0.66778 1.31776,-0.66778c0.19588,0 0.38286,0.03562 0.56984,0.09794l-0.17808,0.65888c-0.14246,-0.05342 -0.30273,-0.08013 -0.4719,-0.08013c-0.4808,0 -0.91709,0.22259 -1.1931,0.59655v3.06289h-0.7123zM66.13896,166.28546c0,-1.31776 0.81024,-2.25265 2.00335,-2.25265c1.05955,0 1.77185,0.73901 1.77185,1.81637c0,0.16917 -0.01781,0.4808 -0.03562,0.61436h-2.99166c0.10685,0.91709 0.67669,1.46022 1.58487,1.46022c0.37396,0 0.79243,-0.09794 1.12187,-0.25821l0.16027,0.51642c-0.38286,0.20479 -0.91709,0.32054 -1.40679,0.32054c-1.36228,0 -2.20813,-0.84586 -2.20813,-2.21704zM69.24639,165.92932c0,-0.81915 -0.42738,-1.29105 -1.15749,-1.29105c-0.7212,0 -1.14859,0.45409 -1.21091,1.29105zM73.60001,168.0128c-0.34725,0.31163 -0.81024,0.48971 -1.35337,0.48971c-0.88147,0 -1.45131,-0.48971 -1.45131,-1.25543c0,-0.91709 0.83695,-1.31776 2.76017,-1.33556v-0.28492c0,-0.63217 -0.39177,-0.9527 -1.15749,-0.9527c-0.41848,0 -0.86366,0.09794 -1.30885,0.29382l-0.17808,-0.52532c0.463,-0.25821 1.06845,-0.40957 1.62939,-0.40957c1.12187,0 1.72733,0.56984 1.72733,1.59377v2.78688h-0.49861zM73.55549,166.40122c-1.44241,0.0089 -2.04787,0.2315 -2.04787,0.76572c0,0.42738 0.37396,0.7123 0.9438,0.7123c0.44519,0 0.83695,-0.16027 1.10407,-0.42738zM76.38625,166.143v2.27046h-0.7123v-6.57988h0.7123v4.27381l1.9054,-1.98554h0.84586l-1.86089,1.94102l2.05677,2.35059h-0.9438zM80.24983,164.71839h-0.64107v-0.59655h0.64107v-0.84586c0,-0.91709 0.60546,-1.53145 1.51364,-1.53145c0.30273,0 0.57874,0.08904 0.85476,0.22259l-0.15136,0.53423c-0.22259,-0.10685 -0.52532,-0.15136 -0.75682,-0.15136c-0.48971,0 -0.74792,0.28492 -0.74792,0.83695v0.93489h1.33556v0.59655h-1.33556v3.69506h-0.7123zM85.61849,168.0128c-0.34725,0.31163 -0.81024,0.48971 -1.35337,0.48971c-0.88147,0 -1.45131,-0.48971 -1.45131,-1.25543c0,-0.91709 0.83695,-1.31776 2.76017,-1.33556v-0.28492c0,-0.63217 -0.39177,-0.9527 -1.15749,-0.9527c-0.41848,0 -0.86366,0.09794 -1.30885,0.29382l-0.17808,-0.52532c0.463,-0.25821 1.06845,-0.40957 1.62939,-0.40957c1.12187,0 1.72733,0.56984 1.72733,1.59377v2.78688h-0.49861zM85.57397,166.40122c-1.44241,0.0089 -2.04787,0.2315 -2.04787,0.76572c0,0.42738 0.37396,0.7123 0.9438,0.7123c0.44519,0 0.83695,-0.16027 1.10407,-0.42738zM87.36299,168.15526l0.16917,-0.57874c0.45409,0.19588 1.05955,0.32054 1.51364,0.32054c0.58765,0 0.93489,-0.22259 0.93489,-0.61436c0,-1.05064 -2.55538,-0.40957 -2.55538,-1.94992c0,-0.81024 0.7123,-1.29995 1.82527,-1.29995c0.45409,0 0.89038,0.08013 1.25543,0.2315l-0.16917,0.57874c-0.36505,-0.12465 -0.79243,-0.20479 -1.15749,-0.20479c-0.64107,0 -1.04174,0.2404 -1.04174,0.61436c0,0.97051 2.56428,0.38286 2.56428,1.95883c0,0.79243 -0.64997,1.29105 -1.70952,1.29105c-0.54313,0 -1.13968,-0.12465 -1.62939,-0.34725zM91.99232,167.26489v-2.54648h-0.57874v-0.59655h0.57874v-1.25543h0.7123v1.25543h1.1753v0.59655h-1.1753v2.44853c0,0.42738 0.29382,0.7123 0.73901,0.7123c0.15136,0 0.34725,-0.03562 0.4808,-0.09794l0.16027,0.51642c-0.20479,0.08904 -0.49861,0.16027 -0.79243,0.16027c-0.78353,0 -1.29995,-0.4808 -1.29995,-1.1931z" fill="#ffffff" stroke="#000000" stroke-width="0.5"/><path d="M57.53031,162.23425h1.87869c1.31776,0 2.07458,0.54313 2.07458,1.48693c0,0.54313 -0.26711,1.05064 -0.68559,1.29105c0.7123,0.2404 1.14859,0.82805 1.14859,1.60268c0,1.13078 -0.83695,1.79856 -2.26156,1.79856h-2.15471zM58.26932,167.78132h1.50474c0.98832,0 1.4157,-0.30273 1.4157,-1.01503c0,-0.76572 -0.50751,-1.26433 -1.29105,-1.26433h-1.62939zM60.72676,163.91708c0,-0.7034 -0.463,-1.05064 -1.40679,-1.05064h-1.05064v2.02115h1.70952c0.01781,0 0.04452,0 0.06233,0c0.48971,-0.24931 0.68559,-0.53423 0.68559,-0.97051zM63.05858,164.12187h0.58765l0.08013,0.62326c0.32054,-0.41848 0.80134,-0.66778 1.31776,-0.66778c0.19588,0 0.38286,0.03562 0.56984,0.09794l-0.17808,0.65888c-0.14246,-0.05342 -0.30273,-0.08013 -0.4719,-0.08013c-0.4808,0 -0.91709,0.22259 -1.1931,0.59655v3.06289h-0.7123zM66.13896,166.28546c0,-1.31776 0.81024,-2.25265 2.00335,-2.25265c1.05955,0 1.77185,0.73901 1.77185,1.81637c0,0.16917 -0.01781,0.4808 -0.03562,0.61436h-2.99166c0.10685,0.91709 0.67669,1.46022 1.58487,1.46022c0.37396,0 0.79243,-0.09794 1.12187,-0.25821l0.16027,0.51642c-0.38286,0.20479 -0.91709,0.32054 -1.40679,0.32054c-1.36228,0 -2.20813,-0.84586 -2.20813,-2.21704zM69.24639,165.92933c0,-0.81915 -0.42738,-1.29105 -1.15749,-1.29105c-0.7212,0 -1.14859,0.45409 -1.21091,1.29105zM73.60001,168.01281c-0.34725,0.31163 -0.81024,0.48971 -1.35337,0.48971c-0.88147,0 -1.45131,-0.48971 -1.45131,-1.25543c0,-0.91709 0.83695,-1.31776 2.76017,-1.33556v-0.28492c0,-0.63217 -0.39177,-0.9527 -1.15749,-0.9527c-0.41848,0 -0.86366,0.09794 -1.30885,0.29382l-0.17808,-0.52532c0.463,-0.25821 1.06845,-0.40957 1.62939,-0.40957c1.12187,0 1.72733,0.56984 1.72733,1.59377v2.78688h-0.49861zM73.55549,166.40123c-1.44241,0.0089 -2.04787,0.2315 -2.04787,0.76572c0,0.42738 0.37396,0.7123 0.9438,0.7123c0.44519,0 0.83695,-0.16027 1.10407,-0.42738zM76.38625,166.143v2.27046h-0.7123v-6.57988h0.7123v4.27381l1.9054,-1.98554h0.84586l-1.86089,1.94102l2.05677,2.35059h-0.9438zM80.24983,164.7184h-0.64107v-0.59655h0.64107v-0.84586c0,-0.91709 0.60546,-1.53145 1.51364,-1.53145c0.30273,0 0.57874,0.08904 0.85476,0.22259l-0.15136,0.53423c-0.22259,-0.10685 -0.52532,-0.15136 -0.75682,-0.15136c-0.48971,0 -0.74792,0.28492 -0.74792,0.83695v0.93489h1.33556v0.59655h-1.33556v3.69506h-0.7123zM85.61849,168.01281c-0.34725,0.31163 -0.81024,0.48971 -1.35337,0.48971c-0.88147,0 -1.45131,-0.48971 -1.45131,-1.25543c0,-0.91709 0.83695,-1.31776 2.76017,-1.33556v-0.28492c0,-0.63217 -0.39177,-0.9527 -1.15749,-0.9527c-0.41848,0 -0.86366,0.09794 -1.30885,0.29382l-0.17808,-0.52532c0.463,-0.25821 1.06845,-0.40957 1.62939,-0.40957c1.12187,0 1.72733,0.56984 1.72733,1.59377v2.78688h-0.49861zM85.57397,166.40123c-1.44241,0.0089 -2.04787,0.2315 -2.04787,0.76572c0,0.42738 0.37396,0.7123 0.9438,0.7123c0.44519,0 0.83695,-0.16027 1.10407,-0.42738zM87.36299,168.15527l0.16917,-0.57874c0.45409,0.19588 1.05955,0.32054 1.51364,0.32054c0.58765,0 0.93489,-0.22259 0.93489,-0.61436c0,-1.05064 -2.55538,-0.40957 -2.55538,-1.94992c0,-0.81024 0.7123,-1.29995 1.82527,-1.29995c0.45409,0 0.89038,0.08013 1.25543,0.2315l-0.16917,0.57874c-0.36505,-0.12465 -0.79243,-0.20479 -1.15749,-0.20479c-0.64107,0 -1.04174,0.2404 -1.04174,0.61436c0,0.97051 2.56428,0.38286 2.56428,1.95883c0,0.79243 -0.64997,1.29105 -1.70952,1.29105c-0.54313,0 -1.13968,-0.12465 -1.62939,-0.34725zM91.99232,167.2649v-2.54648h-0.57874v-0.59655h0.57874v-1.25543h0.7123v1.25543h1.1753v0.59655h-1.1753v2.44853c0,0.42738 0.29382,0.7123 0.73901,0.7123c0.15136,0 0.34725,-0.03562 0.4808,-0.09794l0.16027,0.51642c-0.20479,0.08904 -0.49861,0.16027 -0.79243,0.16027c-0.78353,0 -1.29995,-0.4808 -1.29995,-1.1931z" fill="#ffffff" stroke="none" stroke-width="1"/></g></g></svg>