<svg version="1.1" xmlns="http://www.w3.org/2000/svg" xmlns:xlink="http://www.w3.org/1999/xlink" width="40" height="56" viewBox="0,0,40,56"><g transform="translate(-220,-152)"><g stroke="none" stroke-width="0" stroke-miterlimit="10"><path d="M220,208v-56h40v56z" fill="#000000"/><path d="M220,160v-8h8v8z" fill="#ff00ff"/><path d="M228,168v-8h8v8z" fill="#ff00ff"/><path d="M236,176v-8h8v8z" fill="#ff00ff"/><path d="M236,160v-8h8v8z" fill="#ff00ff"/><path d="M244,168v-8h8v8z" fill="#ff00ff"/><path d="M252,176v-8h8v8z" fill="#ff00ff"/><path d="M252,160v-8h8v8z" fill="#ff00ff"/><path d="M220,176v-8h8v8z" fill="#ff00ff"/><path d="M228,184v-8h8v8z" fill="#ff00ff"/><path d="M228,200v-8h8v8z" fill="#ff00ff"/><path d="M236,192v-8h8v8z" fill="#ff00ff"/><path d="M236,208v-8h8v8z" fill="#ff00ff"/><path d="M244,184v-8h8v8z" fill="#ff00ff"/><path d="M244,200v-8h8v8z" fill="#ff00ff"/><path d="M252,192v-8h8v8z" fill="#ff00ff"/><path d="M252,208v-8h8v8z" fill="#ff00ff"/><path d="M220,192v-8h8v8z" fill="#ff00ff"/><path d="M220,208v-8h8v8z" fill="#ff00ff"/></g></g></svg>