<svg version="1.1" xmlns="http://www.w3.org/2000/svg" xmlns:xlink="http://www.w3.org/1999/xlink" width="720" height="540" viewBox="0,0,720,540"><defs><clipPath id="clip-1"><path d="M-137.65275,-177.14515h765v990h-765z" fill="none"/></clipPath><clipPath id="clip-2"><path d="M165.08225,100.2036h140.13375v141.5575h-140.13375z" fill="none"/></clipPath><clipPath id="clip-3"><path d="M305.216,170.9836c0,39.09 -31.37,70.7775 -70.065,70.7775c-38.6975,0 -70.06875,-31.6875 -70.06875,-70.7775c0,-39.0925 31.37125,-70.78 70.06875,-70.78c38.695,0 70.065,31.6875 70.065,70.78" fill="none"/></clipPath><radialGradient cx="235.14815" cy="170.98229" r="70.0611" fx="235.14815" fy="170.98229" gradientUnits="userSpaceOnUse" id="color-1"><stop offset="0" stop-color="#868484"/><stop offset="0.92638" stop-color="#bdbcbc"/><stop offset="0.92638" stop-color="#bdbcbc"/><stop offset="1" stop-color="#ffffff"/></radialGradient><clipPath id="clip-4"><path d="M170.31225,167.4211c0,-37.64125 30.515,-68.15625 68.15625,-68.15625c37.64125,0 68.15625,30.515 68.15625,68.15625c0,37.64125 -30.515,68.15625 -68.15625,68.15625c-37.64125,0 -68.15625,-30.515 -68.15625,-68.15625" fill="none"/></clipPath><linearGradient x1="238.46847" y1="100.24133" x2="238.46847" y2="235.24322" gradientUnits="userSpaceOnUse" id="color-2"><stop offset="0" stop-color="#f4f4f4"/><stop offset="1" stop-color="#d3d2d2"/></linearGradient><clipPath id="clip-5"><path d="M172.56225,167.4211c0,-36.4 29.50625,-65.9075 65.90625,-65.9075c36.39875,0 65.90625,29.5075 65.90625,65.9075c0,36.39875 -29.5075,65.90625 -65.90625,65.90625c-36.4,0 -65.90625,-29.5075 -65.90625,-65.90625" fill="none"/></clipPath><linearGradient x1="238.46847" y1="102.45874" x2="238.46847" y2="233.00438" gradientUnits="userSpaceOnUse" id="color-3"><stop offset="0" stop-color="#c8c7c7"/><stop offset="0.95529" stop-color="#ffffff"/><stop offset="1" stop-color="#ffffff"/></linearGradient><clipPath id="clip-6"><path d="M-137.65275,-177.14515h765v990h-765z" fill="none"/></clipPath><clipPath id="clip-7"><path d="M-137.65275,-177.14515h765v990h-765z" fill="none"/></clipPath><clipPath id="clip-8"><path d="M290.736,108.2436h50.84625v51.36125h-50.84625z" fill="none"/></clipPath><radialGradient cx="316.16073" cy="133.92419" r="25.42089" fx="316.16073" fy="133.92419" gradientUnits="userSpaceOnUse" id="color-4"><stop offset="0" stop-color="#868484"/><stop offset="0.92638" stop-color="#bdbcbc"/><stop offset="0.92638" stop-color="#bdbcbc"/><stop offset="1" stop-color="#ffffff"/></radialGradient><linearGradient x1="317.40097" y1="104.47289" x2="317.40097" y2="155.73313" gradientUnits="userSpaceOnUse" id="color-5"><stop offset="0" stop-color="#ffffff"/><stop offset="1" stop-color="#deddde"/></linearGradient><linearGradient x1="317.40097" y1="152.50085" x2="317.40097" y2="107.71699" gradientUnits="userSpaceOnUse" id="color-6"><stop offset="0" stop-color="#ffffff"/><stop offset="1" stop-color="#c8c7c7"/></linearGradient><clipPath id="clip-9"><path d="M-137.65275,-177.14515h765v990h-765z" fill="none"/></clipPath><linearGradient x1="301.7308" y1="150.07409" x2="324.55238" y2="120.7759" gradientUnits="userSpaceOnUse" id="color-7"><stop offset="0" stop-color="#82bae7"/><stop offset="1" stop-color="#4c83cc"/></linearGradient><clipPath id="clip-10"><path d="M-137.65275,-177.14515h765v990h-765z" fill="none"/></clipPath><linearGradient x1="233.3348" y1="168.0465" x2="200.52209" y2="203.67173" gradientUnits="userSpaceOnUse" id="color-8"><stop offset="0" stop-color="#b3db18"/><stop offset="1" stop-color="#28ab43"/></linearGradient><linearGradient x1="233.35311" y1="156.14525" x2="203.16528" y2="129.14492" gradientUnits="userSpaceOnUse" id="color-9"><stop offset="0" stop-color="#f35b9d"/><stop offset="0.71166" stop-color="#e41d25"/><stop offset="0.99451" stop-color="#d01a21"/><stop offset="1" stop-color="#d01a21"/></linearGradient><linearGradient x1="245.78293" y1="178.14417" x2="273.78342" y2="204.89452" gradientUnits="userSpaceOnUse" id="color-10"><stop offset="0" stop-color="#9d79c3"/><stop offset="1" stop-color="#503685"/></linearGradient><linearGradient x1="246.22909" y1="167.58142" x2="276.22926" y2="131.08134" gradientUnits="userSpaceOnUse" id="color-11"><stop offset="0" stop-color="#e1a374"/><stop offset="0.75461" stop-color="#d45914"/><stop offset="1" stop-color="#d45914"/></linearGradient><clipPath id="clip-11"><rect x="-240" y="-180" transform="scale(0.5,0.5)" width="1440" height="1080" fill="none" stroke-width="0.5"/></clipPath><clipPath id="clip-12"><path d="M-137.65275,-177.14515h765v990h-765z" fill="none" stroke-width="1"/></clipPath></defs><g transform="translate(120,90)"><g clip-path="url(#clip-12)" stroke="none" stroke-miterlimit="10"><g clip-path="url(#clip-1)" stroke-width="1"><g><g fill="none" font-family="sans-serif" font-weight="normal" font-size="12" text-anchor="start"/><g><g clip-path="url(#clip-2)"><g><g clip-path="url(#clip-3)"><g fill="url(#color-1)"><g><path d="M305.216,170.9836c0,39.09 -31.37,70.7775 -70.065,70.7775c-38.6975,0 -70.06875,-31.6875 -70.06875,-70.7775c0,-39.0925 31.37125,-70.78 70.06875,-70.78c38.695,0 70.065,31.6875 70.065,70.78"/></g></g></g></g></g></g></g></g><g clip-path="url(#clip-4)" stroke-width="1"><g fill="url(#color-2)"><g><path d="M170.31225,167.4211c0,-37.64125 30.515,-68.15625 68.15625,-68.15625v0c37.64125,0 68.15625,30.515 68.15625,68.15625v0c0,37.64125 -30.515,68.15625 -68.15625,68.15625v0c-37.64125,0 -68.15625,-30.515 -68.15625,-68.15625"/></g></g></g><g clip-path="url(#clip-5)" stroke-width="1"><g fill="url(#color-3)"><g><path d="M172.56225,167.4211c0,-36.4 29.50625,-65.9075 65.90625,-65.9075v0c36.39875,0 65.90625,29.5075 65.90625,65.9075v0c0,36.39875 -29.5075,65.90625 -65.90625,65.90625v0c-36.4,0 -65.90625,-29.5075 -65.90625,-65.90625"/></g></g></g><g clip-path="url(#clip-6)" stroke-width="1"><g fill="#ffffff"><path d="M161.657,154.00785c-1.5625,1.35625 -1.07125,5.63875 -1.07125,8.745c0,3.1775 2.08125,43.975 2.0325,44.66c-0.1875,4.05375 -1.8625,5.39375 -3.91125,5.56125v0.00375c-0.005,0 -0.01,-0.00125 -0.015,-0.00125c-0.00375,0 -0.00875,0.00125 -0.01375,0.00125v-0.00375c-2.04875,-0.1675 -3.72375,-1.5075 -3.91125,-5.56125c-0.04875,-0.685 2.03125,-41.4825 2.03125,-44.66c0,-3.10625 0.4925,-7.38875 -1.07,-8.745c0,0 -3.7625,-3.67625 -3.8225,-7.775c-0.05875,-4.1 1.94625,-24.49625 1.94625,-24.49625h0.0025c0.015,-0.28375 0.20875,-0.51125 0.44875,-0.51125c0.23875,0 0.4325,0.2275 0.4475,0.51125l0.25375,20.74875c0,0.33375 0.2375,0.6025 0.53125,0.605h0.0075h0.3575h0.0075c0.295,-0.0025 0.5325,-0.27125 0.5325,-0.605l0.25,-20.71c0,-0.0025 0,-0.00375 0,-0.00625c0,-0.0025 0,-0.005 0,-0.0075l0.00125,-0.025h0.00125c0.01625,-0.28375 0.24,-0.51125 0.515,-0.51125c0.27625,0 0.49875,0.2275 0.51625,0.51125l0.24875,20.74875c0,0.33375 0.23875,0.6025 0.5325,0.605h0.0075h0.3575h0.0075c0.295,-0.0025 0.53125,-0.27125 0.53125,-0.605l0.2525,-20.74875h0.00125c0.01625,-0.28375 0.23875,-0.51125 0.51375,-0.51125c0.275,0 0.4975,0.2275 0.51375,0.51125l0.2525,20.74875c0,0.33375 0.23875,0.6025 0.5325,0.605h0.0075h0.3575h0.00625c0.295,-0.0025 0.53375,-0.27125 0.53375,-0.605c0,0 0.24625,-20.69 0.24625,-20.7025c0,-0.3 0.20375,-0.54375 0.45625,-0.54375c0.25,0 0.455,0.24375 0.455,0.54375c0,0.00375 1.9975,20.4625 1.94125,24.45c-0.05875,4.09875 -3.8225,7.775 -3.8225,7.775"/></g></g><g clip-path="url(#clip-7)" stroke-width="1"><g><g fill="none" font-family="sans-serif" font-weight="normal" font-size="12" text-anchor="start"/><g><g clip-path="url(#clip-8)"><g fill="url(#color-4)"><g><g><g><path d="M341.58225,133.92485c0,14.18375 -11.385,25.68 -25.42375,25.68c-14.04125,0 -25.4225,-11.49625 -25.4225,-25.68c0,-14.1825 11.38125,-25.68125 25.4225,-25.68125c14.03875,0 25.42375,11.4975 25.42375,25.68125"/></g></g></g></g></g></g></g></g><path d="M291.39225,129.9586c0,-14.36375 11.645,-26.00875 26.01,-26.00875c14.36625,0 26.01,11.645 26.01,26.00875c0,14.36625 -11.64375,26.01125 -26.01,26.01125c-14.365,0 -26.01,-11.645 -26.01,-26.01125" fill="url(#color-5)" stroke-width="1"/><path d="M293.921,129.9586c0,-12.96625 10.51125,-23.47875 23.48,-23.47875c12.97,0 23.48125,10.5125 23.48125,23.47875c0,12.97 -10.51125,23.48125 -23.48125,23.48125c-12.96875,0 -23.48,-10.51125 -23.48,-23.48125" fill="url(#color-6)" stroke-width="1"/><g clip-path="url(#clip-9)" stroke-width="1"><g fill="#3e6ba7"><path d="M338.5875,129.95685c0,11.7 -9.485,21.18875 -21.18375,21.18875c-11.70125,0 -21.1875,-9.48875 -21.1875,-21.18875c0,-11.7 9.48625,-21.18375 21.1875,-21.18375c11.69875,0 21.18375,9.48375 21.18375,21.18375"/></g><g fill="#82bae7"><path d="M336.75638,129.95747c0,10.69 -8.66375,19.355 -19.3525,19.355c-10.68875,0 -19.355,-8.665 -19.355,-19.355c0,-10.68875 8.66625,-19.3525 19.355,-19.3525c10.68875,0 19.3525,8.66375 19.3525,19.3525"/></g></g><path d="M300.41725,129.95735c0,-9.38125 7.60375,-16.98375 16.98625,-16.98375c9.3775,0 16.9825,7.6025 16.9825,16.98375c0,9.38 -7.605,16.9875 -16.9825,16.9875c-9.3825,0 -16.98625,-7.6075 -16.98625,-16.9875" fill="url(#color-7)" stroke-width="1"/><g clip-path="url(#clip-10)" stroke-width="1"><g fill="#168235"><path d="M237.89975,163.22223v61.57625c-0.75375,-0.00875 -1.5025,-0.03625 -2.24875,-0.0725c-0.755,-0.0375 -1.505,-0.09375 -2.25125,-0.16c-29.18875,-2.585 -52.0975,-27.0175 -52.24625,-56.84375c0,-0.0975 -0.00375,-0.19375 -0.00375,-0.29125c0,-0.65625 0.015,-1.30875 0.0375,-1.95875c0.025,-0.75375 0.0625,-1.50375 0.1175,-2.25z"/></g><g fill="#a9151a"><path d="M235.6505,110.1351c0.74625,-0.03625 1.495,-0.06375 2.25,-0.07125v50.40625h-56.32875c0.09125,-0.755 0.19875,-1.505 0.32,-2.25c0.1225,-0.755 0.25875,-1.505 0.41,-2.25c4.98125,-24.5625 25.65125,-43.425 51.09875,-45.67875c0.745,-0.065 1.495,-0.12 2.25,-0.15625"/></g><g fill="#3f2a66"><path d="M295.54613,173.80573c-0.08375,0.755 -0.18375,1.505 -0.29625,2.25c-0.115,0.755 -0.24375,1.505 -0.38625,2.25c-4.67625,24.3625 -24.75625,43.24125 -49.71375,46.11125c-0.74625,0.08625 -1.495,0.16 -2.25,0.2175c-0.74625,0.05625 -1.49625,0.10125 -2.25,0.12875v-1.7225v-2.87125v-46.36375z"/></g><g fill="#a9460f"><path d="M295.88975,166.55597c0.005,0.29125 0.01,0.5825 0.01,0.875c0,0.46 -0.01125,0.9175 -0.0225,1.375c-0.01875,0.7525 -0.0475,1.50375 -0.095,2.25h-55.1325v-60.9575c0.755,0.0275 1.50375,0.075 2.25,0.13c0.755,0.0575 1.505,0.1325 2.25,0.21875c28.28125,3.2525 50.305,27.06 50.74,56.10875"/></g><g fill="#b3db18"><path d="M235.65,165.47323v57.53c-0.75375,-0.03875 -1.50375,-0.095 -2.25,-0.1625c-28.2375,-2.58 -50.3775,-26.2425 -50.525,-55.1175c0,-0.0975 -0.00375,-0.19375 -0.00375,-0.29125c0,-0.65625 0.01375,-1.3075 0.0375,-1.95875z"/></g><g fill="#f35b9d"><path d="M233.40013,112.01985c0.74625,-0.06875 1.49625,-0.1225 2.25,-0.16125v46.3625h-52.01625c0.12625,-0.75625 0.2675,-1.505 0.42375,-2.25c4.9425,-23.61 24.8475,-41.71375 49.3425,-43.95125"/></g><g fill="#9d79c3"><path d="M293.50775,176.05673c-0.11625,0.755 -0.25,1.505 -0.39875,2.25c-4.6375,23.40875 -23.95375,41.53125 -47.95875,44.37875c-0.74625,0.08875 -1.495,0.165 -2.25,0.2225v-46.85125z"/></g><g fill="#e1a374"><path d="M294.1685,166.55722c0.005,0.29125 0.01,0.5825 0.01,0.875c0,0.46 -0.01125,0.9175 -0.02375,1.375h-51.255v-56.85125c0.755,0.05875 1.50375,0.13625 2.25,0.225c27.32875,3.2425 48.585,26.2775 49.01875,54.37625"/></g></g><path d="M233.4035,167.72485v52.2375c-26.65125,-2.57 -47.50875,-24.9475 -47.6575,-52.2375z" fill="url(#color-8)" stroke-width="1"/><path d="M186.99475,155.9736c4.87625,-22.02 23.50125,-38.865 46.40875,-41.07375v41.07375h-46.40875" fill="url(#color-9)" stroke-width="1"/><path d="M290.1885,178.3086c-4.57125,21.82 -22.61625,38.685 -45.035,41.49125v-41.49125z" fill="url(#color-10)" stroke-width="1"/><path d="M245.1535,115.06985c25.74125,3.225 45.71875,24.97625 46.15,51.48875h-46.15z" fill="url(#color-11)" stroke-width="1"/><path d="M253.97563,144.28435c1.63125,0 2.4275,0.84375 2.4275,0.84375l-0.6925,0.88125c0,0 -0.69375,-0.59125 -1.70625,-0.59125c-1.1525,0 -2.1375,0.91 -2.1375,2.26c0,1.4525 0.99375,2.3425 2.185,2.3425c1.05875,0 1.68625,-0.69375 1.68625,-0.69375v-0.49625c0,-0.14125 -0.07375,-0.20625 -0.20625,-0.20625h-0.4025v-1.04h1.0775c0.45,0 0.6375,0.18625 0.6375,0.6275v2.84h-1.05v-0.31875c0,-0.14125 0.01,-0.28125 0.01,-0.28125h-0.02c0,0 -0.71125,0.7125 -1.9575,0.7125c-1.74375,0 -3.235,-1.33125 -3.235,-3.4775c0,-1.9125 1.45375,-3.4025 3.38375,-3.4025" fill="#ffffff" stroke-width="1"/><path d="M258.12113,147.48985c0,-0.14 -0.07625,-0.20625 -0.2075,-0.20625h-0.375v-1.0125h1.0875c0.4225,0 0.6375,0.17875 0.6375,0.58125v0.28125c0,0.1775 -0.01875,0.3 -0.01875,0.3h0.01875c0.21625,-0.68375 0.7875,-1.2275 1.51875,-1.2275c0.1025,0 0.21625,0.01875 0.21625,0.01875v1.17125c0,0 -0.1225,-0.01875 -0.2925,-0.01875c-0.505,0 -1.08625,0.29125 -1.30125,1.0025c-0.065,0.23375 -0.10375,0.4975 -0.10375,0.77875v1.89375h-1.18z" fill="#ffffff" stroke-width="1"/><path d="M263.15413,150.23648c0.63875,0 1.0875,-0.675 1.0875,-1.25625v-0.1125h-0.20625c-0.61875,0 -1.6025,0.085 -1.6025,0.75c0,0.31875 0.23375,0.61875 0.72125,0.61875M264.07288,148.05273h0.14875v-0.0375c0,-0.685 -0.27,-0.9375 -0.88,-0.9375c-0.215,0 -0.63625,0.05625 -0.63625,0.31875v0.2525h-1.10625v-0.50625c0,-0.89 1.25625,-0.98375 1.75125,-0.98375c1.595,0 2.06375,0.83375 2.06375,1.9025v1.78125c0,0.13125 0.07375,0.20625 0.205,0.20625h0.375v1.0025h-1.06875c-0.44,0 -0.6075,-0.24375 -0.6075,-0.525c0,-0.12125 0.00875,-0.20625 0.00875,-0.20625h-0.01875c0,0 -0.36625,0.84375 -1.44375,0.84375c-0.85375,0 -1.63,-0.535 -1.63,-1.49c0,-1.5 2.06,-1.62125 2.83875,-1.62125" fill="#ffffff" stroke-width="1"/><path d="M267.046,144.3961h1.03125v1.09625h-1.03125zM266.98975,147.48985c0,-0.14 -0.07625,-0.20625 -0.20625,-0.20625h-0.375v-1.0125h1.13375c0.44125,0 0.6275,0.1975 0.6275,0.6375v2.93375c0,0.13125 0.07625,0.20625 0.20625,0.20625h0.375v1.00375h-1.13375c-0.44125,0 -0.6275,-0.18875 -0.6275,-0.63875z" fill="#ffffff" stroke-width="1"/><path d="M269.7545,147.48985c0,-0.14 -0.075,-0.20625 -0.20625,-0.20625h-0.375v-1.0125h1.09625c0.4225,0 0.62875,0.1975 0.62875,0.535v0.14c0,0.1025 -0.01875,0.20625 -0.01875,0.20625h0.01875c0.20625,-0.4025 0.72125,-0.9925 1.6875,-0.9925c1.05875,0 1.66875,0.5525 1.66875,1.8175v1.865c0,0.13125 0.07375,0.20625 0.205,0.20625h0.375v1.00375h-1.135c-0.44875,0 -0.6375,-0.18875 -0.6375,-0.63875v-2.1925c0,-0.58125 -0.14875,-0.975 -0.74875,-0.975c-0.6375,0 -1.115,0.4025 -1.28375,0.975c-0.065,0.19625 -0.09375,0.4125 -0.09375,0.6375v2.19375h-1.18125z" fill="#ffffff" stroke-width="1"/><path d="M275.80188,149.53335c0,0 0.60875,0.70375 1.425,0.70375c0.365,0 0.64625,-0.15125 0.64625,-0.46875c0,-0.67625 -2.52125,-0.66625 -2.52125,-2.2125c0,-0.95625 0.8625,-1.39625 1.85625,-1.39625c0.6475,0 1.6775,0.215 1.6775,0.9925v0.4975h-1.05v-0.235c0,-0.225 -0.3375,-0.3375 -0.60125,-0.3375c-0.42,0 -0.71125,0.15 -0.71125,0.43125c0,0.75 2.54,0.6 2.54,2.19375c0,0.89875 -0.79625,1.4625 -1.83625,1.4625c-1.3125,0 -1.9875,-0.85375 -1.9875,-0.85375z" fill="#ffffff" stroke-width="1"/><path d="M307.51325,131.47123h0.6c1.33125,0 2.185,-0.79625 2.185,-2.29625c0,-1.48125 -0.8725,-2.2775 -2.185,-2.2775h-0.805v4.3675c0,0.13125 0.075,0.20625 0.205,0.20625M306.08075,126.89748h-0.61125v-1.04125h2.71c2.0525,0 3.3925,1.21875 3.3925,3.31875c0,2.09875 -1.34,3.3375 -3.3925,3.3375h-1.4625c-0.45,0 -0.63625,-0.18875 -0.63625,-0.63875z" fill="#ffffff" stroke-width="1"/><path d="M314.13187,131.69635c0.63875,0 1.0875,-0.675 1.0875,-1.25625v-0.1125h-0.20625c-0.6175,0 -1.60125,0.085 -1.60125,0.75c0,0.31875 0.2325,0.61875 0.72,0.61875M315.05063,129.5126h0.15v-0.0375c0,-0.685 -0.27125,-0.9375 -0.88125,-0.9375c-0.21375,0 -0.63625,0.05625 -0.63625,0.31875v0.2525h-1.10625v-0.50625c0,-0.89 1.25625,-0.98375 1.7525,-0.98375c1.59375,0 2.0625,0.83375 2.0625,1.9025v1.78125c0,0.13125 0.07375,0.20625 0.20625,0.20625h0.37375v1.0025h-1.0675c-0.44125,0 -0.61,-0.24375 -0.61,-0.525c0,-0.12125 0.01,-0.20625 0.01,-0.20625h-0.01875c0,0 -0.365,0.84375 -1.44375,0.84375c-0.8525,0 -1.63125,-0.535 -1.63125,-1.49c0,-1.5 2.0625,-1.62125 2.84,-1.62125" fill="#ffffff" stroke-width="1"/><path d="M318.0235,125.8561h1.03125v1.0975h-1.03125zM317.96725,128.94985c0,-0.14 -0.075,-0.20625 -0.20625,-0.20625h-0.375v-1.0125h1.13375c0.44125,0 0.6275,0.1975 0.6275,0.6375v2.93375c0,0.13125 0.07625,0.20625 0.20625,0.20625h0.375v1.00375h-1.13375c-0.44,0 -0.6275,-0.18875 -0.6275,-0.63875z" fill="#ffffff" stroke-width="1"/><path d="M320.73225,128.94985c0,-0.14 -0.075,-0.20625 -0.20625,-0.20625h-0.375v-1.0125h1.0875c0.4225,0 0.6375,0.17875 0.6375,0.58125v0.28125c0,0.1775 -0.01875,0.3 -0.01875,0.3h0.01875c0.215,-0.68375 0.7875,-1.2275 1.51875,-1.2275c0.1025,0 0.21625,0.01875 0.21625,0.01875v1.17125c0,0 -0.1225,-0.01875 -0.2925,-0.01875c-0.505,0 -1.08625,0.29125 -1.30125,1.0025c-0.065,0.235 -0.10375,0.4975 -0.10375,0.77875v1.89375h-1.18125z" fill="#ffffff" stroke-width="1"/><path d="M325.09138,133.47685c0.32875,0 0.61875,-0.1975 0.7875,-0.60875l0.16,-0.36625l-1.595,-3.59c-0.05625,-0.14 -0.12125,-0.16875 -0.2525,-0.16875h-0.14v-1.01125h0.7875c0.33625,0 0.50625,0.12125 0.62875,0.45l0.93625,2.38875c0.09375,0.245 0.17,0.63875 0.17,0.63875h0.0175c0,0 0.075,-0.39375 0.15875,-0.63875l0.815,-2.38875c0.11375,-0.32875 0.31,-0.45 0.6375,-0.45h0.8075v1.01125h-0.1425c-0.14,0 -0.21375,0.02875 -0.27,0.16875l-1.71625,4.32125c-0.3375,0.8625 -1.01125,1.24625 -1.72375,1.24625c-0.75,0 -1.20875,-0.48625 -1.20875,-0.48625l0.45875,-0.84375c0,0 0.29125,0.3275 0.68375,0.3275" fill="#ffffff" stroke-width="1"/><path d="M201.04538,139.45035h-0.61v-1.04h3.79625c0.45,0 0.6375,0.19625 0.6375,0.6375v1.01125h-1.10625v-0.4025c0,-0.13125 -0.075,-0.20625 -0.20625,-0.20625h-1.28375v1.88375h2.1275v1.04125h-2.1275v2.68875h-1.2275z" fill="#ffffff" stroke-width="1"/><path d="M205.82625,141.50348c0,-0.14125 -0.075,-0.20625 -0.20625,-0.20625h-0.375v-1.0125h1.0875c0.42125,0 0.6375,0.1775 0.6375,0.58125v0.28125c0,0.1775 -0.01875,0.3 -0.01875,0.3h0.01875c0.215,-0.685 0.7875,-1.2275 1.51875,-1.2275c0.1025,0 0.215,0.0175 0.215,0.0175v1.1725c0,0 -0.12125,-0.01875 -0.29125,-0.01875c-0.505,0 -1.08625,0.29 -1.3025,1.0025c-0.065,0.23375 -0.1025,0.49625 -0.1025,0.7775v1.89375h-1.18125z" fill="#ffffff" stroke-width="1"/><path d="M209.72638,141.50348c0,-0.14125 -0.075,-0.20625 -0.20625,-0.20625h-0.375v-1.0125h1.13375c0.44125,0 0.62875,0.1975 0.62875,0.6275v2.2025c0,0.58125 0.14875,0.975 0.74,0.975c0.8625,0 1.34,-0.75875 1.34,-1.6125v-2.1925h1.19125v3.57125c0,0.13 0.075,0.20625 0.20625,0.20625h0.37375v1.0025h-1.09625c-0.4125,0 -0.6275,-0.1975 -0.6275,-0.535v-0.13125c0,-0.11125 0.00875,-0.215 0.00875,-0.215h-0.0175c-0.22625,0.4975 -0.82625,0.99375 -1.65,0.99375c-1.0225,0 -1.65,-0.51625 -1.65,-1.81875z" fill="#ffffff" stroke-width="1"/><path d="M215.81975,138.40985h1.03125v1.09625h-1.03125zM215.7635,141.5036c0,-0.14125 -0.075,-0.20625 -0.20625,-0.20625h-0.37375v-1.0125h1.13375c0.44,0 0.6275,0.1975 0.6275,0.6375v2.93375c0,0.13 0.075,0.20625 0.20625,0.20625h0.375v1.0025h-1.135c-0.44,0 -0.6275,-0.1875 -0.6275,-0.6375z" fill="#ffffff" stroke-width="1"/><path d="M218.54775,141.23135h-0.61875v-0.94625h0.64625v-1.30375h1.16375v1.30375h1.08625v0.94625h-1.08625v1.93125c0,0.7875 0.6175,0.9 0.945,0.9c0.13125,0 0.21625,-0.01875 0.21625,-0.01875v1.04c0,0 -0.15,0.0275 -0.36625,0.0275c-0.665,0 -1.98625,-0.19625 -1.98625,-1.79875z" fill="#ffffff" stroke-width="1"/><path d="M222.0165,143.54635c0,0 0.60875,0.7025 1.425,0.7025c0.36625,0 0.64625,-0.15 0.64625,-0.46875c0,-0.675 -2.52125,-0.665 -2.52125,-2.2125c0,-0.955 0.8625,-1.39625 1.85625,-1.39625c0.64625,0 1.6775,0.21625 1.6775,0.99375v0.4975h-1.05v-0.235c0,-0.225 -0.3375,-0.33625 -0.6,-0.33625c-0.42125,0 -0.7125,0.14875 -0.7125,0.43c0,0.75 2.54,0.6 2.54,2.19375c0,0.9 -0.79625,1.4625 -1.83625,1.4625c-1.3125,0 -1.9875,-0.8525 -1.9875,-0.8525z" fill="#ffffff" stroke-width="1"/><path d="M188.347,179.1451c-0.05625,-0.16 -0.13125,-0.20625 -0.29,-0.20625h-0.16875v-1.04125h0.7775c0.46875,0 0.6375,0.1225 0.7875,0.54375l1.27375,3.7125c0.1325,0.375 0.2525,0.975 0.2525,0.975h0.02c0,0 0.12125,-0.6 0.2525,-0.975l1.275,-3.7125c0.15,-0.42125 0.31,-0.54375 0.77875,-0.54375h0.7875v1.04125h-0.17875c-0.16,0 -0.235,0.04625 -0.29,0.20625l-1.9875,5.4075h-1.29375z" fill="#ffffff" stroke-width="1"/><path d="M197.13975,181.54385c-0.01875,-0.57125 -0.4125,-0.965 -0.9,-0.965c-0.60875,0 -1.04,0.36625 -1.17125,0.965zM196.23975,179.6601c1.36875,0 2.11875,1.0025 2.11875,2.26875c0,0.14 -0.02875,0.44 -0.02875,0.44h-3.29875c0.09375,0.84375 0.7125,1.285 1.43375,1.285c0.76875,0 1.34125,-0.535 1.34125,-0.535l0.49625,0.825c0,0 -0.73125,0.72125 -1.92125,0.72125c-1.585,0 -2.56875,-1.14375 -2.56875,-2.5025c0,-1.47125 0.99375,-2.5025 2.4275,-2.5025" fill="#ffffff" stroke-width="1"/><path d="M202.36188,182.05035c0,-1.0875 -0.54375,-1.37875 -1.19,-1.37875c-0.72125,0 -1.11625,0.525 -1.11625,1.33125c0,0.835 0.4225,1.45375 1.19,1.45375c0.5725,0 1.11625,-0.32875 1.11625,-1.40625M200.96563,179.66035c1.10625,0 1.47125,0.675 1.47125,0.675h0.01875v-0.1225c0,-0.215 0.15,-0.44 0.525,-0.44h1.10625v1.0125h-0.36625c-0.12125,0 -0.20625,0.065 -0.20625,0.1875v3.29c0,1.64 -1.275,2.2575 -2.52125,2.2575c-0.6,0 -1.23625,-0.16875 -1.69625,-0.41125l0.36625,-0.9375c0,0 0.58875,0.31875 1.32,0.31875c0.7225,0 1.35125,-0.31 1.35125,-1.1725v-0.22375c0,-0.1125 0.00875,-0.25375 0.00875,-0.25375h-0.01875c-0.28125,0.40375 -0.69375,0.61875 -1.33125,0.61875c-1.3675,0 -2.14625,-1.10625 -2.14625,-2.41875c0,-1.3125 0.74,-2.38 2.11875,-2.38" fill="#ffffff" stroke-width="1"/><path d="M207.7245,181.54385c-0.01875,-0.57125 -0.4125,-0.965 -0.9,-0.965c-0.61,0 -1.04,0.36625 -1.17125,0.965zM206.8245,179.6601c1.36875,0 2.11875,1.0025 2.11875,2.26875c0,0.14 -0.02875,0.44 -0.02875,0.44h-3.3c0.095,0.84375 0.71375,1.285 1.435,1.285c0.76875,0 1.34,-0.535 1.34,-0.535l0.4975,0.825c0,0 -0.73125,0.72125 -1.92125,0.72125c-1.585,0 -2.56875,-1.14375 -2.56875,-2.5025c0,-1.47125 0.99375,-2.5025 2.4275,-2.5025" fill="#ffffff" stroke-width="1"/><path d="M209.92788,180.71923h-0.61875v-0.94625h0.64625v-1.3025h1.1625v1.3025h1.0875v0.94625h-1.0875v1.93c0,0.7875 0.61875,0.90125 0.9475,0.90125c0.13,0 0.215,-0.01875 0.215,-0.01875v1.04c0,0 -0.15,0.0275 -0.365,0.0275c-0.665,0 -1.9875,-0.19625 -1.9875,-1.79875z" fill="#ffffff" stroke-width="1"/><path d="M214.61538,183.73748c0.6375,0 1.0875,-0.675 1.0875,-1.25625v-0.1125h-0.20625c-0.61875,0 -1.6025,0.085 -1.6025,0.75c0,0.31875 0.23375,0.61875 0.72125,0.61875M215.53288,181.55373h0.15v-0.0375c0,-0.68375 -0.27125,-0.9375 -0.88125,-0.9375c-0.21375,0 -0.63625,0.05625 -0.63625,0.31875v0.25375h-1.10625v-0.5075c0,-0.89 1.25625,-0.98375 1.7525,-0.98375c1.59375,0 2.0625,0.835 2.0625,1.90375v1.78c0,0.13125 0.075,0.20625 0.20625,0.20625h0.37375v1.0025h-1.0675c-0.44125,0 -0.60875,-0.24375 -0.60875,-0.525c0,-0.12125 0.01,-0.20625 0.01,-0.20625h-0.02c0,0 -0.365,0.84375 -1.4425,0.84375c-0.85375,0 -1.63125,-0.53375 -1.63125,-1.49c0,-1.49875 2.06125,-1.62125 2.83875,-1.62125" fill="#ffffff" stroke-width="1"/><path d="M220.53025,183.66235c0.6475,0 1.2,-0.53375 1.2,-1.48125c0,-0.90875 -0.4875,-1.49875 -1.19,-1.49875c-0.61875,0 -1.2,0.45 -1.2,1.50875c0,0.74125 0.39375,1.47125 1.19,1.47125M218.1865,179.11735c0,-0.14125 -0.07375,-0.20625 -0.20625,-0.20625h-0.37375v-1.0125h1.13375c0.44,0 0.6375,0.19625 0.6375,0.6375v1.38625c0,0.235 -0.01875,0.40375 -0.01875,0.40375h0.01875c0,0 0.4225,-0.66625 1.43375,-0.66625c1.29375,0 2.1175,1.0225 2.1175,2.5025c0,1.51875 -0.9275,2.5025 -2.1925,2.5025c-0.99375,0 -1.425,-0.675 -1.425,-0.675h-0.01875c0,0 0.01875,0.1325 0.01875,0.31875v0.24375h-1.125z" fill="#ffffff" stroke-width="1"/><path d="M223.72788,179.1171c0,-0.14125 -0.075,-0.20625 -0.20625,-0.20625h-0.375v-1.0125h1.13375c0.44125,0 0.6375,0.1975 0.6375,0.6375v4.8075c0,0.13125 0.07625,0.20625 0.20625,0.20625h0.36625v1.00375h-1.125c-0.45,0 -0.6375,-0.1875 -0.6375,-0.6375z" fill="#ffffff" stroke-width="1"/><path d="M229.146,181.54385c-0.01875,-0.57125 -0.4125,-0.965 -0.9,-0.965c-0.61,0 -1.04,0.36625 -1.17125,0.965zM228.246,179.6601c1.36875,0 2.11875,1.0025 2.11875,2.26875c0,0.14 -0.02875,0.44 -0.02875,0.44h-3.29875c0.09375,0.84375 0.71125,1.285 1.43375,1.285c0.76875,0 1.34,-0.535 1.34,-0.535l0.49625,0.825c0,0 -0.73,0.72125 -1.92,0.72125c-1.585,0 -2.56875,-1.14375 -2.56875,-2.5025c0,-1.47125 0.99375,-2.5025 2.4275,-2.5025" fill="#ffffff" stroke-width="1"/><path d="M231.34938,183.03435c0,0 0.61,0.70375 1.425,0.70375c0.365,0 0.64625,-0.15125 0.64625,-0.46875c0,-0.67625 -2.52125,-0.66625 -2.52125,-2.2125c0,-0.95625 0.8625,-1.39625 1.85625,-1.39625c0.64625,0 1.6775,0.215 1.6775,0.99375v0.49625h-1.05v-0.23375c0,-0.225 -0.3375,-0.3375 -0.6,-0.3375c-0.42125,0 -0.71125,0.14875 -0.71125,0.43125c0,0.74875 2.53875,0.59875 2.53875,2.1925c0,0.9 -0.79625,1.4625 -1.83625,1.4625c-1.3125,0 -1.9875,-0.8525 -1.9875,-0.8525z" fill="#ffffff" stroke-width="1"/><path d="M251.91513,189.5296c0.69375,0 1.0875,-0.44875 1.0875,-1.14375c0,-0.68375 -0.39375,-1.12375 -1.0675,-1.12375h-1.00375v2.2675zM249.70263,187.2621h-0.60875v-1.04h3.04625c1.2475,0 2.11875,0.87125 2.11875,2.16375c0,1.29375 -0.87125,2.19375 -2.11875,2.19375h-1.20875v2.29625h-1.22875z" fill="#ffffff" stroke-width="1"/><path d="M255.22563,189.31485c0,-0.14125 -0.07625,-0.20625 -0.20625,-0.20625h-0.375v-1.0125h1.08625c0.4225,0 0.6375,0.1775 0.6375,0.58125v0.28125c0,0.1775 -0.01875,0.3 -0.01875,0.3h0.01875c0.21625,-0.685 0.78875,-1.2275 1.51875,-1.2275c0.1025,0 0.21625,0.0175 0.21625,0.0175v1.1725c0,0 -0.1225,-0.01875 -0.29125,-0.01875c-0.50625,0 -1.0875,0.29 -1.3025,1.0025c-0.065,0.23375 -0.10375,0.49625 -0.10375,0.7775v1.89375h-1.18z" fill="#ffffff" stroke-width="1"/><path d="M261.046,191.97598c0.77875,0 1.42625,-0.59875 1.42625,-1.49c0,-0.88 -0.6475,-1.49 -1.42625,-1.49c-0.7675,0 -1.415,0.61 -1.415,1.49c0,0.89125 0.6475,1.49 1.415,1.49M261.046,187.98348c1.4625,0 2.625,1.04125 2.625,2.5025c0,1.47125 -1.1625,2.5025 -2.625,2.5025c-1.4525,0 -2.615,-1.03125 -2.615,-2.5025c0,-1.46125 1.1625,-2.5025 2.615,-2.5025" fill="#ffffff" stroke-width="1"/><path d="M264.76912,189.0426h-0.61875v-0.94625h0.64625v-1.30375h1.1625v1.30375h1.0875v0.94625h-1.0875v1.93125c0,0.7875 0.61875,0.9 0.94625,0.9c0.13125,0 0.21625,-0.01875 0.21625,-0.01875v1.04c0,0 -0.15,0.0275 -0.365,0.0275c-0.66625,0 -1.9875,-0.19625 -1.9875,-1.79875z" fill="#ffffff" stroke-width="1"/><path d="M270.9935,189.86785c-0.01875,-0.5725 -0.4125,-0.965 -0.9,-0.965c-0.61,0 -1.04125,0.365 -1.17125,0.965zM270.0935,187.9841c1.3675,0 2.11875,1.0025 2.11875,2.2675c0,0.14125 -0.02875,0.44 -0.02875,0.44h-3.3c0.095,0.84375 0.7125,1.285 1.435,1.285c0.76875,0 1.34,-0.535 1.34,-0.535l0.49625,0.825c0,0 -0.73,0.7225 -1.92,0.7225c-1.585,0 -2.56875,-1.14375 -2.56875,-2.5025c0,-1.4725 0.99375,-2.5025 2.4275,-2.5025" fill="#ffffff" stroke-width="1"/><path d="M273.45975,186.2211h1.03125v1.09625h-1.03125zM273.4035,189.31485c0,-0.14125 -0.075,-0.20625 -0.20625,-0.20625h-0.375v-1.0125h1.13375c0.44125,0 0.6275,0.1975 0.6275,0.6375v2.93375c0,0.13 0.07625,0.20625 0.2075,0.20625h0.37375v1.0025h-1.13375c-0.44125,0 -0.6275,-0.1875 -0.6275,-0.6375z" fill="#ffffff" stroke-width="1"/><path d="M276.168,189.31485c0,-0.14125 -0.075,-0.20625 -0.205,-0.20625h-0.37625v-1.0125h1.0975c0.42125,0 0.6275,0.1975 0.6275,0.53375v0.14125c0,0.1025 -0.01875,0.205 -0.01875,0.205h0.01875c0.20625,-0.4025 0.72125,-0.9925 1.6875,-0.9925c1.05875,0 1.66875,0.5525 1.66875,1.81875v1.865c0,0.13 0.07375,0.20625 0.20625,0.20625h0.37375v1.0025h-1.13375c-0.45,0 -0.6375,-0.1875 -0.6375,-0.6375v-2.19375c0,-0.58 -0.15,-0.97375 -0.75,-0.97375c-0.6375,0 -1.115,0.4025 -1.28375,0.97375c-0.065,0.1975 -0.09375,0.41375 -0.09375,0.63875v2.1925h-1.18125z" fill="#ffffff" stroke-width="1"/></g></g></svg>