<svg version="1.1" xmlns="http://www.w3.org/2000/svg" xmlns:xlink="http://www.w3.org/1999/xlink" width="720" height="540" viewBox="0,0,720,540"><defs><clipPath id="clip-1"><path d="M-137.653,-177.1449h765v990h-765z" fill="none"/></clipPath><clipPath id="clip-2"><path d="M165.082,100.20385h140.13375v141.5575h-140.13375z" fill="none"/></clipPath><clipPath id="clip-3"><path d="M305.21575,170.98385c0,39.09 -31.37,70.7775 -70.065,70.7775c-38.6975,0 -70.06875,-31.6875 -70.06875,-70.7775c0,-39.0925 31.37125,-70.78 70.06875,-70.78c38.695,0 70.065,31.6875 70.065,70.78" fill="none"/></clipPath><radialGradient cx="235.147" cy="170.9826" r="70.06109" gradientUnits="userSpaceOnUse" id="color-1"><stop offset="0" stop-color="#868484"/><stop offset="0.926" stop-color="#bdbcbc"/><stop offset="0.926" stop-color="#bdbcbc"/><stop offset="1" stop-color="#ffffff"/></radialGradient><linearGradient x1="238.46825" y1="100.2426" x2="238.46825" y2="235.24449" gradientUnits="userSpaceOnUse" id="color-2"><stop offset="0" stop-color="#f4f4f4"/><stop offset="1" stop-color="#d3d2d2"/></linearGradient><linearGradient x1="238.46825" y1="102.45885" x2="238.46825" y2="233.00449" gradientUnits="userSpaceOnUse" id="color-3"><stop offset="0" stop-color="#c8c7c7"/><stop offset="0.955" stop-color="#ffffff"/><stop offset="1" stop-color="#ffffff"/></linearGradient><clipPath id="clip-4"><path d="M290.73575,108.24385h50.84625v51.36125h-50.84625z" fill="none"/></clipPath><radialGradient cx="316.1595" cy="133.92385" r="25.4209" gradientUnits="userSpaceOnUse" id="color-4"><stop offset="0" stop-color="#868484"/><stop offset="0.926" stop-color="#bdbcbc"/><stop offset="0.926" stop-color="#bdbcbc"/><stop offset="1" stop-color="#ffffff"/></radialGradient><linearGradient x1="317.40075" y1="104.4726" x2="317.40075" y2="155.73285" gradientUnits="userSpaceOnUse" id="color-5"><stop offset="0" stop-color="#ffffff"/><stop offset="1" stop-color="#deddde"/></linearGradient><linearGradient x1="317.40075" y1="152.50135" x2="317.40075" y2="107.71749" gradientUnits="userSpaceOnUse" id="color-6"><stop offset="0" stop-color="#ffffff"/><stop offset="1" stop-color="#c8c7c7"/></linearGradient><clipPath id="clip-5"><rect x="-240" y="-180" transform="scale(0.5,0.5)" width="1440" height="1080" fill="none" stroke-width="0.5"/></clipPath></defs><g transform="translate(120,90)"><g clip-path="url(#clip-5)" stroke="none" stroke-miterlimit="10"><g clip-path="url(#clip-1)" stroke-width="1"><g clip-path="url(#clip-2)"><g clip-path="url(#clip-3)"><path d="M305.21575,170.98385c0,39.09 -31.37,70.7775 -70.065,70.7775c-38.6975,0 -70.06875,-31.6875 -70.06875,-70.7775c0,-39.0925 31.37125,-70.78 70.06875,-70.78c38.695,0 70.065,31.6875 70.065,70.78" fill="url(#color-1)"/></g></g></g><path d="M170.312,167.42135c0,-37.64125 30.515,-68.15625 68.15625,-68.15625c37.64125,0 68.15625,30.515 68.15625,68.15625c0,37.64125 -30.515,68.15625 -68.15625,68.15625c-37.64125,0 -68.15625,-30.515 -68.15625,-68.15625" fill="url(#color-2)" stroke-width="1"/><path d="M172.562,167.42135c0,-36.4 29.50625,-65.9075 65.90625,-65.9075c36.39875,0 65.90625,29.5075 65.90625,65.9075c0,36.39875 -29.5075,65.90625 -65.90625,65.90625c-36.4,0 -65.90625,-29.5075 -65.90625,-65.90625" fill="url(#color-3)" stroke-width="1"/><g clip-path="url(#clip-4)" stroke-width="1"><path d="M341.582,133.9251c0,14.18375 -11.385,25.68 -25.42375,25.68c-14.04125,0 -25.4225,-11.49625 -25.4225,-25.68c0,-14.1825 11.38125,-25.68125 25.4225,-25.68125c14.03875,0 25.42375,11.4975 25.42375,25.68125" fill="url(#color-4)"/></g><path d="M291.392,129.95885c0,-14.36375 11.64375,-26.00875 26.01,-26.00875c14.36625,0 26.01,11.645 26.01,26.00875c0,14.36625 -11.64375,26.01125 -26.01,26.01125c-14.365,0 -26.01,-11.645 -26.01,-26.01125" fill="url(#color-5)" stroke-width="1"/><path d="M293.92075,129.95885c0,-12.96625 10.51,-23.47875 23.48,-23.47875c12.97,0 23.48125,10.5125 23.48125,23.47875c0,12.97 -10.51125,23.48125 -23.48125,23.48125c-12.96875,0 -23.48,-10.51125 -23.48,-23.48125" fill="url(#color-6)" stroke-width="1"/></g></g></svg>