<svg version="1.1" xmlns="http://www.w3.org/2000/svg" xmlns:xlink="http://www.w3.org/1999/xlink" width="42.371" height="42.373" viewBox="0,0,42.371,42.373"><defs><linearGradient x1="143.02074" y1="137.39135" x2="165.84257" y2="108.09335" gradientUnits="userSpaceOnUse" id="color-1"><stop offset="0" stop-color="#e3adff"/><stop offset="1" stop-color="#c58cf0"/></linearGradient></defs><g transform="translate(-137.507,-96.08303)"><g stroke-miterlimit="10"><path d="M179.878,117.26704c0,11.7 -9.485,21.189 -21.184,21.189c-11.701,0 -21.187,-9.489 -21.187,-21.189c0,-11.7 9.486,-21.184 21.187,-21.184c11.699,0 21.184,9.484 21.184,21.184" fill="#b57be9" stroke="none" stroke-width="1"/><path d="M178.047,117.26704c0,10.69 -8.664,19.355 -19.353,19.355c-10.688,0 -19.355,-8.665 -19.355,-19.355c0,-10.69 8.667,-19.352 19.355,-19.352c10.689,0 19.353,8.663 19.353,19.352" fill="#e3adff" stroke="none" stroke-width="1"/><path d="M141.708,117.26704c0,-9.381 7.604,-16.984 16.986,-16.984c9.378,0 16.983,7.603 16.983,16.984c0,9.38 -7.605,16.988 -16.983,16.988c-9.382,0 -16.986,-7.608 -16.986,-16.988" fill="url(#color-1)" stroke="none" stroke-width="1"/><path d="M145.79684,114.20218h2.02115c1.8876,0 3.00947,1.10407 3.00947,2.97386c0,1.98554 -1.27324,3.20535 -3.14303,3.20535h-1.8876zM147.77347,119.74032c1.46912,0 2.29717,-0.89038 2.29717,-2.44853c0,-1.56706 -0.83695,-2.44853 -2.34169,-2.44853h-1.1931v4.89707zM152.04632,116.08979h0.7123v4.29161h-0.7123zM151.90386,114.57614c0,-0.32054 0.18698,-0.50751 0.50751,-0.50751c0.32054,0 0.50751,0.18698 0.50751,0.50751c0,0.32054 -0.18698,0.50751 -0.50751,0.50751c-0.32054,0 -0.50751,-0.18698 -0.50751,-0.50751zM157.16535,117.71026c0,-0.69449 -0.38286,-1.08626 -1.07736,-1.08626c-0.41848,0 -0.81024,0.14246 -1.13968,0.40067v3.35672h-0.7123v-4.29161h0.49861l0.16027,0.38286c0.40957,-0.30273 0.89928,-0.4719 1.38899,-0.4719c0.96161,0 1.59377,0.61436 1.59377,1.56706v2.81359h-0.7123zM162.21378,117.71026c0,-0.69449 -0.38286,-1.08626 -1.07736,-1.08626c-0.41848,0 -0.81024,0.14246 -1.13968,0.40067v3.35672h-0.7123v-4.29161h0.49861l0.16027,0.38286c0.40957,-0.30273 0.89928,-0.4719 1.38899,-0.4719c0.96161,0 1.59377,0.61436 1.59377,1.56706v2.81359h-0.7123zM164.05591,118.2534c0,-1.31776 0.81024,-2.25265 2.00335,-2.25265c1.05955,0 1.77185,0.73901 1.77185,1.81637c0,0.16917 -0.01781,0.4808 -0.03562,0.61436h-2.99166c0.10685,0.91709 0.67669,1.46022 1.58487,1.46022c0.37396,0 0.79243,-0.09794 1.12187,-0.25821l0.16027,0.51642c-0.38286,0.20479 -0.91709,0.32054 -1.40679,0.32054c-1.36228,0 -2.20813,-0.84586 -2.20813,-2.21704zM167.16332,117.89726c0,-0.81915 -0.42738,-1.29105 -1.15749,-1.29105c-0.7212,0 -1.14859,0.45409 -1.21091,1.29105zM169.03279,116.08979h0.58765l0.08013,0.62326c0.32054,-0.41848 0.80134,-0.66778 1.31776,-0.66778c0.19588,0 0.38286,0.03562 0.56984,0.09794l-0.17808,0.65888c-0.14246,-0.05342 -0.30273,-0.08013 -0.4719,-0.08013c-0.4808,0 -0.91709,0.22259 -1.1931,0.59655v3.06289h-0.7123z" fill="#ffffff" stroke="#000000" stroke-width="0.5"/><path d="M145.79684,114.20218h2.02115c1.8876,0 3.00947,1.10407 3.00947,2.97386c0,1.98554 -1.27324,3.20535 -3.14303,3.20535h-1.8876zM147.77347,119.74032c1.46912,0 2.29717,-0.89038 2.29717,-2.44853c0,-1.56706 -0.83695,-2.44853 -2.34169,-2.44853h-1.1931v4.89707zM152.04632,116.08979h0.7123v4.29161h-0.7123zM151.90386,114.57614c0,-0.32054 0.18698,-0.50751 0.50751,-0.50751c0.32054,0 0.50751,0.18698 0.50751,0.50751c0,0.32054 -0.18698,0.50751 -0.50751,0.50751c-0.32054,0 -0.50751,-0.18698 -0.50751,-0.50751zM157.16535,117.71026c0,-0.69449 -0.38286,-1.08626 -1.07736,-1.08626c-0.41848,0 -0.81024,0.14246 -1.13968,0.40067v3.35672h-0.7123v-4.29161h0.49861l0.16027,0.38286c0.40957,-0.30273 0.89928,-0.4719 1.38899,-0.4719c0.96161,0 1.59377,0.61436 1.59377,1.56706v2.81359h-0.7123zM162.21378,117.71026c0,-0.69449 -0.38286,-1.08626 -1.07736,-1.08626c-0.41848,0 -0.81024,0.14246 -1.13968,0.40067v3.35672h-0.7123v-4.29161h0.49861l0.16027,0.38286c0.40957,-0.30273 0.89928,-0.4719 1.38899,-0.4719c0.96161,0 1.59377,0.61436 1.59377,1.56706v2.81359h-0.7123zM164.05591,118.2534c0,-1.31776 0.81024,-2.25265 2.00335,-2.25265c1.05955,0 1.77185,0.73901 1.77185,1.81637c0,0.16917 -0.01781,0.4808 -0.03562,0.61436h-2.99166c0.10685,0.91709 0.67669,1.46022 1.58487,1.46022c0.37396,0 0.79243,-0.09794 1.12187,-0.25821l0.16027,0.51642c-0.38286,0.20479 -0.91709,0.32054 -1.40679,0.32054c-1.36228,0 -2.20813,-0.84586 -2.20813,-2.21704zM167.16332,117.89726c0,-0.81915 -0.42738,-1.29105 -1.15749,-1.29105c-0.7212,0 -1.14859,0.45409 -1.21091,1.29105zM169.03279,116.08979h0.58765l0.08013,0.62326c0.32054,-0.41848 0.80134,-0.66778 1.31776,-0.66778c0.19588,0 0.38286,0.03562 0.56984,0.09794l-0.17808,0.65888c-0.14246,-0.05342 -0.30273,-0.08013 -0.4719,-0.08013c-0.4808,0 -0.91709,0.22259 -1.1931,0.59655v3.06289h-0.7123z" fill="#ffffff" stroke="none" stroke-width="1"/></g></g></svg>