<svg version="1.1" xmlns="http://www.w3.org/2000/svg" xmlns:xlink="http://www.w3.org/1999/xlink" width="8" height="8" viewBox="0,0,8,8"><g transform="translate(-236,-176)"><g stroke="none" stroke-width="0" stroke-miterlimit="10"><path d="M236,184v-8h8v8z" fill="#000000"/><path d="M236,178v-1h1v1z" fill="#ff00ff"/><path d="M236,182v-1h1v1z" fill="#ff00ff"/><path d="M236,180v-1h1v1z" fill="#ff00ff"/><path d="M236,184v-1h1v1z" fill="#ff00ff"/><path d="M240,182v-1h1v1z" fill="#ff00ff"/><path d="M240,184v-1h1v1z" fill="#ff00ff"/><path d="M238,182v-1h1v1z" fill="#ff00ff"/><path d="M238,180v-1h1v1z" fill="#ff00ff"/><path d="M238,184v-1h1v1z" fill="#ff00ff"/><path d="M242,184v-1h1v1z" fill="#ff00ff"/><path d="M237,181v-1h1v1z" fill="#ff00ff"/><path d="M237,179v-1h1v1z" fill="#ff00ff"/><path d="M237,183v-1h1v1z" fill="#ff00ff"/><path d="M241,183v-1h1v1z" fill="#ff00ff"/><path d="M239,181v-1h1v1z" fill="#ff00ff"/><path d="M239,183v-1h1v1z" fill="#ff00ff"/><path d="M244,182v1h-1v-1z" fill="#ff00ff"/><path d="M244,178v1h-1v-1z" fill="#ff00ff"/><path d="M244,180v1h-1v-1z" fill="#ff00ff"/><path d="M244,176v1h-1v-1z" fill="#ff00ff"/><path d="M240,178v1h-1v-1z" fill="#ff00ff"/><path d="M240,176v1h-1v-1z" fill="#ff00ff"/><path d="M242,178v1h-1v-1z" fill="#ff00ff"/><path d="M242,180v1h-1v-1z" fill="#ff00ff"/><path d="M242,176v1h-1v-1z" fill="#ff00ff"/><path d="M238,176v1h-1v-1z" fill="#ff00ff"/><path d="M243,179v1h-1v-1z" fill="#ff00ff"/><path d="M243,181v1h-1v-1z" fill="#ff00ff"/><path d="M243,177v1h-1v-1z" fill="#ff00ff"/><path d="M239,177v1h-1v-1z" fill="#ff00ff"/><path d="M241,179v1h-1v-1z" fill="#ff00ff"/><path d="M241,177v1h-1v-1z" fill="#ff00ff"/></g></g></svg>