<svg version="1.1" xmlns="http://www.w3.org/2000/svg" xmlns:xlink="http://www.w3.org/1999/xlink" width="13.57643" height="91.753" viewBox="0,0,13.57643,91.753"><g transform="translate(-151.90472,-121.22501)"><g fill="#ffffff" stroke="none" stroke-miterlimit="10"><path d="M161.657,154.00802c-1.562,1.356 -1.071,5.638 -1.071,8.745c0,3.177 2.081,43.975 2.032,44.66c-0.187,4.053 -1.862,5.393 -3.911,5.561v0.004l-0.015,-0.002l-0.014,0.002v-0.004c-2.048,-0.168 -3.723,-1.508 -3.911,-5.561c-0.049,-0.685 2.031,-41.483 2.031,-44.66c0,-3.107 0.493,-7.389 -1.07,-8.745c0,0 -3.762,-3.677 -3.822,-7.775c-0.059,-4.1 1.946,-24.497 1.946,-24.497h0.003c0.015,-0.283 0.208,-0.511 0.448,-0.511c0.239,0 0.433,0.228 0.448,0.511l0.254,20.749c0,0.334 0.237,0.603 0.531,0.605h0.372c0.295,-0.002 0.533,-0.271 0.533,-0.605l0.25,-20.71v-0.014l0.001,-0.025h0.001c0.009,-0.28 0.235,-0.504 0.515,-0.511c0.28,0.007 0.507,0.231 0.517,0.511l0.248,20.749c0,0.334 0.239,0.603 0.533,0.605h0.372c0.295,-0.002 0.532,-0.271 0.532,-0.605l0.252,-20.749h0.001c0.009,-0.279 0.235,-0.503 0.514,-0.511c0.279,0.008 0.505,0.232 0.514,0.511l0.252,20.749c0,0.334 0.239,0.603 0.533,0.605h0.371c0.295,-0.002 0.534,-0.271 0.534,-0.605l0.246,-20.702c0,-0.3 0.204,-0.544 0.456,-0.544c0.25,0 0.455,0.244 0.455,0.544c0,0.003 1.998,20.462 1.942,24.45c-0.059,4.098 -3.823,7.775 -3.823,7.775"/></g></g></svg>