<svg version="1.1" xmlns="http://www.w3.org/2000/svg" xmlns:xlink="http://www.w3.org/1999/xlink" width="5406.3406" height="3500" viewBox="0,0,5406.3406,3500"><g transform="translate(2466.50015,1570)"><g stroke="none" stroke-miterlimit="10"><path d="M-2459.84043,-1570c9.12946,1.66 18.6389,9.09 21.78872,19.3l8.59949,25.82c10.63937,31.98 23.69859,67.97 27.45838,101.51c0.22668,2.0667 0.41998,4.1433 0.57997,6.23c10.37939,14.93 21.17875,29.6 30.87817,44.97c38.27774,60.64 71.76576,125.05 113.51329,183.46c26.85842,37.57 60.39643,76.12 81.13521,117.69c12.28928,24.64 14.00917,54.59 26.35844,79.09c4.9797,9.88 14.31916,17.41 18.20892,27.77c10.94936,29.21 14.37915,60.79 24.16857,90.41c27.59837,44.96 37.70777,97.32 68.54595,140.09c27.87835,38.65 66.45607,69.45 96.83427,105.93c6.23963,7.49 9.00947,17.65 15.91906,24.53c7.22957,7.21 18.29892,9.67 25.57849,16.83c24.34856,23.97 46.31726,51.21 68.40595,78.16c22.10869,17.08 43.14746,36.4 66.88605,49.93c23.6886,13.5 51.81694,23.38 77.04545,34.2c28.49831,12.22 59.57648,38.18 91.09461,42.35c26.44843,3.51 57.35661,-7.25 82.9851,0.96c14.88912,4.78 23.97858,20.56 37.98776,27.51c10.60938,5.27 23.6186,3.83 34.51796,8.5c9.69943,4.16 16.67901,13.35 26.35844,17.57c7.19958,3.15 73.32567,15.82 73.86564,15.93c0,0 7.60956,1.52 13.49921,7.1h837.55049c84.12503,0 174.42969,-10.07 257.70477,0.12c41.38756,5.06 84.79499,16.58 126.03255,23.45c97.05426,16.4 196.12841,-2.62 293.67265,6.52c78.40537,7.35 153.23095,31.32 230.45638,42.35c33.848,4.83 68.60594,5.2 101.59399,14.22c28.90829,7.91 55.18674,23.39 82.40513,35.94c14.41915,6.64 30.94817,8.04 45.17733,15.07c15.51908,7.67 28.46832,19.76 43.30744,28.66c38.06775,22.82 80.16526,40.6 119.81291,60.48c56.14668,18.79 109.73352,40.27 166.56016,56.55c31.16816,8.93 60.49643,24.73 92.45454,30.2c42.52749,7.28 88.46477,-4.24 130.99226,2.02c58.85652,8.66 113.79328,40.31 174.10971,44.91c94.61441,7.21 192.74861,-0.13 287.693,-0.13c80.16526,0 168.51005,10.78 247.82535,0.12c58.57654,-7.87 115.38318,-22.59 174.70967,-27.46c71.35579,-5.85 144.72145,4.84 215.65726,-2.57c41.60754,-4.35 81.2352,-20.91 122.35277,-26.99c49.78705,-7.37 103.41389,-3.08 153.58092,-3.13c48.9771,-0.06 97.95421,-0.03 146.92132,-0.03c13.32921,0 76.90545,-0.13 80.81522,0.67c61.98634,12.68 93.20449,54.47 136.08196,114.19v1819h-5399.68086z" fill="#976b4b" stroke-width="0.5"/><path d="M-2466.50015,707.24491l11.14934,-2250.66" fill="none" stroke-width="5"/></g></g></svg>