<svg version="1.1" xmlns="http://www.w3.org/2000/svg" xmlns:xlink="http://www.w3.org/1999/xlink" width="82.12573" height="51.57416" viewBox="0,0,82.12573,51.57416"><g transform="translate(-76.57608,-162.86192)"><g fill="#ffffff" stroke="none" stroke-miterlimit="10"><path d="M108.69467,180.68782c0.39333,2.03073 4.34801,3.74701 7.03789,5.30001c2.75136,1.5885 39.12395,20.18531 39.69268,20.57024c3.41736,2.18894 3.74034,4.30954 2.86047,6.16752l0.00347,0.002l-0.00836,0.01249l-0.00614,0.01263l-0.00347,-0.002c-1.16862,1.69012 -3.1666,2.47071 -6.77147,0.60652c-0.61773,-0.30006 -34.90982,-22.50039 -37.66118,-24.0889c-2.68988,-1.553 -6.15255,-4.12145 -8.10838,-3.44585c0,0 -5.06451,1.41999 -8.64435,-0.57755c-3.58021,-1.99891 -20.24115,-13.93329 -20.24115,-13.93329l0.0015,-0.0026c-0.23845,-0.15499 -0.3394,-0.43613 -0.2194,-0.64397c0.1195,-0.20698 0.41395,-0.26099 0.6674,-0.13198l18.09529,10.15403c0.28925,0.167 0.64072,0.09625 0.78945,-0.15736l0.186,-0.32216c0.14577,-0.25647 0.0318,-0.59709 -0.25745,-0.76409l-17.81038,-10.57151l-0.01126,-0.0065l-0.02115,-0.01336l0.0005,-0.00087c-0.23798,-0.1478 -0.31984,-0.45602 -0.1859,-0.702c0.14606,-0.23899 0.45355,-0.32358 0.7019,-0.19174l18.09229,10.15923c0.28925,0.167 0.64171,0.09452 0.79044,-0.15909l0.186,-0.32216c0.14577,-0.25647 0.0313,-0.59623 -0.25795,-0.76323l-17.84229,-10.59224l0.0005,-0.00087c-0.23798,-0.1478 -0.31897,-0.45552 -0.1864,-0.70114c0.14643,-0.23762 0.45342,-0.32134 0.7004,-0.18913l18.09429,10.15576c0.28925,0.167 0.64171,0.09452 0.79044,-0.15909l0.1855,-0.32129c0.14577,-0.25647 0.0323,-0.59796 -0.25695,-0.76496l-17.80545,-10.56404c-0.25981,-0.15 -0.36911,-0.44866 -0.24311,-0.6669c0.125,-0.21651 0.4388,-0.27205 0.69861,-0.12205c0.00347,0.002 18.71961,8.50069 22.14532,10.54318c3.52034,2.10059 4.82184,7.19832 4.82184,7.19832"/></g></g></svg>