<svg version="1.1" xmlns="http://www.w3.org/2000/svg" xmlns:xlink="http://www.w3.org/1999/xlink" width="38.96749" height="38.08646" viewBox="0,0,38.96749,38.08646"><g transform="translate(-209.25062,-150.51862)"><g stroke="#000000" stroke-miterlimit="10"><path d="M231.66366,188.60508c-9.14277,0 -16.55443,-7.24756 -16.55443,-16.18792c0,-0.78587 -6.31352,-9.26285 -5.83245,-12.90786c0.40452,-2.76293 9.55433,-0.3003 11.53093,-0.54877c4.86102,-1.00187 5.4542,-2.73129 10.85596,-2.73129c1.57876,0 3.53694,-7.03389 6.07355,-5.48884c4.69159,2.85764 10.48089,15.87384 10.48089,21.67674c0,8.94036 -7.41168,16.18792 -16.55443,16.18792z" fill="#9966ff" stroke-width="0"/><path d="M231.87007,170.77208c-1.41148,0 -2.55572,-1.14423 -2.55572,-2.55573c0,-1.41149 1.14423,-2.55572 2.55572,-2.55572c1.4115,0 2.55572,1.14422 2.55572,2.55572c0,1.4115 -1.14422,2.55573 -2.55572,2.55573z" fill="#000000" stroke-width="1.5"/><path d="M243.83381,164.03088z" fill="#000000" stroke-width="0"/><path d="M245.61169,164.9569c0,1.37058 -0.22211,1.74084 -1.59269,1.74084c-0.68528,0 -0.93531,-0.35186 -1.3844,-0.80094c-0.44908,-0.44908 -0.80093,-0.99542 -0.80093,-1.68071c0,-1.37058 -0.07421,-1.74085 1.29638,-1.74085c1.37058,0 2.48163,1.11107 2.48163,2.48165z" fill="#000000" stroke-width="1.5"/></g></g></svg>