<svg version="1.1" xmlns="http://www.w3.org/2000/svg" xmlns:xlink="http://www.w3.org/1999/xlink" width="70.23702" height="134.45759" viewBox="0,0,70.23702,134.45759"><g transform="translate(-204.88149,-112.77121)"><g stroke="#000000" stroke-miterlimit="10"><path d="M208.53887,113.13203c4.88103,-1.92722 4.55822,1.98179 26.71501,59.49978c12.59671,33.65861 22.56843,61.23726 18.9017,62.38885c-5.35082,2.06551 -14.11829,-25.84114 -26.71501,-59.49976c-19.29185,-55.00728 -24.71725,-60.28217 -18.90172,-62.38886z" fill="#d99e82" stroke-width="0"/><path d="M230.47916,189.82777c-10.44185,0 -18.90663,-8.27736 -18.90663,-18.48805c0,-0.89754 -7.21059,-10.579 -6.66117,-14.74191c0.462,-3.15552 10.91188,-0.34297 13.16935,-0.62675c5.55171,-1.14422 6.22918,-3.11936 12.39847,-3.11936c1.80309,0 4.0395,-8.03333 6.93654,-6.26876c5.35822,3.26367 11.97009,18.12934 11.97009,24.75678c0,10.21069 -8.46478,18.48803 -18.90661,18.48803z" fill="#fcb1e3" stroke-width="0"/><path d="M256.5577,211.45704c-4.51147,3.13633 -9.29744,4.95591 -14.33998,5.43821c-5.19746,0.4971 -9.66268,0.86931 -13.9833,-2.72663c-8.51249,-7.08467 -9.52854,-21.93994 -2.50313,-28.03844c1.65139,-1.43386 3.7325,-2.80237 5.1745,-3.51323c2.01805,-0.99481 2.19265,-1.14272 6.52825,-2.22702c6.90266,-1.07162 11.34,-1.03708 16.62053,3.35774c8.51249,7.08467 9.63316,19.30886 2.50313,27.70939z" fill="#ffd983" stroke-width="0"/><path d="M231.237,240.42305c-2.92505,-6.4919 -1.92889,-9.30508 -0.98683,-14.46317c1.53821,-7.16042 4.46852,-9.94808 11.24525,-12.40953c2.54164,-0.92315 8.84268,-2.72102 12.39292,-3.12116c4.13896,-0.40317 7.7469,0.66358 10.73571,2.80305c2.68293,1.9205 3.46998,2.49208 7.2317,7.88973c2.99491,5.1153 5.12773,13.06077 0.85565,19.30762c-4.11277,6.01386 -12.59012,6.79922 -21.224,6.79922c-9.51424,0 -17.18141,-0.7184 -20.25043,-6.80577z" fill="#a6d388" stroke-width="0"/><path d="M230.71491,169.46089c-1.61204,0 -2.91885,-1.30681 -2.91885,-2.91886c0,-1.61204 1.30681,-2.91886 2.91885,-2.91886c1.61206,0 2.91886,1.30681 2.91886,2.91886c0,1.61206 -1.30681,2.91886 -2.91886,2.91886z" fill="#000000" stroke-width="1.5"/><path d="M244.37856,161.76185z" fill="#000000" stroke-width="0"/><path d="M246.40906,162.81944c0,1.56532 -0.25366,1.98819 -1.81898,1.98819c-0.78265,0 -1.0682,-0.40187 -1.58111,-0.91474c-0.51289,-0.51289 -0.91474,-1.13687 -0.91474,-1.91952c0,-1.56532 -0.08475,-1.98819 1.48059,-1.98819c1.56532,0 2.83424,1.26894 2.83424,2.83426z" fill="#000000" stroke-width="1.5"/></g></g></svg>