<svg version="1.1" xmlns="http://www.w3.org/2000/svg" xmlns:xlink="http://www.w3.org/1999/xlink" width="55.25" height="60.9575" viewBox="0,0,55.25,60.9575"><defs><linearGradient x1="246.22933" y1="167.57387" x2="276.22918" y2="131.07353" gradientUnits="userSpaceOnUse" id="color-1"><stop offset="0" stop-color="#e1a374"/><stop offset="0.755" stop-color="#d45914"/><stop offset="1" stop-color="#d45914"/></linearGradient></defs><g transform="translate(-240.91387,-109.90322)"><g stroke="none" stroke-miterlimit="10"><g><path d="M296.15388,166.36073c0.00583,0.29166 0.00916,0.58334 0.01,0.875c0,0.46 -0.01125,0.9175 -0.0225,1.375c-0.0175,0.75333 -0.04917,1.50333 -0.095,2.25h-55.1325v-60.9575c1.50399,0.05731 3.00514,0.17365 4.5,0.34875c28.28125,3.2525 50.305,27.06 50.74,56.10875" fill="#a9460f"/><path d="M294.16825,166.5576c0.00583,0.29166 0.00916,0.58334 0.01,0.875c-0.00167,0.45917 -0.00959,0.9175 -0.02375,1.375h-51.255v-56.85125c0.75417,0.06 1.50417,0.135 2.25,0.225c27.32875,3.2425 48.585,26.2775 49.01875,54.37625" fill="#e1a374"/><path d="M245.15325,115.0701c25.74125,3.225 45.71875,24.97625 46.15,51.48875h-46.15z" fill="url(#color-1)"/><path d="M253.97575,144.2851c1.63125,0 2.4275,0.84375 2.4275,0.84375l-0.6925,0.88125c0,0 -0.69375,-0.59125 -1.70625,-0.59125c-1.1525,0 -2.1375,0.91 -2.1375,2.26c0,1.4525 0.99375,2.3425 2.185,2.3425c1.05875,0 1.68625,-0.69375 1.68625,-0.69375v-0.49625c0,-0.14125 -0.07375,-0.20625 -0.20625,-0.20625h-0.4025v-1.04h1.0775c0.45,0 0.6375,0.18625 0.6375,0.6275v2.84h-1.05v-0.31875c0,-0.14125 0.01,-0.28125 0.01,-0.28125h-0.02c0,0 -0.71125,0.7125 -1.9575,0.7125c-1.74375,0 -3.235,-1.33125 -3.235,-3.4775c0,-1.9125 1.45375,-3.4025 3.38375,-3.4025" fill="#ffffff"/><path d="M258.122,147.4901c0,-0.14 -0.07625,-0.20625 -0.2075,-0.20625h-0.375v-1.0125h1.0875c0.4225,0 0.6375,0.17875 0.6375,0.58125v0.28125c0,0.1775 -0.01875,0.3 -0.01875,0.3h0.01875c0.21625,-0.68375 0.7875,-1.2275 1.51875,-1.2275c0.1025,0 0.21625,0.01875 0.21625,0.01875v1.17125c0,0 -0.1225,-0.01875 -0.2925,-0.01875c-0.505,0 -1.08625,0.29125 -1.30125,1.0025c-0.07006,0.25361 -0.10496,0.51564 -0.10375,0.77875v1.89375h-1.18z" fill="#ffffff"/><path d="M263.1545,150.23635c0.63875,0 1.0875,-0.675 1.0875,-1.25625v-0.1125h-0.20625c-0.61875,0 -1.6025,0.085 -1.6025,0.75c0,0.31875 0.23375,0.61875 0.72125,0.61875M264.07325,148.0526h0.14875v-0.0375c0,-0.685 -0.27,-0.9375 -0.88,-0.9375c-0.215,0 -0.63625,0.05625 -0.63625,0.31875v0.2525h-1.10625v-0.50625c0,-0.89 1.25625,-0.98375 1.75125,-0.98375c1.595,0 2.06375,0.83375 2.06375,1.9025v1.78125c0,0.13125 0.07375,0.20625 0.205,0.20625h0.375v1.0025h-1.06875c-0.44,0 -0.6075,-0.24375 -0.6075,-0.525c0,-0.12125 0.00875,-0.20625 0.00875,-0.20625h-0.01875c0,0 -0.36625,0.84375 -1.44375,0.84375c-0.85375,0 -1.63,-0.535 -1.63,-1.49c0,-1.5 2.06,-1.62125 2.83875,-1.62125" fill="#ffffff"/><path d="M267.04575,144.39635h1.03125v1.09625h-1.03125zM266.9895,147.4901c0,-0.14 -0.07625,-0.20625 -0.20625,-0.20625h-0.375v-1.0125h1.13375c0.44125,0 0.6275,0.1975 0.6275,0.6375v2.93375c0,0.13125 0.07625,0.20625 0.20625,0.20625h0.375v1.00375h-1.13375c-0.44125,0 -0.6275,-0.18875 -0.6275,-0.63875z" fill="#ffffff"/><path d="M269.7545,147.4901c0,-0.14 -0.075,-0.20625 -0.20625,-0.20625h-0.375v-1.0125h1.09625c0.4225,0 0.62875,0.1975 0.62875,0.535v0.14c0,0.1025 -0.01875,0.20625 -0.01875,0.20625h0.01875c0.32476,-0.62789 0.98091,-1.01381 1.6875,-0.9925c1.05875,0 1.66875,0.5525 1.66875,1.8175v1.865c0,0.13125 0.07375,0.20625 0.205,0.20625h0.375v1.00375h-1.135c-0.44875,0 -0.6375,-0.18875 -0.6375,-0.63875v-2.1925c0,-0.58125 -0.14875,-0.975 -0.74875,-0.975c-0.6375,0 -1.115,0.4025 -1.28375,0.975c-0.0655,0.20604 -0.09716,0.42133 -0.09375,0.6375v2.19375h-1.18125z" fill="#ffffff"/><path d="M275.802,149.53385c0,0 0.60875,0.70375 1.425,0.70375c0.365,0 0.64625,-0.15125 0.64625,-0.46875c0,-0.67625 -2.52125,-0.66625 -2.52125,-2.2125c0,-0.95625 0.8625,-1.39625 1.85625,-1.39625c0.6475,0 1.6775,0.215 1.6775,0.9925v0.4975h-1.05v-0.235c0,-0.225 -0.3375,-0.3375 -0.60125,-0.3375c-0.42,0 -0.71125,0.15 -0.71125,0.43125c0,0.75 2.54,0.6 2.54,2.19375c0,0.89875 -0.79625,1.4625 -1.83625,1.4625c-1.3125,0 -1.9875,-0.85375 -1.9875,-0.85375z" fill="#ffffff"/></g></g></g></svg>