<svg version="1.1" xmlns="http://www.w3.org/2000/svg" xmlns:xlink="http://www.w3.org/1999/xlink" width="51.57601" height="82.11439" viewBox="0,0,51.57601,82.11439"><g transform="translate(-108.81299,-131.28257)"><g fill="#ffffff" stroke="none" stroke-miterlimit="10"><path d="M131.77514,160.42618c-0.67473,1.95533 1.89149,5.41815 3.44499,8.10889c1.5885,2.75136 23.78969,37.04295 24.08976,37.66068c1.86455,3.6035 1.08396,5.60147 -0.60653,6.77146l0.002,0.00347l-0.01399,0.00577l-0.01112,0.00873l-0.002,-0.00347c-1.85762,0.87851 -3.97821,0.55554 -6.16752,-2.86046c-0.38494,-0.56873 -18.9826,-36.94082 -20.5711,-39.69218c-1.5535,-2.69074 -3.26755,-6.64556 -5.29915,-7.03839c0,0 -5.09649,-1.30338 -7.19745,-4.82235c-2.1011,-3.52121 -10.56321,-22.18801 -10.56321,-22.18801l0.0026,-0.0015c-0.12851,-0.25259 -0.07537,-0.54654 0.13248,-0.66654c0.20698,-0.1195 0.48899,-0.01904 0.64348,0.21854l10.59447,17.84215c0.167,0.28925 0.50675,0.40372 0.76236,0.25844l0.32217,-0.186c0.25447,-0.14923 0.32609,-0.50119 0.15909,-0.79044l-10.13849,-18.06038l-0.007,-0.01212l-0.01163,-0.02215l0.00087,-0.0005c-0.1322,-0.24698 -0.04848,-0.55398 0.1905,-0.70004c0.24599,-0.13394 0.55457,-0.05344 0.70324,0.18404l10.58928,17.84515c0.167,0.28925 0.50848,0.40272 0.76409,0.25745l0.32216,-0.186c0.25447,-0.14923 0.32523,-0.50069 0.15823,-0.78994l-10.15626,-18.09516l0.00086,-0.0005c-0.1317,-0.24612 -0.04798,-0.55311 0.18964,-0.69954c0.24562,-0.13257 0.55334,-0.05158 0.70064,0.18554l10.59274,17.84315c0.167,0.28925 0.50848,0.40272 0.76409,0.25744l0.32129,-0.1855c0.25447,-0.14923 0.32696,-0.50169 0.15996,-0.79094l-10.13796,-18.05145c-0.15,-0.25981 -0.09533,-0.57312 0.12291,-0.69912c0.2165,-0.125 0.51604,-0.01619 0.66604,0.24362c0.0015,0.0026 11.96132,16.7216 13.90682,20.20331c1.99791,3.57847 0.57668,8.64485 0.57668,8.64485"/></g></g></svg>