<svg viewBox="0 0 500 500" xmlns="http://www.w3.org/2000/svg">
  <path style="fill: rgb(51, 51, 51); text-wrap-mode: nowrap;" d="M 59.411 245.88 L 58.515 246.132 C 58.039 246.244 57.675 246.3 57.311 246.3 C 57.059 246.3 56.527 246.244 55.939 246.132 C 55.715 246.104 55.519 246.076 55.379 246.076 C 54.735 246.076 54.147 246.664 54.147 247.308 C 54.147 247.952 54.679 248.456 55.379 248.456 C 55.743 248.456 55.967 248.344 56.415 247.98 C 57.451 247.14 57.787 246.944 58.655 246.692 L 59.579 246.468 L 59.327 247.364 C 59.047 248.344 58.935 248.568 58.067 249.604 C 57.703 250.052 57.591 250.276 57.591 250.64 C 57.591 251.34 58.095 251.872 58.739 251.872 C 59.383 251.872 59.943 251.284 59.943 250.64 C 59.943 250.5 59.915 250.304 59.887 250.108 C 59.775 249.38 59.747 248.988 59.747 248.68 C 59.747 248.316 59.803 247.924 59.915 247.532 L 60.167 246.608 L 60.811 247.28 C 61.567 248.036 61.679 248.26 62.127 249.52 C 62.407 250.276 62.799 250.612 63.443 250.612 C 64.115 250.612 64.591 250.136 64.591 249.464 C 64.591 248.848 64.255 248.456 63.471 248.148 C 62.267 247.7 61.875 247.476 61.259 246.86 L 60.587 246.188 L 61.483 245.936 C 61.959 245.824 62.407 245.74 62.743 245.74 C 63.023 245.74 63.247 245.768 64.059 245.936 C 64.283 245.964 64.451 245.992 64.591 245.992 C 65.263 245.992 65.851 245.404 65.851 244.76 C 65.851 244.116 65.291 243.612 64.619 243.612 C 64.255 243.612 64.031 243.696 63.583 244.088 C 62.547 244.928 62.211 245.124 61.343 245.348 L 60.419 245.6 L 60.671 244.704 C 60.951 243.696 61.063 243.472 61.931 242.464 C 62.295 242.044 62.407 241.792 62.407 241.428 C 62.407 240.728 61.903 240.196 61.287 240.196 C 60.643 240.196 60.055 240.784 60.055 241.428 C 60.055 241.568 60.083 241.736 60.111 241.96 C 60.195 242.52 60.251 243.08 60.251 243.36 C 60.251 243.752 60.195 244.144 60.083 244.536 L 59.831 245.46 L 59.187 244.788 C 58.487 244.06 58.347 243.864 57.871 242.548 C 57.591 241.792 57.171 241.456 56.527 241.456 C 55.883 241.456 55.407 241.932 55.407 242.604 C 55.407 243.22 55.743 243.612 56.499 243.92 C 57.759 244.368 58.095 244.564 58.767 245.208 Z M 84.879 239.888 L 83.815 239.888 L 82.303 241.344 C 80.847 239.916 79.279 239.272 77.207 239.272 C 73.427 239.272 70.487 242.016 70.487 245.544 C 70.487 246.804 70.963 248.036 71.803 248.96 C 72.363 249.576 73.147 250.052 74.603 250.668 L 77.011 251.676 C 78.579 252.32 78.859 252.46 79.195 252.684 C 80.007 253.272 80.427 254.084 80.427 255.12 C 80.427 257.5 78.467 259.124 75.555 259.124 C 73.735 259.124 72.391 258.564 71.299 257.332 C 70.263 256.156 69.815 254.812 69.815 252.908 C 69.815 252.796 69.815 252.432 69.843 252.124 L 68.723 251.928 L 67.183 259.908 L 68.163 259.908 L 69.815 258.144 C 71.383 259.6 73.315 260.328 75.583 260.328 C 79.951 260.328 83.115 257.612 83.115 253.916 C 83.115 251.172 81.939 249.744 78.607 248.428 L 76.227 247.476 C 74.015 246.608 73.035 245.572 73.035 244.144 C 73.035 242.044 74.911 240.476 77.403 240.476 C 80.399 240.476 82.219 242.744 82.219 246.44 C 82.219 246.524 82.219 246.748 82.191 247 L 83.367 247.196 Z M 92.401 246.748 L 87.305 247.168 L 87.193 248.176 L 87.865 248.176 C 89.013 248.176 89.461 248.428 89.461 249.044 C 89.461 249.324 89.377 249.716 89.209 250.276 L 85.625 262.428 C 85.065 264.444 85.037 264.472 83.133 264.556 L 83.021 265.564 L 89.741 265.564 L 89.853 264.556 L 89.517 264.556 C 88.173 264.556 87.725 264.388 87.725 263.828 C 87.725 263.604 87.837 263.128 88.033 262.428 L 89.405 257.864 C 90.161 259.796 90.889 260.328 92.737 260.328 C 94.725 260.328 96.433 259.46 97.777 257.724 C 99.205 255.932 100.017 253.636 100.017 251.312 C 100.017 249.94 99.737 249.016 99.093 248.204 C 98.365 247.308 97.245 246.748 96.153 246.748 C 94.725 246.748 93.241 247.588 91.981 249.128 Z M 95.285 248.232 C 96.545 248.232 97.385 249.212 97.385 250.696 C 97.385 252.236 96.909 254.14 96.069 255.876 C 95.089 257.976 93.969 258.928 92.485 258.928 C 91.113 258.928 90.133 257.836 90.133 256.352 C 90.133 254.728 91.001 252.04 92.065 250.416 C 92.989 249.016 94.137 248.232 95.285 248.232 Z M 109.561 246.748 C 107.713 246.748 105.949 247.588 104.409 249.156 C 102.841 250.752 102.057 252.74 102.057 255.092 C 102.057 258.312 103.989 260.328 107.041 260.328 C 109.085 260.328 110.765 259.572 112.137 258.032 C 113.649 256.352 114.517 254.14 114.517 252.04 C 114.517 249.128 112.277 246.748 109.561 246.748 Z M 109.421 247.812 C 110.961 247.812 111.857 249.1 111.857 251.256 C 111.857 252.712 111.297 254.952 110.541 256.492 C 109.589 258.424 108.553 259.264 107.069 259.264 C 105.445 259.264 104.577 258.228 104.577 256.324 C 104.577 253.972 105.529 250.864 106.677 249.324 C 107.461 248.316 108.357 247.812 109.421 247.812 Z M 122.317 246.748 L 117.249 247.168 L 117.137 248.176 L 117.809 248.176 C 118.957 248.176 119.405 248.428 119.405 249.044 C 119.405 249.324 119.349 249.632 119.153 250.276 L 116.297 259.908 L 118.733 259.908 L 119.881 256.016 C 120.609 253.58 120.945 252.796 121.953 251.312 C 123.157 249.52 124.641 248.428 125.845 248.428 C 126.489 248.428 126.965 248.932 126.965 249.576 C 126.965 250.08 126.853 250.64 126.545 251.536 L 125.061 255.904 C 124.697 257.024 124.557 257.64 124.557 258.228 C 124.557 259.432 125.397 260.328 126.489 260.328 C 128.281 260.328 130.129 258.816 131.641 256.128 L 130.829 255.54 C 129.401 257.78 128.225 258.9 127.329 258.9 C 127.077 258.9 126.853 258.676 126.853 258.368 C 126.853 258.06 126.937 257.724 127.385 256.492 L 128.701 252.628 C 129.149 251.34 129.373 250.276 129.373 249.464 C 129.373 247.98 128.169 246.748 126.685 246.748 C 125.033 246.748 123.381 247.952 121.505 250.528 Z M 140.544 242.52 L 138.108 242.52 L 136.736 247.168 L 134.104 247.168 L 133.712 248.484 L 136.344 248.484 L 134.244 255.54 C 133.824 256.968 133.712 257.556 133.712 258.2 C 133.712 259.404 134.58 260.328 135.728 260.328 C 137.044 260.328 138.612 259.46 139.592 258.144 C 139.984 257.612 140.264 257.164 140.992 255.988 L 140.152 255.428 C 138.388 258.088 137.604 258.844 136.68 258.844 C 136.288 258.844 136.036 258.536 136.036 258.06 C 136.036 257.836 136.064 257.64 136.12 257.416 L 138.78 248.484 L 141.832 248.484 L 142.224 247.168 L 139.172 247.168 Z M 153.754 247.168 L 152.998 249.688 C 152.802 247.952 151.402 246.748 149.582 246.748 C 147.846 246.748 146.278 247.616 144.962 249.324 C 143.534 251.172 142.694 253.524 142.694 255.764 C 142.694 258.508 144.346 260.328 146.838 260.328 C 148.602 260.328 149.694 259.628 151.094 257.612 C 150.982 258.032 150.954 258.228 150.954 258.508 C 150.954 259.6 151.654 260.328 152.662 260.328 C 153.894 260.328 154.958 259.656 155.938 258.284 C 156.526 257.472 156.974 256.688 157.31 255.96 L 156.442 255.484 C 155.378 257.64 154.398 258.788 153.67 258.788 C 153.334 258.788 153.082 258.48 153.082 258.088 C 153.082 257.78 153.194 257.304 153.39 256.576 L 156.19 247.168 Z M 150.058 248.288 C 151.374 248.288 152.186 249.212 152.186 250.78 C 152.186 252.404 151.626 254.616 150.758 256.38 C 149.89 258.116 148.882 258.9 147.482 258.9 C 146.082 258.9 145.242 257.864 145.242 256.156 C 145.242 253.692 146.334 250.808 147.818 249.268 C 148.434 248.624 149.218 248.288 150.058 248.288 Z M 165.145 246.748 L 160.077 247.168 L 159.965 248.176 L 160.637 248.176 C 161.785 248.176 162.233 248.428 162.233 249.044 C 162.233 249.324 162.177 249.632 161.981 250.276 L 159.125 259.908 L 161.561 259.908 L 162.709 256.016 C 163.437 253.58 163.773 252.796 164.781 251.312 C 165.985 249.52 167.469 248.428 168.673 248.428 C 169.317 248.428 169.793 248.932 169.793 249.576 C 169.793 250.08 169.681 250.64 169.373 251.536 L 167.889 255.904 C 167.525 257.024 167.385 257.64 167.385 258.228 C 167.385 259.432 168.225 260.328 169.317 260.328 C 171.109 260.328 172.957 258.816 174.469 256.128 L 173.657 255.54 C 172.229 257.78 171.053 258.9 170.157 258.9 C 169.905 258.9 169.681 258.676 169.681 258.368 C 169.681 258.06 169.765 257.724 170.213 256.492 L 171.529 252.628 C 171.977 251.34 172.201 250.276 172.201 249.464 C 172.201 247.98 170.997 246.748 169.513 246.748 C 167.861 246.748 166.209 247.952 164.333 250.528 Z M 185.321 256.66 C 183.669 258.368 182.465 259.012 180.981 259.012 C 179.301 259.012 178.265 257.892 178.265 256.1 C 178.265 255.904 178.293 255.512 178.321 255.148 C 181.625 254.364 182.129 254.196 183.417 253.636 C 185.601 252.684 186.777 251.256 186.777 249.632 C 186.777 247.924 185.433 246.748 183.445 246.748 C 179.357 246.748 175.661 250.892 175.661 255.484 C 175.661 258.508 177.481 260.328 180.505 260.328 C 182.661 260.328 184.481 259.376 185.993 257.416 Z M 178.461 254.056 C 179.105 250.276 180.813 247.868 182.885 247.868 C 183.809 247.868 184.425 248.512 184.425 249.464 C 184.425 250.808 183.557 252.012 182.017 252.852 C 181.009 253.44 180.309 253.664 178.461 254.056 Z M 195.902 246.748 C 194.054 246.748 192.29 247.588 190.75 249.156 C 189.182 250.752 188.398 252.74 188.398 255.092 C 188.398 258.312 190.33 260.328 193.382 260.328 C 195.426 260.328 197.106 259.572 198.478 258.032 C 199.99 256.352 200.858 254.14 200.858 252.04 C 200.858 249.128 198.618 246.748 195.902 246.748 Z M 195.762 247.812 C 197.302 247.812 198.198 249.1 198.198 251.256 C 198.198 252.712 197.638 254.952 196.882 256.492 C 195.93 258.424 194.894 259.264 193.41 259.264 C 191.786 259.264 190.918 258.228 190.918 256.324 C 190.918 253.972 191.87 250.864 193.018 249.324 C 193.802 248.316 194.698 247.812 195.762 247.812 Z M 216.509 247.168 L 214.073 247.168 L 212.757 251.648 C 211.609 255.54 209.033 258.732 207.045 258.732 C 206.373 258.732 205.841 258.2 205.841 257.528 C 205.841 257.164 205.925 256.716 206.149 255.932 L 208.893 246.748 L 203.489 247.168 L 203.405 248.176 L 204.077 248.176 C 205.225 248.176 205.645 248.428 205.645 249.072 C 205.645 249.352 205.561 249.744 205.421 250.276 L 204.301 254.056 C 203.433 256.856 203.433 256.856 203.433 257.724 C 203.433 259.264 204.497 260.3 206.093 260.3 C 208.053 260.3 209.649 259.152 211.301 256.576 C 211.021 257.556 210.965 257.948 210.965 258.48 C 210.965 259.572 211.721 260.328 212.757 260.328 C 214.465 260.328 215.837 259.18 217.825 256.128 L 216.985 255.624 C 215.613 257.668 214.521 258.788 213.905 258.788 C 213.653 258.788 213.401 258.48 213.401 258.116 C 213.401 257.808 213.513 257.276 213.737 256.464 Z M 226.185 246.748 C 223.245 246.748 221.117 248.54 221.117 250.976 C 221.117 252.18 221.817 253.188 223.049 253.832 C 223.497 254.056 224.057 254.308 225.233 254.784 C 226.829 255.428 227.221 255.82 227.221 256.8 C 227.221 258.312 225.961 259.264 224.029 259.264 C 222.601 259.264 221.593 258.872 221.593 258.312 C 221.593 258.172 221.677 258.004 221.789 257.892 C 222.321 257.332 222.377 257.192 222.377 256.688 C 222.377 255.904 221.761 255.288 220.949 255.288 C 220.025 255.288 219.325 256.072 219.325 257.164 C 219.325 259.124 221.061 260.328 223.889 260.328 C 227.109 260.328 229.321 258.564 229.321 256.016 C 229.321 254.896 228.817 253.944 227.921 253.328 C 227.305 252.908 227.025 252.796 225.485 252.236 C 223.665 251.592 223.189 251.144 223.189 250.052 C 223.189 248.764 224.421 247.812 226.045 247.812 C 227.137 247.812 227.865 248.12 227.865 248.568 C 227.865 248.68 227.809 248.82 227.725 248.96 C 227.333 249.52 227.277 249.66 227.277 250.08 C 227.277 250.836 227.865 251.368 228.733 251.368 C 229.685 251.368 230.329 250.668 230.329 249.66 C 230.329 247.952 228.621 246.748 226.185 246.748 Z M 240.014 239.272 L 234.442 239.692 L 234.33 240.7 L 235.198 240.7 C 236.346 240.7 236.794 240.952 236.794 241.568 C 236.794 241.848 236.71 242.212 236.542 242.8 L 232.986 254.812 C 232.314 257.108 232.23 257.472 232.23 258.368 C 232.23 259.572 232.93 260.328 234.05 260.328 C 235.814 260.328 237.606 258.844 239.286 255.988 L 238.418 255.512 C 236.962 257.724 235.758 258.9 234.974 258.9 C 234.666 258.9 234.47 258.676 234.47 258.312 C 234.47 257.976 234.47 257.948 234.834 256.772 Z M 245.838 251.088 C 245.194 248.036 244.41 246.748 243.206 246.748 C 241.974 246.748 240.742 248.288 239.566 251.312 L 240.434 251.704 C 241.498 249.408 241.778 249.016 242.254 249.016 C 242.646 249.016 243.01 249.604 243.318 250.78 C 244.158 253.916 244.69 256.38 245.306 259.88 C 244.382 261.336 244.186 261.616 243.71 262.232 C 242.59 263.604 241.498 264.388 240.742 264.388 C 240.406 264.388 240.21 264.22 240.21 263.94 C 240.21 263.072 240.21 263.072 240.126 262.848 C 239.93 262.316 239.454 261.98 238.922 261.98 C 238.11 261.98 237.466 262.624 237.466 263.492 C 237.466 264.64 238.586 265.564 240.042 265.564 C 241.666 265.564 243.178 264.612 244.83 262.54 C 246.146 260.86 248.386 257.136 250.486 253.076 C 252.054 249.996 252.39 249.156 252.39 248.176 C 252.39 247.308 251.886 246.748 251.13 246.748 C 250.374 246.748 249.758 247.392 249.758 248.148 C 249.758 248.316 249.786 248.456 249.814 248.624 C 249.982 249.576 249.982 249.66 249.982 250.052 C 249.982 251.48 248.89 254.112 247.07 256.996 Z M 268.283 246.748 C 265.343 246.748 263.215 248.54 263.215 250.976 C 263.215 252.18 263.915 253.188 265.147 253.832 C 265.595 254.056 266.155 254.308 267.331 254.784 C 268.927 255.428 269.319 255.82 269.319 256.8 C 269.319 258.312 268.059 259.264 266.127 259.264 C 264.699 259.264 263.691 258.872 263.691 258.312 C 263.691 258.172 263.775 258.004 263.887 257.892 C 264.419 257.332 264.475 257.192 264.475 256.688 C 264.475 255.904 263.859 255.288 263.047 255.288 C 262.123 255.288 261.423 256.072 261.423 257.164 C 261.423 259.124 263.159 260.328 265.987 260.328 C 269.207 260.328 271.419 258.564 271.419 256.016 C 271.419 254.896 270.915 253.944 270.019 253.328 C 269.403 252.908 269.123 252.796 267.583 252.236 C 265.763 251.592 265.287 251.144 265.287 250.052 C 265.287 248.764 266.519 247.812 268.143 247.812 C 269.235 247.812 269.963 248.12 269.963 248.568 C 269.963 248.68 269.907 248.82 269.823 248.96 C 269.431 249.52 269.375 249.66 269.375 250.08 C 269.375 250.836 269.963 251.368 270.831 251.368 C 271.783 251.368 272.427 250.668 272.427 249.66 C 272.427 247.952 270.719 246.748 268.283 246.748 Z M 281.014 242.52 L 278.578 242.52 L 277.206 247.168 L 274.574 247.168 L 274.182 248.484 L 276.814 248.484 L 274.714 255.54 C 274.294 256.968 274.182 257.556 274.182 258.2 C 274.182 259.404 275.05 260.328 276.198 260.328 C 277.514 260.328 279.082 259.46 280.062 258.144 C 280.454 257.612 280.734 257.164 281.462 255.988 L 280.622 255.428 C 278.858 258.088 278.074 258.844 277.15 258.844 C 276.758 258.844 276.506 258.536 276.506 258.06 C 276.506 257.836 276.534 257.64 276.59 257.416 L 279.25 248.484 L 282.302 248.484 L 282.694 247.168 L 279.642 247.168 Z M 294.224 247.168 L 293.468 249.688 C 293.272 247.952 291.872 246.748 290.052 246.748 C 288.316 246.748 286.748 247.616 285.432 249.324 C 284.004 251.172 283.164 253.524 283.164 255.764 C 283.164 258.508 284.816 260.328 287.308 260.328 C 289.072 260.328 290.164 259.628 291.564 257.612 C 291.452 258.032 291.424 258.228 291.424 258.508 C 291.424 259.6 292.124 260.328 293.132 260.328 C 294.364 260.328 295.428 259.656 296.408 258.284 C 296.996 257.472 297.444 256.688 297.78 255.96 L 296.912 255.484 C 295.848 257.64 294.868 258.788 294.14 258.788 C 293.804 258.788 293.552 258.48 293.552 258.088 C 293.552 257.78 293.664 257.304 293.86 256.576 L 296.66 247.168 Z M 290.528 248.288 C 291.844 248.288 292.656 249.212 292.656 250.78 C 292.656 252.404 292.096 254.616 291.228 256.38 C 290.36 258.116 289.352 258.9 287.952 258.9 C 286.552 258.9 285.712 257.864 285.712 256.156 C 285.712 253.692 286.804 250.808 288.288 249.268 C 288.904 248.624 289.688 248.288 290.528 248.288 Z M 305.475 246.748 L 300.407 247.168 L 300.295 248.176 L 300.967 248.176 C 302.087 248.176 302.591 248.428 302.591 248.96 C 302.591 249.156 302.479 249.744 302.311 250.276 L 299.455 259.908 L 301.891 259.908 L 303.207 255.484 C 304.243 251.984 306.567 248.456 307.855 248.456 C 308.247 248.456 308.359 248.652 308.359 249.408 C 308.359 250.164 308.835 250.612 309.675 250.612 C 310.627 250.612 311.327 249.856 311.327 248.82 C 311.327 247.616 310.403 246.748 309.115 246.748 C 307.547 246.748 306.315 247.672 304.831 249.996 Z M 319.385 242.52 L 316.949 242.52 L 315.577 247.168 L 312.945 247.168 L 312.553 248.484 L 315.185 248.484 L 313.085 255.54 C 312.665 256.968 312.553 257.556 312.553 258.2 C 312.553 259.404 313.421 260.328 314.569 260.328 C 315.885 260.328 317.453 259.46 318.433 258.144 C 318.825 257.612 319.105 257.164 319.833 255.988 L 318.993 255.428 C 317.229 258.088 316.445 258.844 315.521 258.844 C 315.129 258.844 314.877 258.536 314.877 258.06 C 314.877 257.836 314.905 257.64 314.961 257.416 L 317.621 248.484 L 320.673 248.484 L 321.065 247.168 L 318.013 247.168 Z M 328.317 246.748 C 325.377 246.748 323.249 248.54 323.249 250.976 C 323.249 252.18 323.949 253.188 325.181 253.832 C 325.629 254.056 326.189 254.308 327.365 254.784 C 328.961 255.428 329.353 255.82 329.353 256.8 C 329.353 258.312 328.093 259.264 326.161 259.264 C 324.733 259.264 323.725 258.872 323.725 258.312 C 323.725 258.172 323.809 258.004 323.921 257.892 C 324.453 257.332 324.509 257.192 324.509 256.688 C 324.509 255.904 323.893 255.288 323.081 255.288 C 322.157 255.288 321.457 256.072 321.457 257.164 C 321.457 259.124 323.193 260.328 326.021 260.328 C 329.241 260.328 331.453 258.564 331.453 256.016 C 331.453 254.896 330.949 253.944 330.053 253.328 C 329.437 252.908 329.157 252.796 327.617 252.236 C 325.797 251.592 325.321 251.144 325.321 250.052 C 325.321 248.764 326.553 247.812 328.177 247.812 C 329.269 247.812 329.997 248.12 329.997 248.568 C 329.997 248.68 329.941 248.82 329.857 248.96 C 329.465 249.52 329.409 249.66 329.409 250.08 C 329.409 250.836 329.997 251.368 330.865 251.368 C 331.817 251.368 332.461 250.668 332.461 249.66 C 332.461 247.952 330.753 246.748 328.317 246.748 Z M 351.18 256.66 C 349.528 258.368 348.324 259.012 346.84 259.012 C 345.16 259.012 344.124 257.892 344.124 256.1 C 344.124 255.904 344.152 255.512 344.18 255.148 C 347.484 254.364 347.988 254.196 349.276 253.636 C 351.46 252.684 352.636 251.256 352.636 249.632 C 352.636 247.924 351.292 246.748 349.304 246.748 C 345.216 246.748 341.52 250.892 341.52 255.484 C 341.52 258.508 343.34 260.328 346.364 260.328 C 348.52 260.328 350.34 259.376 351.852 257.416 Z M 344.32 254.056 C 344.964 250.276 346.672 247.868 348.744 247.868 C 349.668 247.868 350.284 248.512 350.284 249.464 C 350.284 250.808 349.416 252.012 347.876 252.852 C 346.868 253.44 346.168 253.664 344.32 254.056 Z M 359.712 255.568 L 360.132 257.444 C 360.608 259.544 361.308 260.328 362.708 260.328 C 363.744 260.328 364.248 259.992 365.536 258.424 C 366.012 257.836 366.096 257.752 366.852 256.408 L 365.984 255.932 C 365.704 256.38 365.62 256.52 365.2 257.108 C 364.388 258.2 363.912 258.62 363.408 258.62 C 362.764 258.62 362.484 258.004 361.98 255.708 L 361.448 253.048 L 362.68 250.78 C 363.352 249.492 363.94 248.904 364.444 248.904 C 364.668 248.904 364.808 249.016 364.92 249.268 C 365.172 249.828 365.368 249.968 365.872 249.968 C 366.74 249.968 367.272 249.38 367.272 248.456 C 367.272 247.476 366.6 246.748 365.676 246.748 C 364.92 246.748 364.08 247.14 363.492 247.784 C 362.932 248.4 362.904 248.4 361.952 250.164 L 361.14 251.62 L 360.832 250.08 C 360.356 247.672 359.74 246.748 358.592 246.748 C 357.976 246.748 357.36 247.112 356.66 247.896 C 356.212 248.4 355.82 248.932 354.56 250.78 L 355.372 251.368 C 356.856 249.24 357.164 248.904 357.668 248.904 C 357.864 248.904 358.144 249.072 358.256 249.324 C 358.508 249.772 358.508 249.772 359.068 252.544 L 359.404 254.168 L 358.144 256.408 C 357.36 257.864 356.688 258.62 356.212 258.62 C 355.988 258.62 355.848 258.424 355.792 258.06 C 355.652 257.304 355.288 256.968 354.588 256.968 C 353.748 256.968 353.16 257.64 353.16 258.592 C 353.16 259.656 353.888 260.328 355.008 260.328 C 356.352 260.328 357.668 259.208 358.872 257.08 Z M 374.552 246.748 L 369.176 247.168 L 369.064 248.176 L 369.736 248.176 C 370.884 248.176 371.332 248.428 371.332 249.044 C 371.332 249.324 371.276 249.632 371.08 250.276 L 369.456 255.736 C 368.924 257.528 368.84 257.92 368.84 258.564 C 368.84 259.544 369.68 260.3 370.744 260.3 C 371.976 260.3 373.124 259.656 374.244 258.368 C 374.748 257.808 375.196 257.192 375.98 255.988 L 375.112 255.512 C 373.656 257.724 372.48 258.9 371.724 258.9 C 371.444 258.9 371.248 258.648 371.248 258.312 C 371.248 258.032 371.36 257.528 371.584 256.744 Z M 374.048 239.916 C 373.208 239.916 372.536 240.588 372.536 241.428 C 372.536 242.24 373.208 242.94 374.02 242.94 C 374.888 242.94 375.56 242.268 375.56 241.428 C 375.56 240.588 374.888 239.916 374.048 239.916 Z M 384.237 246.748 C 381.297 246.748 379.169 248.54 379.169 250.976 C 379.169 252.18 379.869 253.188 381.101 253.832 C 381.549 254.056 382.109 254.308 383.285 254.784 C 384.881 255.428 385.273 255.82 385.273 256.8 C 385.273 258.312 384.013 259.264 382.081 259.264 C 380.653 259.264 379.645 258.872 379.645 258.312 C 379.645 258.172 379.729 258.004 379.841 257.892 C 380.373 257.332 380.429 257.192 380.429 256.688 C 380.429 255.904 379.813 255.288 379.001 255.288 C 378.077 255.288 377.377 256.072 377.377 257.164 C 377.377 259.124 379.113 260.328 381.941 260.328 C 385.161 260.328 387.373 258.564 387.373 256.016 C 387.373 254.896 386.869 253.944 385.973 253.328 C 385.357 252.908 385.077 252.796 383.537 252.236 C 381.717 251.592 381.241 251.144 381.241 250.052 C 381.241 248.764 382.473 247.812 384.097 247.812 C 385.189 247.812 385.917 248.12 385.917 248.568 C 385.917 248.68 385.861 248.82 385.777 248.96 C 385.385 249.52 385.329 249.66 385.329 250.08 C 385.329 250.836 385.917 251.368 386.785 251.368 C 387.737 251.368 388.381 250.668 388.381 249.66 C 388.381 247.952 386.673 246.748 384.237 246.748 Z M 396.969 242.52 L 394.533 242.52 L 393.161 247.168 L 390.529 247.168 L 390.137 248.484 L 392.769 248.484 L 390.669 255.54 C 390.249 256.968 390.137 257.556 390.137 258.2 C 390.137 259.404 391.005 260.328 392.153 260.328 C 393.469 260.328 395.037 259.46 396.017 258.144 C 396.409 257.612 396.689 257.164 397.417 255.988 L 396.577 255.428 C 394.813 258.088 394.029 258.844 393.105 258.844 C 392.713 258.844 392.461 258.536 392.461 258.06 C 392.461 257.836 392.489 257.64 392.545 257.416 L 395.205 248.484 L 398.257 248.484 L 398.649 247.168 L 395.597 247.168 Z M 405.669 246.748 L 400.293 247.168 L 400.181 248.176 L 400.853 248.176 C 402.001 248.176 402.449 248.428 402.449 249.044 C 402.449 249.324 402.393 249.632 402.197 250.276 L 400.573 255.736 C 400.041 257.528 399.957 257.92 399.957 258.564 C 399.957 259.544 400.797 260.3 401.861 260.3 C 403.093 260.3 404.241 259.656 405.361 258.368 C 405.865 257.808 406.313 257.192 407.097 255.988 L 406.229 255.512 C 404.773 257.724 403.597 258.9 402.841 258.9 C 402.561 258.9 402.365 258.648 402.365 258.312 C 402.365 258.032 402.477 257.528 402.701 256.744 Z M 405.165 239.916 C 404.325 239.916 403.653 240.588 403.653 241.428 C 403.653 242.24 404.325 242.94 405.137 242.94 C 406.005 242.94 406.677 242.268 406.677 241.428 C 406.677 240.588 406.005 239.916 405.165 239.916 Z M 414.935 246.748 L 409.867 247.168 L 409.755 248.176 L 410.427 248.176 C 411.575 248.176 412.023 248.428 412.023 249.044 C 412.023 249.324 411.967 249.632 411.771 250.276 L 408.915 259.908 L 411.351 259.908 L 412.499 256.016 C 413.227 253.58 413.563 252.796 414.571 251.312 C 415.775 249.52 417.259 248.428 418.463 248.428 C 419.107 248.428 419.583 248.932 419.583 249.576 C 419.583 250.08 419.471 250.64 419.163 251.536 L 417.679 255.904 C 417.315 257.024 417.175 257.64 417.175 258.228 C 417.175 259.432 418.015 260.328 419.107 260.328 C 420.899 260.328 422.747 258.816 424.259 256.128 L 423.447 255.54 C 422.019 257.78 420.843 258.9 419.947 258.9 C 419.695 258.9 419.471 258.676 419.471 258.368 C 419.471 258.06 419.555 257.724 420.003 256.492 L 421.319 252.628 C 421.767 251.34 421.991 250.276 421.991 249.464 C 421.991 247.98 420.787 246.748 419.303 246.748 C 417.651 246.748 415.999 247.952 414.123 250.528 Z M 436.348 247.812 C 436.796 247.42 437.048 247.28 437.384 247.28 C 437.664 247.28 437.888 247.42 438.112 247.728 C 438.56 248.344 438.728 248.456 439.176 248.456 C 439.82 248.456 440.296 247.924 440.296 247.224 C 440.296 246.412 439.512 245.768 438.532 245.768 C 437.552 245.768 436.796 246.132 435.34 247.28 C 434.472 246.888 433.828 246.748 432.932 246.748 C 429.824 246.748 427.192 248.96 427.192 251.536 C 427.192 252.88 427.724 253.804 428.928 254.448 C 427.64 254.616 427.052 254.812 426.408 255.372 C 425.848 255.82 425.484 256.576 425.484 257.248 C 425.484 258.2 425.932 258.788 427.024 259.32 C 425.848 259.572 425.4 259.74 424.812 260.104 C 423.972 260.608 423.44 261.504 423.44 262.428 C 423.44 263.212 423.832 263.996 424.448 264.472 C 425.568 265.256 426.828 265.564 429.18 265.564 C 431.952 265.564 433.548 265.228 434.92 264.332 C 436.124 263.548 436.824 262.344 436.824 261.028 C 436.824 259.936 436.292 259.04 435.368 258.508 C 434.472 258.032 433.576 257.836 431.672 257.724 C 429.18 257.584 428.984 257.556 428.592 257.472 C 427.892 257.304 427.556 256.968 427.556 256.492 C 427.556 255.82 428.228 255.372 429.236 255.372 C 429.6 255.372 430.02 255.4 430.384 255.456 C 431.532 255.624 431.7 255.652 432.4 255.652 C 433.968 255.652 435.2 255.26 436.18 254.476 C 437.3 253.608 438 252.208 438 250.92 C 438 249.604 437.44 248.596 436.348 247.812 Z M 433.128 247.812 C 434.584 247.812 435.508 248.68 435.508 250.052 C 435.508 251.368 435.06 252.796 434.36 253.664 C 433.856 254.252 433.072 254.616 432.204 254.616 C 430.692 254.616 429.74 253.664 429.74 252.096 C 429.74 249.576 431.112 247.812 433.128 247.812 Z M 429.712 259.824 C 430.972 259.824 432.988 260.104 433.632 260.356 C 434.332 260.664 434.668 261.14 434.668 261.84 C 434.668 263.492 432.904 264.388 429.684 264.388 C 426.968 264.388 425.708 263.716 425.708 262.232 C 425.708 260.72 427.164 259.824 429.712 259.824 Z M 441.686 256.856 C 440.734 256.856 439.95 257.64 439.95 258.592 C 439.95 259.544 440.734 260.328 441.658 260.328 C 442.666 260.328 443.422 259.572 443.422 258.592 C 443.422 257.64 442.638 256.856 441.686 256.856 Z M 453.475 245.88 L 452.579 246.132 C 452.103 246.244 451.739 246.3 451.375 246.3 C 451.123 246.3 450.591 246.244 450.003 246.132 C 449.779 246.104 449.583 246.076 449.443 246.076 C 448.799 246.076 448.211 246.664 448.211 247.308 C 448.211 247.952 448.743 248.456 449.443 248.456 C 449.807 248.456 450.031 248.344 450.479 247.98 C 451.515 247.14 451.851 246.944 452.719 246.692 L 453.643 246.468 L 453.391 247.364 C 453.111 248.344 452.999 248.568 452.131 249.604 C 451.767 250.052 451.655 250.276 451.655 250.64 C 451.655 251.34 452.159 251.872 452.803 251.872 C 453.447 251.872 454.007 251.284 454.007 250.64 C 454.007 250.5 453.979 250.304 453.951 250.108 C 453.839 249.38 453.811 248.988 453.811 248.68 C 453.811 248.316 453.867 247.924 453.979 247.532 L 454.231 246.608 L 454.875 247.28 C 455.631 248.036 455.743 248.26 456.191 249.52 C 456.471 250.276 456.863 250.612 457.507 250.612 C 458.179 250.612 458.655 250.136 458.655 249.464 C 458.655 248.848 458.319 248.456 457.535 248.148 C 456.331 247.7 455.939 247.476 455.323 246.86 L 454.651 246.188 L 455.547 245.936 C 456.023 245.824 456.471 245.74 456.807 245.74 C 457.087 245.74 457.311 245.768 458.123 245.936 C 458.347 245.964 458.515 245.992 458.655 245.992 C 459.327 245.992 459.915 245.404 459.915 244.76 C 459.915 244.116 459.355 243.612 458.683 243.612 C 458.319 243.612 458.095 243.696 457.647 244.088 C 456.611 244.928 456.275 245.124 455.407 245.348 L 454.483 245.6 L 454.735 244.704 C 455.015 243.696 455.127 243.472 455.995 242.464 C 456.359 242.044 456.471 241.792 456.471 241.428 C 456.471 240.728 455.967 240.196 455.351 240.196 C 454.707 240.196 454.119 240.784 454.119 241.428 C 454.119 241.568 454.147 241.736 454.175 241.96 C 454.259 242.52 454.315 243.08 454.315 243.36 C 454.315 243.752 454.259 244.144 454.147 244.536 L 453.895 245.46 L 453.251 244.788 C 452.551 244.06 452.411 243.864 451.935 242.548 C 451.655 241.792 451.235 241.456 450.591 241.456 C 449.947 241.456 449.471 241.932 449.471 242.604 C 449.471 243.22 449.807 243.612 450.563 243.92 C 451.823 244.368 452.159 244.564 452.831 245.208 Z"></path>
</svg>