<?xml version="1.0" encoding="utf-8"?>
<svg xmlns="http://www.w3.org/2000/svg" viewBox="0 0 30 30">
  <path d="M14.513 2.005c-1.041.121-2.625.565-3.691 1.035-2.125.936-3.72 2.005-5.199 3.483-2.456 2.455-4.032 5.524-4.558 8.877-.127.811-.127 3.001 0 3.725.21 1.195.528 2.18 1.031 3.2a9.879 9.879 0 0 0 2.139 2.929c1.648 1.592 3.804 2.401 7.215 2.706.49.044 1.64.065 3.55.065s3.06-.021 3.55-.065c3.411-.305 5.567-1.114 7.215-2.706 1.685-1.628 2.743-3.669 3.163-6.105.126-.734.154-2.515.052-3.324a15.055 15.055 0 0 0-1.192-4.325c-.254-.58-.814-1.656-.991-1.904-.117-.165-.167-.123.753-.623.399-.216.786-.454.86-.527.305-.301.229-.596-.227-.887-1.478-.941-3.104-1.424-5.715-1.697l-.357-.037.369-.621c.204-.342.37-.675.37-.74 0-.369-.274-.528-1.285-.743-1.366-.292-3.495-.232-5.315.15-.179.038-.332.062-.341.054-.008-.008.056-.343.143-.745.171-.783.168-.915-.027-1.109-.113-.113-.153-.121-.635-.115-.283.004-.678.026-.877.049m.537 1.012c0 .036-.08.424-.178.862-.168.747-.174.806-.102.956a.618.618 0 0 0 .232.241c.149.077.189.073.79-.069a16.214 16.214 0 0 1 2.955-.457c.962-.069 2.603.051 2.77.202.024.021-.151.358-.387.748-.237.391-.43.755-.43.808 0 .162.143.386.298.466.107.055.306.076.726.076 1.658 0 3.887.478 5.117 1.096l.265.134-.54.291c-.8.432-.958.539-1.021.691-.086.208-.027.39.293.9 2.132 3.393 2.771 7.358 1.709 10.613-.482 1.479-1.4 2.941-2.541 4.048-.302.293-.292.325-.181-.611.183-1.552.198-3.05.047-4.962l-.03-.375.259-.15c.142-.082.397-.297.567-.476.714-.757.986-1.782.733-2.769-.144-.563-.366-.948-.799-1.385-.636-.64-1.416-.936-2.312-.876l-.435.03-.288-.387c-.386-.519-1.299-1.42-1.802-1.777-1.501-1.066-3.213-1.682-5.229-1.881-1.463-.143-3.848.42-5.324 1.258-1.07.607-2.122 1.516-2.779 2.4l-.288.387-.435-.03c-.896-.06-1.676.236-2.312.876-.433.437-.655.822-.799 1.385-.253.987.019 2.012.733 2.769.17.179.425.394.567.476l.259.15-.03.375c-.152 1.932-.137 3.354.052 5.012.043.378.07.713.06.744-.027.081-1.013-.97-1.355-1.446-1.384-1.923-1.996-3.975-1.919-6.435.042-1.353.209-2.321.618-3.592.927-2.878 2.82-5.576 5.172-7.367 1.989-1.516 4.572-2.651 6.692-2.941.627-.085.602-.085.602-.008m.525 7.006c2.399.289 4.012 1.009 5.43 2.424.346.345.693.715.772.821.137.185.139.194.045.243-.207.11-.806.778-.962 1.073-.209.398-.36.992-.36 1.416 0 .423.151 1.017.36 1.416.212.405.819 1.012 1.224 1.224.4.21.993.36 1.42.36h.338l.042.338c.022.185.04 1.113.039 2.062-.001 1.317-.022 1.902-.089 2.475-.085.723-.212 1.561-.263 1.733-.032.106-.871.475-1.622.714-1.692.537-3.51.728-6.949.728s-5.257-.191-6.949-.728c-.751-.239-1.59-.608-1.622-.714-.051-.172-.178-1.01-.263-1.733-.067-.573-.088-1.158-.089-2.475-.001-.949.017-1.877.039-2.062L6.158 19h.338c.427 0 1.02-.15 1.42-.36.405-.212 1.012-.819 1.224-1.224.209-.399.36-.993.36-1.416 0-.424-.151-1.018-.36-1.416-.156-.295-.755-.963-.962-1.073-.094-.049-.092-.058.045-.243.079-.106.426-.476.772-.821.872-.87 1.66-1.379 2.805-1.812.91-.345 1.667-.509 3.125-.678.028-.004.32.026.65.066M9.553 20.489c-.119.12-.153.197-.153.352 0 .315.106.398.726.566.302.082.752.229.999.327.643.254 2.185 1.044 2.975 1.523.903.548.897.548 1.8 0 .79-.479 2.332-1.269 2.975-1.523.247-.098.697-.245.999-.327.62-.168.726-.251.726-.566 0-.155-.034-.232-.153-.352-.145-.144-.168-.151-.437-.122-.783.083-2.267.699-3.941 1.636-.409.229-.823.46-.919.512l-.175.097-.515-.308c-1.703-1.014-3.626-1.85-4.459-1.937-.281-.029-.302-.023-.448.122"/>
</svg>