<?xml version="1.0" encoding="utf-8"?>
<svg xmlns="http://www.w3.org/2000/svg" viewBox="0 0 174.7 113">
  <path d="M 28.805 82.285 C 28.374 81.244 28.024 80.189 27.756 79.12 C 27.488 78.052 27.352 76.993 27.348 75.943 C 27.344 74.892 27.522 73.885 27.882 72.919 C 28.242 71.954 28.834 71.07 29.661 70.266 C 30.488 69.461 31.61 68.765 33.029 68.178 C 33.397 68.025 33.811 67.873 34.272 67.721 C 34.732 67.571 35.119 67.478 35.435 67.446 L 36.217 69.335 C 35.861 69.364 35.474 69.436 35.059 69.548 C 34.645 69.661 34.235 69.802 33.832 69.969 C 32.624 70.469 31.697 71.078 31.05 71.799 C 30.403 72.519 29.988 73.31 29.802 74.174 C 29.615 75.037 29.598 75.949 29.75 76.909 C 29.9 77.869 30.155 78.854 30.512 79.866 L 30.67 79.801 C 30.766 79.289 30.95 78.791 31.221 78.305 C 31.49 77.819 31.873 77.366 32.366 76.946 C 32.859 76.525 33.482 76.159 34.236 75.847 C 35.321 75.397 36.361 75.218 37.353 75.308 C 38.345 75.398 39.237 75.757 40.03 76.382 C 40.822 77.007 41.459 77.899 41.938 79.056 C 42.452 80.298 42.652 81.474 42.537 82.584 C 42.421 83.693 42.023 84.675 41.339 85.528 C 40.655 86.381 39.702 87.061 38.475 87.569 C 37.582 87.94 36.683 88.125 35.781 88.125 C 34.878 88.125 33.997 87.92 33.139 87.509 C 32.281 87.097 31.483 86.46 30.746 85.595 C 30.008 84.731 29.361 83.627 28.805 82.285 Z M 37.677 85.717 C 38.781 85.26 39.533 84.55 39.936 83.588 C 40.337 82.625 40.242 81.43 39.652 80.003 C 39.179 78.862 38.501 78.081 37.619 77.66 C 36.736 77.24 35.69 77.279 34.482 77.78 C 33.659 78.12 33.008 78.583 32.53 79.164 C 32.053 79.745 31.748 80.358 31.614 81.003 C 31.481 81.648 31.526 82.239 31.748 82.776 C 31.977 83.33 32.287 83.841 32.676 84.309 C 33.065 84.776 33.524 85.166 34.054 85.478 C 34.582 85.79 35.152 85.977 35.763 86.038 C 36.373 86.1 37.012 85.993 37.677 85.717 Z M 54.481 80.644 L 52.221 81.58 L 47.017 69.018 C 46.816 68.533 46.651 68.119 46.52 67.78 C 46.389 67.441 46.271 67.121 46.169 66.82 C 46.064 66.519 45.954 66.205 45.839 65.879 C 45.671 66.264 45.511 66.596 45.36 66.875 C 45.208 67.153 45.016 67.508 44.784 67.939 L 43.433 70.327 L 41.609 69.342 L 45.117 63.465 L 47.036 62.67 L 54.481 80.644 Z M 58.028 70.18 C 57.597 69.139 57.248 68.084 56.979 67.016 C 56.712 65.947 56.576 64.888 56.571 63.838 C 56.568 62.787 56.745 61.78 57.105 60.815 C 57.465 59.849 58.058 58.965 58.885 58.161 C 59.711 57.356 60.834 56.66 62.253 56.073 C 62.621 55.92 63.035 55.768 63.495 55.617 C 63.956 55.466 64.344 55.373 64.659 55.341 L 65.441 57.23 C 65.084 57.26 64.698 57.331 64.283 57.443 C 63.868 57.557 63.458 57.697 63.056 57.864 C 61.847 58.364 60.92 58.974 60.273 59.694 C 59.628 60.414 59.212 61.205 59.025 62.069 C 58.838 62.933 58.822 63.844 58.973 64.805 C 59.124 65.764 59.378 66.75 59.737 67.761 L 59.894 67.696 C 59.99 67.184 60.173 66.686 60.444 66.201 C 60.715 65.714 61.097 65.262 61.59 64.841 C 62.083 64.42 62.705 64.054 63.459 63.742 C 64.544 63.292 65.585 63.113 66.576 63.203 C 67.568 63.293 68.461 63.652 69.253 64.278 C 70.045 64.903 70.682 65.794 71.161 66.952 C 71.676 68.193 71.876 69.369 71.761 70.479 C 71.645 71.589 71.247 72.57 70.563 73.423 C 69.88 74.276 68.926 74.957 67.699 75.465 C 66.805 75.835 65.907 76.02 65.004 76.02 C 64.102 76.021 63.221 75.815 62.363 75.404 C 61.505 74.992 60.707 74.355 59.97 73.49 C 59.232 72.626 58.584 71.523 58.028 70.18 Z M 66.901 73.612 C 68.004 73.155 68.758 72.445 69.159 71.483 C 69.561 70.52 69.466 69.325 68.875 67.899 C 68.402 66.758 67.725 65.977 66.842 65.555 C 65.96 65.135 64.915 65.174 63.705 65.675 C 62.882 66.016 62.231 66.478 61.754 67.059 C 61.276 67.64 60.971 68.254 60.839 68.898 C 60.705 69.543 60.75 70.134 60.972 70.671 C 61.201 71.224 61.511 71.736 61.899 72.204 C 62.288 72.672 62.747 73.062 63.277 73.374 C 63.806 73.685 64.376 73.872 64.986 73.933 C 65.597 73.995 66.236 73.888 66.901 73.612 Z M 119.916 60.778 L 118.801 58.085 C 118.836 56.132 119.111 54.307 119.626 52.61 C 120.142 50.915 120.761 49.318 121.482 47.818 C 122.201 46.318 122.942 44.897 123.704 43.556 C 124.465 42.213 125.116 40.916 125.657 39.664 C 126.2 38.413 126.551 37.192 126.711 35.999 C 126.87 34.806 126.699 33.601 126.196 32.386 C 125.517 30.746 124.508 29.672 123.172 29.166 C 121.836 28.66 120.313 28.76 118.601 29.469 C 116.976 30.142 115.819 31.139 115.131 32.459 C 114.444 33.779 114.339 35.276 114.817 36.95 L 110.766 38.204 C 110.059 35.698 110.285 33.377 111.445 31.239 C 112.605 29.101 114.557 27.464 117.3 26.328 C 120.311 25.081 122.921 24.832 125.129 25.583 C 127.337 26.334 128.982 28.017 130.066 30.633 C 130.546 31.793 130.758 33.055 130.703 34.419 C 130.647 35.784 130.333 37.255 129.761 38.835 C 129.189 40.414 127.924 43.017 125.964 46.645 C 124.89 48.648 124.091 50.381 123.572 51.847 C 123.052 53.313 122.785 54.628 122.771 55.793 L 138.359 49.336 L 139.704 52.582 L 119.916 60.778 Z M 1.891 91.899 C -3.183 79.648 2.257 63.922 14.489 49.819 C 26.617 35.835 45.959 22.231 69.173 12.615 C 92.387 3 115.682 -1.058 134.146 0.255 C 152.768 1.579 167.735 8.852 172.809 21.103 C 177.884 33.353 172.444 49.079 160.211 63.182 C 148.083 77.165 128.742 90.769 105.528 100.384 C 82.314 110 59.019 114.057 40.554 112.745 C 21.932 111.422 6.966 104.15 1.891 91.899 Z M 40.908 107.758 C 58.163 108.984 79.403 105.428 101.298 96.706 L 68.783 18.208 C 47.134 27.522 29.601 40.027 18.266 53.095 C 6.637 66.503 2.075 79.276 6.511 89.986 C 10.947 100.696 23.205 106.5 40.908 107.758 Z M 156.434 59.906 C 168.063 46.498 172.626 33.726 168.19 23.016 C 163.753 12.306 151.496 6.5 133.792 5.243 C 116.537 4.016 95.297 7.571 73.402 16.294 L 105.917 94.792 C 127.566 85.479 145.101 72.975 156.434 59.906 Z"/>
</svg>