<?xml version="1.0" encoding="utf-8"?>
<svg xmlns="http://www.w3.org/2000/svg" viewBox="0 0 500 500">
  <path d="M 84.081 167.874 L 86.187 165.73 L 110.77 190.77 L 108.665 192.915 L 84.081 167.874 Z M 92.504 159.294 L 94.612 157.148 L 119.196 182.189 L 117.089 184.335 L 92.504 159.294 Z M 88.294 163.584 L 90.399 161.438 L 114.984 186.479 L 112.879 188.624 L 88.294 163.584 Z M 81.975 170.018 L 106.56 195.059 C 104.218 200.223 101.057 204.831 97.081 208.882 C 93.629 212.398 89.708 215.137 85.318 217.103 C 80.925 219.066 76.439 220.153 71.852 220.367 C 67.264 220.58 62.639 219.774 57.974 217.943 C 53.311 216.113 49.103 213.288 45.351 209.465 C 41.884 205.934 39.269 201.85 37.508 197.215 C 35.748 192.584 34.9 187.908 34.97 183.188 C 35.034 178.468 36.014 173.765 37.908 169.078 C 39.798 164.392 42.528 160.23 46.097 156.595 C 50.543 152.067 55.681 148.879 61.512 147.031 C 67.341 145.184 73.191 144.787 79.059 145.835 L 78.411 148.753 C 73.024 147.794 67.651 148.171 62.295 149.885 C 56.935 151.595 52.219 154.528 48.143 158.679 C 44.868 162.016 42.353 165.844 40.601 170.156 C 38.848 174.469 37.941 178.797 37.88 183.145 C 37.82 187.491 38.604 191.797 40.235 196.06 C 41.866 200.324 44.276 204.078 47.459 207.319 C 50.887 210.81 54.747 213.404 59.037 215.094 C 63.328 216.785 67.576 217.532 71.776 217.344 C 75.979 217.157 80.108 216.167 84.16 214.373 C 88.212 212.58 91.808 210.085 94.947 206.888 C 98.242 203.531 100.907 199.792 102.946 195.67 L 100.986 193.674 C 99.028 197.599 96.451 201.189 93.252 204.447 C 90.931 206.811 88.356 208.786 85.528 210.374 C 82.702 211.962 79.733 213.071 76.629 213.705 C 73.525 214.339 70.419 214.491 67.311 214.164 C 64.2 213.837 61.112 212.914 58.039 211.393 C 54.966 209.87 52.139 207.798 49.564 205.174 C 45.679 201.217 43.079 196.551 41.761 191.177 C 40.443 185.803 40.517 180.409 41.987 174.995 C 43.458 169.579 46.192 164.838 50.191 160.765 C 53.935 156.951 58.264 154.27 63.176 152.718 C 68.09 151.168 73.01 150.836 77.936 151.726 L 77.29 154.641 C 72.842 153.846 68.398 154.153 63.958 155.571 C 59.516 156.987 55.61 159.412 52.236 162.848 C 49.525 165.609 47.442 168.774 45.989 172.336 C 44.539 175.902 43.786 179.476 43.735 183.059 C 43.685 186.643 44.337 190.197 45.689 193.719 C 47.04 197.243 49.035 200.347 51.669 203.03 C 54.037 205.442 56.614 207.343 59.401 208.731 C 62.189 210.118 64.981 210.959 67.784 211.25 C 70.586 211.543 73.381 211.398 76.166 210.819 C 78.951 210.238 81.619 209.233 84.165 207.795 C 86.711 206.358 89.031 204.576 91.117 202.451 C 94.354 199.153 96.905 195.475 98.769 191.417 L 96.722 189.33 C 94.916 193.371 92.444 196.991 89.306 200.188 C 86.927 202.61 84.261 204.524 81.309 205.927 C 78.358 207.333 75.32 208.162 72.193 208.411 C 69.065 208.663 65.888 208.155 62.655 206.89 C 59.426 205.627 56.466 203.624 53.776 200.884 C 50.631 197.68 48.521 193.901 47.448 189.552 C 46.375 185.203 46.439 180.836 47.634 176.453 C 48.831 172.072 51.047 168.231 54.284 164.934 C 57.307 161.855 60.801 159.686 64.768 158.422 C 68.735 157.16 72.711 156.891 76.702 157.617 L 76.055 160.532 C 72.564 159.917 69.072 160.166 65.577 161.273 C 62.082 162.382 59.001 164.296 56.329 167.017 C 53.462 169.937 51.506 173.328 50.463 177.19 C 49.417 181.054 49.363 184.9 50.3 188.735 C 51.235 192.568 53.096 195.902 55.882 198.74 C 57.813 200.706 59.895 202.253 62.13 203.373 C 64.362 204.496 66.581 205.17 68.788 205.392 C 70.995 205.612 73.194 205.477 75.383 204.988 C 77.574 204.494 79.651 203.681 81.618 202.547 C 83.584 201.412 85.395 200 87.053 198.311 C 90.348 194.954 92.794 191.172 94.392 186.957 L 92.431 184.961 C 90.855 188.995 88.459 192.652 85.241 195.929 C 83.389 197.816 81.369 199.316 79.182 200.423 C 76.993 201.532 74.71 202.218 72.334 202.479 C 69.956 202.737 67.517 202.375 65.011 201.396 C 62.507 200.415 60.165 198.815 57.987 196.595 C 56.186 194.762 54.829 192.642 53.91 190.237 C 52.993 187.834 52.552 185.399 52.585 182.93 C 52.622 180.461 53.132 178.012 54.117 175.581 C 55.104 173.148 56.522 170.988 58.375 169.101 C 60.696 166.737 63.377 165.078 66.416 164.125 C 69.458 163.169 72.504 162.972 75.551 163.535 L 74.933 166.423 C 72.364 165.952 69.795 166.124 67.227 166.946 C 64.661 167.767 62.394 169.18 60.423 171.187 C 57.224 174.444 55.593 178.345 55.529 182.887 C 55.465 187.428 56.987 191.283 60.094 194.449 C 62.009 196.398 64.02 197.794 66.132 198.632 C 68.245 199.473 70.301 199.772 72.302 199.526 C 74.304 199.282 76.215 198.686 78.035 197.738 C 79.859 196.792 81.557 195.516 83.138 193.905 C 86.375 190.608 88.732 186.872 90.213 182.701 L 79.868 172.165 L 81.975 170.018 Z M 96.062 122.381 L 98.169 120.234 L 139.096 161.92 L 136.988 164.067 L 96.062 122.381 Z M 91.851 126.669 L 93.956 124.525 L 134.883 166.211 L 132.778 168.355 L 91.851 126.669 Z M 87.639 130.96 L 89.744 128.815 L 130.671 170.502 L 128.565 172.646 L 87.639 130.96 Z M 83.426 135.251 L 85.534 133.104 L 126.46 174.79 L 124.352 176.936 L 83.426 135.251 Z M 101.996 116.336 L 104.277 114.013 L 157.98 137.07 L 135.343 82.371 L 137.596 80.075 L 161.877 138.716 L 159.596 141.039 L 101.996 116.336 Z M 106.531 111.717 L 108.783 109.423 L 151.968 127.965 L 153.383 131.851 L 106.531 111.717 Z M 111.064 107.1 L 113.347 104.775 L 148.62 119.97 L 150.323 123.966 L 111.064 107.1 Z M 115.598 102.483 L 117.85 100.188 L 145.16 111.912 L 146.918 115.969 L 115.598 102.483 Z M 148.916 68.546 L 151.197 66.223 L 175.45 124.891 L 173.197 127.185 L 148.916 68.546 Z M 144.41 73.135 L 146.663 70.84 L 170.917 129.508 L 168.664 131.804 L 144.41 73.135 Z M 139.846 77.783 L 142.129 75.458 L 166.383 134.127 L 164.13 136.421 L 139.846 77.783 Z M 206.35 93.416 L 204.245 95.562 L 163.319 53.876 L 165.425 51.731 L 206.35 93.416 Z M 202.138 97.708 L 200.033 99.852 L 159.106 58.166 L 161.211 56.022 L 202.138 97.708 Z M 197.928 101.996 L 195.82 104.143 L 154.894 62.457 L 157.001 60.31 L 197.928 101.996 Z M 200.331 78.705 L 220.485 58.176 L 222.533 60.261 L 202.379 80.79 L 204.425 82.873 L 224.579 62.345 L 226.624 64.429 L 206.47 84.957 L 208.518 87.043 L 228.672 66.514 L 230.718 68.598 L 208.457 91.272 L 167.53 49.586 L 189.791 26.912 L 191.837 28.995 L 171.682 49.524 L 173.729 51.607 L 193.882 31.08 L 195.93 33.165 L 175.776 53.692 L 177.821 55.777 L 197.976 35.248 L 200.021 37.332 L 179.868 57.86 L 184.956 63.044 L 203.94 43.707 L 205.986 45.791 L 187.002 65.127 L 189.047 67.21 L 208.031 47.875 L 210.079 49.96 L 191.095 69.296 L 193.141 71.38 L 212.124 52.044 L 214.172 54.129 L 195.188 73.465 L 200.331 78.705 Z M 57.102 311.902 L 82.682 337.957 L 80.577 340.101 L 54.996 314.046 C 54.447 313.487 53.888 313.105 53.313 312.898 C 52.739 312.691 52.201 312.628 51.701 312.716 C 51.197 312.8 50.648 313.025 50.049 313.386 C 49.448 313.747 48.908 314.141 48.429 314.57 C 47.955 314.997 47.384 315.549 46.721 316.224 C 46.057 316.9 45.516 317.482 45.096 317.965 C 44.675 318.452 44.288 319.003 43.934 319.614 C 43.579 320.225 43.358 320.785 43.275 321.297 C 43.19 321.807 43.252 322.354 43.455 322.94 C 43.66 323.523 44.035 324.093 44.584 324.652 L 70.164 350.707 L 68.056 352.853 L 42.477 326.799 C 39.064 323.323 39.797 319.106 44.673 314.139 C 49.549 309.173 53.69 308.427 57.102 311.902 Z M 61.315 307.611 L 86.895 333.665 L 84.789 335.81 L 59.21 309.755 C 56.804 307.305 54.135 306.364 51.204 306.936 C 48.276 307.509 45.416 309.216 42.627 312.056 C 39.839 314.895 38.164 317.809 37.602 320.791 C 37.042 323.774 37.966 326.493 40.371 328.943 L 65.951 354.998 L 63.844 357.145 L 38.263 331.089 C 36.274 329.063 35.096 326.79 34.729 324.268 C 34.361 321.75 34.704 319.288 35.754 316.883 C 36.809 314.48 38.419 312.175 40.582 309.972 C 42.747 307.766 45.01 306.127 47.367 305.055 C 49.728 303.985 52.144 303.636 54.62 304.008 C 57.094 304.384 59.325 305.585 61.315 307.611 Z M 65.527 303.319 L 91.108 329.375 L 89.001 331.521 L 63.42 305.466 C 61.639 303.651 59.674 302.375 57.521 301.633 C 55.367 300.891 53.205 300.685 51.029 301.008 C 48.852 301.333 46.699 302.081 44.569 303.247 C 42.438 304.414 40.425 305.96 38.534 307.886 C 36.643 309.813 35.125 311.862 33.981 314.031 C 32.835 316.202 32.1 318.395 31.781 320.613 C 31.464 322.83 31.667 325.033 32.395 327.225 C 33.123 329.419 34.377 331.419 36.158 333.234 L 61.739 359.289 L 59.633 361.433 L 34.053 335.378 C 31.989 333.275 30.527 330.941 29.669 328.38 C 28.811 325.82 28.541 323.248 28.856 320.67 C 29.171 318.092 29.981 315.519 31.284 312.953 C 32.59 310.392 34.325 308.006 36.488 305.803 C 38.653 303.597 40.996 301.83 43.511 300.499 C 46.03 299.172 48.554 298.349 51.085 298.028 C 53.619 297.706 56.142 297.98 58.657 298.854 C 61.171 299.728 63.463 301.217 65.527 303.319 Z M 95.318 325.086 L 93.213 327.23 L 67.632 301.175 C 65.568 299.073 63.114 297.537 60.275 296.571 C 57.436 295.605 54.526 295.235 51.553 295.463 C 48.582 295.691 45.586 296.515 42.567 297.93 C 39.549 299.345 36.839 301.274 34.441 303.717 C 31.146 307.073 28.76 310.731 27.283 314.688 C 25.806 318.644 25.435 322.647 26.175 326.7 C 26.915 330.753 28.838 334.359 31.946 337.524 L 57.526 363.58 L 55.421 365.724 L 29.84 339.669 C 27.227 337.007 25.346 334.019 24.201 330.709 C 23.059 327.397 22.646 324.069 22.972 320.726 C 23.298 317.384 24.267 314.062 25.881 310.759 C 27.494 307.455 29.665 304.414 32.396 301.634 C 37.233 296.707 42.609 293.644 48.526 292.441 C 49.708 286.414 52.714 280.938 57.551 276.01 C 60.281 273.23 63.267 271.019 66.51 269.376 C 69.753 267.732 73.015 266.743 76.297 266.412 C 79.578 266.08 82.847 266.499 86.097 267.664 C 89.348 268.831 92.281 270.747 94.894 273.408 L 120.474 299.464 L 118.369 301.608 L 92.788 275.553 C 89.702 272.408 86.17 270.458 82.191 269.705 C 78.212 268.951 74.273 269.32 70.38 270.815 C 66.487 272.312 62.894 274.735 59.597 278.094 C 55.464 282.305 52.805 286.944 51.618 292.016 C 52.445 291.943 53.436 291.937 54.588 292 C 55.746 287.735 58.095 283.795 61.645 280.18 C 63.81 277.974 66.15 276.209 68.666 274.879 C 71.183 273.551 73.71 272.726 76.241 272.406 C 78.772 272.085 81.297 272.359 83.811 273.233 C 86.324 274.107 88.617 275.597 90.681 277.699 L 116.262 303.754 L 114.156 305.899 L 88.576 279.843 C 86.794 278.029 84.83 276.751 82.677 276.01 C 80.524 275.268 78.361 275.061 76.184 275.386 C 74.008 275.709 71.855 276.459 69.726 277.623 C 67.595 278.79 65.582 280.337 63.69 282.263 C 60.59 285.421 58.523 288.78 57.494 292.339 C 58.375 292.522 59.314 292.764 60.31 293.063 C 61.178 290.056 62.989 287.149 65.738 284.349 C 67.904 282.144 70.166 280.504 72.524 279.432 C 74.884 278.362 77.301 278.013 79.773 278.387 C 82.251 278.761 84.481 279.961 86.471 281.987 L 112.051 308.043 L 109.944 310.189 L 84.363 284.134 C 81.958 281.684 79.289 280.744 76.36 281.313 C 73.432 281.887 70.571 283.593 67.784 286.432 C 65.249 289.015 63.647 291.572 62.975 294.108 C 63.951 294.584 64.827 295.08 65.609 295.597 C 65.927 293.419 67.333 291.059 69.829 288.515 C 74.705 283.55 78.847 282.804 82.258 286.278 L 107.839 312.333 L 105.734 314.478 L 80.153 288.422 C 79.604 287.864 79.045 287.481 78.469 287.275 C 77.894 287.069 77.358 287.005 76.856 287.092 C 76.354 287.177 75.804 287.402 75.204 287.763 C 74.605 288.123 74.064 288.519 73.585 288.946 C 73.111 289.374 72.54 289.926 71.876 290.602 C 71.214 291.278 70.672 291.858 70.252 292.341 C 69.831 292.829 69.444 293.38 69.09 293.991 C 68.735 294.602 68.515 295.161 68.432 295.674 C 68.346 296.184 68.408 296.731 68.61 297.316 C 68.813 297.902 69.189 298.472 69.738 299.031 L 95.318 325.086 Z M 136.245 283.4 L 134.138 285.547 L 93.209 243.858 L 95.316 241.712 L 136.245 283.4 Z M 132.032 287.691 L 129.926 289.835 L 88.998 248.148 L 91.104 246.003 L 132.032 287.691 Z M 127.819 291.982 L 125.714 294.127 L 84.785 252.438 L 86.89 250.294 L 127.819 291.982 Z M 130.225 268.687 L 150.379 248.16 L 152.425 250.243 L 132.271 270.772 L 134.318 272.857 L 154.472 252.328 L 156.518 254.412 L 136.364 274.94 L 138.412 277.026 L 158.566 256.498 L 160.611 258.581 L 138.35 281.256 L 97.421 239.568 L 119.683 216.894 L 121.731 218.979 L 101.577 239.507 L 103.622 241.591 L 123.776 221.062 L 125.824 223.149 L 105.669 243.676 L 107.716 245.759 L 127.869 225.232 L 129.915 227.315 L 109.761 247.844 L 114.85 253.026 L 133.834 233.691 L 135.879 235.774 L 116.896 255.111 L 118.941 257.194 L 137.925 237.858 L 139.972 239.944 L 120.989 259.279 L 123.034 261.363 L 142.018 242.027 L 144.066 244.113 L 125.082 263.449 L 130.225 268.687 Z M 172.055 207.266 L 168.719 210.663 C 164.624 214.835 160.663 217.217 156.84 217.812 C 153.018 218.407 149.683 217.256 146.841 214.361 C 144.188 211.658 143.273 208.085 144.096 203.64 C 144.917 199.19 147.669 194.584 152.348 189.818 C 155.467 186.641 158.795 184.103 162.33 182.199 C 165.866 180.296 169.287 179.205 172.595 178.922 L 172.238 181.891 C 169.369 182.225 166.376 183.269 163.257 185.021 C 160.138 186.77 157.183 189.064 154.395 191.904 C 150.281 196.094 147.818 199.993 147.008 203.596 C 146.198 207.203 146.844 210.075 148.946 212.217 C 151.221 214.533 153.861 215.405 156.867 214.832 C 159.873 214.258 163.141 212.174 166.671 208.578 L 169.889 205.301 C 174.042 201.071 178.036 198.654 181.87 198.048 C 185.701 197.445 189.04 198.592 191.882 201.487 C 194.534 204.188 195.45 207.762 194.628 212.207 C 193.809 216.654 191.057 221.26 186.376 226.029 C 183.257 229.206 179.929 231.745 176.393 233.648 C 172.859 235.549 169.438 236.641 166.127 236.925 L 166.488 233.953 C 169.356 233.619 172.351 232.577 175.469 230.828 C 178.587 229.079 181.541 226.783 184.328 223.943 C 188.442 219.752 190.906 215.855 191.717 212.25 C 192.528 208.647 191.88 205.773 189.777 203.631 C 187.503 201.314 184.862 200.443 181.857 201.017 C 178.851 201.589 175.583 203.673 172.055 207.266 Z M 176.147 211.436 L 172.812 214.833 C 167.39 220.355 162.008 223.394 156.668 223.951 C 151.325 224.51 146.647 222.745 142.629 218.651 C 140.791 216.78 139.487 214.597 138.714 212.102 C 137.942 209.606 137.731 206.938 138.079 204.094 C 138.425 201.251 139.462 198.224 141.188 195.018 C 142.917 191.814 145.272 188.691 148.256 185.65 C 152.02 181.818 156.095 178.794 160.478 176.586 C 164.861 174.379 169.142 173.177 173.317 172.979 L 172.842 175.952 C 169.108 176.202 165.273 177.36 161.33 179.424 C 157.391 181.487 153.715 184.259 150.302 187.735 C 145.037 193.097 141.984 198.409 141.141 203.669 C 140.298 208.926 141.495 213.204 144.736 216.505 C 148.166 219.999 152.171 221.459 156.753 220.882 C 161.335 220.306 166.006 217.594 170.764 212.748 L 173.982 209.47 C 179.755 203.59 184.319 202.36 187.672 205.775 C 189.187 207.319 189.551 209.489 188.76 212.28 C 187.971 215.071 185.813 218.264 182.282 221.86 C 179.807 224.381 177.226 226.442 174.543 228.037 C 171.859 229.631 169.3 230.603 166.874 230.952 L 167.291 227.981 C 171.359 227.16 175.673 224.424 180.237 219.776 C 183.161 216.797 185.014 214.313 185.791 212.324 C 186.568 210.334 186.493 208.868 185.564 207.922 C 184.485 206.823 183.241 206.527 181.83 207.038 C 180.418 207.548 178.525 209.015 176.147 211.436 Z M 167.961 203.098 L 164.626 206.495 C 158.933 212.294 154.407 213.486 151.054 210.07 C 149.538 208.527 149.172 206.358 149.963 203.567 C 150.753 200.776 152.911 197.583 156.441 193.987 C 158.916 191.466 161.497 189.404 164.183 187.808 C 166.866 186.214 169.424 185.244 171.85 184.895 L 171.432 187.865 C 167.367 188.69 163.053 191.424 158.489 196.073 C 155.564 199.052 153.711 201.536 152.933 203.524 C 152.156 205.513 152.23 206.979 153.159 207.926 C 154.238 209.025 155.485 209.321 156.896 208.812 C 158.308 208.301 160.201 206.835 162.58 204.411 L 165.916 201.013 C 171.334 195.494 176.715 192.454 182.058 191.893 C 187.399 191.337 192.078 193.105 196.095 197.195 C 197.933 199.067 199.237 201.25 200.009 203.745 C 200.781 206.24 200.993 208.909 200.647 211.752 C 200.299 214.596 199.261 217.622 197.534 220.829 C 195.809 224.035 193.453 227.159 190.469 230.198 C 186.706 234.032 182.631 237.051 178.247 239.258 C 173.863 241.467 169.583 242.667 165.409 242.867 L 165.883 239.893 C 169.615 239.645 173.45 238.487 177.393 236.423 C 181.334 234.357 185.009 231.588 188.421 228.113 C 193.687 222.749 196.744 217.438 197.585 212.181 C 198.429 206.921 197.23 202.64 193.99 199.339 C 190.56 195.846 186.552 194.388 181.971 194.964 C 177.388 195.54 172.717 198.253 167.961 203.098 Z M 202.921 162.017 C 202.921 162.017 202.91 162.846 202.887 164.499 C 202.864 166.154 203.978 168.127 206.234 170.424 C 208.489 172.722 211.24 173.845 214.488 173.798 C 217.738 173.752 220.523 172.547 222.844 170.183 C 225.165 167.819 226.348 164.983 226.395 161.671 C 226.442 158.362 225.338 155.56 223.082 153.263 C 220.827 150.966 218.076 149.841 214.828 149.889 C 211.578 149.939 208.794 151.143 206.472 153.508 C 204.152 155.873 202.969 158.708 202.921 162.017 Z M 214.448 176.795 C 214.448 176.795 213.436 176.81 211.407 176.839 C 209.378 176.869 206.95 175.447 204.126 172.571 C 201.303 169.695 199.921 166.191 199.981 162.06 C 200.038 157.929 201.52 154.382 204.425 151.423 C 207.33 148.464 210.812 146.954 214.87 146.895 C 218.925 146.835 222.365 148.243 225.188 151.119 C 228.011 153.994 229.394 157.498 229.337 161.63 C 229.277 165.761 227.795 169.307 224.889 172.267 C 221.984 175.226 218.502 176.735 214.448 176.795 Z M 197.054 162.115 C 197.054 162.115 197.038 163.354 197.008 165.838 C 196.977 168.322 198.649 171.28 202.021 174.715 C 205.396 178.152 209.52 179.838 214.391 179.775 C 219.263 179.711 223.445 177.905 226.935 174.35 C 230.426 170.794 232.201 166.534 232.263 161.572 C 232.324 156.609 230.669 152.408 227.295 148.972 C 223.924 145.538 219.799 143.852 214.925 143.913 C 210.053 143.975 205.871 145.783 202.38 149.339 C 198.89 152.894 197.116 157.153 197.054 162.115 Z M 209.081 182.172 C 209.081 182.172 208.203 181.949 206.445 181.5 C 204.688 181.049 202.512 179.504 199.916 176.859 C 197.32 174.215 195.582 171.102 194.7 167.524 C 193.818 163.946 193.867 160.351 194.85 156.746 C 195.833 153.14 197.662 149.977 200.334 147.256 C 203.007 144.534 206.112 142.672 209.651 141.67 C 213.191 140.669 216.722 140.617 220.235 141.515 C 223.748 142.412 226.804 144.183 229.401 146.828 C 231.997 149.473 233.735 152.585 234.617 156.163 C 235.498 159.742 235.447 163.338 234.464 166.943 C 233.481 170.55 231.654 173.714 228.983 176.436 C 226.311 179.158 223.203 181.018 219.664 182.02 C 216.123 183.021 212.594 183.07 209.081 182.172 Z M 192.789 171.182 C 192.789 171.182 193.072 171.923 193.636 173.401 C 194.202 174.879 195.592 176.749 197.809 179.006 C 200.026 181.265 202.586 182.97 205.492 184.121 C 208.399 185.273 211.339 185.827 214.321 185.783 C 217.302 185.737 220.259 185.097 223.199 183.86 C 226.139 182.623 228.748 180.842 231.028 178.519 C 233.311 176.194 235.059 173.538 236.274 170.542 C 237.488 167.548 238.117 164.536 238.162 161.5 C 238.202 158.465 237.659 155.47 236.528 152.51 C 235.397 149.55 233.724 146.943 231.506 144.683 C 229.29 142.426 226.73 140.722 223.824 139.57 C 220.917 138.418 217.977 137.865 214.997 137.905 C 212.015 137.949 209.058 138.59 206.118 139.827 C 203.178 141.065 200.569 142.845 198.286 145.17 C 196.005 147.492 194.258 150.15 193.043 153.144 C 191.829 156.139 191.2 159.151 191.157 162.189 C 191.114 165.227 191.657 168.221 192.789 171.182 Z M 204.374 186.913 C 204.374 186.913 203.553 186.588 201.914 185.942 C 200.274 185.295 198.204 183.698 195.704 181.15 C 193.202 178.603 191.319 175.66 190.047 172.321 C 188.777 168.983 188.166 165.62 188.217 162.232 C 188.262 158.844 188.968 155.461 190.333 152.084 C 191.699 148.707 193.667 145.708 196.241 143.086 C 198.814 140.465 201.762 138.458 205.077 137.068 C 208.39 135.679 211.711 134.96 215.039 134.911 C 218.365 134.86 221.668 135.482 224.946 136.776 C 228.223 138.071 231.112 139.99 233.613 142.537 C 236.114 145.085 237.999 148.029 239.271 151.367 C 240.54 154.704 241.15 158.068 241.102 161.458 C 241.052 164.845 240.346 168.228 238.985 171.605 C 237.62 174.982 235.65 177.984 233.076 180.605 C 230.502 183.227 227.558 185.23 224.242 186.622 C 220.925 188.011 217.603 188.73 214.279 188.778 C 210.951 188.827 207.649 188.205 204.374 186.913 Z M 187.322 173.506 C 187.322 173.506 187.675 174.433 188.385 176.289 C 189.095 178.141 190.831 180.476 193.598 183.294 C 196.365 186.113 199.57 188.243 203.211 189.689 C 206.851 191.135 210.527 191.829 214.237 191.772 C 217.945 191.719 221.642 190.917 225.327 189.366 C 229.01 187.813 232.274 185.589 235.121 182.689 C 237.969 179.789 240.154 176.461 241.68 172.71 C 243.202 168.957 243.989 165.191 244.043 161.415 C 244.095 157.637 243.415 153.893 241.997 150.183 C 240.578 146.475 238.485 143.211 235.719 140.392 C 232.951 137.574 229.749 135.445 226.109 133.999 C 222.466 132.556 218.79 131.863 215.079 131.914 C 211.371 131.969 207.674 132.77 203.992 134.323 C 200.307 135.875 197.04 138.1 194.193 141.001 C 191.345 143.901 189.162 147.226 187.639 150.979 C 186.115 154.73 185.327 158.496 185.275 162.273 C 185.221 166.053 185.902 169.798 187.322 173.506 Z M 202.075 192.464 C 202.075 192.464 201.072 192.071 199.072 191.284 C 197.069 190.495 194.541 188.548 191.491 185.44 C 188.441 182.334 186.141 178.741 184.595 174.66 C 183.048 170.583 182.303 166.468 182.362 162.318 C 182.42 158.167 183.282 154.028 184.943 149.901 C 186.606 145.776 189.009 142.113 192.147 138.918 C 195.288 135.718 198.882 133.273 202.932 131.579 C 206.983 129.888 211.047 129.009 215.123 128.947 C 219.199 128.887 223.239 129.647 227.242 131.223 C 231.245 132.799 234.774 135.142 237.824 138.248 C 240.873 141.354 243.174 144.949 244.721 149.026 C 246.269 153.103 247.014 157.218 246.955 161.37 C 246.896 165.524 246.034 169.663 244.372 173.787 C 242.709 177.912 240.308 181.573 237.168 184.772 C 234.029 187.969 230.433 190.416 226.383 192.111 C 222.334 193.804 218.27 194.682 214.193 194.739 C 210.118 194.799 206.078 194.04 202.075 192.464 Z M 264.312 100.846 L 289.892 126.901 L 287.785 129.048 L 262.205 102.993 C 261.656 102.433 261.096 102.051 260.521 101.844 C 259.947 101.638 259.41 101.576 258.909 101.662 C 258.405 101.747 257.857 101.972 257.256 102.333 C 256.657 102.694 256.115 103.088 255.64 103.514 C 255.164 103.944 254.593 104.496 253.931 105.169 C 253.268 105.845 252.726 106.426 252.304 106.912 C 251.886 107.397 251.499 107.947 251.144 108.559 C 250.789 109.169 250.568 109.729 250.485 110.241 C 250.4 110.751 250.462 111.299 250.665 111.884 C 250.867 112.469 251.243 113.04 251.792 113.599 L 277.372 139.653 L 275.267 141.799 L 249.687 115.743 C 246.275 112.269 247.008 108.05 251.884 103.084 C 256.76 98.117 260.901 97.372 264.312 100.846 Z M 268.523 96.558 L 294.103 122.612 L 291.998 124.757 L 266.418 98.702 C 264.012 96.251 261.343 95.311 258.413 95.883 C 255.486 96.454 252.625 98.16 249.838 101 C 247.05 103.84 245.375 106.753 244.812 109.736 C 244.251 112.721 245.174 115.44 247.579 117.89 L 273.159 143.945 L 271.054 146.089 L 245.474 120.034 C 243.484 118.008 242.306 115.735 241.937 113.215 C 241.569 110.697 241.912 108.234 242.965 105.828 C 244.017 103.426 245.627 101.121 247.792 98.916 C 249.955 96.713 252.218 95.073 254.576 94.001 C 256.939 92.929 259.355 92.581 261.828 92.955 C 264.302 93.331 266.534 94.531 268.523 96.558 Z M 272.736 92.266 L 298.316 118.321 L 296.211 120.466 L 270.631 94.411 C 268.849 92.596 266.885 91.319 264.731 90.577 C 262.578 89.836 260.416 89.629 258.239 89.953 C 256.063 90.277 253.909 91.026 251.778 92.193 C 249.648 93.359 247.636 94.904 245.745 96.831 C 243.851 98.76 242.334 100.809 241.19 102.978 C 240.046 105.148 239.31 107.34 238.992 109.557 C 238.674 111.774 238.877 113.977 239.605 116.17 C 240.334 118.363 241.587 120.364 243.369 122.178 L 268.949 148.233 L 266.842 150.38 L 241.261 124.325 C 239.197 122.222 237.735 119.887 236.877 117.326 C 236.019 114.767 235.749 112.195 236.065 109.617 C 236.379 107.039 237.19 104.465 238.493 101.901 C 239.799 99.338 241.534 96.953 243.699 94.748 C 245.862 92.545 248.205 90.776 250.72 89.447 C 253.237 88.119 255.765 87.293 258.296 86.973 C 260.827 86.653 263.351 86.927 265.865 87.801 C 268.379 88.675 270.672 90.164 272.736 92.266 Z M 302.529 114.031 L 300.421 116.177 L 274.841 90.122 C 272.777 88.019 270.322 86.484 267.483 85.517 C 264.643 84.551 261.735 84.182 258.762 84.41 C 255.79 84.638 252.794 85.462 249.775 86.877 C 246.758 88.291 244.05 90.218 241.651 92.661 C 238.355 96.02 235.968 99.678 234.491 103.634 C 233.014 107.592 232.643 111.594 233.385 115.645 C 234.126 119.698 236.048 123.304 239.156 126.469 L 264.737 152.524 L 262.629 154.67 L 237.049 128.615 C 234.436 125.954 232.555 122.965 231.412 119.654 C 230.267 116.343 229.856 113.013 230.182 109.671 C 230.507 106.329 231.476 103.009 233.09 99.706 C 234.703 96.401 236.875 93.359 239.606 90.578 C 244.441 85.653 249.82 82.589 255.737 81.385 C 256.919 75.359 259.925 69.882 264.76 64.958 C 267.49 62.176 270.478 59.963 273.721 58.32 C 276.964 56.676 280.224 55.69 283.505 55.359 C 286.786 55.027 290.055 55.446 293.306 56.611 C 296.558 57.775 299.491 59.691 302.105 62.353 L 327.684 88.408 L 325.577 90.555 L 299.997 64.499 C 296.91 61.355 293.378 59.404 289.401 58.649 C 285.421 57.895 281.483 58.265 277.591 59.76 C 273.698 61.256 270.103 63.682 266.805 67.041 C 262.671 71.251 260.013 75.891 258.828 80.96 C 259.654 80.889 260.644 80.884 261.797 80.946 C 262.953 76.681 265.303 72.742 268.853 69.126 C 271.019 66.921 273.36 65.154 275.877 63.823 C 278.394 62.495 280.921 61.671 283.452 61.35 C 285.983 61.029 288.508 61.304 291.021 62.177 C 293.535 63.051 295.827 64.541 297.891 66.643 L 323.472 92.699 L 321.367 94.843 L 295.786 68.788 C 294.005 66.973 292.039 65.698 289.885 64.957 C 287.733 64.214 285.57 64.008 283.393 64.332 C 281.216 64.656 279.064 65.405 276.934 66.571 C 274.805 67.736 272.792 69.281 270.899 71.21 C 267.799 74.368 265.734 77.725 264.704 81.284 C 265.585 81.467 266.524 81.709 267.52 82.008 C 268.389 79 270.197 76.095 272.946 73.296 C 275.111 71.09 277.374 69.451 279.733 68.379 C 282.094 67.306 284.512 66.957 286.984 67.331 C 289.458 67.708 291.69 68.908 293.679 70.934 L 319.26 96.989 L 317.154 99.134 L 291.574 73.078 C 289.169 70.629 286.499 69.688 283.569 70.259 C 280.642 70.831 277.782 72.537 274.992 75.379 C 272.457 77.961 270.856 80.52 270.186 83.053 C 271.159 83.531 272.035 84.027 272.817 84.544 C 273.134 82.365 274.541 80.006 277.037 77.463 C 281.913 72.497 286.055 71.75 289.467 75.225 L 315.047 101.28 L 312.942 103.424 L 287.361 77.37 C 286.813 76.811 286.253 76.427 285.678 76.222 C 285.103 76.015 284.566 75.952 284.065 76.039 C 283.562 76.123 283.012 76.348 282.413 76.709 C 281.814 77.07 281.272 77.465 280.796 77.891 C 280.319 78.321 279.748 78.873 279.085 79.548 C 278.424 80.222 277.883 80.803 277.46 81.288 C 277.042 81.773 276.655 82.325 276.3 82.935 C 275.946 83.547 275.725 84.106 275.642 84.619 C 275.557 85.129 275.619 85.676 275.821 86.261 C 276.024 86.847 276.399 87.416 276.948 87.975 L 302.529 114.031 Z M 343.468 72.332 L 341.363 74.476 L 300.434 32.788 L 302.539 30.644 L 343.468 72.332 Z M 339.258 76.62 L 337.15 78.767 L 296.222 37.078 L 298.329 34.932 L 339.258 76.62 Z M 335.045 80.911 L 332.937 83.057 L 292.009 41.37 L 294.116 39.224 L 335.045 80.911 Z M 337.448 57.619 L 357.603 37.091 L 359.648 39.174 L 339.494 59.702 L 341.542 61.788 L 361.696 41.26 L 363.742 43.344 L 343.587 63.872 L 345.635 65.957 L 365.789 45.429 L 367.835 47.513 L 345.575 70.185 L 304.646 28.497 L 326.906 5.824 L 328.954 7.911 L 308.8 28.438 L 310.845 30.523 L 330.999 9.994 L 333.047 12.079 L 312.893 32.608 L 314.939 34.691 L 335.093 14.163 L 337.138 16.247 L 316.984 36.775 L 322.074 41.958 L 341.057 22.623 L 343.103 24.706 L 324.119 44.042 L 326.164 46.126 L 345.148 26.789 L 347.196 28.875 L 328.212 48.211 L 330.258 50.295 L 349.242 30.958 L 351.289 33.044 L 332.305 52.38 L 337.448 57.619 Z M 51.457 488.338 L 49.349 490.484 L 8.423 448.798 L 10.53 446.652 L 51.457 488.338 Z M 47.244 492.629 L 45.139 494.773 L 4.212 453.087 L 6.318 450.942 L 47.244 492.629 Z M 43.032 496.919 L 40.927 499.063 L 0 457.377 L 2.105 455.233 L 43.032 496.919 Z M 45.438 473.625 L 65.589 453.098 L 67.638 455.185 L 47.485 475.71 L 49.531 477.793 L 69.683 457.268 L 71.728 459.351 L 51.577 479.878 L 53.624 481.963 L 73.776 461.438 L 75.822 463.521 L 53.562 486.193 L 12.636 444.508 L 34.895 421.835 L 36.94 423.918 L 16.789 444.444 L 18.834 446.528 L 38.987 426.002 L 41.034 428.087 L 20.882 448.613 L 22.928 450.697 L 43.079 430.171 L 45.125 432.255 L 24.973 452.78 L 30.062 457.964 L 49.047 438.628 L 51.092 440.712 L 32.107 460.047 L 34.154 462.132 L 53.137 442.795 L 55.185 444.88 L 36.201 464.217 L 38.246 466.3 L 57.231 446.965 L 59.278 449.05 L 40.295 468.387 L 45.438 473.625 Z M 80.759 418.833 L 77.425 422.228 C 73.33 426.399 69.37 428.781 65.547 429.376 C 61.724 429.971 58.389 428.819 55.547 425.925 C 52.895 423.223 51.979 419.65 52.802 415.204 C 53.621 410.757 56.373 406.15 61.054 401.382 C 64.173 398.204 67.501 395.667 71.036 393.764 C 74.57 391.863 77.991 390.77 81.302 390.486 L 80.944 393.46 C 78.075 393.794 75.08 394.836 71.963 396.585 C 68.845 398.334 65.889 400.628 63.101 403.467 C 58.988 407.658 56.524 411.556 55.714 415.159 C 54.904 418.767 55.551 421.64 57.652 423.781 C 59.927 426.097 62.567 426.969 65.575 426.396 C 68.579 425.822 71.847 423.738 75.377 420.142 L 78.596 416.865 C 82.748 412.635 86.742 410.218 90.574 409.614 C 94.408 409.008 97.746 410.156 100.588 413.05 C 103.241 415.752 104.156 419.325 103.334 423.771 C 102.513 428.22 99.761 432.827 95.082 437.593 C 91.963 440.771 88.635 443.308 85.099 445.211 C 81.565 447.112 78.145 448.205 74.834 448.49 L 75.192 445.52 C 78.063 445.183 81.057 444.141 84.175 442.392 C 87.294 440.643 90.247 438.347 93.034 435.508 C 97.149 431.317 99.612 427.419 100.421 423.816 C 101.234 420.211 100.587 417.337 98.483 415.194 C 96.209 412.879 93.568 412.006 90.564 412.581 C 87.557 413.153 84.289 415.237 80.759 418.833 Z M 84.851 423.002 L 81.518 426.397 C 76.097 431.92 70.714 434.958 65.372 435.517 C 60.031 436.074 55.354 434.309 51.335 430.216 C 49.497 428.343 48.193 426.162 47.421 423.666 C 46.648 421.171 46.437 418.502 46.783 415.659 C 47.131 412.815 48.169 409.789 49.895 406.582 C 51.623 403.378 53.978 400.255 56.963 397.215 C 60.726 393.381 64.799 390.36 69.182 388.153 C 73.566 385.945 77.847 384.743 82.02 384.545 L 81.546 387.518 C 77.814 387.766 73.979 388.924 70.036 390.988 C 66.095 393.054 62.421 395.822 59.009 399.299 C 53.743 404.662 50.688 409.975 49.847 415.233 C 49.002 420.492 50.199 424.77 53.44 428.071 C 56.87 431.565 60.877 433.023 65.459 432.447 C 70.041 431.87 74.712 429.158 79.471 424.312 L 82.688 421.034 C 88.459 415.157 93.023 413.926 96.376 417.342 C 97.891 418.885 98.257 421.053 97.466 423.844 C 96.677 426.635 94.519 429.828 90.989 433.423 C 88.514 435.946 85.932 438.006 83.249 439.6 C 80.563 441.197 78.006 442.166 75.58 442.515 L 75.997 439.545 C 80.065 438.724 84.379 435.989 88.943 431.34 C 91.868 428.362 93.721 425.877 94.497 423.888 C 95.274 421.898 95.199 420.432 94.271 419.486 C 93.192 418.387 91.947 418.091 90.536 418.601 C 89.124 419.112 87.231 420.578 84.851 423.002 Z M 76.665 414.664 L 73.332 418.059 C 67.637 423.86 63.111 425.051 59.757 421.637 C 58.242 420.092 57.878 417.922 58.669 415.131 C 59.459 412.34 61.617 409.147 65.148 405.552 C 67.623 403.03 70.203 400.969 72.887 399.375 C 75.57 397.78 78.13 396.809 80.556 396.46 L 80.138 399.43 C 76.073 400.253 71.759 402.989 67.195 407.637 C 64.271 410.616 62.418 413.1 61.639 415.087 C 60.862 417.077 60.936 418.543 61.866 419.489 C 62.945 420.589 64.191 420.886 65.602 420.376 C 67.014 419.865 68.907 418.399 71.286 415.975 L 74.62 412.58 C 80.042 407.057 85.421 404.017 90.762 403.46 C 96.105 402.901 100.785 404.669 104.801 408.759 C 106.639 410.632 107.943 412.813 108.716 415.309 C 109.488 417.804 109.699 420.473 109.353 423.316 C 109.005 426.161 107.967 429.186 106.241 432.393 C 104.515 435.599 102.159 438.722 99.175 441.763 C 95.412 445.596 91.337 448.615 86.953 450.822 C 82.57 453.031 78.29 454.232 74.115 454.43 L 74.589 451.457 C 78.321 451.209 82.156 450.051 86.099 447.987 C 90.041 445.921 93.715 443.153 97.128 439.676 C 102.393 434.313 105.45 429.002 106.291 423.744 C 107.135 418.486 105.937 414.205 102.696 410.904 C 99.266 407.41 95.258 405.952 90.677 406.528 C 86.094 407.105 81.423 409.817 76.665 414.664 Z M 99.646 378.983 L 101.751 376.839 L 131.337 406.975 L 129.232 409.119 L 99.646 378.983 Z M 81.926 378.099 L 79.881 376.015 L 111.472 343.837 L 113.518 345.92 L 81.926 378.099 Z M 86.019 382.268 L 83.971 380.182 L 115.563 348.004 L 117.611 350.09 L 86.019 382.268 Z M 90.11 386.435 L 88.065 384.351 L 119.657 352.173 L 121.702 354.257 L 90.11 386.435 Z M 112.281 366.114 L 114.387 363.969 L 143.974 394.104 L 141.868 396.249 L 112.281 366.114 Z M 108.069 370.404 L 110.176 368.258 L 139.763 398.393 L 137.655 400.539 L 108.069 370.404 Z M 103.859 374.693 L 105.964 372.548 L 135.55 402.684 L 133.445 404.829 L 103.859 374.693 Z M 153.371 344.699 L 166.067 331.767 C 167.744 330.059 168.656 328.089 168.801 325.853 C 168.948 323.619 168.093 321.557 166.236 319.666 C 164.872 318.277 163.04 317.653 160.743 317.795 C 158.443 317.935 156.504 318.81 154.924 320.419 L 136.847 338.83 L 167.544 370.096 L 165.436 372.243 L 132.695 338.893 L 152.879 318.334 C 155.042 316.131 157.677 314.95 160.783 314.797 C 163.89 314.645 166.412 315.553 168.343 317.519 C 170.751 319.972 171.88 322.73 171.729 325.797 C 171.58 328.863 170.374 331.548 168.113 333.851 L 155.416 346.782 L 153.371 344.699 Z M 157.465 348.868 L 170.16 335.937 C 172.97 333.075 174.447 329.678 174.599 325.741 C 174.752 321.804 173.367 318.348 170.448 315.375 C 167.966 312.847 164.758 311.667 160.825 311.832 C 156.893 311.997 153.564 313.471 150.833 316.251 L 128.543 338.954 L 163.331 374.387 L 161.226 376.532 L 124.391 339.013 L 148.785 314.165 C 152.1 310.79 156.127 309.012 160.87 308.835 C 165.609 308.659 169.504 310.125 172.553 313.231 C 175.965 316.705 177.604 320.846 177.469 325.655 C 177.333 330.464 175.579 334.584 172.206 338.02 L 159.51 350.952 L 157.465 348.868 Z M 161.555 353.035 L 174.251 340.104 C 176.844 337.463 178.636 334.401 179.628 330.922 C 180.619 327.444 180.694 323.933 179.85 320.393 C 179.006 316.852 177.277 313.748 174.661 311.085 C 172.293 308.673 169.419 307.073 166.037 306.292 C 162.654 305.511 159.232 305.63 155.769 306.65 C 152.304 307.668 149.294 309.48 146.74 312.082 L 120.238 339.075 L 159.119 378.678 L 157.014 380.822 L 116.087 339.136 L 144.694 309.998 C 146.898 307.754 149.44 306.024 152.321 304.805 C 155.2 303.587 158.077 302.936 160.953 302.844 C 163.828 302.753 166.67 303.224 169.482 304.261 C 172.292 305.299 174.72 306.856 176.767 308.94 C 180.082 312.317 182.197 316.063 183.109 320.169 C 184.021 324.275 183.808 328.325 182.463 332.32 L 197.963 339.113 L 195.713 341.405 L 181.269 335.214 C 180.913 335.927 180.469 336.726 179.938 337.615 L 193.635 343.521 L 191.383 345.815 L 178.116 340.165 C 177.567 340.839 176.962 341.514 176.299 342.19 L 189.335 347.901 L 187.112 350.165 L 174.104 344.425 L 172.204 346.36 L 185.064 352.251 L 182.841 354.515 L 169.952 348.656 L 163.604 355.12 L 161.555 353.035 Z M 171.755 365.807 L 169.65 367.952 L 141.001 338.772 L 156.972 322.504 C 158.065 321.39 159.31 320.771 160.703 320.643 C 162.097 320.515 163.241 320.904 164.13 321.81 C 166.669 324.395 166.632 327.021 164.019 329.682 L 151.324 342.613 L 149.277 340.53 L 161.974 327.598 C 163.183 326.367 163.2 325.152 162.025 323.955 C 161.703 323.626 161.245 323.526 160.646 323.653 C 160.047 323.78 159.506 324.09 159.018 324.587 L 145.151 338.711 L 171.755 365.807 Z M 196.677 286.953 C 196.677 286.953 196.666 287.782 196.643 289.437 C 196.618 291.09 197.734 293.063 199.99 295.361 C 202.245 297.658 204.996 298.781 208.244 298.734 C 211.494 298.689 214.278 297.484 216.6 295.12 C 218.92 292.755 220.103 289.92 220.149 286.609 C 220.197 283.298 219.094 280.497 216.838 278.199 C 214.583 275.902 211.832 274.778 208.582 274.828 C 205.334 274.876 202.55 276.081 200.228 278.444 C 197.907 280.809 196.724 283.644 196.677 286.953 Z M 208.204 301.731 C 208.204 301.731 207.19 301.748 205.16 301.778 C 203.132 301.807 200.706 300.383 197.882 297.507 C 195.059 294.631 193.676 291.127 193.737 286.996 C 193.793 282.865 195.276 279.318 198.181 276.359 C 201.086 273.4 204.568 271.891 208.626 271.831 C 212.68 271.772 216.12 273.179 218.944 276.055 C 221.767 278.931 223.149 282.435 223.093 286.566 C 223.032 290.697 221.55 294.243 218.645 297.203 C 215.74 300.162 212.258 301.672 208.204 301.731 Z M 190.808 287.054 C 190.808 287.054 190.794 288.296 190.766 290.776 C 190.734 293.26 192.405 296.217 195.777 299.651 C 199.151 303.088 203.273 304.776 208.145 304.713 C 213.019 304.653 217.203 302.843 220.692 299.289 C 224.182 295.734 225.959 291.473 226.018 286.508 C 226.08 281.546 224.423 277.348 221.049 273.911 C 217.676 270.476 213.554 268.788 208.681 268.849 C 203.809 268.911 199.625 270.721 196.135 274.276 C 192.646 277.83 190.869 282.091 190.808 287.054 Z M 202.835 307.111 C 202.835 307.111 201.957 306.887 200.2 306.436 C 198.444 305.985 196.268 304.441 193.672 301.795 C 191.075 299.151 189.336 296.041 188.453 292.462 C 187.572 288.884 187.623 285.287 188.606 281.682 C 189.589 278.076 191.418 274.914 194.09 272.192 C 196.761 269.47 199.867 267.608 203.407 266.606 C 206.947 265.605 210.478 265.553 213.991 266.451 C 217.504 267.35 220.56 269.12 223.156 271.764 C 225.752 274.409 227.49 277.521 228.373 281.1 C 229.254 284.678 229.203 288.275 228.22 291.88 C 227.237 295.486 225.41 298.651 222.739 301.372 C 220.066 304.094 216.959 305.954 213.419 306.956 C 209.879 307.957 206.348 308.008 202.835 307.111 Z M 186.544 296.118 C 186.544 296.118 186.827 296.859 187.392 298.337 C 187.958 299.815 189.348 301.685 191.565 303.943 C 193.782 306.202 196.342 307.906 199.248 309.058 C 202.155 310.209 205.095 310.763 208.077 310.719 C 211.055 310.676 214.012 310.036 216.953 308.799 C 219.893 307.561 222.503 305.779 224.784 303.455 C 227.067 301.13 228.814 298.474 230.029 295.479 C 231.244 292.485 231.872 289.473 231.915 286.439 C 231.958 283.401 231.415 280.407 230.283 277.446 C 229.153 274.486 227.48 271.879 225.261 269.62 C 223.046 267.362 220.486 265.658 217.58 264.507 C 214.673 263.355 211.733 262.801 208.751 262.845 C 205.77 262.886 202.813 263.527 199.873 264.764 C 196.933 266.001 194.325 267.781 192.042 270.106 C 189.761 272.429 188.012 275.088 186.796 278.082 C 185.582 281.078 184.953 284.09 184.913 287.125 C 184.87 290.163 185.413 293.157 186.544 296.118 Z M 198.128 311.849 C 198.128 311.849 197.309 311.524 195.669 310.878 C 194.03 310.232 191.96 308.634 189.459 306.087 C 186.958 303.539 185.075 300.597 183.803 297.258 C 182.533 293.919 181.922 290.556 181.972 287.168 C 182.018 283.78 182.724 280.398 184.089 277.021 C 185.452 273.646 187.423 270.644 189.996 268.023 C 192.57 265.401 195.516 263.395 198.83 262.006 C 202.146 260.615 205.467 259.896 208.795 259.848 C 212.119 259.799 215.421 260.421 218.699 261.715 C 221.978 263.008 224.868 264.926 227.368 267.474 C 229.87 270.021 231.755 272.966 233.025 276.307 C 234.293 279.643 234.904 283.006 234.857 286.394 C 234.808 289.781 234.102 293.164 232.739 296.544 C 231.375 299.919 229.405 302.92 226.831 305.542 C 224.258 308.163 221.311 310.17 217.997 311.558 C 214.68 312.947 211.359 313.666 208.035 313.715 C 204.707 313.763 201.405 313.141 198.128 311.849 Z M 181.077 298.443 C 181.077 298.443 181.431 299.369 182.141 301.226 C 182.849 303.08 184.585 305.414 187.351 308.233 C 190.119 311.051 193.323 313.183 196.965 314.626 C 200.606 316.072 204.282 316.765 207.991 316.712 C 211.701 316.655 215.398 315.854 219.082 314.302 C 222.766 312.749 226.03 310.525 228.877 307.625 C 231.725 304.725 233.908 301.4 235.433 297.649 C 236.955 293.895 237.745 290.127 237.797 286.351 C 237.851 282.574 237.17 278.83 235.753 275.12 C 234.334 271.412 232.241 268.147 229.474 265.33 C 226.707 262.511 223.504 260.381 219.864 258.935 C 216.221 257.493 212.545 256.799 208.835 256.851 C 205.127 256.905 201.428 257.709 197.745 259.262 C 194.062 260.815 190.798 263.039 187.951 265.939 C 185.103 268.839 182.92 272.164 181.395 275.916 C 179.871 279.667 179.083 283.432 179.027 287.211 C 178.977 290.991 179.657 294.735 181.077 298.443 Z M 195.828 317.403 C 195.828 317.403 194.828 317.007 192.827 316.22 C 190.825 315.432 188.296 313.484 185.246 310.378 C 182.197 307.272 179.896 303.677 178.349 299.6 C 176.803 295.52 176.059 291.404 176.117 287.254 C 176.176 283.104 177.038 278.965 178.698 274.838 C 180.362 270.714 182.765 267.051 185.903 263.854 C 189.041 260.657 192.637 258.209 196.687 256.515 C 200.739 254.824 204.803 253.945 208.877 253.887 C 212.954 253.824 216.994 254.584 220.998 256.159 C 225.001 257.735 228.529 260.078 231.58 263.184 C 234.629 266.291 236.93 269.885 238.477 273.963 C 240.024 278.041 240.769 282.156 240.71 286.31 C 240.652 290.461 239.79 294.6 238.128 298.725 C 236.464 302.849 234.061 306.512 230.923 309.708 C 227.784 312.905 224.188 315.353 220.138 317.047 C 216.089 318.74 212.026 319.619 207.951 319.679 C 203.874 319.735 199.833 318.977 195.828 317.403 Z M 270.183 223.29 L 272.29 221.144 L 293.037 242.275 C 291.278 246.843 288.734 250.824 285.398 254.222 C 282.26 257.419 278.664 259.866 274.615 261.561 C 270.565 263.254 266.501 264.132 262.426 264.191 C 258.35 264.249 254.31 263.489 250.304 261.916 C 246.3 260.341 242.772 257.997 239.722 254.891 C 236.672 251.784 234.372 248.191 232.825 244.112 C 231.28 240.033 230.535 235.918 230.593 231.767 C 230.651 227.617 231.514 223.477 233.174 219.351 C 234.837 215.226 237.24 211.563 240.379 208.367 C 243.967 204.712 248.093 202.043 252.761 200.359 C 257.427 198.675 262.158 198.071 266.954 198.551 L 266.48 201.524 C 262.143 201.119 257.862 201.675 253.642 203.196 C 249.422 204.716 245.683 207.135 242.426 210.452 C 239.579 213.353 237.396 216.677 235.871 220.428 C 234.346 224.18 233.559 227.946 233.504 231.724 C 233.453 235.503 234.134 239.247 235.554 242.955 C 236.971 246.666 239.06 249.928 241.828 252.746 C 244.595 255.565 247.8 257.695 251.442 259.139 C 255.083 260.585 258.759 261.279 262.466 261.224 C 266.176 261.169 269.873 260.366 273.559 258.815 C 277.241 257.262 280.505 255.039 283.353 252.139 C 285.987 249.456 288.056 246.42 289.565 243.033 L 287.461 240.889 C 285.972 244.337 283.92 247.394 281.308 250.054 C 278.734 252.676 275.789 254.68 272.474 256.071 C 269.155 257.461 265.834 258.179 262.511 258.227 C 259.182 258.277 255.881 257.654 252.605 256.363 C 249.328 255.068 246.436 253.147 243.935 250.599 C 241.434 248.053 239.55 245.109 238.279 241.771 C 237.009 238.432 236.398 235.069 236.448 231.682 C 236.494 228.294 237.199 224.912 238.565 221.534 C 239.931 218.157 241.898 215.158 244.473 212.536 C 247.418 209.536 250.798 207.346 254.613 205.972 C 258.429 204.593 262.304 204.1 266.238 204.493 L 265.878 207.465 C 262.384 207.123 258.939 207.567 255.539 208.789 C 252.137 210.013 249.13 211.958 246.518 214.62 C 244.237 216.943 242.489 219.599 241.275 222.594 C 240.06 225.588 239.429 228.602 239.388 231.639 C 239.345 234.676 239.889 237.671 241.02 240.631 C 242.151 243.592 243.824 246.199 246.04 248.455 C 248.258 250.715 250.818 252.419 253.724 253.571 C 256.63 254.723 259.571 255.277 262.553 255.233 C 265.532 255.189 268.491 254.546 271.431 253.309 C 274.371 252.072 276.979 250.292 279.259 247.969 C 281.951 245.228 283.946 242.116 285.246 238.633 L 283.142 236.49 C 281.882 240.013 279.906 243.144 277.214 245.886 C 274.542 248.607 271.435 250.468 267.894 251.469 C 264.355 252.471 260.824 252.522 257.311 251.624 C 253.798 250.726 250.744 248.953 248.148 246.309 C 245.551 243.664 243.811 240.554 242.929 236.976 C 242.048 233.397 242.098 229.801 243.081 226.196 C 244.065 222.59 245.893 219.427 248.565 216.705 C 250.848 214.38 253.477 212.677 256.451 211.596 C 259.426 210.517 262.439 210.138 265.49 210.465 L 265.074 213.437 C 262.463 213.162 259.888 213.489 257.347 214.417 C 254.805 215.346 252.56 216.804 250.611 218.788 C 247.121 222.343 245.345 226.605 245.283 231.567 C 245.223 236.531 246.881 240.73 250.253 244.165 C 253.627 247.602 257.749 249.29 262.621 249.226 C 267.495 249.166 271.679 247.356 275.169 243.802 C 277.899 241.021 279.779 237.793 280.811 234.116 L 278.737 232.003 C 277.763 235.658 275.891 238.894 273.121 241.716 C 270.215 244.676 266.734 246.185 262.68 246.245 C 258.622 246.304 255.181 244.896 252.358 242.02 C 249.535 239.145 248.153 235.64 248.213 231.509 C 248.27 227.378 249.751 223.832 252.657 220.873 C 254.296 219.203 256.181 217.985 258.315 217.221 C 260.452 216.456 262.602 216.184 264.773 216.407 L 264.326 219.409 C 260.584 219.053 257.377 220.236 254.704 222.958 C 252.383 225.323 251.2 228.158 251.153 231.466 C 251.107 234.775 252.21 237.577 254.465 239.874 C 256.721 242.171 259.472 243.295 262.72 243.248 C 265.97 243.202 268.754 241.997 271.075 239.633 C 274.06 236.592 275.78 233.201 276.235 229.456 L 270.183 223.29 Z M 282.818 210.419 L 284.925 208.273 L 305.673 229.405 L 303.564 231.551 L 282.818 210.419 Z M 278.607 214.708 L 280.713 212.564 L 301.459 233.696 L 299.354 235.841 L 278.607 214.708 Z M 274.395 218.999 L 276.5 216.854 L 297.247 237.987 L 295.142 240.131 L 274.395 218.999 Z M 321.368 213.418 L 319.263 215.562 L 278.336 173.876 L 280.441 171.732 L 321.368 213.418 Z M 317.158 217.707 L 315.049 219.853 L 274.124 178.168 L 276.231 176.021 L 317.158 217.707 Z M 312.944 221.998 L 310.839 224.143 L 269.912 182.456 L 272.017 180.312 L 312.944 221.998 Z M 315.348 198.705 L 335.503 178.178 L 337.55 180.263 L 317.396 200.791 L 319.442 202.875 L 339.595 182.346 L 341.641 184.43 L 321.487 204.958 L 323.535 207.044 L 343.689 186.516 L 345.734 188.599 L 323.475 211.272 L 282.549 169.586 L 304.808 146.914 L 306.854 148.997 L 286.699 169.525 L 288.745 171.609 L 308.899 151.08 L 310.947 153.167 L 290.793 173.694 L 292.839 175.777 L 312.993 155.25 L 315.038 157.333 L 294.884 177.862 L 299.973 183.044 L 318.957 163.709 L 321.002 165.792 L 302.019 185.129 L 304.064 187.212 L 323.048 167.876 L 325.096 169.962 L 306.112 189.297 L 308.158 191.381 L 327.141 172.045 L 329.189 174.131 L 310.205 193.467 L 315.348 198.705 Z M 367.506 132.786 L 361.677 131.139 L 340.987 110.064 L 343.093 107.919 L 367.506 132.786 Z M 378.795 135.703 L 373.222 134.315 L 345.2 105.772 L 347.305 103.628 L 378.795 135.703 Z M 334.801 150.001 L 340.63 151.649 L 361.321 172.724 L 359.216 174.868 L 334.801 150.001 Z M 323.227 146.794 L 329.085 148.472 L 357.108 177.015 L 355.003 179.159 L 323.227 146.794 Z M 314.808 136.728 L 317.264 134.226 L 382.585 151.065 L 380.129 153.566 L 314.808 136.728 Z M 319.78 131.663 L 322.266 129.131 L 387.56 145.998 L 385.043 148.561 L 319.78 131.663 Z M 324.722 126.629 L 327.181 124.125 L 386.784 139.55 L 349.41 101.483 L 351.517 99.337 L 392.444 141.023 L 389.958 143.555 L 324.722 126.629 Z M 315.493 143.209 L 352.895 181.305 L 350.79 183.45 L 309.863 141.764 L 312.379 139.201 L 377.613 156.129 L 375.184 158.602 L 315.493 143.209 Z M 394.269 85.695 C 394.269 85.695 394.257 86.524 394.234 88.179 C 394.211 89.833 395.325 91.806 397.581 94.103 C 399.836 96.4 402.587 97.524 405.835 97.477 C 409.086 97.431 411.869 96.226 414.191 93.862 C 416.513 91.497 417.695 88.662 417.74 85.351 C 417.788 82.041 416.685 79.239 414.43 76.942 C 412.174 74.644 409.423 73.521 406.173 73.57 C 402.925 73.618 400.141 74.823 397.82 77.187 C 395.499 79.552 394.316 82.387 394.269 85.695 Z M 405.795 100.473 C 405.795 100.473 404.783 100.488 402.754 100.518 C 400.725 100.547 398.297 99.125 395.474 96.249 C 392.65 93.374 391.268 89.869 391.328 85.738 C 391.385 81.607 392.867 78.061 395.772 75.102 C 398.678 72.142 402.159 70.632 406.217 70.573 C 410.271 70.514 413.711 71.922 416.535 74.797 C 419.358 77.673 420.74 81.178 420.684 85.309 C 420.624 89.44 419.141 92.986 416.236 95.945 C 413.331 98.904 409.849 100.415 405.795 100.473 Z M 388.399 85.796 C 388.399 85.796 388.385 87.038 388.357 89.519 C 388.326 92.003 389.996 94.959 393.368 98.394 C 396.743 101.83 400.865 103.518 405.737 103.455 C 410.61 103.395 414.794 101.585 418.284 98.031 C 421.773 94.477 423.551 90.215 423.609 85.251 C 423.671 80.288 422.014 76.089 418.64 72.653 C 415.269 69.218 411.147 67.53 406.272 67.591 C 401.4 67.653 397.216 69.464 393.726 73.017 C 390.237 76.572 388.46 80.834 388.399 85.796 Z M 400.426 105.853 C 400.426 105.853 399.548 105.629 397.791 105.179 C 396.035 104.728 393.859 103.182 391.263 100.538 C 388.667 97.893 386.927 94.783 386.044 91.205 C 385.163 87.626 385.214 84.03 386.197 80.425 C 387.18 76.818 389.009 73.656 391.681 70.934 C 394.353 68.213 397.458 66.35 400.998 65.349 C 404.538 64.347 408.069 64.296 411.582 65.193 C 415.095 66.092 418.151 67.861 420.747 70.507 C 423.344 73.151 425.082 76.264 425.964 79.842 C 426.845 83.42 426.794 87.017 425.811 90.622 C 424.828 94.228 423.002 97.393 420.33 100.115 C 417.658 102.836 414.55 104.697 411.01 105.698 C 407.47 106.699 403.939 106.751 400.426 105.853 Z M 384.136 94.86 C 384.136 94.86 384.418 95.601 384.983 97.079 C 385.549 98.557 386.939 100.427 389.156 102.684 C 391.374 104.944 393.933 106.648 396.84 107.799 C 399.746 108.952 402.686 109.506 405.668 109.462 C 408.646 109.419 411.606 108.776 414.546 107.538 C 417.486 106.301 420.094 104.521 422.375 102.198 C 424.658 99.873 426.405 97.216 427.62 94.222 C 428.836 91.227 429.464 88.214 429.506 85.181 C 429.549 82.144 429.006 79.149 427.875 76.189 C 426.744 73.228 425.071 70.621 422.852 68.363 C 420.637 66.105 418.077 64.401 415.171 63.248 C 412.264 62.097 409.324 61.543 406.342 61.587 C 403.362 61.628 400.404 62.268 397.464 63.506 C 394.524 64.743 391.916 66.524 389.633 68.849 C 387.353 71.172 385.605 73.828 384.39 76.823 C 383.175 79.817 382.544 82.832 382.504 85.868 C 382.461 88.905 383.005 91.9 384.136 94.86 Z M 395.721 110.592 C 395.721 110.592 394.9 110.266 393.26 109.62 C 391.621 108.974 389.551 107.376 387.051 104.828 C 384.549 102.281 382.666 99.338 381.395 96 C 380.124 92.661 379.513 89.298 379.564 85.91 C 379.609 82.523 380.315 79.14 381.681 75.763 C 383.047 72.385 385.014 69.386 387.587 66.765 C 390.161 64.144 393.109 62.137 396.424 60.746 C 399.738 59.357 403.058 58.639 406.386 58.59 C 409.71 58.541 413.012 59.163 416.29 60.457 C 419.57 61.75 422.459 63.668 424.961 66.215 C 427.461 68.763 429.347 71.707 430.616 75.049 C 431.884 78.385 432.495 81.748 432.449 85.136 C 432.399 88.524 431.694 91.906 430.332 95.283 C 428.967 98.66 426.996 101.662 424.423 104.284 C 421.849 106.905 418.905 108.909 415.588 110.3 C 412.271 111.689 408.95 112.408 405.626 112.456 C 402.298 112.506 398.996 111.883 395.721 110.592 Z M 378.668 97.185 C 378.668 97.185 379.022 98.112 379.732 99.968 C 380.44 101.822 382.176 104.157 384.942 106.976 C 387.71 109.794 390.914 111.925 394.557 113.369 C 398.197 114.815 401.874 115.508 405.582 115.454 C 409.292 115.397 412.989 114.595 416.673 113.044 C 420.357 111.491 423.621 109.268 426.469 106.367 C 429.316 103.467 431.499 100.143 433.024 96.391 C 434.546 92.638 435.336 88.87 435.39 85.093 C 435.442 81.317 434.762 77.571 433.344 73.861 C 431.925 70.153 429.832 66.89 427.066 64.071 C 424.298 61.253 421.096 59.124 417.456 57.678 C 413.813 56.234 410.136 55.541 406.426 55.592 C 402.719 55.647 399.019 56.451 395.337 58.004 C 391.653 59.557 388.389 61.781 385.542 64.681 C 382.694 67.582 380.511 70.906 378.987 74.658 C 377.462 78.409 376.674 82.175 376.62 85.953 C 376.568 89.732 377.248 93.477 378.668 97.185 Z M 393.419 116.145 C 393.419 116.145 392.419 115.75 390.419 114.963 C 388.416 114.173 385.888 112.226 382.837 109.12 C 379.788 106.013 377.487 102.42 375.94 98.342 C 374.396 94.261 373.65 90.146 373.708 85.996 C 373.767 81.846 374.629 77.707 376.289 73.581 C 377.953 69.456 380.356 65.793 383.495 62.596 C 386.633 59.399 390.23 56.952 394.279 55.257 C 398.331 53.566 402.394 52.688 406.468 52.628 C 410.545 52.567 414.586 53.326 418.589 54.902 C 422.593 56.477 426.121 58.821 429.171 61.927 C 432.22 65.034 434.521 68.627 436.068 72.705 C 437.616 76.783 438.36 80.898 438.302 85.053 C 438.244 89.203 437.381 93.341 435.719 97.466 C 434.055 101.591 431.653 105.254 428.514 108.451 C 425.375 111.648 421.78 114.095 417.729 115.789 C 413.68 117.483 409.617 118.361 405.542 118.421 C 401.465 118.478 397.425 117.718 393.419 116.145 Z M 450.686 41.866 L 463.38 28.937 C 465.058 27.229 465.971 25.256 466.116 23.021 C 466.264 20.787 465.408 18.725 463.551 16.834 C 462.188 15.444 460.355 14.821 458.057 14.964 C 455.759 15.103 453.819 15.978 452.237 17.588 L 434.162 36 L 464.858 67.266 L 462.753 69.41 L 430.01 36.061 L 450.192 15.504 C 452.357 13.299 454.993 12.118 458.1 11.965 C 461.206 11.811 463.725 12.722 465.657 14.689 C 468.064 17.141 469.193 19.9 469.044 22.965 C 468.894 26.032 467.687 28.718 465.426 31.021 L 452.733 43.95 L 450.686 41.866 Z M 454.78 46.036 L 467.474 33.107 C 470.283 30.245 471.76 26.847 471.914 22.91 C 472.066 18.972 470.682 15.516 467.764 12.543 C 465.282 10.014 462.074 8.835 458.141 9 C 454.208 9.165 450.877 10.64 448.147 13.421 L 425.858 36.124 L 460.644 71.556 L 458.539 73.701 L 421.704 36.182 L 446.098 11.335 C 449.415 7.958 453.442 6.18 458.184 6.005 C 462.924 5.826 466.82 7.293 469.869 10.399 C 473.281 13.873 474.92 18.014 474.784 22.823 C 474.649 27.632 472.894 31.753 469.519 35.19 L 456.825 48.12 L 454.78 46.036 Z M 458.871 50.203 L 471.564 37.273 C 474.16 34.63 475.951 31.569 476.943 28.09 C 477.935 24.611 478.007 21.103 477.164 17.562 C 476.32 14.022 474.59 10.918 471.975 8.254 C 469.607 5.843 466.732 4.243 463.35 3.462 C 459.968 2.68 456.545 2.799 453.084 3.818 C 449.617 4.838 446.607 6.65 444.053 9.252 L 417.554 36.243 L 456.434 75.846 L 454.327 77.992 L 413.4 36.306 L 442.008 7.168 C 444.211 4.924 446.754 3.194 449.635 1.974 C 452.515 0.755 455.392 0.103 458.268 0.012 C 461.144 -0.08 463.986 0.392 466.797 1.429 C 469.608 2.466 472.037 4.024 474.082 6.108 C 477.397 9.485 479.513 13.229 480.425 17.336 C 481.336 21.442 481.122 25.494 479.777 29.49 L 495.279 36.279 L 493.026 38.575 L 478.582 32.383 C 478.228 33.095 477.785 33.894 477.253 34.782 L 490.951 40.689 L 488.698 42.983 L 475.429 37.335 C 474.88 38.009 474.275 38.684 473.613 39.36 L 486.651 45.068 L 484.428 47.333 L 471.419 41.593 L 469.517 43.53 L 482.379 49.418 L 480.157 51.682 L 467.267 45.822 L 460.919 52.288 L 458.871 50.203 Z M 469.07 62.975 L 466.965 65.119 L 438.316 35.939 L 454.286 19.674 C 455.378 18.56 456.623 17.94 458.017 17.812 C 459.41 17.685 460.554 18.074 461.443 18.98 C 463.982 21.565 463.945 24.191 461.333 26.852 L 448.639 39.781 L 446.594 37.697 L 459.287 24.768 C 460.496 23.537 460.513 22.321 459.338 21.124 C 459.017 20.796 458.558 20.696 457.96 20.822 C 457.36 20.95 456.819 21.26 456.331 21.757 L 442.467 35.878 L 469.07 62.975 Z M 172.793 441.062 L 174.898 438.918 L 195.645 460.051 C 193.89 464.616 191.345 468.598 188.01 471.995 C 184.871 475.191 181.275 477.639 177.225 479.333 C 173.176 481.027 169.113 481.904 165.038 481.964 C 160.96 482.022 156.92 481.263 152.915 479.688 C 148.912 478.113 145.383 475.769 142.333 472.663 C 139.284 469.557 136.983 465.963 135.436 461.885 C 133.89 457.806 133.145 453.691 133.204 449.539 C 133.263 445.389 134.124 441.251 135.785 437.124 C 137.448 432.999 139.852 429.336 142.989 426.139 C 146.577 422.485 150.704 419.815 155.369 418.133 C 160.037 416.449 164.767 415.845 169.566 416.323 L 169.091 419.296 C 164.753 418.891 160.473 419.448 156.253 420.968 C 152.033 422.489 148.293 424.909 145.038 428.225 C 142.19 431.126 140.006 434.451 138.481 438.201 C 136.957 441.952 136.168 445.72 136.114 449.498 C 136.063 453.276 136.744 457.021 138.164 460.729 C 139.581 464.439 141.672 467.701 144.438 470.519 C 147.205 473.337 150.41 475.468 154.052 476.912 C 157.693 478.358 161.369 479.052 165.077 478.997 C 168.785 478.943 172.485 478.139 176.169 476.589 C 179.852 475.036 183.116 472.811 185.964 469.911 C 188.597 467.229 190.667 464.193 192.176 460.806 L 190.073 458.663 C 188.584 462.11 186.531 465.167 183.918 467.827 C 181.345 470.449 178.398 472.455 175.084 473.845 C 171.767 475.233 168.446 475.951 165.12 476.003 C 161.793 476.049 158.491 475.428 155.215 474.135 C 151.938 472.841 149.046 470.92 146.546 468.373 C 144.045 465.826 142.161 462.882 140.89 459.544 C 139.619 456.206 139.009 452.842 139.057 449.456 C 139.105 446.066 139.811 442.684 141.175 439.307 C 142.539 435.932 144.509 432.93 147.083 430.309 C 150.027 427.31 153.407 425.122 157.224 423.744 C 161.037 422.368 164.914 421.874 168.849 422.266 L 168.489 425.237 C 164.995 424.896 161.55 425.339 158.148 426.564 C 154.748 427.786 151.741 429.731 149.128 432.392 C 146.845 434.717 145.098 437.374 143.883 440.369 C 142.669 443.364 142.04 446.375 141.999 449.411 C 141.957 452.448 142.5 455.443 143.631 458.404 C 144.761 461.365 146.435 463.971 148.651 466.228 C 150.87 468.487 153.428 470.192 156.334 471.344 C 159.242 472.495 162.182 473.049 165.164 473.006 C 168.142 472.962 171.099 472.322 174.039 471.084 C 176.979 469.847 179.588 468.067 181.871 465.742 C 184.562 463 186.556 459.889 187.856 456.406 L 185.752 454.263 C 184.492 457.786 182.516 460.917 179.826 463.658 C 177.153 466.38 174.045 468.241 170.506 469.241 C 166.965 470.243 163.435 470.294 159.922 469.397 C 156.409 468.499 153.353 466.729 150.756 464.084 C 148.16 461.439 146.422 458.326 145.54 454.748 C 144.659 451.169 144.71 447.574 145.693 443.968 C 146.675 440.363 148.504 437.2 151.177 434.477 C 153.459 432.153 156.087 430.449 159.061 429.368 C 162.037 428.29 165.049 427.911 168.101 428.237 L 167.683 431.212 C 165.073 430.936 162.499 431.262 159.958 432.191 C 157.416 433.119 155.171 434.576 153.222 436.562 C 149.733 440.115 147.956 444.377 147.894 449.34 C 147.835 454.304 149.492 458.503 152.863 461.938 C 156.238 465.374 160.36 467.062 165.231 467 C 170.106 466.938 174.29 465.128 177.779 461.575 C 180.509 458.794 182.389 455.566 183.422 451.889 L 181.347 449.776 C 180.372 453.433 178.501 456.669 175.732 459.489 C 172.827 462.449 169.345 463.958 165.288 464.019 C 161.232 464.077 157.792 462.668 154.969 459.792 C 152.146 456.918 150.763 453.413 150.822 449.284 C 150.88 445.15 152.362 441.604 155.267 438.645 C 156.904 436.978 158.79 435.76 160.926 434.995 C 163.063 434.229 165.213 433.957 167.382 434.183 L 166.935 437.183 C 163.192 436.828 159.987 438.009 157.315 440.731 C 154.994 443.095 153.811 445.93 153.764 449.238 C 153.715 452.549 154.819 455.351 157.075 457.648 C 159.33 459.946 162.081 461.07 165.331 461.02 C 168.582 460.975 171.365 459.77 173.686 457.405 C 176.671 454.365 178.391 450.975 178.847 447.228 L 172.793 441.062 Z M 185.429 428.192 L 187.536 426.046 L 208.283 447.178 L 206.176 449.324 L 185.429 428.192 Z M 181.216 432.483 L 183.324 430.337 L 204.071 451.468 L 201.963 453.615 L 181.216 432.483 Z M 177.005 436.771 L 179.11 434.627 L 199.858 455.759 L 197.752 457.903 L 177.005 436.771 Z M 185.144 387.374 L 187.249 385.23 L 228.176 426.916 L 226.071 429.06 L 185.144 387.374 Z M 180.932 391.664 L 183.037 389.52 L 223.964 431.206 L 221.858 433.351 L 180.932 391.664 Z M 176.719 395.955 L 178.824 393.811 L 219.751 435.497 L 217.646 437.641 L 176.719 395.955 Z M 172.507 400.247 L 174.614 398.099 L 215.541 439.785 L 213.432 441.932 L 172.507 400.247 Z M 191.077 381.331 L 193.36 379.006 L 247.06 402.065 L 224.423 347.366 L 226.677 345.071 L 250.96 403.709 L 248.677 406.035 L 191.077 381.331 Z M 195.611 376.713 L 197.863 374.419 L 241.049 392.96 L 242.463 396.846 L 195.611 376.713 Z M 200.144 372.095 L 202.427 369.77 L 237.703 384.963 L 239.403 388.961 L 200.144 372.095 Z M 204.681 367.475 L 206.931 365.183 L 234.24 376.908 L 235.998 380.965 L 204.681 367.475 Z M 237.996 333.541 L 240.277 331.218 L 264.531 389.887 L 262.28 392.179 L 237.996 333.541 Z M 233.49 338.131 L 235.744 335.835 L 259.997 394.504 L 257.744 396.799 L 233.49 338.131 Z M 228.929 342.777 L 231.21 340.454 L 255.463 399.122 L 253.211 401.416 L 228.929 342.777 Z M 295.447 358.397 L 293.341 360.541 L 252.415 318.855 L 254.52 316.711 L 295.447 358.397 Z M 291.236 362.685 L 289.128 364.832 L 248.202 323.147 L 250.31 320.999 L 291.236 362.685 Z M 287.023 366.977 L 284.916 369.123 L 243.989 327.437 L 246.096 325.291 L 287.023 366.977 Z M 289.427 343.684 L 309.581 323.156 L 311.629 325.242 L 291.475 345.77 L 293.52 347.853 L 313.674 327.325 L 315.72 329.409 L 295.565 349.937 L 297.614 352.023 L 317.768 331.494 L 319.813 333.577 L 297.554 356.25 L 256.627 314.564 L 278.887 291.892 L 280.932 293.976 L 260.778 314.503 L 262.824 316.588 L 282.978 296.059 L 285.026 298.145 L 264.871 318.673 L 266.917 320.756 L 287.071 300.228 L 289.116 302.312 L 268.963 322.84 L 274.051 328.023 L 293.035 308.688 L 295.081 310.771 L 276.097 330.107 L 278.143 332.19 L 297.127 312.855 L 299.174 314.94 L 280.191 334.276 L 282.236 336.36 L 301.22 317.023 L 303.268 319.11 L 284.284 338.445 L 289.427 343.684 Z M 332.675 268.367 L 358.256 294.422 L 356.151 296.567 L 330.57 270.511 C 330.021 269.952 329.462 269.57 328.886 269.363 C 328.311 269.157 327.775 269.094 327.273 269.181 C 326.773 269.268 326.222 269.491 325.621 269.851 C 325.022 270.212 324.48 270.607 324.004 271.033 C 323.528 271.463 322.957 272.015 322.294 272.691 C 321.631 273.366 321.089 273.947 320.669 274.43 C 320.251 274.915 319.863 275.467 319.509 276.077 C 319.154 276.688 318.936 277.25 318.851 277.76 C 318.765 278.271 318.825 278.819 319.03 279.403 C 319.232 279.989 319.609 280.559 320.157 281.118 L 345.737 307.173 L 343.63 309.319 L 318.049 283.264 C 314.638 279.79 315.37 275.571 320.246 270.604 C 325.122 265.638 329.264 264.893 332.675 268.367 Z M 336.887 264.076 L 362.468 290.132 L 360.363 292.276 L 334.782 266.221 C 332.377 263.771 329.709 262.831 326.78 263.404 C 323.849 263.975 320.988 265.682 318.201 268.521 C 315.413 271.361 313.738 274.274 313.179 277.257 C 312.616 280.24 313.539 282.959 315.944 285.408 L 341.525 311.464 L 339.42 313.608 L 313.839 287.553 C 311.849 285.526 310.672 283.255 310.302 280.733 C 309.935 278.215 310.277 275.753 311.328 273.35 C 312.383 270.945 313.993 268.641 316.156 266.438 C 318.321 264.232 320.584 262.592 322.941 261.521 C 325.301 260.451 327.718 260.102 330.193 260.473 C 332.668 260.849 334.898 262.05 336.887 264.076 Z M 341.101 259.786 L 366.681 285.84 L 364.573 287.987 L 338.994 261.932 C 337.211 260.118 335.247 258.84 333.095 258.099 C 330.941 257.357 328.778 257.15 326.601 257.475 C 324.426 257.798 322.272 258.547 320.143 259.712 C 318.011 260.879 315.999 262.426 314.107 264.352 C 312.216 266.278 310.698 268.328 309.554 270.497 C 308.408 272.668 307.673 274.861 307.355 277.078 C 307.037 279.295 307.24 281.498 307.968 283.692 C 308.696 285.884 309.95 287.885 311.732 289.699 L 337.312 315.754 L 335.207 317.898 L 309.627 291.843 C 307.562 289.741 306.1 287.406 305.242 284.846 C 304.384 282.285 304.114 279.714 304.429 277.136 C 304.744 274.559 305.554 271.984 306.858 269.42 C 308.164 266.858 309.899 264.472 312.062 262.268 C 314.227 260.063 316.57 258.295 319.085 256.966 C 321.602 255.638 324.13 254.813 326.661 254.492 C 329.191 254.171 331.716 254.446 334.23 255.32 C 336.744 256.194 339.037 257.683 341.101 259.786 Z M 370.894 281.549 L 368.787 283.696 L 343.206 257.642 C 341.142 255.538 338.688 254.002 335.849 253.036 C 333.008 252.071 330.102 251.703 327.129 251.931 C 324.157 252.159 321.16 252.98 318.141 254.395 C 315.124 255.812 312.415 257.742 310.017 260.184 C 306.721 263.541 304.333 267.197 302.857 271.154 C 301.379 275.11 301.008 279.113 301.748 283.166 C 302.489 287.218 304.411 290.825 307.519 293.991 L 333.1 320.045 L 330.994 322.189 L 305.414 296.135 C 302.801 293.473 300.92 290.485 299.775 287.175 C 298.633 283.862 298.22 280.534 298.546 277.192 C 298.87 273.85 299.841 270.527 301.455 267.224 C 303.068 263.921 305.239 260.879 307.968 258.099 C 312.806 253.172 318.182 250.11 324.1 248.906 C 325.281 242.879 328.287 237.403 333.125 232.476 C 335.855 229.696 338.84 227.484 342.084 225.841 C 345.327 224.198 348.588 223.21 351.87 222.878 C 355.152 222.546 358.421 222.964 361.671 224.131 C 364.92 225.296 367.854 227.212 370.467 229.874 L 396.048 255.929 L 393.943 258.073 L 368.362 232.018 C 365.275 228.873 361.743 226.924 357.764 226.17 C 353.785 225.416 349.851 225.786 345.958 227.282 C 342.065 228.778 338.47 231.204 335.172 234.562 C 331.039 238.772 328.38 243.412 327.192 248.479 C 328.018 248.408 329.009 248.403 330.162 248.465 C 331.319 244.2 333.669 240.261 337.218 236.645 C 339.384 234.44 341.726 232.672 344.241 231.342 C 346.759 230.015 349.284 229.191 351.815 228.871 C 354.346 228.551 356.87 228.825 359.386 229.697 C 361.9 230.571 364.193 232.06 366.257 234.162 L 391.837 260.217 L 389.73 262.364 L 364.15 236.309 C 362.368 234.494 360.404 233.218 358.25 232.475 C 356.098 231.734 353.935 231.527 351.758 231.851 C 349.582 232.175 347.428 232.924 345.299 234.089 C 343.167 235.257 341.155 236.802 339.264 238.729 C 336.164 241.887 334.096 245.246 333.067 248.805 C 333.948 248.988 334.887 249.23 335.885 249.526 C 336.754 246.52 338.563 243.615 341.311 240.814 C 343.476 238.609 345.739 236.969 348.097 235.897 C 350.458 234.827 352.875 234.478 355.349 234.851 C 357.823 235.227 360.055 236.426 362.044 238.453 L 387.625 264.508 L 385.517 266.654 L 359.937 240.6 C 357.531 238.15 354.862 237.209 351.936 237.781 C 349.005 238.352 346.145 240.058 343.357 242.898 C 340.821 245.48 339.221 248.039 338.548 250.574 C 339.525 251.049 340.401 251.545 341.182 252.063 C 341.5 249.884 342.905 247.525 345.403 244.982 C 350.279 240.015 354.42 239.269 357.832 242.744 L 383.411 268.799 L 381.306 270.944 L 355.727 244.889 C 355.178 244.33 354.617 243.947 354.043 243.741 C 353.468 243.534 352.931 243.471 352.43 243.557 C 351.929 243.644 351.378 243.868 350.778 244.229 C 350.178 244.59 349.637 244.984 349.159 245.412 C 348.685 245.84 348.114 246.391 347.45 247.067 C 346.787 247.743 346.245 248.325 345.826 248.808 C 345.405 249.295 345.018 249.845 344.664 250.457 C 344.309 251.068 344.089 251.629 344.004 252.14 C 343.919 252.649 343.981 253.197 344.184 253.783 C 344.389 254.365 344.765 254.936 345.313 255.494 L 370.894 281.549 Z M 411.833 239.85 L 409.728 241.995 L 368.801 200.309 L 370.907 198.164 L 411.833 239.85 Z M 407.62 244.141 L 405.515 246.285 L 364.589 204.6 L 366.694 202.456 L 407.62 244.141 Z M 403.407 248.433 L 401.302 250.577 L 360.376 208.891 L 362.481 206.747 L 403.407 248.433 Z M 405.813 225.138 L 425.968 204.61 L 428.015 206.695 L 407.862 227.224 L 409.907 229.307 L 430.061 208.778 L 432.107 210.863 L 411.952 231.39 L 414 233.477 L 434.154 212.948 L 436.199 215.032 L 413.938 237.706 L 373.012 196.02 L 395.273 173.346 L 397.319 175.429 L 377.164 195.957 L 379.211 198.041 L 399.364 177.513 L 401.413 179.599 L 381.258 200.127 L 383.303 202.21 L 403.458 181.682 L 405.503 183.765 L 385.349 204.294 L 390.438 209.477 L 409.422 190.141 L 411.467 192.224 L 392.484 211.561 L 394.529 213.644 L 413.514 194.309 L 415.561 196.394 L 396.577 215.73 L 398.623 217.814 L 417.606 198.477 L 419.655 200.564 L 400.67 219.899 L 405.813 225.138 Z M 457.448 152.282 C 455.022 149.811 452.376 148.685 449.508 148.906 C 446.64 149.123 443.941 150.523 441.406 153.106 C 439.259 155.292 438.136 157.9 438.036 160.936 C 437.937 163.972 438.89 166.513 440.898 168.559 C 442.035 169.716 443.21 170.595 444.422 171.193 C 445.633 171.794 446.805 172.125 447.939 172.186 C 449.072 172.246 450.203 172.099 451.334 171.739 C 452.462 171.381 453.516 170.875 454.497 170.223 C 455.476 169.573 456.423 168.781 457.341 167.847 C 459.564 165.583 461.063 162.977 461.836 160.03 L 463.882 162.113 C 462.955 165.026 461.4 167.593 459.216 169.817 C 457.813 171.247 456.307 172.403 454.7 173.289 C 453.092 174.174 451.405 174.754 449.644 175.022 C 447.882 175.292 446.054 175.071 444.163 174.355 C 442.269 173.638 440.479 172.42 438.792 170.703 C 436.179 168.041 434.907 164.819 434.98 161.039 C 435.052 157.26 436.512 153.923 439.359 151.021 C 442.498 147.825 445.897 146.108 449.552 145.879 C 453.208 145.649 456.54 147.069 459.553 150.138 L 479.732 170.691 L 477.627 172.836 L 457.448 152.282 Z M 463.765 145.847 L 483.945 166.4 L 481.837 168.547 L 461.658 147.994 C 458.076 144.344 454.051 142.647 449.579 142.9 C 445.105 143.149 441.017 145.162 437.312 148.936 C 433.88 152.432 432.122 156.48 432.037 161.085 C 431.953 165.684 433.502 169.607 436.685 172.849 C 438.619 174.818 440.699 176.232 442.926 177.087 C 445.154 177.948 447.326 178.243 449.444 177.978 C 451.561 177.711 453.597 177.073 455.553 176.068 C 457.51 175.061 459.306 173.723 460.945 172.053 C 463.168 169.789 464.781 167.121 465.786 164.053 L 467.946 166.253 C 466.691 169.268 464.992 171.865 462.846 174.051 C 460.917 176.016 458.794 177.59 456.481 178.769 C 454.168 179.947 451.775 180.67 449.301 180.931 C 446.829 181.193 444.306 180.829 441.735 179.84 C 439.163 178.846 436.778 177.232 434.58 174.993 C 430.848 171.192 429.031 166.569 429.125 161.125 C 429.22 155.683 431.268 150.926 435.267 146.853 C 438.075 143.991 441.145 141.996 444.475 140.86 C 447.806 139.725 451.168 139.571 454.557 140.404 C 457.949 141.234 461.019 143.05 463.765 145.847 Z M 467.976 141.558 L 488.156 162.112 L 486.05 164.256 L 465.87 143.703 C 462.744 140.518 459.237 138.445 455.349 137.483 C 451.461 136.523 447.596 136.687 443.753 137.976 C 439.909 139.265 436.398 141.529 433.218 144.766 C 430.195 147.846 428.134 151.364 427.03 155.326 C 425.926 159.288 425.854 163.194 426.808 167.046 C 427.761 170.899 429.649 174.264 432.473 177.14 C 434.899 179.611 437.568 181.397 440.486 182.499 C 443.402 183.599 446.278 184.019 449.118 183.752 C 451.954 183.485 454.719 182.706 457.41 181.414 C 460.1 180.123 462.528 178.373 464.692 176.169 C 466.895 173.926 468.615 171.266 469.85 168.192 L 471.925 170.306 C 470.517 173.4 468.74 176.04 466.594 178.226 C 463.22 181.662 459.381 184.068 455.075 185.444 C 450.77 186.817 446.414 186.986 442.008 185.955 C 437.603 184.924 433.721 182.7 430.368 179.284 C 427.981 176.854 426.179 174.055 424.965 170.892 C 423.751 167.729 423.166 164.522 423.214 161.271 C 423.259 158.02 423.96 154.761 425.311 151.492 C 426.664 148.22 428.619 145.285 431.173 142.683 C 434.742 139.048 438.702 136.518 443.057 135.093 C 447.411 133.669 451.781 133.504 456.168 134.596 C 460.554 135.685 464.49 138.007 467.976 141.558 Z M 472.188 137.267 L 492.368 157.821 L 490.263 159.966 L 470.083 139.411 C 466.218 135.475 461.839 132.901 456.945 131.691 C 452.051 130.481 447.175 130.658 442.319 132.228 C 437.464 133.798 433.066 136.588 429.128 140.6 C 425.344 144.453 422.764 148.876 421.386 153.867 C 420.009 158.861 419.924 163.801 421.135 168.686 C 422.344 173.574 424.72 177.82 428.262 181.428 C 430.593 183.802 433.192 185.665 436.055 187.013 C 438.919 188.36 441.799 189.149 444.697 189.382 C 447.598 189.612 450.49 189.419 453.37 188.801 C 456.253 188.182 458.997 187.141 461.602 185.685 C 464.208 184.229 466.555 182.436 468.641 180.311 C 470.941 177.969 472.7 175.309 473.915 172.332 L 476.018 174.475 C 474.591 177.432 472.738 180.072 470.455 182.398 C 468.095 184.802 465.477 186.811 462.601 188.429 C 459.725 190.049 456.706 191.184 453.542 191.837 C 450.38 192.49 447.224 192.679 444.064 192.402 C 440.907 192.125 437.774 191.234 434.661 189.733 C 431.548 188.233 428.714 186.182 426.155 183.575 C 423.217 180.583 420.99 177.152 419.467 173.278 C 417.945 169.404 417.206 165.469 417.243 161.475 C 417.28 157.482 418.134 153.465 419.805 149.427 C 421.477 145.39 423.903 141.75 427.079 138.514 C 430.317 135.217 433.889 132.658 437.799 130.84 C 441.709 129.021 445.637 128.019 449.59 127.834 C 453.541 127.649 457.486 128.35 461.424 129.938 C 465.359 131.523 468.947 133.966 472.188 137.267 Z M 289.555 449.336 L 283.726 447.688 L 263.036 426.614 L 265.142 424.468 L 289.555 449.336 Z M 300.844 452.253 L 295.269 450.867 L 267.247 422.324 L 269.354 420.178 L 300.844 452.253 Z M 256.848 466.553 L 262.679 468.199 L 283.37 489.274 L 281.263 491.42 L 256.848 466.553 Z M 245.274 463.346 L 251.134 465.021 L 279.157 493.565 L 277.05 495.711 L 245.274 463.346 Z M 236.855 453.281 L 239.313 450.776 L 304.634 467.615 L 302.179 470.116 L 236.855 453.281 Z M 241.827 448.216 L 244.315 445.681 L 309.607 462.55 L 307.09 465.113 L 241.827 448.216 Z M 246.771 443.18 L 249.228 440.678 L 308.833 456.101 L 271.459 418.034 L 273.564 415.889 L 314.491 457.575 L 312.005 460.107 L 246.771 443.18 Z M 237.542 459.759 L 274.944 497.855 L 272.839 500 L 231.912 458.314 L 234.426 455.754 L 299.662 472.679 L 297.233 475.152 L 237.542 459.759 Z M 309.824 408.859 C 309.824 408.859 309.815 409.686 309.792 411.341 C 309.769 412.994 310.881 414.969 313.137 417.267 C 315.392 419.564 318.143 420.688 321.391 420.64 C 324.643 420.592 327.427 419.387 329.749 417.024 C 332.069 414.659 333.252 411.824 333.298 408.513 C 333.344 405.205 332.241 402.403 329.985 400.105 C 327.73 397.808 324.979 396.684 321.731 396.732 C 318.483 396.78 315.699 397.985 313.377 400.348 C 311.056 402.713 309.874 405.548 309.824 408.859 Z M 321.351 423.637 C 321.351 423.637 320.338 423.652 318.309 423.682 C 316.281 423.711 313.855 422.287 311.031 419.411 C 308.208 416.535 306.826 413.031 306.884 408.902 C 306.94 404.771 308.423 401.225 311.33 398.263 C 314.235 395.304 317.717 393.795 321.773 393.737 C 325.826 393.678 329.267 395.085 332.09 397.961 C 334.914 400.837 336.295 404.341 336.24 408.472 C 336.181 412.601 334.699 416.147 331.794 419.107 C 328.886 422.068 325.405 423.578 321.351 423.637 Z M 303.957 408.958 C 303.957 408.958 303.943 410.2 303.913 412.683 C 303.881 415.166 305.552 418.124 308.924 421.557 C 312.297 424.994 316.422 426.68 321.294 426.617 C 326.168 426.557 330.35 424.749 333.842 421.193 C 337.331 417.638 339.106 413.379 339.165 408.415 C 339.227 403.452 337.572 399.252 334.198 395.815 C 330.825 392.38 326.701 390.694 321.827 390.755 C 316.956 390.817 312.774 392.625 309.284 396.179 C 305.793 399.736 304.018 403.995 303.957 408.958 Z M 315.984 429.015 C 315.984 429.015 315.106 428.791 313.347 428.342 C 311.591 427.891 309.415 426.347 306.819 423.702 C 304.222 421.057 302.485 417.945 301.602 414.366 C 300.721 410.788 300.772 407.191 301.755 403.586 C 302.738 399.98 304.567 396.817 307.239 394.096 C 309.91 391.374 313.016 389.512 316.556 388.51 C 320.096 387.509 323.625 387.46 327.138 388.357 C 330.651 389.256 333.707 391.026 336.303 393.671 C 338.899 396.315 340.637 399.427 341.519 403.006 C 342.401 406.584 342.352 410.179 341.369 413.784 C 340.386 417.39 338.559 420.555 335.887 423.276 C 333.216 425.998 330.108 427.858 326.568 428.86 C 323.028 429.861 319.497 429.912 315.984 429.015 Z M 299.693 418.022 C 299.693 418.022 299.976 418.763 300.541 420.241 C 301.107 421.719 302.497 423.589 304.714 425.846 C 306.931 428.106 309.491 429.81 312.397 430.962 C 315.304 432.113 318.244 432.667 321.224 432.625 C 324.204 432.58 327.162 431.94 330.102 430.702 C 333.042 429.465 335.65 427.685 337.933 425.359 C 340.213 423.036 341.961 420.38 343.176 417.386 C 344.391 414.391 345.02 411.378 345.064 408.343 C 345.105 405.307 344.562 402.313 343.43 399.352 C 342.3 396.392 340.629 393.783 338.41 391.524 C 336.195 389.266 333.633 387.565 330.727 386.413 C 327.82 385.261 324.88 384.707 321.9 384.749 C 318.918 384.793 315.96 385.432 313.02 386.67 C 310.08 387.907 307.472 389.687 305.191 392.01 C 302.908 394.336 301.161 396.992 299.946 399.986 C 298.731 402.981 298.102 405.994 298.06 409.031 C 298.019 412.067 298.562 415.061 299.693 418.022 Z M 311.276 433.755 C 311.276 433.755 310.456 433.43 308.816 432.784 C 307.176 432.138 305.107 430.54 302.605 427.993 C 300.105 425.445 298.222 422.503 296.95 419.164 C 295.68 415.825 295.069 412.462 295.12 409.074 C 295.167 405.684 295.873 402.302 297.236 398.927 C 298.601 395.55 300.572 392.548 303.145 389.926 C 305.719 387.305 308.663 385.301 311.98 383.91 C 315.295 382.519 318.616 381.8 321.942 381.754 C 325.268 381.703 328.57 382.325 331.848 383.619 C 335.125 384.914 338.015 386.832 340.515 389.38 C 343.017 391.927 344.902 394.872 346.174 398.211 C 347.442 401.547 348.053 404.91 348.004 408.3 C 347.957 411.685 347.251 415.068 345.888 418.447 C 344.522 421.825 342.554 424.824 339.981 427.446 C 337.407 430.067 334.46 432.074 331.144 433.464 C 327.829 434.851 324.508 435.57 321.182 435.62 C 317.854 435.669 314.552 435.047 311.276 433.755 Z M 294.224 420.349 C 294.224 420.349 294.578 421.276 295.288 423.132 C 295.998 424.984 297.734 427.318 300.5 430.137 C 303.268 432.955 306.472 435.087 310.112 436.533 C 313.753 437.979 317.429 438.671 321.14 438.616 C 324.847 438.561 328.545 437.759 332.229 436.208 C 335.913 434.655 339.179 432.429 342.026 429.529 C 344.874 426.629 347.057 423.304 348.582 419.552 C 350.104 415.799 350.892 412.034 350.944 408.257 C 351 404.478 350.32 400.733 348.9 397.025 C 347.481 393.318 345.388 390.054 342.621 387.235 C 339.854 384.417 336.651 382.287 333.011 380.842 C 329.371 379.396 325.694 378.703 321.982 378.757 C 318.274 378.811 314.577 379.613 310.895 381.166 C 307.211 382.719 303.947 384.943 301.1 387.843 C 298.252 390.743 296.067 394.07 294.542 397.822 C 293.018 401.573 292.23 405.338 292.176 409.115 C 292.124 412.897 292.804 416.641 294.224 420.349 Z M 308.977 439.307 C 308.977 439.307 307.975 438.914 305.974 438.126 C 303.971 437.337 301.442 435.39 298.393 432.284 C 295.344 429.178 293.043 425.583 291.498 421.504 C 289.95 417.426 289.206 413.31 289.264 409.16 C 289.325 405.008 290.185 400.871 291.845 396.744 C 293.509 392.62 295.911 388.957 299.052 385.758 C 302.191 382.561 305.787 380.113 309.837 378.419 C 313.888 376.728 317.952 375.849 322.026 375.789 C 326.101 375.731 330.141 376.49 334.145 378.065 C 338.15 379.639 341.678 381.982 344.729 385.088 C 347.778 388.195 350.079 391.789 351.624 395.868 C 353.17 399.947 353.916 404.062 353.86 408.214 C 353.801 412.365 352.939 416.503 351.277 420.628 C 349.613 424.753 347.21 428.415 344.072 431.612 C 340.931 434.811 337.334 437.259 333.285 438.953 C 329.236 440.646 325.174 441.523 321.098 441.585 C 317.021 441.641 312.98 440.883 308.977 439.307 Z M 364.136 353.54 C 364.136 353.54 364.126 354.368 364.102 356.021 C 364.079 357.676 365.193 359.65 367.448 361.947 C 369.704 364.245 372.454 365.369 375.703 365.321 C 378.955 365.274 381.738 364.069 384.059 361.704 C 386.381 359.34 387.564 356.504 387.608 353.194 C 387.655 349.886 386.552 347.084 384.297 344.787 C 382.04 342.489 379.289 341.365 376.042 341.413 C 372.794 341.46 370.01 342.665 367.689 345.03 C 365.367 347.394 364.184 350.229 364.136 353.54 Z M 375.662 368.318 C 375.662 368.318 374.65 368.333 372.621 368.363 C 370.591 368.393 368.165 366.967 365.343 364.092 C 362.52 361.217 361.137 357.712 361.196 353.584 C 361.254 349.449 362.735 345.903 365.641 342.944 C 368.546 339.984 372.029 338.475 376.084 338.418 C 380.14 338.356 383.581 339.765 386.404 342.64 C 389.226 345.515 390.609 349.02 390.551 353.153 C 390.492 357.282 389.011 360.829 386.105 363.788 C 383.2 366.748 379.718 368.257 375.662 368.318 Z M 358.267 353.639 C 358.267 353.639 358.255 354.881 358.223 357.364 C 358.193 359.847 359.863 362.804 363.235 366.239 C 366.609 369.675 370.733 371.361 375.605 371.299 C 380.48 371.238 384.662 369.431 388.153 365.874 C 391.643 362.319 393.417 358.06 393.477 353.095 C 393.538 348.133 391.883 343.932 388.509 340.495 C 385.137 337.062 381.013 335.376 376.139 335.436 C 371.266 335.499 367.085 337.306 363.595 340.861 C 360.103 344.416 358.329 348.676 358.267 353.639 Z M 370.296 373.696 C 370.296 373.696 369.417 373.473 367.661 373.021 C 365.901 372.572 363.727 371.028 361.13 368.383 C 358.533 365.738 356.795 362.625 355.914 359.047 C 355.033 355.469 355.083 351.873 356.066 348.267 C 357.049 344.662 358.877 341.499 361.55 338.777 C 364.222 336.055 367.327 334.192 370.867 333.191 C 374.407 332.19 377.935 332.14 381.448 333.039 C 384.961 333.936 388.018 335.707 390.614 338.351 C 393.211 340.996 394.949 344.109 395.83 347.687 C 396.712 351.266 396.663 354.859 395.681 358.465 C 394.698 362.07 392.871 365.235 390.198 367.957 C 387.526 370.68 384.419 372.54 380.879 373.54 C 377.339 374.542 373.809 374.593 370.296 373.696 Z M 354.004 362.703 C 354.004 362.703 354.287 363.445 354.853 364.923 C 355.418 366.401 356.809 368.27 359.024 370.527 C 361.243 372.786 363.801 374.491 366.708 375.643 C 369.614 376.794 372.555 377.348 375.535 377.307 C 378.516 377.261 381.472 376.621 384.413 375.384 C 387.353 374.146 389.961 372.366 392.244 370.041 C 394.525 367.718 396.273 365.061 397.487 362.066 C 398.702 359.072 399.331 356.06 399.376 353.024 C 399.419 349.986 398.874 346.991 397.744 344.031 C 396.613 341.071 394.939 338.464 392.722 336.205 C 390.505 333.948 387.947 332.243 385.04 331.092 C 382.134 329.94 379.194 329.385 376.211 329.429 C 373.228 329.473 370.272 330.114 367.331 331.351 C 364.391 332.588 361.783 334.368 359.502 336.691 C 357.219 339.016 355.471 341.674 354.257 344.668 C 353.042 347.663 352.413 350.675 352.37 353.712 C 352.33 356.747 352.874 359.743 354.004 362.703 Z M 365.587 378.436 C 365.587 378.436 364.767 378.111 363.127 377.465 C 361.487 376.819 359.418 375.221 356.917 372.674 C 354.417 370.127 352.532 367.184 351.262 363.845 C 349.993 360.505 349.383 357.142 349.43 353.755 C 349.479 350.365 350.184 346.983 351.547 343.608 C 352.913 340.231 354.882 337.23 357.457 334.608 C 360.031 331.986 362.975 329.982 366.29 328.591 C 369.606 327.201 372.927 326.481 376.254 326.435 C 379.58 326.384 382.881 327.006 386.159 328.3 C 389.437 329.594 392.326 331.514 394.827 334.061 C 397.327 336.607 399.214 339.553 400.484 342.891 C 401.753 346.228 402.363 349.591 402.316 352.981 C 402.269 356.367 401.562 359.75 400.199 363.129 C 398.833 366.506 396.866 369.505 394.292 372.126 C 391.717 374.748 388.771 376.754 385.456 378.146 C 382.14 379.532 378.819 380.25 375.493 380.302 C 372.166 380.348 368.865 379.727 365.587 378.436 Z M 348.535 365.03 C 348.535 365.03 348.889 365.957 349.601 367.81 C 350.308 369.664 352.045 372 354.812 374.818 C 357.578 377.636 360.784 379.767 364.424 381.213 C 368.066 382.657 371.743 383.351 375.45 383.296 C 379.159 383.242 382.856 382.441 386.541 380.89 C 390.223 379.337 393.489 377.11 396.337 374.21 C 399.185 371.309 401.368 367.985 402.893 364.234 C 404.416 360.481 405.202 356.714 405.258 352.936 C 405.312 349.159 404.63 345.415 403.211 341.707 C 401.791 337.999 399.7 334.734 396.932 331.916 C 394.165 329.097 390.962 326.969 387.322 325.523 C 383.682 324.077 380.006 323.383 376.296 323.436 C 372.586 323.493 368.888 324.294 365.205 325.847 C 361.523 327.4 358.259 329.623 355.411 332.524 C 352.564 335.425 350.378 338.752 348.853 342.503 C 347.328 346.253 346.542 350.019 346.488 353.797 C 346.436 357.575 347.118 361.32 348.535 365.03 Z M 363.288 383.988 C 363.288 383.988 362.286 383.594 360.285 382.808 C 358.282 382.019 355.756 380.068 352.707 376.962 C 349.657 373.856 347.357 370.262 345.809 366.184 C 344.262 362.107 343.516 357.992 343.575 353.841 C 343.636 349.688 344.497 345.55 346.159 341.423 C 347.821 337.298 350.224 333.635 353.363 330.438 C 356.502 327.241 360.098 324.794 364.147 323.101 C 368.199 321.408 372.262 320.531 376.338 320.471 C 380.412 320.411 384.452 321.171 388.456 322.746 C 392.461 324.32 395.99 326.663 399.039 329.77 C 402.09 332.876 404.39 336.47 405.935 340.55 C 407.482 344.627 408.228 348.742 408.171 352.895 C 408.112 357.046 407.251 361.185 405.587 365.309 C 403.925 369.434 401.522 373.097 398.383 376.294 C 395.244 379.491 391.648 381.938 387.599 383.632 C 383.549 385.326 379.486 386.203 375.409 386.265 C 371.331 386.323 367.291 385.564 363.288 383.988 Z M 424.092 306.281 L 420.757 309.678 C 416.662 313.849 412.702 316.231 408.878 316.826 C 405.055 317.422 401.721 316.269 398.878 313.375 C 396.226 310.673 395.311 307.1 396.133 302.654 C 396.954 298.205 399.706 293.599 404.385 288.833 C 407.507 285.653 410.834 283.115 414.369 281.214 C 417.904 279.311 421.324 278.218 424.634 277.936 L 424.277 280.908 C 421.409 281.242 418.415 282.284 415.294 284.035 C 412.176 285.784 409.22 288.079 406.433 290.918 C 402.319 295.109 399.855 299.006 399.046 302.609 C 398.235 306.217 398.883 309.09 400.984 311.231 C 403.258 313.547 405.898 314.42 408.906 313.847 C 411.91 313.273 415.178 311.188 418.709 307.593 L 421.927 304.316 C 426.079 300.085 430.073 297.669 433.907 297.062 C 437.741 296.456 441.081 297.604 443.922 300.498 C 446.575 303.201 447.49 306.774 446.666 311.222 C 445.846 315.669 443.094 320.275 438.415 325.041 C 435.294 328.221 431.966 330.759 428.433 332.66 C 424.896 334.563 421.476 335.655 418.166 335.939 L 418.525 332.968 C 421.394 332.634 424.389 331.592 427.506 329.843 C 430.625 328.094 433.578 325.797 436.368 322.956 C 440.482 318.765 442.943 314.87 443.756 311.264 C 444.565 307.66 443.919 304.788 441.815 302.645 C 439.54 300.328 436.9 299.456 433.895 300.031 C 430.888 300.603 427.62 302.688 424.092 306.281 Z M 428.186 310.45 L 424.85 313.848 C 419.429 319.37 414.046 322.409 408.705 322.966 C 403.362 323.525 398.685 321.759 394.666 317.666 C 392.828 315.794 391.524 313.612 390.752 311.117 C 389.979 308.621 389.768 305.952 390.116 303.107 C 390.462 300.265 391.5 297.239 393.226 294.032 C 394.954 290.828 397.31 287.706 400.294 284.665 C 404.057 280.832 408.132 277.808 412.516 275.601 C 416.9 273.392 421.18 272.192 425.354 271.994 L 424.88 274.967 C 421.146 275.216 417.311 276.374 413.367 278.438 C 409.428 280.502 405.752 283.273 402.34 286.749 C 397.074 292.112 394.021 297.423 393.178 302.683 C 392.336 307.94 393.532 312.219 396.773 315.52 C 400.203 319.013 404.209 320.473 408.79 319.897 C 413.373 319.321 418.044 316.609 422.802 311.761 L 426.019 308.484 C 431.792 302.605 436.356 301.374 439.709 304.789 C 441.225 306.333 441.588 308.503 440.799 311.294 C 440.008 314.086 437.85 317.278 434.322 320.872 C 431.845 323.395 429.263 325.457 426.58 327.051 C 423.896 328.645 421.337 329.617 418.912 329.966 L 419.329 326.996 C 423.396 326.174 427.714 323.437 432.276 318.789 C 435.201 315.81 437.052 313.327 437.828 311.338 C 438.605 309.348 438.531 307.882 437.602 306.936 C 436.523 305.836 435.278 305.542 433.867 306.052 C 432.458 306.56 430.564 308.027 428.186 310.45 Z M 419.998 302.111 L 416.663 305.509 C 410.97 311.308 406.444 312.499 403.092 309.084 C 401.576 307.54 401.21 305.373 402 302.582 C 402.79 299.79 404.948 296.598 408.479 293.002 C 410.954 290.48 413.535 288.419 416.22 286.822 C 418.904 285.228 421.463 284.257 423.889 283.908 L 423.47 286.88 C 419.405 287.704 415.09 290.439 410.526 295.087 C 407.602 298.066 405.749 300.551 404.97 302.538 C 404.193 304.528 404.268 305.994 405.197 306.94 C 406.276 308.038 407.522 308.336 408.933 307.826 C 410.345 307.316 412.238 305.849 414.618 303.425 L 417.953 300.028 C 423.373 294.508 428.752 291.467 434.095 290.908 C 439.436 290.351 444.116 292.118 448.132 296.21 C 449.97 298.082 451.274 300.264 452.047 302.759 C 452.821 305.253 453.032 307.922 452.684 310.766 C 452.336 313.61 451.298 316.637 449.573 319.844 C 447.846 323.049 445.491 326.172 442.509 329.211 C 438.745 333.044 434.668 336.066 430.286 338.273 C 425.902 340.48 421.621 341.682 417.446 341.88 L 417.921 338.907 C 421.652 338.66 425.488 337.502 429.431 335.438 C 433.372 333.372 437.049 330.601 440.461 327.124 C 445.726 321.762 448.781 316.453 449.622 311.195 C 450.467 305.936 449.268 301.655 446.027 298.354 C 442.597 294.86 438.59 293.403 434.008 293.979 C 429.426 294.555 424.757 297.265 419.998 302.111 Z M 475.636 293.44 L 473.529 295.587 L 432.602 253.9 L 434.709 251.754 L 475.636 293.44 Z M 471.424 297.731 L 469.317 299.875 L 428.392 258.19 L 430.497 256.045 L 471.424 297.731 Z M 467.21 302.021 L 465.105 304.167 L 424.178 262.481 L 426.284 260.336 L 467.21 302.021 Z M 469.614 278.729 L 489.769 258.202 L 491.816 260.287 L 471.662 280.815 L 473.707 282.899 L 493.861 262.37 L 495.907 264.454 L 475.753 284.982 L 477.801 287.067 L 497.955 266.54 L 500 268.623 L 477.741 291.296 L 436.815 249.61 L 459.074 226.938 L 461.12 229.021 L 440.966 249.549 L 443.011 251.633 L 463.165 231.104 L 465.213 233.191 L 445.059 253.718 L 447.105 255.802 L 467.258 235.274 L 469.304 237.357 L 449.15 257.886 L 454.239 263.069 L 473.223 243.733 L 475.268 245.816 L 456.285 265.153 L 458.33 267.236 L 477.314 247.9 L 479.362 249.986 L 460.378 269.321 L 462.424 271.406 L 481.407 252.069 L 483.455 254.155 L 464.471 273.491 L 469.614 278.729 Z" style="fill: rgb(51, 51, 51); text-wrap-mode: nowrap;"/>
</svg>