<svg version="1.1" xmlns="http://www.w3.org/2000/svg" xmlns:xlink="http://www.w3.org/1999/xlink" width="54.89625" height="50.9575" viewBox="0,0,54.89625,50.9575"><defs><linearGradient x1="245.78163" y1="178.14522" x2="273.78211" y2="204.89558" gradientUnits="userSpaceOnUse" id="color-1"><stop offset="0" stop-color="#9d79c3"/><stop offset="1" stop-color="#503685"/></linearGradient></defs><g transform="translate(-240.6495,-173.8051)"><g stroke="none" stroke-miterlimit="10"><g><path d="M295.54575,173.8051c-0.1705,1.50809 -0.39817,3.00917 -0.6825,4.5c-4.67625,24.3625 -24.75625,43.24125 -49.71375,46.11125c-1.49501,0.17301 -2.99612,0.28851 -4.5,0.34625v-50.9575z" fill="#3f2a66"/><path d="M293.507,176.0576c-0.11667,0.755 -0.24959,1.505 -0.39875,2.25c-4.6375,23.40875 -23.95375,41.53125 -47.95875,44.37875c-0.74583,0.09 -1.49583,0.16416 -2.25,0.2225v-46.85125z" fill="#9d79c3"/><path d="M290.18825,178.30885c-4.57125,21.82 -22.61625,38.685 -45.035,41.49125v-41.49125z" fill="url(#color-1)"/><path d="M251.9145,189.5301c0.69375,0 1.0875,-0.44875 1.0875,-1.14375c0,-0.68375 -0.39375,-1.12375 -1.0675,-1.12375h-1.00375v2.2675zM249.702,187.2626h-0.60875v-1.04h3.04625c1.2475,0 2.11875,0.87125 2.11875,2.16375c0,1.2925 -0.87125,2.19375 -2.11875,2.19375h-1.20875v2.29625h-1.22875z" fill="#ffffff"/><path d="M255.22575,189.3151c0,-0.14125 -0.07625,-0.20625 -0.20625,-0.20625h-0.375v-1.0125h1.08625c0.4225,0 0.6375,0.1775 0.6375,0.58125v0.28125c0,0.1775 -0.01875,0.3 -0.01875,0.3h0.01875c0.21625,-0.685 0.78875,-1.2275 1.51875,-1.2275c0.1025,0 0.21625,0.0175 0.21625,0.0175v1.1725c0,0 -0.1225,-0.01875 -0.29125,-0.01875c-0.50625,0 -1.0875,0.29 -1.3025,1.0025c-0.06994,0.25321 -0.10485,0.51481 -0.10375,0.7775v1.89375h-1.18z" fill="#ffffff"/><path d="M261.04575,191.97635c0.77875,0 1.42625,-0.59875 1.42625,-1.49c0,-0.88 -0.6475,-1.49 -1.42625,-1.49c-0.7675,0 -1.415,0.61 -1.415,1.49c0,0.89125 0.6475,1.49 1.415,1.49M261.04575,187.98385c1.4625,0 2.625,1.04125 2.625,2.5025c0,1.47125 -1.1625,2.5025 -2.625,2.5025c-1.4525,0 -2.615,-1.03125 -2.615,-2.5025c0,-1.46125 1.1625,-2.5025 2.615,-2.5025" fill="#ffffff"/><path d="M264.7695,189.0426h-0.61875v-0.94625h0.64625v-1.30375h1.1625v1.30375h1.0875v0.94625h-1.0875v1.93125c0,0.7875 0.61875,0.9 0.94625,0.9c0.13125,0 0.21625,-0.01875 0.21625,-0.01875v1.04c0,0 -0.15,0.0275 -0.365,0.0275c-0.66625,0 -1.9875,-0.19625 -1.9875,-1.79875z" fill="#ffffff"/><path d="M270.99325,189.8676c-0.01875,-0.5725 -0.4125,-0.965 -0.9,-0.965c-0.61,0 -1.04125,0.365 -1.17125,0.965zM270.09325,187.98385c1.3675,0 2.11875,1.0025 2.11875,2.2675c0,0.14125 -0.02875,0.44 -0.02875,0.44h-3.3c0.095,0.84375 0.7125,1.285 1.435,1.285c0.76875,0 1.34,-0.535 1.34,-0.535l0.49625,0.825c0,0 -0.73,0.7225 -1.92,0.7225c-1.585,0 -2.56875,-1.14375 -2.56875,-2.5025c0,-1.4725 0.99375,-2.5025 2.4275,-2.5025" fill="#ffffff"/><path d="M273.4595,186.22135h1.03125v1.09625h-1.03125zM273.40325,189.3151c0,-0.14125 -0.075,-0.20625 -0.20625,-0.20625h-0.375v-1.0125h1.13375c0.44125,0 0.6275,0.1975 0.6275,0.6375v2.93375c0,0.13 0.07625,0.20625 0.2075,0.20625h0.37375v1.0025h-1.13375c-0.44125,0 -0.6275,-0.1875 -0.6275,-0.6375z" fill="#ffffff"/><path d="M276.16825,189.3151c0,-0.14125 -0.075,-0.20625 -0.205,-0.20625h-0.37625v-1.0125h1.0975c0.42125,0 0.6275,0.1975 0.6275,0.53375v0.14125c0,0.1025 -0.01875,0.205 -0.01875,0.205h0.01875c0.32476,-0.62789 0.98091,-1.01381 1.6875,-0.9925c1.05875,0 1.66875,0.5525 1.66875,1.81875v1.865c0,0.13 0.07375,0.20625 0.20625,0.20625h0.37375v1.0025h-1.13375c-0.45,0 -0.6375,-0.1875 -0.6375,-0.6375v-2.19375c0,-0.58 -0.15,-0.97375 -0.75,-0.97375c-0.6375,0 -1.115,0.4025 -1.28375,0.97375c-0.06563,0.20643 -0.09729,0.42216 -0.09375,0.63875v2.1925h-1.18125z" fill="#ffffff"/></g></g></g></svg>