<svg version="1.1" xmlns="http://www.w3.org/2000/svg" xmlns:xlink="http://www.w3.org/1999/xlink" width="82.12573" height="51.57416" viewBox="0,0,82.12573,51.57416"><g transform="translate(-86.57609,-131.52002)"><g fill="#ffffff" stroke="none" stroke-miterlimit="10"><path d="M118.69466,165.26827c0,0 -1.3015,5.09773 -4.82184,7.19832c-3.42571,2.04249 -22.14185,10.54118 -22.14532,10.54318c-0.25981,0.15 -0.57361,0.09446 -0.69861,-0.12205c-0.126,-0.21824 -0.0167,-0.5169 0.24311,-0.6669l17.80545,-10.56404c0.28925,-0.167 0.40272,-0.50849 0.25695,-0.76496l-0.1855,-0.32129c-0.14873,-0.25361 -0.50119,-0.32609 -0.79044,-0.15909l-18.09429,10.15576c-0.24698,0.13221 -0.55397,0.04849 -0.7004,-0.18913c-0.13257,-0.24562 -0.05158,-0.55334 0.1864,-0.70114l-0.0005,-0.00087l17.84229,-10.59224c0.28925,-0.167 0.40372,-0.50676 0.25795,-0.76323l-0.186,-0.32216c-0.14873,-0.25361 -0.50119,-0.32609 -0.79044,-0.15909l-18.09229,10.15923c-0.24835,0.13184 -0.55584,0.04725 -0.7019,-0.19174c-0.13394,-0.24598 -0.05208,-0.5542 0.1859,-0.702l-0.0005,-0.00087l0.02115,-0.01336l0.01126,-0.0065l17.81038,-10.57151c0.28925,-0.167 0.40322,-0.50762 0.25745,-0.76409l-0.186,-0.32216c-0.14873,-0.25361 -0.5002,-0.32436 -0.78945,-0.15736l-18.09529,10.15403c-0.25345,0.12901 -0.5479,0.075 -0.6674,-0.13198c-0.12,-0.20784 -0.01905,-0.48898 0.2194,-0.64397l-0.0015,-0.0026c0,0 16.66094,-11.93438 20.24115,-13.93329c3.57984,-1.99754 8.64435,-0.57755 8.64435,-0.57755c1.95583,0.6756 5.4185,-1.89285 8.10838,-3.44585c2.75136,-1.58851 37.04345,-23.78884 37.66118,-24.0889c3.60487,-1.86419 5.60285,-1.0836 6.77147,0.60652l0.00347,-0.002l0.00614,0.01263l0.00836,0.01249l-0.00347,0.002c0.87987,1.85798 0.55689,3.97858 -2.86047,6.16752c-0.56873,0.38493 -36.94132,18.98174 -39.69268,20.57024c-2.68988,1.553 -6.64456,3.26928 -7.03789,5.30001"/></g></g></svg>