<svg version="1.1" xmlns="http://www.w3.org/2000/svg" xmlns:xlink="http://www.w3.org/1999/xlink" width="42.371" height="42.372" viewBox="0,0,42.371,42.372"><defs><linearGradient x1="105.16649" y1="70.21383" x2="127.98832" y2="40.91586" gradientUnits="userSpaceOnUse" id="color-1"><stop offset="0" stop-color="#f9ffc6"/><stop offset="1" stop-color="#eefab3"/></linearGradient></defs><g transform="translate(-99.653,-28.90604)"><g stroke-miterlimit="10"><g stroke="none" stroke-width="1"><path d="M142.024,50.09005c0,11.7 -9.485,21.188 -21.183,21.188c-11.702,0 -21.188,-9.488 -21.188,-21.188c0,-11.7 9.486,-21.184 21.188,-21.184c11.698,0 21.183,9.484 21.183,21.184" fill="#d3f08f"/><path d="M140.192,50.09005c0,10.69 -8.663,19.355 -19.352,19.355c-10.689,0 -19.355,-8.665 -19.355,-19.355c0,-10.69 8.666,-19.353 19.355,-19.353c10.689,0 19.352,8.664 19.352,19.353" fill="#f9ffc6"/><path d="M103.854,50.09005c0,-9.381 7.604,-16.984 16.986,-16.984c9.378,0 16.983,7.603 16.983,16.984c0,9.38 -7.605,16.987 -16.983,16.987c-9.382,0 -16.986,-7.607 -16.986,-16.987" fill="url(#color-1)"/></g><path d="M109.71898,47.15827h0.73901v5.52033h2.76907v0.65888h-3.50808zM114.07164,51.85944v-2.81359h0.7123v2.67113c0,0.69449 0.38286,1.08626 1.05064,1.08626c0.38286,0 0.77463,-0.14246 1.08626,-0.39177v-3.36562h0.7123v4.29161h-0.49861l-0.16027,-0.37396c-0.40067,0.29382 -0.88147,0.463 -1.35337,0.463c-0.91709,0 -1.54925,-0.61436 -1.54925,-1.56706zM122.03988,50.66634c0,-0.69449 -0.38286,-1.08626 -1.07736,-1.08626c-0.41848,0 -0.81024,0.14246 -1.13968,0.40067v3.35672h-0.7123v-4.29161h0.49861l0.16027,0.38286c0.40957,-0.30273 0.89928,-0.4719 1.38899,-0.4719c0.96161,0 1.59377,0.61436 1.59377,1.56706v2.81359h-0.7123zM123.88327,51.31633c0,-1.4157 0.85476,-2.3595 2.128,-2.3595c0.42738,0 0.84586,0.09794 1.23762,0.28492l-0.16917,0.57874c-0.35615,-0.16027 -0.73901,-0.2404 -1.07736,-0.2404c-0.89038,0 -1.38899,0.56094 -1.38899,1.59377c0,1.04174 0.50751,1.665 1.39789,1.665c0.32944,0 0.7212,-0.09794 1.07736,-0.26711l0.16027,0.51642c-0.35615,0.21369 -0.89038,0.33834 -1.40679,0.33834c-1.22872,0 -1.95883,-0.78353 -1.95883,-2.11019zM131.24573,50.66634c0,-0.69449 -0.38286,-1.08626 -1.07736,-1.08626c-0.41848,0 -0.81024,0.14246 -1.13968,0.43628v3.3211h-0.7123v-6.57988h0.7123v2.65332c0.39177,-0.30273 0.86366,-0.45409 1.33556,-0.45409c0.96161,0 1.59377,0.61436 1.59377,1.56706v2.81359h-0.7123z" fill="#ffffff" stroke="#000000" stroke-width="0.5"/><path d="M109.71898,47.15828h0.73901v5.52033h2.76907v0.65888h-3.50808zM114.07164,51.85946v-2.81359h0.7123v2.67113c0,0.69449 0.38286,1.08626 1.05064,1.08626c0.38286,0 0.77463,-0.14246 1.08626,-0.39177v-3.36562h0.7123v4.29161h-0.49861l-0.16027,-0.37396c-0.40067,0.29382 -0.88147,0.463 -1.35337,0.463c-0.91709,0 -1.54925,-0.61436 -1.54925,-1.56706zM122.03988,50.66635c0,-0.69449 -0.38286,-1.08626 -1.07736,-1.08626c-0.41848,0 -0.81024,0.14246 -1.13968,0.40067v3.35672h-0.7123v-4.29161h0.49861l0.16027,0.38286c0.40957,-0.30273 0.89928,-0.4719 1.38899,-0.4719c0.96161,0 1.59377,0.61436 1.59377,1.56706v2.81359h-0.7123zM123.88327,51.31634c0,-1.4157 0.85476,-2.3595 2.128,-2.3595c0.42738,0 0.84586,0.09794 1.23762,0.28492l-0.16917,0.57874c-0.35615,-0.16027 -0.73901,-0.2404 -1.07736,-0.2404c-0.89038,0 -1.38899,0.56094 -1.38899,1.59377c0,1.04174 0.50751,1.665 1.39789,1.665c0.32944,0 0.7212,-0.09794 1.07736,-0.26711l0.16027,0.51642c-0.35615,0.21369 -0.89038,0.33834 -1.40679,0.33834c-1.22872,0 -1.95883,-0.78353 -1.95883,-2.11019zM131.24573,50.66635c0,-0.69449 -0.38286,-1.08626 -1.07736,-1.08626c-0.41848,0 -0.81024,0.14246 -1.13968,0.43628v3.3211h-0.7123v-6.57988h0.7123v2.65332c0.39177,-0.30273 0.86366,-0.45409 1.33556,-0.45409c0.96161,0 1.59377,0.61436 1.59377,1.56706v2.81359h-0.7123z" fill="#ffffff" stroke="none" stroke-width="1"/></g></g></svg>