<svg version="1.1" xmlns="http://www.w3.org/2000/svg" xmlns:xlink="http://www.w3.org/1999/xlink" width="42.3749" height="42.3749" viewBox="0,0,42.3749,42.3749"><g transform="translate(-306.76358,-120.24886)"><g stroke="none" stroke-miterlimit="10"><path d="M306.982,141.43631c0,-11.58087 9.38814,-20.96902 20.96902,-20.96902c11.58088,0 20.96902,9.38815 20.96902,20.96902c0,11.58087 -9.38815,20.96902 -20.96902,20.96902c-11.58088,0 -20.96902,-9.38815 -20.96902,-20.96902z" fill-opacity="0.8" fill="#002a3d" stroke-width="1"/><path d="M349.13848,141.43631c0,5.83506 -2.38348,11.15945 -6.20552,14.98194c-3.82204,3.82203 -9.14686,6.20551 -14.98193,6.20551c-5.83506,0 -11.15945,-2.38348 -14.98193,-6.20551c-3.82204,-3.82203 -6.20552,-9.14687 -6.20552,-14.98194c0,-5.83506 2.38348,-11.15945 6.20552,-14.98194c3.82204,-3.82203 9.14686,-6.20551 14.98193,-6.20551c5.83506,0 11.15945,2.38348 14.98193,6.20551c3.82204,3.82203 6.20552,9.14687 6.20552,14.98194zM342.6241,126.76324c-3.767,-3.767 -8.92712,-6.07752 -14.67308,-6.07752c-5.74595,0 -10.90564,2.31053 -14.67307,6.07752c-3.767,3.767 -6.07752,8.92712 -6.07752,14.67307c0,5.74595 2.31053,10.90564 6.07752,14.67308c3.767,3.767 8.92712,6.07752 14.67307,6.07752c5.74595,0 10.90564,-2.31053 14.67308,-6.07752c3.767,-3.767 6.07752,-8.92712 6.07752,-14.67307c0,-5.74595 -2.31053,-10.90564 -6.07752,-14.67307z" fill="none" stroke-width="1"/><path d="M309.16627,141.43631c0,-10.37453 8.41023,-18.78474 18.78475,-18.78474c10.37453,0 18.78475,8.41023 18.78475,18.78475c0,10.37453 -8.41023,18.78475 -18.78475,18.78475c-10.37453,0 -18.78475,-8.41023 -18.78475,-18.78475z" fill-opacity="0.8" fill="#35728e" stroke-width="3"/><path d="M347.39105,141.43631c0,5.32132 -2.21179,10.26433 -5.69396,13.74606c-3.48173,3.48173 -8.42518,5.69396 -13.74607,5.69396c-5.32132,0 -10.26434,-2.2118 -13.74607,-5.69396c-3.48173,-3.48173 -5.69396,-8.42518 -5.69396,-13.74606c0,-5.32132 2.21179,-10.26433 5.69396,-13.74606c3.48173,-3.48173 8.42518,-5.69396 13.74607,-5.69396c5.32132,0 10.26434,2.21179 13.74607,5.69396c3.48173,3.48173 5.69396,8.42518 5.69396,13.74606zM340.77052,128.61681c-3.3166,-3.3166 -7.76596,-5.30996 -12.81951,-5.30996c-5.05353,0 -9.50247,1.99336 -12.8195,5.30996c-3.3166,3.3166 -5.30996,7.76596 -5.30996,12.8195c0,5.05353 1.99337,9.50247 5.30996,12.8195c3.3166,3.3166 7.76596,5.30996 12.8195,5.30996c5.05353,0 9.50247,-1.99336 12.81951,-5.30996c3.3166,-3.3166 5.30996,-7.76596 5.30996,-12.8195c0,-5.05353 -1.99337,-9.50247 -5.30996,-12.8195z" fill="#eeeeee" stroke-width="1"/><path d="M331.009,135.75721v14.85306c0,3.49483 0,3.93169 3.49483,4.36854v0.43686h-12.23192v-0.43686c3.49483,-0.43686 3.93169,-0.87371 3.93169,-4.36854v-10.04766c0,-2.18428 -0.43686,-2.62113 -2.18428,-2.62113c-0.87371,0 0,0 -0.87371,0v-0.43686z" fill-opacity="0.8" fill="#ffffff" stroke-width="1"/><path d="M324.89304,130.51494c0,-1.68887 1.36911,-3.05798 3.05799,-3.05798c1.68888,0 3.05798,1.36911 3.05798,3.05798c0,1.68887 -1.36911,3.05798 -3.05798,3.05798c-1.68888,0 -3.05799,-1.36911 -3.05799,-3.05798z" fill-opacity="0.8" fill="#ffffff" stroke-width="1"/></g></g></svg>