<svg version="1.1" xmlns="http://www.w3.org/2000/svg" xmlns:xlink="http://www.w3.org/1999/xlink" width="42.37125" height="42.3725" viewBox="0,0,42.37125,42.3725"><defs><linearGradient x1="311.72954" y1="70.08167" x2="334.55137" y2="40.78367" gradientUnits="userSpaceOnUse" id="color-1"><stop offset="0" stop-color="#82bae7"/><stop offset="1" stop-color="#4c83cc"/></linearGradient></defs><g transform="translate(-306.21575,-28.77385)"><g stroke="none" stroke-miterlimit="10"><path d="M348.587,49.9576c0,11.7 -9.485,21.18875 -21.18375,21.18875c-11.70125,0 -21.1875,-9.48875 -21.1875,-21.18875c0,-11.7 9.48625,-21.18375 21.1875,-21.18375c11.69875,0 21.18375,9.48375 21.18375,21.18375" fill="#3e6ba7"/><path d="M346.75575,49.9576c0,10.69 -8.66375,19.355 -19.3525,19.355c-10.68875,0 -19.355,-8.665 -19.355,-19.355c0,-10.69 8.66625,-19.3525 19.355,-19.3525c10.68875,0 19.3525,8.66375 19.3525,19.3525" fill="#82bae7"/><path d="M310.417,49.9576c0,-9.38125 7.60375,-16.98375 16.98625,-16.98375c9.3775,0 16.9825,7.6025 16.9825,16.98375c0,9.38 -7.605,16.9875 -16.9825,16.9875c-9.3825,0 -16.98625,-7.6075 -16.98625,-16.9875" fill="url(#color-1)"/><path d="M317.51325,51.47135h0.6c1.33125,0 2.185,-0.79625 2.185,-2.29625c0,-1.48125 -0.8725,-2.2775 -2.185,-2.2775h-0.805v4.3675c0,0.13125 0.075,0.20625 0.205,0.20625M316.08075,46.8976h-0.61125v-1.04125h2.71c2.0525,0 3.3925,1.21875 3.3925,3.31875c0,2.1 -1.34,3.3375 -3.3925,3.3375h-1.4625c-0.45,0 -0.63625,-0.18875 -0.63625,-0.63875z" fill="#ffffff"/><path d="M324.132,51.69635c0.63875,0 1.0875,-0.675 1.0875,-1.25625v-0.1125h-0.20625c-0.6175,0 -1.60125,0.085 -1.60125,0.75c0,0.31875 0.2325,0.61875 0.72,0.61875M325.05075,49.5126h0.15v-0.0375c0,-0.685 -0.27125,-0.9375 -0.88125,-0.9375c-0.21375,0 -0.63625,0.05625 -0.63625,0.31875v0.2525h-1.10625v-0.50625c0,-0.89 1.25625,-0.98375 1.7525,-0.98375c1.59375,0 2.0625,0.83375 2.0625,1.9025v1.78125c0,0.13125 0.07375,0.20625 0.20625,0.20625h0.37375v1.0025h-1.0675c-0.44125,0 -0.61,-0.24375 -0.61,-0.525c0,-0.12125 0.01,-0.20625 0.01,-0.20625h-0.01875c0,0 -0.365,0.84375 -1.44375,0.84375c-0.8525,0 -1.63125,-0.535 -1.63125,-1.49c0,-1.5 2.0625,-1.62125 2.84,-1.62125" fill="#ffffff"/><path d="M328.02325,45.85635h1.03125v1.0975h-1.03125zM327.967,48.9501c0,-0.14 -0.075,-0.20625 -0.20625,-0.20625h-0.375v-1.0125h1.13375c0.44125,0 0.6275,0.1975 0.6275,0.6375v2.93375c0,0.13125 0.07625,0.20625 0.20625,0.20625h0.375v1.00375h-1.13375c-0.44,0 -0.6275,-0.18875 -0.6275,-0.63875z" fill="#ffffff"/><path d="M330.732,48.9501c0,-0.14 -0.075,-0.20625 -0.20625,-0.20625h-0.375v-1.0125h1.0875c0.4225,0 0.6375,0.17875 0.6375,0.58125v0.28125c0,0.1775 -0.01875,0.3 -0.01875,0.3h0.01875c0.215,-0.68375 0.7875,-1.2275 1.51875,-1.2275c0.1025,0 0.21625,0.01875 0.21625,0.01875v1.17125c0,0 -0.1225,-0.01875 -0.2925,-0.01875c-0.505,0 -1.08625,0.29125 -1.30125,1.0025c-0.07006,0.25361 -0.10496,0.51564 -0.10375,0.77875v1.89375h-1.18125z" fill="#ffffff"/><path d="M335.09075,53.4776c0.32875,0 0.61875,-0.1975 0.7875,-0.60875l0.16,-0.36625l-1.595,-3.59c-0.05625,-0.14 -0.12125,-0.16875 -0.2525,-0.16875h-0.14v-1.01125h0.7875c0.33625,0 0.50625,0.12125 0.62875,0.45l0.93625,2.38875c0.09375,0.245 0.17,0.63875 0.17,0.63875h0.0175c0,0 0.075,-0.39375 0.15875,-0.63875l0.815,-2.38875c0.11375,-0.32875 0.31,-0.45 0.6375,-0.45h0.8075v1.01125h-0.1425c-0.14,0 -0.21375,0.02875 -0.27,0.16875l-1.71625,4.32125c-0.3375,0.8625 -1.01125,1.24625 -1.72375,1.24625c-0.75,0 -1.20875,-0.48625 -1.20875,-0.48625l0.45875,-0.84375c0,0 0.29125,0.3275 0.68375,0.3275" fill="#ffffff"/></g></g></svg>