<svg version="1.1" xmlns="http://www.w3.org/2000/svg" xmlns:xlink="http://www.w3.org/1999/xlink" width="56.32875" height="50.40625" viewBox="0,0,56.32875,50.40625"><defs><linearGradient x1="233.35312" y1="156.14566" x2="203.16537" y2="129.14522" gradientUnits="userSpaceOnUse" id="color-1"><stop offset="0" stop-color="#f35b9d"/><stop offset="0.712" stop-color="#e41d25"/><stop offset="0.995" stop-color="#d01a21"/><stop offset="1" stop-color="#d01a21"/></linearGradient></defs><g transform="translate(-181.572,-110.06385)"><g stroke="none" stroke-miterlimit="10"><g><path d="M235.65075,110.1351c0.74947,-0.03812 1.49962,-0.06187 2.25,-0.07125v50.40625h-56.32875c0.18375,-1.50906 0.42727,-3.01024 0.73,-4.5c4.98125,-24.5625 25.65125,-43.425 51.09875,-45.67875c0.74891,-0.06679 1.49905,-0.11888 2.25,-0.15625" fill="#a9151a"/><path d="M233.3995,112.0201c0.74884,-0.06879 1.499,-0.12255 2.25,-0.16125v46.3625h-52.01625c0.12562,-0.75286 0.2669,-1.50302 0.42375,-2.25c4.9425,-23.61 24.8475,-41.71375 49.3425,-43.95125" fill="#f35b9d"/><path d="M186.9945,155.97385c4.87625,-22.02 23.50125,-38.865 46.40875,-41.07375v41.07375h-46.40875" fill="url(#color-1)"/><path d="M201.04575,139.4501h-0.61v-1.04h3.79625c0.45,0 0.6375,0.19625 0.6375,0.6375v1.01125h-1.10625v-0.4025c0,-0.13125 -0.075,-0.20625 -0.20625,-0.20625h-1.28375v1.88375h2.1275v1.04125h-2.1275v2.68875h-1.2275z" fill="#ffffff"/><path d="M205.82575,141.50385c0,-0.14125 -0.075,-0.20625 -0.20625,-0.20625h-0.375v-1.0125h1.0875c0.42125,0 0.6375,0.1775 0.6375,0.58125v0.28125c0,0.1775 -0.01875,0.3 -0.01875,0.3h0.01875c0.215,-0.685 0.7875,-1.2275 1.51875,-1.2275c0.1025,0 0.215,0.0175 0.215,0.0175v1.1725c0,0 -0.12125,-0.01875 -0.29125,-0.01875c-0.505,0 -1.08625,0.29 -1.3025,1.0025c-0.06952,0.25327 -0.10401,0.51487 -0.1025,0.7775v1.89375h-1.18125z" fill="#ffffff"/><path d="M209.72575,141.50385c0,-0.14125 -0.075,-0.20625 -0.20625,-0.20625h-0.375v-1.0125h1.13375c0.44125,0 0.62875,0.1975 0.62875,0.6275v2.2025c0,0.58125 0.14875,0.975 0.74,0.975c0.8625,0 1.34,-0.75875 1.34,-1.6125v-2.1925h1.19125v3.57125c0,0.13 0.075,0.20625 0.20625,0.20625h0.37375v1.0025h-1.09625c-0.4125,0 -0.6275,-0.1975 -0.6275,-0.535v-0.13125c0,-0.11125 0.00875,-0.215 0.00875,-0.215h-0.0175c-0.22625,0.4975 -0.82625,0.99375 -1.65,0.99375c-1.0225,0 -1.65,-0.51625 -1.65,-1.81875z" fill="#ffffff"/><path d="M215.8195,138.4101h1.03125v1.09625h-1.03125zM215.76325,141.50385c0,-0.14125 -0.075,-0.20625 -0.20625,-0.20625h-0.37375v-1.0125h1.13375c0.44,0 0.6275,0.1975 0.6275,0.6375v2.93375c0,0.13 0.075,0.20625 0.20625,0.20625h0.375v1.0025h-1.135c-0.44,0 -0.6275,-0.1875 -0.6275,-0.6375z" fill="#ffffff"/><path d="M218.547,141.23135h-0.61875v-0.94625h0.64625v-1.30375h1.16375v1.30375h1.08625v0.94625h-1.08625v1.93125c0,0.7875 0.6175,0.9 0.945,0.9c0.13125,0 0.21625,-0.01875 0.21625,-0.01875v1.04c0,0 -0.15,0.0275 -0.36625,0.0275c-0.665,0 -1.98625,-0.19625 -1.98625,-1.79875z" fill="#ffffff"/><path d="M222.01575,143.54635c0,0 0.60875,0.7025 1.425,0.7025c0.36625,0 0.64625,-0.15 0.64625,-0.46875c0,-0.675 -2.52125,-0.665 -2.52125,-2.2125c0,-0.955 0.8625,-1.39625 1.85625,-1.39625c0.64625,0 1.6775,0.21625 1.6775,0.99375v0.4975h-1.05v-0.235c0,-0.225 -0.3375,-0.33625 -0.6,-0.33625c-0.42125,0 -0.7125,0.14875 -0.7125,0.43c0,0.75 2.54,0.6 2.54,2.19375c0,0.9 -0.79625,1.4625 -1.83625,1.4625c-1.3125,0 -1.9875,-0.8525 -1.9875,-0.8525z" fill="#ffffff"/></g></g></g></svg>