<svg version="1.1" xmlns="http://www.w3.org/2000/svg" xmlns:xlink="http://www.w3.org/1999/xlink" width="91.753" height="13.57643" viewBox="0,0,91.753,13.57643"><g transform="translate(-76.9395,-126.1894)"><g fill="#ffffff" stroke="none" stroke-miterlimit="10"><path d="M109.7225,130.01356c1.356,1.562 5.638,1.071 8.745,1.071c3.177,0 43.975,-2.081 44.66,-2.032c4.053,0.187 5.393,1.862 5.561,3.911h0.004l-0.002,0.015l0.002,0.014h-0.004c-0.168,2.048 -1.508,3.723 -5.561,3.911c-0.685,0.049 -41.483,-2.031 -44.66,-2.031c-3.107,0 -7.389,-0.493 -8.745,1.07c0,0 -3.677,3.762 -7.775,3.822c-4.1,0.059 -24.497,-1.946 -24.497,-1.946v-0.003c-0.283,-0.015 -0.511,-0.208 -0.511,-0.448c0,-0.239 0.228,-0.433 0.511,-0.448l20.749,-0.254c0.334,0 0.603,-0.237 0.605,-0.531v-0.372c-0.002,-0.295 -0.271,-0.533 -0.605,-0.533l-20.71,-0.25h-0.014l-0.025,-0.001v-0.001c-0.28,-0.009 -0.504,-0.235 -0.511,-0.515c0.007,-0.28 0.231,-0.507 0.511,-0.517l20.749,-0.248c0.334,0 0.603,-0.239 0.605,-0.533v-0.372c-0.002,-0.295 -0.271,-0.532 -0.605,-0.532l-20.749,-0.252v-0.001c-0.279,-0.009 -0.503,-0.235 -0.511,-0.514c0.008,-0.279 0.232,-0.505 0.511,-0.514l20.749,-0.252c0.334,0 0.603,-0.239 0.605,-0.533v-0.371c-0.002,-0.295 -0.271,-0.534 -0.605,-0.534l-20.702,-0.246c-0.3,0 -0.544,-0.204 -0.544,-0.456c0,-0.25 0.244,-0.455 0.544,-0.455c0.003,0 20.462,-1.998 24.45,-1.942c4.098,0.059 7.775,3.823 7.775,3.823"/></g></g></svg>