<svg version="1.1" xmlns="http://www.w3.org/2000/svg" xmlns:xlink="http://www.w3.org/1999/xlink" width="42.371" height="42.373" viewBox="0,0,42.371,42.373"><defs><linearGradient x1="88.65579" y1="153.09989" x2="65.83396" y2="123.80191" gradientUnits="userSpaceOnUse" id="color-1"><stop offset="0" stop-color="#e3adff"/><stop offset="1" stop-color="#c58cf0"/></linearGradient></defs><g transform="translate(-51.79853,-111.79159)"><g stroke-miterlimit="10"><path d="M51.79853,132.97559c0,-11.7 9.485,-21.184 21.184,-21.184c11.701,0 21.187,9.484 21.187,21.184c0,11.7 -9.486,21.189 -21.187,21.189c-11.699,0 -21.184,-9.489 -21.184,-21.189" fill="#b57be9" stroke="none" stroke-width="1"/><path d="M53.62953,132.97559c0,-10.689 8.664,-19.352 19.353,-19.352c10.688,0 19.355,8.662 19.355,19.352c0,10.69 -8.667,19.355 -19.355,19.355c-10.689,0 -19.353,-8.665 -19.353,-19.355" fill="#e3adff" stroke="none" stroke-width="1"/><path d="M89.96853,132.97559c0,9.38 -7.604,16.988 -16.986,16.988c-9.378,0 -16.983,-7.608 -16.983,-16.988c0,-9.381 7.605,-16.984 16.983,-16.984c9.382,0 16.986,7.603 16.986,16.984" fill="url(#color-1)" stroke="none" stroke-width="1"/><text transform="translate(57.04341,135.05435) scale(0.17311,0.17311)" font-size="40" xml:space="preserve" fill="#ffffff" stroke="#000000" stroke-width="2" font-family="Sans Serif" font-weight="normal" text-anchor="start"><tspan x="0" dy="0">Summary</tspan></text><text transform="translate(57.04341,135.05435) scale(0.17311,0.17311)" font-size="40" xml:space="preserve" fill="#ffffff" stroke="none" stroke-width="1" font-family="Sans Serif" font-weight="normal" text-anchor="start"><tspan x="0" dy="0">Summary</tspan></text></g></g></svg>