<svg version="1.1" xmlns="http://www.w3.org/2000/svg" xmlns:xlink="http://www.w3.org/1999/xlink" width="42.371" height="42.372" viewBox="0,0,42.371,42.372"><defs><linearGradient x1="70.13549" y1="200.95386" x2="92.95732" y2="171.65592" gradientUnits="userSpaceOnUse" id="color-1"><stop offset="0" stop-color="#f9ffc6"/><stop offset="1" stop-color="#eefab3"/></linearGradient></defs><g transform="translate(-64.622,-159.64609)"><g stroke-miterlimit="10"><g stroke="none" stroke-width="1"><path d="M106.993,180.8301c0,11.7 -9.485,21.188 -21.183,21.188c-11.702,0 -21.188,-9.488 -21.188,-21.188c0,-11.7 9.486,-21.184 21.188,-21.184c11.698,0 21.183,9.484 21.183,21.184" fill="#d3f08f"/><path d="M105.161,180.8301c0,10.69 -8.663,19.355 -19.352,19.355c-10.689,0 -19.355,-8.665 -19.355,-19.355c0,-10.69 8.666,-19.353 19.355,-19.353c10.689,0 19.352,8.664 19.352,19.353" fill="#f9ffc6"/><path d="M68.823,180.8301c0,-9.381 7.604,-16.984 16.986,-16.984c9.378,0 16.983,7.603 16.983,16.984c0,9.38 -7.605,16.987 -16.983,16.987c-9.382,0 -16.986,-7.607 -16.986,-16.987" fill="url(#color-1)"/></g><text transform="translate(70.59709,184.44197) scale(0.30083,0.30083)" font-size="40" xml:space="preserve" fill="#ffffff" stroke="#000000" stroke-width="2" font-family="Sans Serif" font-weight="normal" text-anchor="start"><tspan x="0" dy="0">What</tspan></text><text transform="translate(70.59709,184.44198) scale(0.30082,0.30082)" font-size="40" xml:space="preserve" fill="#ffffff" stroke="none" stroke-width="1" font-family="Sans Serif" font-weight="normal" text-anchor="start"><tspan x="0" dy="0">What</tspan></text></g></g></svg>