<svg version="1.1" xmlns="http://www.w3.org/2000/svg" xmlns:xlink="http://www.w3.org/1999/xlink" width="178.33" height="142.49625" viewBox="0,0,178.33,142.49625"><defs><clipPath id="clip-1"><path d="M175.082,20.20385h140.13375v141.5575h-140.13375z" fill="none"/></clipPath><clipPath id="clip-2"><path d="M315.21575,90.98385c0,39.09 -31.37,70.7775 -70.065,70.7775c-38.6975,0 -70.06875,-31.6875 -70.06875,-70.7775c0,-39.0925 31.37125,-70.78 70.06875,-70.78c38.695,0 70.065,31.6875 70.065,70.78" fill="none"/></clipPath><radialGradient cx="245.147" cy="90.9826" r="70.06109" gradientUnits="userSpaceOnUse" id="color-1"><stop offset="0" stop-color="#868484"/><stop offset="0.926" stop-color="#bdbcbc"/><stop offset="0.926" stop-color="#bdbcbc"/><stop offset="1" stop-color="#ffffff"/></radialGradient><linearGradient x1="248.46825" y1="20.2426" x2="248.46825" y2="155.24449" gradientUnits="userSpaceOnUse" id="color-2"><stop offset="0" stop-color="#f4f4f4"/><stop offset="1" stop-color="#d3d2d2"/></linearGradient><linearGradient x1="248.46825" y1="22.45885" x2="248.46825" y2="153.00449" gradientUnits="userSpaceOnUse" id="color-3"><stop offset="0" stop-color="#c8c7c7"/><stop offset="0.955" stop-color="#ffffff"/><stop offset="1" stop-color="#ffffff"/></linearGradient><radialGradient cx="326.1595" cy="53.92385" r="25.4209" gradientUnits="userSpaceOnUse" id="color-4"><stop offset="0" stop-color="#868484"/><stop offset="0.926" stop-color="#bdbcbc"/><stop offset="0.926" stop-color="#bdbcbc"/><stop offset="1" stop-color="#ffffff"/></radialGradient><linearGradient x1="327.40075" y1="24.4726" x2="327.40075" y2="75.73285" gradientUnits="userSpaceOnUse" id="color-5"><stop offset="0" stop-color="#ffffff"/><stop offset="1" stop-color="#deddde"/></linearGradient><linearGradient x1="327.40075" y1="72.50135" x2="327.40075" y2="27.71749" gradientUnits="userSpaceOnUse" id="color-6"><stop offset="0" stop-color="#ffffff"/><stop offset="1" stop-color="#c8c7c7"/></linearGradient></defs><g transform="translate(-175.082,-19.2651)"><g stroke="none" stroke-miterlimit="10"><g clip-path="url(#clip-1)"><g clip-path="url(#clip-2)"><path d="M315.21575,90.98385c0,39.09 -31.37,70.7775 -70.065,70.7775c-38.6975,0 -70.06875,-31.6875 -70.06875,-70.7775c0,-39.0925 31.37125,-70.78 70.06875,-70.78c38.695,0 70.065,31.6875 70.065,70.78" fill="url(#color-1)"/></g></g><path d="M180.312,87.42135c0,-37.64125 30.515,-68.15625 68.15625,-68.15625c37.64125,0 68.15625,30.515 68.15625,68.15625c0,37.64125 -30.515,68.15625 -68.15625,68.15625c-37.64125,0 -68.15625,-30.515 -68.15625,-68.15625" fill="url(#color-2)"/><path d="M182.562,87.42135c0,-36.4 29.50625,-65.9075 65.90625,-65.9075c36.39875,0 65.90625,29.5075 65.90625,65.9075c0,36.39875 -29.5075,65.90625 -65.90625,65.90625c-36.4,0 -65.90625,-29.5075 -65.90625,-65.90625" fill="url(#color-3)"/><path d="M351.582,53.9251c0,14.18375 -11.385,25.68 -25.42375,25.68c-14.04125,0 -25.4225,-11.49625 -25.4225,-25.68c0,-14.1825 11.38125,-25.68125 25.4225,-25.68125c14.03875,0 25.42375,11.4975 25.42375,25.68125" fill="url(#color-4)"/><path d="M301.392,49.95885c0,-14.36375 11.64375,-26.00875 26.01,-26.00875c14.36625,0 26.01,11.645 26.01,26.00875c0,14.36625 -11.64375,26.01125 -26.01,26.01125c-14.365,0 -26.01,-11.645 -26.01,-26.01125" fill="url(#color-5)"/><path d="M303.92075,49.95885c0,-12.96625 10.51,-23.47875 23.48,-23.47875c12.97,0 23.48125,10.5125 23.48125,23.47875c0,12.97 -10.51125,23.48125 -23.48125,23.48125c-12.96875,0 -23.48,-10.51125 -23.48,-23.48125" fill="url(#color-6)"/></g></g></svg>