<svg version="1.1" xmlns="http://www.w3.org/2000/svg" xmlns:xlink="http://www.w3.org/1999/xlink" width="288.79" height="145.6783" viewBox="0,0,288.79,145.6783"><defs><clipPath id="clip-1"><path d="M216.065,31.28165h140.13375v141.5575h-140.13375z" fill="none"/></clipPath><clipPath id="clip-2"><path d="M356.19875,102.06165c0,39.09 -31.37,70.7775 -70.065,70.7775c-38.6975,0 -70.06875,-31.6875 -70.06875,-70.7775c0,-39.0925 31.37125,-70.78 70.06875,-70.78c38.695,0 70.065,31.6875 70.065,70.78" fill="none"/></clipPath><radialGradient cx="286.13" cy="102.0604" r="70.06109" gradientUnits="userSpaceOnUse" id="color-1"><stop offset="0" stop-color="#868484"/><stop offset="0.926" stop-color="#bdbcbc"/><stop offset="0.926" stop-color="#bdbcbc"/><stop offset="1" stop-color="#ffffff"/></radialGradient><linearGradient x1="289.45125" y1="31.3204" x2="289.45125" y2="166.32229" gradientUnits="userSpaceOnUse" id="color-2"><stop offset="0" stop-color="#f4f4f4"/><stop offset="1" stop-color="#d3d2d2"/></linearGradient><linearGradient x1="289.45125" y1="33.53665" x2="289.45125" y2="164.08229" gradientUnits="userSpaceOnUse" id="color-3"><stop offset="0" stop-color="#c8c7c7"/><stop offset="0.955" stop-color="#ffffff"/><stop offset="1" stop-color="#ffffff"/></linearGradient><clipPath id="clip-3"><path d="M341.71875,39.32165h50.84625v51.36125h-50.84625z" fill="none"/></clipPath><radialGradient cx="367.1425" cy="65.00165" r="25.4209" gradientUnits="userSpaceOnUse" id="color-4"><stop offset="0" stop-color="#868484"/><stop offset="0.926" stop-color="#bdbcbc"/><stop offset="0.926" stop-color="#bdbcbc"/><stop offset="1" stop-color="#ffffff"/></radialGradient><linearGradient x1="368.38375" y1="35.5504" x2="368.38375" y2="86.81065" gradientUnits="userSpaceOnUse" id="color-5"><stop offset="0" stop-color="#ffffff"/><stop offset="1" stop-color="#deddde"/></linearGradient><linearGradient x1="368.38375" y1="83.57915" x2="368.38375" y2="38.79529" gradientUnits="userSpaceOnUse" id="color-6"><stop offset="0" stop-color="#ffffff"/><stop offset="1" stop-color="#c8c7c7"/></linearGradient><linearGradient x1="296.76463" y1="109.22302" x2="324.76511" y2="135.97338" gradientUnits="userSpaceOnUse" id="color-7"><stop offset="0" stop-color="#9d79c3"/><stop offset="1" stop-color="#503685"/></linearGradient><linearGradient x1="297.21233" y1="98.65167" x2="327.21218" y2="62.15133" gradientUnits="userSpaceOnUse" id="color-8"><stop offset="0" stop-color="#e1a374"/><stop offset="0.755" stop-color="#d45914"/><stop offset="1" stop-color="#d45914"/></linearGradient><linearGradient x1="284.33612" y1="87.22346" x2="254.14837" y2="60.22302" gradientUnits="userSpaceOnUse" id="color-9"><stop offset="0" stop-color="#f35b9d"/><stop offset="0.712" stop-color="#e41d25"/><stop offset="0.995" stop-color="#d01a21"/><stop offset="1" stop-color="#d01a21"/></linearGradient><linearGradient x1="352.71254" y1="81.15947" x2="375.53437" y2="51.86147" gradientUnits="userSpaceOnUse" id="color-10"><stop offset="0" stop-color="#82bae7"/><stop offset="1" stop-color="#4c83cc"/></linearGradient><linearGradient x1="284.31907" y1="99.12404" x2="251.50618" y2="134.74909" gradientUnits="userSpaceOnUse" id="color-11"><stop offset="0" stop-color="#b3db18"/><stop offset="1" stop-color="#28ab43"/></linearGradient><linearGradient x1="194.00374" y1="68.46916" x2="216.82557" y2="39.17116" gradientUnits="userSpaceOnUse" id="color-12"><stop offset="0" stop-color="#e3adff"/><stop offset="1" stop-color="#c58cf0"/></linearGradient><linearGradient x1="146.14949" y1="81.29162" x2="168.97132" y2="51.99366" gradientUnits="userSpaceOnUse" id="color-13"><stop offset="0" stop-color="#f9ffc6"/><stop offset="1" stop-color="#eefab3"/></linearGradient><linearGradient x1="111.11788" y1="116.32356" x2="133.93971" y2="87.02555" gradientUnits="userSpaceOnUse" id="color-14"><stop offset="0" stop-color="#ffe5b3"/><stop offset="1" stop-color="#fad69e"/></linearGradient></defs><g transform="translate(-105.605,-27.16085)"><g stroke-miterlimit="10"><g clip-path="url(#clip-1)" stroke="none" stroke-width="1"><g clip-path="url(#clip-2)"><path d="M356.19875,102.06165c0,39.09 -31.37,70.7775 -70.065,70.7775c-38.6975,0 -70.06875,-31.6875 -70.06875,-70.7775c0,-39.0925 31.37125,-70.78 70.06875,-70.78c38.695,0 70.065,31.6875 70.065,70.78" fill="url(#color-1)"/></g></g><path d="M221.295,98.49915c0,-37.64125 30.515,-68.15625 68.15625,-68.15625c37.64125,0 68.15625,30.515 68.15625,68.15625c0,37.64125 -30.515,68.15625 -68.15625,68.15625c-37.64125,0 -68.15625,-30.515 -68.15625,-68.15625" fill="url(#color-2)" stroke="none" stroke-width="1"/><path d="M223.545,98.49915c0,-36.4 29.50625,-65.9075 65.90625,-65.9075c36.39875,0 65.90625,29.5075 65.90625,65.9075c0,36.39875 -29.5075,65.90625 -65.90625,65.90625c-36.4,0 -65.90625,-29.5075 -65.90625,-65.90625" fill="url(#color-3)" stroke="none" stroke-width="1"/><g clip-path="url(#clip-3)" stroke="none" stroke-width="1"><path d="M392.565,65.0029c0,14.18375 -11.385,25.68 -25.42375,25.68c-14.04125,0 -25.4225,-11.49625 -25.4225,-25.68c0,-14.1825 11.38125,-25.68125 25.4225,-25.68125c14.03875,0 25.42375,11.4975 25.42375,25.68125" fill="url(#color-4)"/></g><path d="M342.375,61.03665c0,-14.36375 11.64375,-26.00875 26.01,-26.00875c14.36625,0 26.01,11.645 26.01,26.00875c0,14.36625 -11.64375,26.01125 -26.01,26.01125c-14.365,0 -26.01,-11.645 -26.01,-26.01125" fill="url(#color-5)" stroke="none" stroke-width="1"/><path d="M344.90375,61.03665c0,-12.96625 10.51,-23.47875 23.48,-23.47875c12.97,0 23.48125,10.5125 23.48125,23.47875c0,12.97 -10.51125,23.48125 -23.48125,23.48125c-12.96875,0 -23.48,-10.51125 -23.48,-23.48125" fill="url(#color-6)" stroke="none" stroke-width="1"/><g stroke="none" stroke-width="1"><path d="M346.52875,104.8829c-0.1705,1.50809 -0.39817,3.00917 -0.6825,4.5c-4.67625,24.3625 -24.75625,43.24125 -49.71375,46.11125c-1.49501,0.17301 -2.99612,0.28851 -4.5,0.34625v-50.9575z" fill="#3f2a66"/><path d="M344.49,107.1354c-0.11667,0.755 -0.24959,1.505 -0.39875,2.25c-4.6375,23.40875 -23.95375,41.53125 -47.95875,44.37875c-0.74583,0.09 -1.49583,0.16416 -2.25,0.2225v-46.85125z" fill="#9d79c3"/><path d="M341.17125,109.38665c-4.57125,21.82 -22.61625,38.685 -45.035,41.49125v-41.49125z" fill="url(#color-7)"/><path d="M302.8975,120.6079c0.69375,0 1.0875,-0.44875 1.0875,-1.14375c0,-0.68375 -0.39375,-1.12375 -1.0675,-1.12375h-1.00375v2.2675zM300.685,118.3404h-0.60875v-1.04h3.04625c1.2475,0 2.11875,0.87125 2.11875,2.16375c0,1.2925 -0.87125,2.19375 -2.11875,2.19375h-1.20875v2.29625h-1.22875z" fill="#ffffff"/><path d="M306.20875,120.3929c0,-0.14125 -0.07625,-0.20625 -0.20625,-0.20625h-0.375v-1.0125h1.08625c0.4225,0 0.6375,0.1775 0.6375,0.58125v0.28125c0,0.1775 -0.01875,0.3 -0.01875,0.3h0.01875c0.21625,-0.685 0.78875,-1.2275 1.51875,-1.2275c0.1025,0 0.21625,0.0175 0.21625,0.0175v1.1725c0,0 -0.1225,-0.01875 -0.29125,-0.01875c-0.50625,0 -1.0875,0.29 -1.3025,1.0025c-0.06994,0.25321 -0.10485,0.51481 -0.10375,0.7775v1.89375h-1.18z" fill="#ffffff"/><path d="M312.02875,123.05415c0.77875,0 1.42625,-0.59875 1.42625,-1.49c0,-0.88 -0.6475,-1.49 -1.42625,-1.49c-0.7675,0 -1.415,0.61 -1.415,1.49c0,0.89125 0.6475,1.49 1.415,1.49M312.02875,119.06165c1.4625,0 2.625,1.04125 2.625,2.5025c0,1.47125 -1.1625,2.5025 -2.625,2.5025c-1.4525,0 -2.615,-1.03125 -2.615,-2.5025c0,-1.46125 1.1625,-2.5025 2.615,-2.5025" fill="#ffffff"/><path d="M315.7525,120.1204h-0.61875v-0.94625h0.64625v-1.30375h1.1625v1.30375h1.0875v0.94625h-1.0875v1.93125c0,0.7875 0.61875,0.9 0.94625,0.9c0.13125,0 0.21625,-0.01875 0.21625,-0.01875v1.04c0,0 -0.15,0.0275 -0.365,0.0275c-0.66625,0 -1.9875,-0.19625 -1.9875,-1.79875z" fill="#ffffff"/><path d="M321.97625,120.9454c-0.01875,-0.5725 -0.4125,-0.965 -0.9,-0.965c-0.61,0 -1.04125,0.365 -1.17125,0.965zM321.07625,119.06165c1.3675,0 2.11875,1.0025 2.11875,2.2675c0,0.14125 -0.02875,0.44 -0.02875,0.44h-3.3c0.095,0.84375 0.7125,1.285 1.435,1.285c0.76875,0 1.34,-0.535 1.34,-0.535l0.49625,0.825c0,0 -0.73,0.7225 -1.92,0.7225c-1.585,0 -2.56875,-1.14375 -2.56875,-2.5025c0,-1.4725 0.99375,-2.5025 2.4275,-2.5025" fill="#ffffff"/><path d="M324.4425,117.29915h1.03125v1.09625h-1.03125zM324.38625,120.3929c0,-0.14125 -0.075,-0.20625 -0.20625,-0.20625h-0.375v-1.0125h1.13375c0.44125,0 0.6275,0.1975 0.6275,0.6375v2.93375c0,0.13 0.07625,0.20625 0.2075,0.20625h0.37375v1.0025h-1.13375c-0.44125,0 -0.6275,-0.1875 -0.6275,-0.6375z" fill="#ffffff"/><path d="M327.15125,120.3929c0,-0.14125 -0.075,-0.20625 -0.205,-0.20625h-0.37625v-1.0125h1.0975c0.42125,0 0.6275,0.1975 0.6275,0.53375v0.14125c0,0.1025 -0.01875,0.205 -0.01875,0.205h0.01875c0.32476,-0.62789 0.98091,-1.01381 1.6875,-0.9925c1.05875,0 1.66875,0.5525 1.66875,1.81875v1.865c0,0.13 0.07375,0.20625 0.20625,0.20625h0.37375v1.0025h-1.13375c-0.45,0 -0.6375,-0.1875 -0.6375,-0.6375v-2.19375c0,-0.58 -0.15,-0.97375 -0.75,-0.97375c-0.6375,0 -1.115,0.4025 -1.28375,0.97375c-0.06563,0.20643 -0.09729,0.42216 -0.09375,0.63875v2.1925h-1.18125z" fill="#ffffff"/></g><g stroke="none" stroke-width="1"><path d="M347.13687,97.43853c0.00583,0.29166 0.00916,0.58334 0.01,0.875c0,0.46 -0.01125,0.9175 -0.0225,1.375c-0.0175,0.75333 -0.04917,1.50333 -0.095,2.25h-55.1325v-60.9575c1.50399,0.05731 3.00514,0.17365 4.5,0.34875c28.28125,3.2525 50.305,27.06 50.74,56.10875" fill="#a9460f"/><path d="M345.15125,97.6354c0.00583,0.29166 0.00916,0.58334 0.01,0.875c-0.00167,0.45917 -0.00959,0.9175 -0.02375,1.375h-51.255v-56.85125c0.75417,0.06 1.50417,0.135 2.25,0.225c27.32875,3.2425 48.585,26.2775 49.01875,54.37625" fill="#e1a374"/><path d="M296.13625,46.1479c25.74125,3.225 45.71875,24.97625 46.15,51.48875h-46.15z" fill="url(#color-8)"/><path d="M304.95875,75.3629c1.63125,0 2.4275,0.84375 2.4275,0.84375l-0.6925,0.88125c0,0 -0.69375,-0.59125 -1.70625,-0.59125c-1.1525,0 -2.1375,0.91 -2.1375,2.26c0,1.4525 0.99375,2.3425 2.185,2.3425c1.05875,0 1.68625,-0.69375 1.68625,-0.69375v-0.49625c0,-0.14125 -0.07375,-0.20625 -0.20625,-0.20625h-0.4025v-1.04h1.0775c0.45,0 0.6375,0.18625 0.6375,0.6275v2.84h-1.05v-0.31875c0,-0.14125 0.01,-0.28125 0.01,-0.28125h-0.02c0,0 -0.71125,0.7125 -1.9575,0.7125c-1.74375,0 -3.235,-1.33125 -3.235,-3.4775c0,-1.9125 1.45375,-3.4025 3.38375,-3.4025" fill="#ffffff"/><path d="M309.105,78.5679c0,-0.14 -0.07625,-0.20625 -0.2075,-0.20625h-0.375v-1.0125h1.0875c0.4225,0 0.6375,0.17875 0.6375,0.58125v0.28125c0,0.1775 -0.01875,0.3 -0.01875,0.3h0.01875c0.21625,-0.68375 0.7875,-1.2275 1.51875,-1.2275c0.1025,0 0.21625,0.01875 0.21625,0.01875v1.17125c0,0 -0.1225,-0.01875 -0.2925,-0.01875c-0.505,0 -1.08625,0.29125 -1.30125,1.0025c-0.07006,0.25361 -0.10496,0.51564 -0.10375,0.77875v1.89375h-1.18z" fill="#ffffff"/><path d="M314.1375,81.31415c0.63875,0 1.0875,-0.675 1.0875,-1.25625v-0.1125h-0.20625c-0.61875,0 -1.6025,0.085 -1.6025,0.75c0,0.31875 0.23375,0.61875 0.72125,0.61875M315.05625,79.1304h0.14875v-0.0375c0,-0.685 -0.27,-0.9375 -0.88,-0.9375c-0.215,0 -0.63625,0.05625 -0.63625,0.31875v0.2525h-1.10625v-0.50625c0,-0.89 1.25625,-0.98375 1.75125,-0.98375c1.595,0 2.06375,0.83375 2.06375,1.9025v1.78125c0,0.13125 0.07375,0.20625 0.205,0.20625h0.375v1.0025h-1.06875c-0.44,0 -0.6075,-0.24375 -0.6075,-0.525c0,-0.12125 0.00875,-0.20625 0.00875,-0.20625h-0.01875c0,0 -0.36625,0.84375 -1.44375,0.84375c-0.85375,0 -1.63,-0.535 -1.63,-1.49c0,-1.5 2.06,-1.62125 2.83875,-1.62125" fill="#ffffff"/><path d="M318.02875,75.47415h1.03125v1.09625h-1.03125zM317.9725,78.5679c0,-0.14 -0.07625,-0.20625 -0.20625,-0.20625h-0.375v-1.0125h1.13375c0.44125,0 0.6275,0.1975 0.6275,0.6375v2.93375c0,0.13125 0.07625,0.20625 0.20625,0.20625h0.375v1.00375h-1.13375c-0.44125,0 -0.6275,-0.18875 -0.6275,-0.63875z" fill="#ffffff"/><path d="M320.7375,78.5679c0,-0.14 -0.075,-0.20625 -0.20625,-0.20625h-0.375v-1.0125h1.09625c0.4225,0 0.62875,0.1975 0.62875,0.535v0.14c0,0.1025 -0.01875,0.20625 -0.01875,0.20625h0.01875c0.32476,-0.62789 0.98091,-1.01381 1.6875,-0.9925c1.05875,0 1.66875,0.5525 1.66875,1.8175v1.865c0,0.13125 0.07375,0.20625 0.205,0.20625h0.375v1.00375h-1.135c-0.44875,0 -0.6375,-0.18875 -0.6375,-0.63875v-2.1925c0,-0.58125 -0.14875,-0.975 -0.74875,-0.975c-0.6375,0 -1.115,0.4025 -1.28375,0.975c-0.0655,0.20604 -0.09716,0.42133 -0.09375,0.6375v2.19375h-1.18125z" fill="#ffffff"/><path d="M326.785,80.61165c0,0 0.60875,0.70375 1.425,0.70375c0.365,0 0.64625,-0.15125 0.64625,-0.46875c0,-0.67625 -2.52125,-0.66625 -2.52125,-2.2125c0,-0.95625 0.8625,-1.39625 1.85625,-1.39625c0.6475,0 1.6775,0.215 1.6775,0.9925v0.4975h-1.05v-0.235c0,-0.225 -0.3375,-0.3375 -0.60125,-0.3375c-0.42,0 -0.71125,0.15 -0.71125,0.43125c0,0.75 2.54,0.6 2.54,2.19375c0,0.89875 -0.79625,1.4625 -1.83625,1.4625c-1.3125,0 -1.9875,-0.85375 -1.9875,-0.85375z" fill="#ffffff"/></g><g stroke="none" stroke-width="1"><path d="M286.63375,41.2129c0.74947,-0.03812 1.49962,-0.06187 2.25,-0.07125v50.40625h-56.32875c0.18375,-1.50906 0.42727,-3.01024 0.73,-4.5c4.98125,-24.5625 25.65125,-43.425 51.09875,-45.67875c0.74891,-0.06679 1.49905,-0.11888 2.25,-0.15625" fill="#a9151a"/><path d="M284.3825,43.0979c0.74884,-0.06879 1.499,-0.12255 2.25,-0.16125v46.3625h-52.01625c0.12562,-0.75286 0.2669,-1.50302 0.42375,-2.25c4.9425,-23.61 24.8475,-41.71375 49.3425,-43.95125" fill="#f35b9d"/><path d="M237.9775,87.05165c4.87625,-22.02 23.50125,-38.865 46.40875,-41.07375v41.07375h-46.40875" fill="url(#color-9)"/><path d="M252.02875,70.5279h-0.61v-1.04h3.79625c0.45,0 0.6375,0.19625 0.6375,0.6375v1.01125h-1.10625v-0.4025c0,-0.13125 -0.075,-0.20625 -0.20625,-0.20625h-1.28375v1.88375h2.1275v1.04125h-2.1275v2.68875h-1.2275z" fill="#ffffff"/><path d="M256.80875,72.58165c0,-0.14125 -0.075,-0.20625 -0.20625,-0.20625h-0.375v-1.0125h1.0875c0.42125,0 0.6375,0.1775 0.6375,0.58125v0.28125c0,0.1775 -0.01875,0.3 -0.01875,0.3h0.01875c0.215,-0.685 0.7875,-1.2275 1.51875,-1.2275c0.1025,0 0.215,0.0175 0.215,0.0175v1.1725c0,0 -0.12125,-0.01875 -0.29125,-0.01875c-0.505,0 -1.08625,0.29 -1.3025,1.0025c-0.06952,0.25327 -0.10401,0.51487 -0.1025,0.7775v1.89375h-1.18125z" fill="#ffffff"/><path d="M260.70875,72.58165c0,-0.14125 -0.075,-0.20625 -0.20625,-0.20625h-0.375v-1.0125h1.13375c0.44125,0 0.62875,0.1975 0.62875,0.6275v2.2025c0,0.58125 0.14875,0.975 0.74,0.975c0.8625,0 1.34,-0.75875 1.34,-1.6125v-2.1925h1.19125v3.57125c0,0.13 0.075,0.20625 0.20625,0.20625h0.37375v1.0025h-1.09625c-0.4125,0 -0.6275,-0.1975 -0.6275,-0.535v-0.13125c0,-0.11125 0.00875,-0.215 0.00875,-0.215h-0.0175c-0.22625,0.4975 -0.82625,0.99375 -1.65,0.99375c-1.0225,0 -1.65,-0.51625 -1.65,-1.81875z" fill="#ffffff"/><path d="M266.8025,69.4879h1.03125v1.09625h-1.03125zM266.74625,72.58165c0,-0.14125 -0.075,-0.20625 -0.20625,-0.20625h-0.37375v-1.0125h1.13375c0.44,0 0.6275,0.1975 0.6275,0.6375v2.93375c0,0.13 0.075,0.20625 0.20625,0.20625h0.375v1.0025h-1.135c-0.44,0 -0.6275,-0.1875 -0.6275,-0.6375z" fill="#ffffff"/><path d="M269.53,72.30915h-0.61875v-0.94625h0.64625v-1.30375h1.16375v1.30375h1.08625v0.94625h-1.08625v1.93125c0,0.7875 0.6175,0.9 0.945,0.9c0.13125,0 0.21625,-0.01875 0.21625,-0.01875v1.04c0,0 -0.15,0.0275 -0.36625,0.0275c-0.665,0 -1.98625,-0.19625 -1.98625,-1.79875z" fill="#ffffff"/><path d="M272.99875,74.62415c0,0 0.60875,0.7025 1.425,0.7025c0.36625,0 0.64625,-0.15 0.64625,-0.46875c0,-0.675 -2.52125,-0.665 -2.52125,-2.2125c0,-0.955 0.8625,-1.39625 1.85625,-1.39625c0.64625,0 1.6775,0.21625 1.6775,0.99375v0.4975h-1.05v-0.235c0,-0.225 -0.3375,-0.33625 -0.6,-0.33625c-0.42125,0 -0.7125,0.14875 -0.7125,0.43c0,0.75 2.54,0.6 2.54,2.19375c0,0.9 -0.79625,1.4625 -1.83625,1.4625c-1.3125,0 -1.9875,-0.8525 -1.9875,-0.8525z" fill="#ffffff"/></g><g stroke="none" stroke-width="1"><g><path d="M389.57,61.0354c0,11.7 -9.485,21.18875 -21.18375,21.18875c-11.70125,0 -21.1875,-9.48875 -21.1875,-21.18875c0,-11.7 9.48625,-21.18375 21.1875,-21.18375c11.69875,0 21.18375,9.48375 21.18375,21.18375" fill="#3e6ba7"/><path d="M387.73875,61.0354c0,10.69 -8.66375,19.355 -19.3525,19.355c-10.68875,0 -19.355,-8.665 -19.355,-19.355c0,-10.69 8.66625,-19.3525 19.355,-19.3525c10.68875,0 19.3525,8.66375 19.3525,19.3525" fill="#82bae7"/></g><path d="M351.4,61.0354c0,-9.38125 7.60375,-16.98375 16.98625,-16.98375c9.3775,0 16.9825,7.6025 16.9825,16.98375c0,9.38 -7.605,16.9875 -16.9825,16.9875c-9.3825,0 -16.98625,-7.6075 -16.98625,-16.9875" fill="url(#color-10)"/><path d="M358.49625,62.54915h0.6c1.33125,0 2.185,-0.79625 2.185,-2.29625c0,-1.48125 -0.8725,-2.2775 -2.185,-2.2775h-0.805v4.3675c0,0.13125 0.075,0.20625 0.205,0.20625M357.06375,57.9754h-0.61125v-1.04125h2.71c2.0525,0 3.3925,1.21875 3.3925,3.31875c0,2.1 -1.34,3.3375 -3.3925,3.3375h-1.4625c-0.45,0 -0.63625,-0.18875 -0.63625,-0.63875z" fill="#ffffff"/><path d="M365.115,62.77415c0.63875,0 1.0875,-0.675 1.0875,-1.25625v-0.1125h-0.20625c-0.6175,0 -1.60125,0.085 -1.60125,0.75c0,0.31875 0.2325,0.61875 0.72,0.61875M366.03375,60.5904h0.15v-0.0375c0,-0.685 -0.27125,-0.9375 -0.88125,-0.9375c-0.21375,0 -0.63625,0.05625 -0.63625,0.31875v0.2525h-1.10625v-0.50625c0,-0.89 1.25625,-0.98375 1.7525,-0.98375c1.59375,0 2.0625,0.83375 2.0625,1.9025v1.78125c0,0.13125 0.07375,0.20625 0.20625,0.20625h0.37375v1.0025h-1.0675c-0.44125,0 -0.61,-0.24375 -0.61,-0.525c0,-0.12125 0.01,-0.20625 0.01,-0.20625h-0.01875c0,0 -0.365,0.84375 -1.44375,0.84375c-0.8525,0 -1.63125,-0.535 -1.63125,-1.49c0,-1.5 2.0625,-1.62125 2.84,-1.62125" fill="#ffffff"/><path d="M369.00625,56.93415h1.03125v1.0975h-1.03125zM368.95,60.0279c0,-0.14 -0.075,-0.20625 -0.20625,-0.20625h-0.375v-1.0125h1.13375c0.44125,0 0.6275,0.1975 0.6275,0.6375v2.93375c0,0.13125 0.07625,0.20625 0.20625,0.20625h0.375v1.00375h-1.13375c-0.44,0 -0.6275,-0.18875 -0.6275,-0.63875z" fill="#ffffff"/><path d="M371.715,60.0279c0,-0.14 -0.075,-0.20625 -0.20625,-0.20625h-0.375v-1.0125h1.0875c0.4225,0 0.6375,0.17875 0.6375,0.58125v0.28125c0,0.1775 -0.01875,0.3 -0.01875,0.3h0.01875c0.215,-0.68375 0.7875,-1.2275 1.51875,-1.2275c0.1025,0 0.21625,0.01875 0.21625,0.01875v1.17125c0,0 -0.1225,-0.01875 -0.2925,-0.01875c-0.505,0 -1.08625,0.29125 -1.30125,1.0025c-0.07006,0.25361 -0.10496,0.51564 -0.10375,0.77875v1.89375h-1.18125z" fill="#ffffff"/><path d="M376.07375,64.5554c0.32875,0 0.61875,-0.1975 0.7875,-0.60875l0.16,-0.36625l-1.595,-3.59c-0.05625,-0.14 -0.12125,-0.16875 -0.2525,-0.16875h-0.14v-1.01125h0.7875c0.33625,0 0.50625,0.12125 0.62875,0.45l0.93625,2.38875c0.09375,0.245 0.17,0.63875 0.17,0.63875h0.0175c0,0 0.075,-0.39375 0.15875,-0.63875l0.815,-2.38875c0.11375,-0.32875 0.31,-0.45 0.6375,-0.45h0.8075v1.01125h-0.1425c-0.14,0 -0.21375,0.02875 -0.27,0.16875l-1.71625,4.32125c-0.3375,0.8625 -1.01125,1.24625 -1.72375,1.24625c-0.75,0 -1.20875,-0.48625 -1.20875,-0.48625l0.45875,-0.84375c0,0 0.29125,0.3275 0.68375,0.3275" fill="#ffffff"/></g><g stroke="none" stroke-width="1"><path d="M288.8825,94.3004v61.57625c-1.50246,-0.01868 -3.00361,-0.09623 -4.5,-0.2325c-29.18875,-2.585 -52.0975,-27.0175 -52.24625,-56.84375c-0.00083,-0.0975 -0.00209,-0.19458 -0.00375,-0.29125c0.00113,-0.65309 0.01363,-1.3061 0.0375,-1.95875c0.02414,-0.75071 0.06331,-1.50086 0.1175,-2.25z" fill="#168235"/><path d="M286.63375,96.55165v57.53c-0.75097,-0.03976 -1.50111,-0.09394 -2.25,-0.1625c-28.2375,-2.58 -50.3775,-26.2425 -50.525,-55.1175c-0.00167,-0.09667 -0.00292,-0.19375 -0.00375,-0.29125c0.0006,-0.65309 0.0131,-1.30612 0.0375,-1.95875z" fill="#b3db18"/><path d="M284.38625,98.8029v52.2375c-26.65125,-2.57 -47.50875,-24.9475 -47.6575,-52.2375z" fill="url(#color-11)"/><path d="M239.33,110.2229c-0.05625,-0.16 -0.13125,-0.20625 -0.29,-0.20625h-0.16875v-1.04125h0.7775c0.46875,0 0.6375,0.1225 0.7875,0.54375l1.27375,3.7125c0.1325,0.375 0.2525,0.975 0.2525,0.975h0.02c0,0 0.12125,-0.6 0.2525,-0.975l1.275,-3.7125c0.15,-0.42125 0.31,-0.54375 0.77875,-0.54375h0.7875v1.04125h-0.17875c-0.16,0 -0.235,0.04625 -0.29,0.20625l-1.9875,5.4075h-1.29375z" fill="#ffffff"/><path d="M248.1225,112.62165c-0.01875,-0.57125 -0.4125,-0.965 -0.9,-0.965c-0.60875,0 -1.04,0.36625 -1.17125,0.965zM247.2225,110.7379c1.36875,0 2.11875,1.0025 2.11875,2.26875c0,0.14 -0.02875,0.44 -0.02875,0.44h-3.29875c0.09375,0.84375 0.7125,1.285 1.43375,1.285c0.76875,0 1.34125,-0.535 1.34125,-0.535l0.49625,0.825c0,0 -0.73125,0.72125 -1.92125,0.72125c-1.585,0 -2.56875,-1.14375 -2.56875,-2.5025c0,-1.47125 0.99375,-2.5025 2.4275,-2.5025" fill="#ffffff"/><path d="M253.345,113.1279c0,-1.0875 -0.54375,-1.37875 -1.19,-1.37875c-0.72125,0 -1.11625,0.525 -1.11625,1.33125c0,0.835 0.4225,1.45375 1.19,1.45375c0.5725,0 1.11625,-0.32875 1.11625,-1.40625M251.94875,110.7379c1.10625,0 1.47125,0.675 1.47125,0.675h0.01875v-0.1225c0,-0.215 0.15,-0.44 0.525,-0.44h1.10625v1.0125h-0.36625c-0.12125,0 -0.20625,0.065 -0.20625,0.1875v3.29c0,1.64 -1.275,2.2575 -2.52125,2.2575c-0.6,0 -1.23625,-0.16875 -1.69625,-0.41125l0.36625,-0.9375c0,0 0.58875,0.31875 1.32,0.31875c0.7225,0 1.35125,-0.31 1.35125,-1.1725v-0.22375c0,-0.1125 0.00875,-0.25375 0.00875,-0.25375h-0.01875c-0.28125,0.40375 -0.69375,0.61875 -1.33125,0.61875c-1.3675,0 -2.14625,-1.10625 -2.14625,-2.41875c0,-1.3125 0.74,-2.38 2.11875,-2.38" fill="#ffffff"/><path d="M258.7075,112.62165c-0.01875,-0.57125 -0.4125,-0.965 -0.9,-0.965c-0.61,0 -1.04,0.36625 -1.17125,0.965zM257.8075,110.7379c1.36875,0 2.11875,1.0025 2.11875,2.26875c0,0.14 -0.02875,0.44 -0.02875,0.44h-3.3c0.095,0.84375 0.71375,1.285 1.435,1.285c0.76875,0 1.34,-0.535 1.34,-0.535l0.4975,0.825c0,0 -0.73125,0.72125 -1.92125,0.72125c-1.585,0 -2.56875,-1.14375 -2.56875,-2.5025c0,-1.47125 0.99375,-2.5025 2.4275,-2.5025" fill="#ffffff"/><path d="M260.91125,111.79665h-0.61875v-0.94625h0.64625v-1.3025h1.1625v1.3025h1.0875v0.94625h-1.0875v1.93c0,0.7875 0.61875,0.90125 0.9475,0.90125c0.07208,-0.00004 0.14401,-0.00631 0.215,-0.01875v1.04c0,0 -0.15,0.0275 -0.365,0.0275c-0.665,0 -1.9875,-0.19625 -1.9875,-1.79875z" fill="#ffffff"/><path d="M265.59875,114.8154c0.6375,0 1.0875,-0.675 1.0875,-1.25625v-0.1125h-0.20625c-0.61875,0 -1.6025,0.085 -1.6025,0.75c0,0.31875 0.23375,0.61875 0.72125,0.61875M266.51625,112.63165h0.15v-0.0375c0,-0.68375 -0.27125,-0.9375 -0.88125,-0.9375c-0.21375,0 -0.63625,0.05625 -0.63625,0.31875v0.25375h-1.10625v-0.5075c0,-0.89 1.25625,-0.98375 1.7525,-0.98375c1.59375,0 2.0625,0.835 2.0625,1.90375v1.78c0,0.13125 0.075,0.20625 0.20625,0.20625h0.37375v1.0025h-1.0675c-0.44125,0 -0.60875,-0.24375 -0.60875,-0.525c0,-0.12125 0.01,-0.20625 0.01,-0.20625h-0.02c0,0 -0.365,0.84375 -1.4425,0.84375c-0.85375,0 -1.63125,-0.53375 -1.63125,-1.49c0,-1.49875 2.06125,-1.62125 2.83875,-1.62125" fill="#ffffff"/><path d="M271.5125,114.7404c0.6475,0 1.2,-0.53375 1.2,-1.48125c0,-0.90875 -0.4875,-1.49875 -1.19,-1.49875c-0.61875,0 -1.2,0.45 -1.2,1.50875c0,0.74125 0.39375,1.47125 1.19,1.47125M269.16875,110.1954c0,-0.14125 -0.07375,-0.20625 -0.20625,-0.20625h-0.37375v-1.0125h1.13375c0.44,0 0.6375,0.19625 0.6375,0.6375v1.38625c0.00101,0.13483 -0.00525,0.2696 -0.01875,0.40375h0.01875c0,0 0.4225,-0.66625 1.43375,-0.66625c1.29375,0 2.1175,1.0225 2.1175,2.5025c0,1.51875 -0.9275,2.5025 -2.1925,2.5025c-0.99375,0 -1.425,-0.675 -1.425,-0.675h-0.01875c0,0 0.01875,0.1325 0.01875,0.31875v0.24375h-1.125z" fill="#ffffff"/><path d="M274.71,110.1954c0,-0.14125 -0.075,-0.20625 -0.20625,-0.20625h-0.375v-1.0125h1.13375c0.44125,0 0.6375,0.1975 0.6375,0.6375v4.8075c0,0.13125 0.07625,0.20625 0.20625,0.20625h0.36625v1.00375h-1.125c-0.45,0 -0.6375,-0.1875 -0.6375,-0.6375z" fill="#ffffff"/><path d="M280.12875,112.62165c-0.01875,-0.57125 -0.4125,-0.965 -0.9,-0.965c-0.61,0 -1.04,0.36625 -1.17125,0.965zM279.22875,110.7379c1.36875,0 2.11875,1.0025 2.11875,2.26875c0,0.14 -0.02875,0.44 -0.02875,0.44h-3.29875c0.09375,0.84375 0.71125,1.285 1.43375,1.285c0.76875,0 1.34,-0.535 1.34,-0.535l0.49625,0.825c0,0 -0.73,0.72125 -1.92,0.72125c-1.585,0 -2.56875,-1.14375 -2.56875,-2.5025c0,-1.47125 0.99375,-2.5025 2.4275,-2.5025" fill="#ffffff"/><path d="M282.3325,114.1129c0,0 0.61,0.70375 1.425,0.70375c0.365,0 0.64625,-0.15125 0.64625,-0.46875c0,-0.67625 -2.52125,-0.66625 -2.52125,-2.2125c0,-0.95625 0.8625,-1.39625 1.85625,-1.39625c0.64625,0 1.6775,0.215 1.6775,0.99375v0.49625h-1.05v-0.23375c0,-0.225 -0.3375,-0.3375 -0.6,-0.3375c-0.42125,0 -0.71125,0.14875 -0.71125,0.43125c0,0.74875 2.53875,0.59875 2.53875,2.1925c0,0.9 -0.79625,1.4625 -1.83625,1.4625c-1.3125,0 -1.9875,-0.8525 -1.9875,-0.8525z" fill="#ffffff"/></g><path d="M182.75814,91.50397c-0.67473,1.95533 1.89149,5.41815 3.44499,8.10889c1.5885,2.75136 23.78969,37.04295 24.08976,37.66068c1.86455,3.6035 1.08396,5.60147 -0.60653,6.77146l0.002,0.00347l-0.01399,0.00577l-0.01112,0.00873l-0.002,-0.00347c-1.85762,0.87851 -3.97821,0.55554 -6.16752,-2.86046c-0.38494,-0.56873 -18.9826,-36.94082 -20.5711,-39.69218c-1.5535,-2.69074 -3.26755,-6.64556 -5.29915,-7.03839c0,0 -5.09649,-1.30338 -7.19745,-4.82235c-2.1011,-3.52121 -10.56321,-22.18801 -10.56321,-22.18801l0.0026,-0.0015c-0.12851,-0.25259 -0.07537,-0.54654 0.13248,-0.66654c0.20698,-0.1195 0.48899,-0.01904 0.64348,0.21854l10.59447,17.84215c0.167,0.28925 0.50675,0.40372 0.76236,0.25844l0.32217,-0.186c0.25447,-0.14923 0.32609,-0.50119 0.15909,-0.79044l-10.13849,-18.06038l-0.007,-0.01212l-0.01163,-0.02215l0.00087,-0.0005c-0.1322,-0.24698 -0.04848,-0.55398 0.1905,-0.70004c0.24599,-0.13394 0.55457,-0.05344 0.70324,0.18404l10.58928,17.84515c0.167,0.28925 0.50848,0.40272 0.76409,0.25745l0.32216,-0.186c0.25447,-0.14923 0.32523,-0.50069 0.15823,-0.78994l-10.15626,-18.09516l0.00086,-0.0005c-0.1317,-0.24612 -0.04798,-0.55311 0.18964,-0.69954c0.24562,-0.13257 0.55334,-0.05158 0.70064,0.18554l10.59274,17.84315c0.167,0.28925 0.50848,0.40272 0.76409,0.25744l0.32129,-0.1855c0.25447,-0.14923 0.32696,-0.50169 0.15996,-0.79094l-10.13796,-18.05145c-0.15,-0.25981 -0.09533,-0.57312 0.12291,-0.69912c0.2165,-0.125 0.51604,-0.01619 0.66604,0.24362c0.0015,0.0026 11.96132,16.7216 13.90682,20.20331c1.99791,3.57847 0.57668,8.64485 0.57668,8.64485" fill="#ffffff" stroke="none" stroke-width="1"/><path d="M159.67767,111.76561c0.39333,2.03073 4.34801,3.74701 7.03789,5.30001c2.75136,1.5885 39.12395,20.18531 39.69268,20.57024c3.41736,2.18894 3.74034,4.30954 2.86047,6.16752l0.00347,0.002l-0.00836,0.01249l-0.00614,0.01263l-0.00347,-0.002c-1.16862,1.69012 -3.1666,2.47071 -6.77147,0.60652c-0.61773,-0.30006 -34.90982,-22.50039 -37.66118,-24.0889c-2.68988,-1.553 -6.15255,-4.12145 -8.10838,-3.44585c0,0 -5.06451,1.41999 -8.64435,-0.57755c-3.58021,-1.99891 -20.24115,-13.93329 -20.24115,-13.93329l0.0015,-0.0026c-0.23845,-0.15499 -0.3394,-0.43613 -0.2194,-0.64397c0.1195,-0.20698 0.41395,-0.26099 0.6674,-0.13198l18.09529,10.15403c0.28925,0.167 0.64072,0.09625 0.78945,-0.15736l0.186,-0.32216c0.14577,-0.25647 0.0318,-0.59709 -0.25745,-0.76409l-17.81038,-10.57151l-0.01126,-0.0065l-0.02115,-0.01336l0.0005,-0.00087c-0.23798,-0.1478 -0.31984,-0.45602 -0.1859,-0.702c0.14606,-0.23899 0.45355,-0.32358 0.7019,-0.19174l18.09229,10.15923c0.28925,0.167 0.64171,0.09452 0.79044,-0.15909l0.186,-0.32216c0.14577,-0.25647 0.0313,-0.59623 -0.25795,-0.76323l-17.84229,-10.59224l0.0005,-0.00087c-0.23798,-0.1478 -0.31897,-0.45552 -0.1864,-0.70114c0.14643,-0.23762 0.45342,-0.32134 0.7004,-0.18913l18.09429,10.15576c0.28925,0.167 0.64171,0.09452 0.79044,-0.15909l0.1855,-0.32129c0.14577,-0.25647 0.0323,-0.59796 -0.25695,-0.76496l-17.80545,-10.56404c-0.25981,-0.15 -0.36911,-0.44866 -0.24311,-0.6669c0.125,-0.21651 0.4388,-0.27205 0.69861,-0.12205c0.00347,0.002 18.71961,8.50069 22.14532,10.54318c3.52034,2.10059 4.82184,7.19832 4.82184,7.19832" fill="#ffffff" stroke="none" stroke-width="1"/><path d="M212.64,85.08581c-1.562,1.356 -1.071,5.638 -1.071,8.745c0,3.177 2.081,43.975 2.032,44.66c-0.187,4.053 -1.862,5.393 -3.911,5.561v0.004l-0.015,-0.002l-0.014,0.002v-0.004c-2.048,-0.168 -3.723,-1.508 -3.911,-5.561c-0.049,-0.685 2.031,-41.483 2.031,-44.66c0,-3.107 0.493,-7.389 -1.07,-8.745c0,0 -3.762,-3.677 -3.822,-7.775c-0.059,-4.1 1.946,-24.497 1.946,-24.497h0.003c0.015,-0.283 0.208,-0.511 0.448,-0.511c0.239,0 0.433,0.228 0.448,0.511l0.254,20.749c0,0.334 0.237,0.603 0.531,0.605h0.372c0.295,-0.002 0.533,-0.271 0.533,-0.605l0.25,-20.71v-0.014l0.001,-0.025h0.001c0.009,-0.28 0.235,-0.504 0.515,-0.511c0.28,0.007 0.507,0.231 0.517,0.511l0.248,20.749c0,0.334 0.239,0.603 0.533,0.605h0.372c0.295,-0.002 0.532,-0.271 0.532,-0.605l0.252,-20.749h0.001c0.009,-0.279 0.235,-0.503 0.514,-0.511c0.279,0.008 0.505,0.232 0.514,0.511l0.252,20.749c0,0.334 0.239,0.603 0.533,0.605h0.371c0.295,-0.002 0.534,-0.271 0.534,-0.605l0.246,-20.702c0,-0.3 0.204,-0.544 0.456,-0.544c0.25,0 0.455,0.244 0.455,0.544c0,0.003 1.998,20.462 1.942,24.45c-0.059,4.098 -3.823,7.775 -3.823,7.775" fill="#ffffff" stroke="none" stroke-width="1"/><path d="M230.861,48.34485c0,11.7 -9.485,21.189 -21.184,21.189c-11.701,0 -21.187,-9.489 -21.187,-21.189c0,-11.7 9.486,-21.184 21.187,-21.184c11.699,0 21.184,9.484 21.184,21.184" fill="#b57be9" stroke="none" stroke-width="1"/><path d="M229.03,48.34485c0,10.69 -8.664,19.355 -19.353,19.355c-10.688,0 -19.355,-8.665 -19.355,-19.355c0,-10.69 8.667,-19.352 19.355,-19.352c10.689,0 19.353,8.663 19.353,19.352" fill="#e3adff" stroke="none" stroke-width="1"/><path d="M192.691,48.34485c0,-9.381 7.604,-16.984 16.986,-16.984c9.378,0 16.983,7.603 16.983,16.984c0,9.38 -7.605,16.988 -16.983,16.988c-9.382,0 -16.986,-7.608 -16.986,-16.988" fill="url(#color-12)" stroke="none" stroke-width="1"/><path d="M196.77984,45.27999h2.02115c1.8876,0 3.00947,1.10407 3.00947,2.97386c0,1.98554 -1.27324,3.20535 -3.14303,3.20535h-1.8876zM198.75647,50.81813c1.46912,0 2.29717,-0.89038 2.29717,-2.44853c0,-1.56706 -0.83695,-2.44853 -2.34169,-2.44853h-1.1931v4.89707zM203.02932,47.1676h0.7123v4.29161h-0.7123zM202.88686,45.65395c0,-0.32054 0.18698,-0.50751 0.50751,-0.50751c0.32054,0 0.50751,0.18698 0.50751,0.50751c0,0.32054 -0.18698,0.50751 -0.50751,0.50751c-0.32054,0 -0.50751,-0.18698 -0.50751,-0.50751zM208.14835,48.78807c0,-0.69449 -0.38286,-1.08626 -1.07736,-1.08626c-0.41848,0 -0.81024,0.14246 -1.13968,0.40067v3.35672h-0.7123v-4.29161h0.49861l0.16027,0.38286c0.40957,-0.30273 0.89928,-0.4719 1.38899,-0.4719c0.96161,0 1.59377,0.61436 1.59377,1.56706v2.81359h-0.7123zM213.19678,48.78807c0,-0.69449 -0.38286,-1.08626 -1.07736,-1.08626c-0.41848,0 -0.81024,0.14246 -1.13968,0.40067v3.35672h-0.7123v-4.29161h0.49861l0.16027,0.38286c0.40957,-0.30273 0.89928,-0.4719 1.38899,-0.4719c0.96161,0 1.59377,0.61436 1.59377,1.56706v2.81359h-0.7123zM215.03891,49.33121c0,-1.31776 0.81024,-2.25265 2.00335,-2.25265c1.05955,0 1.77185,0.73901 1.77185,1.81637c0,0.16917 -0.01781,0.4808 -0.03562,0.61436h-2.99166c0.10685,0.91709 0.67669,1.46022 1.58487,1.46022c0.37396,0 0.79243,-0.09794 1.12187,-0.25821l0.16027,0.51642c-0.38286,0.20479 -0.91709,0.32054 -1.40679,0.32054c-1.36228,0 -2.20813,-0.84586 -2.20813,-2.21704zM218.14632,48.97507c0,-0.81915 -0.42738,-1.29105 -1.15749,-1.29105c-0.7212,0 -1.14859,0.45409 -1.21091,1.29105zM220.01579,47.1676h0.58765l0.08013,0.62326c0.32054,-0.41848 0.80134,-0.66778 1.31776,-0.66778c0.19588,0 0.38286,0.03562 0.56984,0.09794l-0.17808,0.65888c-0.14246,-0.05342 -0.30273,-0.08013 -0.4719,-0.08013c-0.4808,0 -0.91709,0.22259 -1.1931,0.59655v3.06289h-0.7123z" fill="#ffffff" stroke="#000000" stroke-width="0.5"/><path d="M196.77984,45.27999h2.02115c1.8876,0 3.00947,1.10407 3.00947,2.97386c0,1.98554 -1.27324,3.20535 -3.14303,3.20535h-1.8876zM198.75647,50.81813c1.46912,0 2.29717,-0.89038 2.29717,-2.44853c0,-1.56706 -0.83695,-2.44853 -2.34169,-2.44853h-1.1931v4.89707zM203.02932,47.1676h0.7123v4.29161h-0.7123zM202.88686,45.65395c0,-0.32054 0.18698,-0.50751 0.50751,-0.50751c0.32054,0 0.50751,0.18698 0.50751,0.50751c0,0.32054 -0.18698,0.50751 -0.50751,0.50751c-0.32054,0 -0.50751,-0.18698 -0.50751,-0.50751zM208.14835,48.78807c0,-0.69449 -0.38286,-1.08626 -1.07736,-1.08626c-0.41848,0 -0.81024,0.14246 -1.13968,0.40067v3.35672h-0.7123v-4.29161h0.49861l0.16027,0.38286c0.40957,-0.30273 0.89928,-0.4719 1.38899,-0.4719c0.96161,0 1.59377,0.61436 1.59377,1.56706v2.81359h-0.7123zM213.19678,48.78807c0,-0.69449 -0.38286,-1.08626 -1.07736,-1.08626c-0.41848,0 -0.81024,0.14246 -1.13968,0.40067v3.35672h-0.7123v-4.29161h0.49861l0.16027,0.38286c0.40957,-0.30273 0.89928,-0.4719 1.38899,-0.4719c0.96161,0 1.59377,0.61436 1.59377,1.56706v2.81359h-0.7123zM215.03891,49.33121c0,-1.31776 0.81024,-2.25265 2.00335,-2.25265c1.05955,0 1.77185,0.73901 1.77185,1.81637c0,0.16917 -0.01781,0.4808 -0.03562,0.61436h-2.99166c0.10685,0.91709 0.67669,1.46022 1.58487,1.46022c0.37396,0 0.79243,-0.09794 1.12187,-0.25821l0.16027,0.51642c-0.38286,0.20479 -0.91709,0.32054 -1.40679,0.32054c-1.36228,0 -2.20813,-0.84586 -2.20813,-2.21704zM218.14632,48.97507c0,-0.81915 -0.42738,-1.29105 -1.15749,-1.29105c-0.7212,0 -1.14859,0.45409 -1.21091,1.29105zM220.01579,47.1676h0.58765l0.08013,0.62326c0.32054,-0.41848 0.80134,-0.66778 1.31776,-0.66778c0.19588,0 0.38286,0.03562 0.56984,0.09794l-0.17808,0.65888c-0.14246,-0.05342 -0.30273,-0.08013 -0.4719,-0.08013c-0.4808,0 -0.91709,0.22259 -1.1931,0.59655v3.06289h-0.7123z" fill="#ffffff" stroke="none" stroke-width="1"/><g stroke="none" stroke-width="1"><path d="M183.007,61.16784c0,11.7 -9.485,21.188 -21.183,21.188c-11.702,0 -21.188,-9.488 -21.188,-21.188c0,-11.7 9.486,-21.184 21.188,-21.184c11.698,0 21.183,9.484 21.183,21.184" fill="#d3f08f"/><path d="M181.175,61.16784c0,10.69 -8.663,19.355 -19.352,19.355c-10.689,0 -19.355,-8.665 -19.355,-19.355c0,-10.69 8.666,-19.353 19.355,-19.353c10.689,0 19.352,8.664 19.352,19.353" fill="#f9ffc6"/><path d="M144.837,61.16784c0,-9.381 7.604,-16.984 16.986,-16.984c9.378,0 16.983,7.603 16.983,16.984c0,9.38 -7.605,16.987 -16.983,16.987c-9.382,0 -16.986,-7.607 -16.986,-16.987" fill="url(#color-13)"/></g><path d="M150.70198,58.23606h0.73901v5.52033h2.76907v0.65888h-3.50808zM155.05464,62.93722v-2.81359h0.7123v2.67113c0,0.69449 0.38286,1.08626 1.05064,1.08626c0.38286,0 0.77463,-0.14246 1.08626,-0.39177v-3.36562h0.7123v4.29161h-0.49861l-0.16027,-0.37396c-0.40067,0.29382 -0.88147,0.463 -1.35337,0.463c-0.91709,0 -1.54925,-0.61436 -1.54925,-1.56706zM163.02288,61.74413c0,-0.69449 -0.38286,-1.08626 -1.07736,-1.08626c-0.41848,0 -0.81024,0.14246 -1.13968,0.40067v3.35672h-0.7123v-4.29161h0.49861l0.16027,0.38286c0.40957,-0.30273 0.89928,-0.4719 1.38899,-0.4719c0.96161,0 1.59377,0.61436 1.59377,1.56706v2.81359h-0.7123zM164.86627,62.39412c0,-1.4157 0.85476,-2.3595 2.128,-2.3595c0.42738,0 0.84586,0.09794 1.23762,0.28492l-0.16917,0.57874c-0.35615,-0.16027 -0.73901,-0.2404 -1.07736,-0.2404c-0.89038,0 -1.38899,0.56094 -1.38899,1.59377c0,1.04174 0.50751,1.665 1.39789,1.665c0.32944,0 0.7212,-0.09794 1.07736,-0.26711l0.16027,0.51642c-0.35615,0.21369 -0.89038,0.33834 -1.40679,0.33834c-1.22872,0 -1.95883,-0.78353 -1.95883,-2.11019zM172.22873,61.74413c0,-0.69449 -0.38286,-1.08626 -1.07736,-1.08626c-0.41848,0 -0.81024,0.14246 -1.13968,0.43628v3.3211h-0.7123v-6.57988h0.7123v2.65332c0.39177,-0.30273 0.86366,-0.45409 1.33556,-0.45409c0.96161,0 1.59377,0.61436 1.59377,1.56706v2.81359h-0.7123z" fill="#ffffff" stroke="#000000" stroke-width="0.5"/><path d="M150.70198,58.23607h0.73901v5.52033h2.76907v0.65888h-3.50808zM155.05464,62.93725v-2.81359h0.7123v2.67113c0,0.69449 0.38286,1.08626 1.05064,1.08626c0.38286,0 0.77463,-0.14246 1.08626,-0.39177v-3.36562h0.7123v4.29161h-0.49861l-0.16027,-0.37396c-0.40067,0.29382 -0.88147,0.463 -1.35337,0.463c-0.91709,0 -1.54925,-0.61436 -1.54925,-1.56706zM163.02288,61.74414c0,-0.69449 -0.38286,-1.08626 -1.07736,-1.08626c-0.41848,0 -0.81024,0.14246 -1.13968,0.40067v3.35672h-0.7123v-4.29161h0.49861l0.16027,0.38286c0.40957,-0.30273 0.89928,-0.4719 1.38899,-0.4719c0.96161,0 1.59377,0.61436 1.59377,1.56706v2.81359h-0.7123zM164.86627,62.39413c0,-1.4157 0.85476,-2.3595 2.128,-2.3595c0.42738,0 0.84586,0.09794 1.23762,0.28492l-0.16917,0.57874c-0.35615,-0.16027 -0.73901,-0.2404 -1.07736,-0.2404c-0.89038,0 -1.38899,0.56094 -1.38899,1.59377c0,1.04174 0.50751,1.665 1.39789,1.665c0.32944,0 0.7212,-0.09794 1.07736,-0.26711l0.16027,0.51642c-0.35615,0.21369 -0.89038,0.33834 -1.40679,0.33834c-1.22872,0 -1.95883,-0.78353 -1.95883,-2.11019zM172.22873,61.74414c0,-0.69449 -0.38286,-1.08626 -1.07736,-1.08626c-0.41848,0 -0.81024,0.14246 -1.13968,0.43628v3.3211h-0.7123v-6.57988h0.7123v2.65332c0.39177,-0.30273 0.86366,-0.45409 1.33556,-0.45409c0.96161,0 1.59377,0.61436 1.59377,1.56706v2.81359h-0.7123z" fill="#ffffff" stroke="none" stroke-width="1"/><g stroke="none" stroke-width="1"><path d="M147.976,96.19884c0,11.7 -9.485,21.189 -21.184,21.189c-11.701,0 -21.187,-9.489 -21.187,-21.189c0,-11.7 9.486,-21.184 21.187,-21.184c11.699,0 21.184,9.484 21.184,21.184" fill="#f0b878"/><path d="M146.143,96.19884c0,10.69 -8.664,19.355 -19.352,19.355c-10.689,0 -19.355,-8.665 -19.355,-19.355c0,-10.69 8.666,-19.352 19.355,-19.352c10.688,0 19.352,8.663 19.352,19.352" fill="#ffe5b3"/><path d="M109.805,96.19884c0,-9.381 7.604,-16.983 16.987,-16.983c9.377,0 16.982,7.602 16.982,16.983c0,9.38 -7.605,16.988 -16.982,16.988c-9.383,0 -16.987,-7.608 -16.987,-16.988" fill="url(#color-14)"/></g><path d="M108.51331,93.31203h1.87869c1.31776,0 2.07458,0.54313 2.07458,1.48693c0,0.54313 -0.26711,1.05064 -0.68559,1.29105c0.7123,0.2404 1.14859,0.82805 1.14859,1.60268c0,1.13078 -0.83695,1.79856 -2.26156,1.79856h-2.15471zM109.25232,98.8591h1.50474c0.98832,0 1.4157,-0.30273 1.4157,-1.01503c0,-0.76572 -0.50751,-1.26433 -1.29105,-1.26433h-1.62939zM111.70976,94.99486c0,-0.7034 -0.463,-1.05064 -1.40679,-1.05064h-1.05064v2.02115h1.70952c0.01781,0 0.04452,0 0.06233,0c0.48971,-0.24931 0.68559,-0.53423 0.68559,-0.97051zM114.04158,95.19965h0.58765l0.08013,0.62326c0.32054,-0.41848 0.80134,-0.66778 1.31776,-0.66778c0.19588,0 0.38286,0.03562 0.56984,0.09794l-0.17808,0.65888c-0.14246,-0.05342 -0.30273,-0.08013 -0.4719,-0.08013c-0.4808,0 -0.91709,0.22259 -1.1931,0.59655v3.06289h-0.7123zM117.12196,97.36325c0,-1.31776 0.81024,-2.25265 2.00335,-2.25265c1.05955,0 1.77185,0.73901 1.77185,1.81637c0,0.16917 -0.01781,0.4808 -0.03562,0.61436h-2.99166c0.10685,0.91709 0.67669,1.46022 1.58487,1.46022c0.37396,0 0.79243,-0.09794 1.12187,-0.25821l0.16027,0.51642c-0.38286,0.20479 -0.91709,0.32054 -1.40679,0.32054c-1.36228,0 -2.20813,-0.84586 -2.20813,-2.21704zM120.22939,97.00711c0,-0.81915 -0.42738,-1.29105 -1.15749,-1.29105c-0.7212,0 -1.14859,0.45409 -1.21091,1.29105zM124.58301,99.09059c-0.34725,0.31163 -0.81024,0.48971 -1.35337,0.48971c-0.88147,0 -1.45131,-0.48971 -1.45131,-1.25543c0,-0.91709 0.83695,-1.31776 2.76017,-1.33556v-0.28492c0,-0.63217 -0.39177,-0.9527 -1.15749,-0.9527c-0.41848,0 -0.86366,0.09794 -1.30885,0.29382l-0.17808,-0.52532c0.463,-0.25821 1.06845,-0.40957 1.62939,-0.40957c1.12187,0 1.72733,0.56984 1.72733,1.59377v2.78688h-0.49861zM124.53849,97.47901c-1.44241,0.0089 -2.04787,0.2315 -2.04787,0.76572c0,0.42738 0.37396,0.7123 0.9438,0.7123c0.44519,0 0.83695,-0.16027 1.10407,-0.42738zM127.36925,97.22079v2.27046h-0.7123v-6.57988h0.7123v4.27381l1.9054,-1.98554h0.84586l-1.86089,1.94102l2.05677,2.35059h-0.9438zM131.23283,95.79618h-0.64107v-0.59655h0.64107v-0.84586c0,-0.91709 0.60546,-1.53145 1.51364,-1.53145c0.30273,0 0.57874,0.08904 0.85476,0.22259l-0.15136,0.53423c-0.22259,-0.10685 -0.52532,-0.15136 -0.75682,-0.15136c-0.48971,0 -0.74792,0.28492 -0.74792,0.83695v0.93489h1.33556v0.59655h-1.33556v3.69506h-0.7123zM136.60149,99.09059c-0.34725,0.31163 -0.81024,0.48971 -1.35337,0.48971c-0.88147,0 -1.45131,-0.48971 -1.45131,-1.25543c0,-0.91709 0.83695,-1.31776 2.76017,-1.33556v-0.28492c0,-0.63217 -0.39177,-0.9527 -1.15749,-0.9527c-0.41848,0 -0.86366,0.09794 -1.30885,0.29382l-0.17808,-0.52532c0.463,-0.25821 1.06845,-0.40957 1.62939,-0.40957c1.12187,0 1.72733,0.56984 1.72733,1.59377v2.78688h-0.49861zM136.55697,97.47901c-1.44241,0.0089 -2.04787,0.2315 -2.04787,0.76572c0,0.42738 0.37396,0.7123 0.9438,0.7123c0.44519,0 0.83695,-0.16027 1.10407,-0.42738zM138.34599,99.23305l0.16917,-0.57874c0.45409,0.19588 1.05955,0.32054 1.51364,0.32054c0.58765,0 0.93489,-0.22259 0.93489,-0.61436c0,-1.05064 -2.55538,-0.40957 -2.55538,-1.94992c0,-0.81024 0.7123,-1.29995 1.82527,-1.29995c0.45409,0 0.89038,0.08013 1.25543,0.2315l-0.16917,0.57874c-0.36505,-0.12465 -0.79243,-0.20479 -1.15749,-0.20479c-0.64107,0 -1.04174,0.2404 -1.04174,0.61436c0,0.97051 2.56428,0.38286 2.56428,1.95883c0,0.79243 -0.64997,1.29105 -1.70952,1.29105c-0.54313,0 -1.13968,-0.12465 -1.62939,-0.34725zM142.97532,98.34268v-2.54648h-0.57874v-0.59655h0.57874v-1.25543h0.7123v1.25543h1.1753v0.59655h-1.1753v2.44853c0,0.42738 0.29382,0.7123 0.73901,0.7123c0.15136,0 0.34725,-0.03562 0.4808,-0.09794l0.16027,0.51642c-0.20479,0.08904 -0.49861,0.16027 -0.79243,0.16027c-0.78353,0 -1.29995,-0.4808 -1.29995,-1.1931z" fill="#ffffff" stroke="#000000" stroke-width="0.5"/><path d="M108.51331,93.31203h1.87869c1.31776,0 2.07458,0.54313 2.07458,1.48693c0,0.54313 -0.26711,1.05064 -0.68559,1.29105c0.7123,0.2404 1.14859,0.82805 1.14859,1.60268c0,1.13078 -0.83695,1.79856 -2.26156,1.79856h-2.15471zM109.25232,98.85911h1.50474c0.98832,0 1.4157,-0.30273 1.4157,-1.01503c0,-0.76572 -0.50751,-1.26433 -1.29105,-1.26433h-1.62939zM111.70976,94.99487c0,-0.7034 -0.463,-1.05064 -1.40679,-1.05064h-1.05064v2.02115h1.70952c0.01781,0 0.04452,0 0.06233,0c0.48971,-0.24931 0.68559,-0.53423 0.68559,-0.97051zM114.04158,95.19966h0.58765l0.08013,0.62326c0.32054,-0.41848 0.80134,-0.66778 1.31776,-0.66778c0.19588,0 0.38286,0.03562 0.56984,0.09794l-0.17808,0.65888c-0.14246,-0.05342 -0.30273,-0.08013 -0.4719,-0.08013c-0.4808,0 -0.91709,0.22259 -1.1931,0.59655v3.06289h-0.7123zM117.12196,97.36325c0,-1.31776 0.81024,-2.25265 2.00335,-2.25265c1.05955,0 1.77185,0.73901 1.77185,1.81637c0,0.16917 -0.01781,0.4808 -0.03562,0.61436h-2.99166c0.10685,0.91709 0.67669,1.46022 1.58487,1.46022c0.37396,0 0.79243,-0.09794 1.12187,-0.25821l0.16027,0.51642c-0.38286,0.20479 -0.91709,0.32054 -1.40679,0.32054c-1.36228,0 -2.20813,-0.84586 -2.20813,-2.21704zM120.22939,97.00712c0,-0.81915 -0.42738,-1.29105 -1.15749,-1.29105c-0.7212,0 -1.14859,0.45409 -1.21091,1.29105zM124.58301,99.0906c-0.34725,0.31163 -0.81024,0.48971 -1.35337,0.48971c-0.88147,0 -1.45131,-0.48971 -1.45131,-1.25543c0,-0.91709 0.83695,-1.31776 2.76017,-1.33556v-0.28492c0,-0.63217 -0.39177,-0.9527 -1.15749,-0.9527c-0.41848,0 -0.86366,0.09794 -1.30885,0.29382l-0.17808,-0.52532c0.463,-0.25821 1.06845,-0.40957 1.62939,-0.40957c1.12187,0 1.72733,0.56984 1.72733,1.59377v2.78688h-0.49861zM124.53849,97.47902c-1.44241,0.0089 -2.04787,0.2315 -2.04787,0.76572c0,0.42738 0.37396,0.7123 0.9438,0.7123c0.44519,0 0.83695,-0.16027 1.10407,-0.42738zM127.36925,97.22079v2.27046h-0.7123v-6.57988h0.7123v4.27381l1.9054,-1.98554h0.84586l-1.86089,1.94102l2.05677,2.35059h-0.9438zM131.23283,95.79618h-0.64107v-0.59655h0.64107v-0.84586c0,-0.91709 0.60546,-1.53145 1.51364,-1.53145c0.30273,0 0.57874,0.08904 0.85476,0.22259l-0.15136,0.53423c-0.22259,-0.10685 -0.52532,-0.15136 -0.75682,-0.15136c-0.48971,0 -0.74792,0.28492 -0.74792,0.83695v0.93489h1.33556v0.59655h-1.33556v3.69506h-0.7123zM136.60149,99.0906c-0.34725,0.31163 -0.81024,0.48971 -1.35337,0.48971c-0.88147,0 -1.45131,-0.48971 -1.45131,-1.25543c0,-0.91709 0.83695,-1.31776 2.76017,-1.33556v-0.28492c0,-0.63217 -0.39177,-0.9527 -1.15749,-0.9527c-0.41848,0 -0.86366,0.09794 -1.30885,0.29382l-0.17808,-0.52532c0.463,-0.25821 1.06845,-0.40957 1.62939,-0.40957c1.12187,0 1.72733,0.56984 1.72733,1.59377v2.78688h-0.49861zM136.55697,97.47902c-1.44241,0.0089 -2.04787,0.2315 -2.04787,0.76572c0,0.42738 0.37396,0.7123 0.9438,0.7123c0.44519,0 0.83695,-0.16027 1.10407,-0.42738zM138.34599,99.23306l0.16917,-0.57874c0.45409,0.19588 1.05955,0.32054 1.51364,0.32054c0.58765,0 0.93489,-0.22259 0.93489,-0.61436c0,-1.05064 -2.55538,-0.40957 -2.55538,-1.94992c0,-0.81024 0.7123,-1.29995 1.82527,-1.29995c0.45409,0 0.89038,0.08013 1.25543,0.2315l-0.16917,0.57874c-0.36505,-0.12465 -0.79243,-0.20479 -1.15749,-0.20479c-0.64107,0 -1.04174,0.2404 -1.04174,0.61436c0,0.97051 2.56428,0.38286 2.56428,1.95883c0,0.79243 -0.64997,1.29105 -1.70952,1.29105c-0.54313,0 -1.13968,-0.12465 -1.62939,-0.34725zM142.97532,98.34269v-2.54648h-0.57874v-0.59655h0.57874v-1.25543h0.7123v1.25543h1.1753v0.59655h-1.1753v2.44853c0,0.42738 0.29382,0.7123 0.73901,0.7123c0.15136,0 0.34725,-0.03562 0.4808,-0.09794l0.16027,0.51642c-0.20479,0.08904 -0.49861,0.16027 -0.79243,0.16027c-0.78353,0 -1.29995,-0.4808 -1.29995,-1.1931z" fill="#ffffff" stroke="none" stroke-width="1"/></g></g></svg>