<svg version="1.1" xmlns="http://www.w3.org/2000/svg" xmlns:xlink="http://www.w3.org/1999/xlink" width="56.75" height="61.57625" viewBox="0,0,56.75,61.57625"><defs><linearGradient x1="233.33607" y1="168.04624" x2="200.52318" y2="203.67129" gradientUnits="userSpaceOnUse" id="color-1"><stop offset="0" stop-color="#b3db18"/><stop offset="1" stop-color="#28ab43"/></linearGradient></defs><g transform="translate(-181.1495,-163.2226)"><g stroke="none" stroke-miterlimit="10"><g><path d="M237.8995,163.2226v61.57625c-1.50246,-0.01868 -3.00361,-0.09623 -4.5,-0.2325c-29.18875,-2.585 -52.0975,-27.0175 -52.24625,-56.84375c-0.00083,-0.0975 -0.00209,-0.19458 -0.00375,-0.29125c0.00113,-0.65309 0.01363,-1.3061 0.0375,-1.95875c0.02414,-0.75071 0.06331,-1.50086 0.1175,-2.25z" fill="#168235"/><path d="M235.65075,165.47385v57.53c-0.75097,-0.03976 -1.50111,-0.09394 -2.25,-0.1625c-28.2375,-2.58 -50.3775,-26.2425 -50.525,-55.1175c-0.00167,-0.09667 -0.00292,-0.19375 -0.00375,-0.29125c0.0006,-0.65309 0.0131,-1.30612 0.0375,-1.95875z" fill="#b3db18"/><path d="M233.40325,167.7251v52.2375c-26.65125,-2.57 -47.50875,-24.9475 -47.6575,-52.2375z" fill="url(#color-1)"/><path d="M188.347,179.1451c-0.05625,-0.16 -0.13125,-0.20625 -0.29,-0.20625h-0.16875v-1.04125h0.7775c0.46875,0 0.6375,0.1225 0.7875,0.54375l1.27375,3.7125c0.1325,0.375 0.2525,0.975 0.2525,0.975h0.02c0,0 0.12125,-0.6 0.2525,-0.975l1.275,-3.7125c0.15,-0.42125 0.31,-0.54375 0.77875,-0.54375h0.7875v1.04125h-0.17875c-0.16,0 -0.235,0.04625 -0.29,0.20625l-1.9875,5.4075h-1.29375z" fill="#ffffff"/><path d="M197.1395,181.54385c-0.01875,-0.57125 -0.4125,-0.965 -0.9,-0.965c-0.60875,0 -1.04,0.36625 -1.17125,0.965zM196.2395,179.6601c1.36875,0 2.11875,1.0025 2.11875,2.26875c0,0.14 -0.02875,0.44 -0.02875,0.44h-3.29875c0.09375,0.84375 0.7125,1.285 1.43375,1.285c0.76875,0 1.34125,-0.535 1.34125,-0.535l0.49625,0.825c0,0 -0.73125,0.72125 -1.92125,0.72125c-1.585,0 -2.56875,-1.14375 -2.56875,-2.5025c0,-1.47125 0.99375,-2.5025 2.4275,-2.5025" fill="#ffffff"/><path d="M202.362,182.0501c0,-1.0875 -0.54375,-1.37875 -1.19,-1.37875c-0.72125,0 -1.11625,0.525 -1.11625,1.33125c0,0.835 0.4225,1.45375 1.19,1.45375c0.5725,0 1.11625,-0.32875 1.11625,-1.40625M200.96575,179.6601c1.10625,0 1.47125,0.675 1.47125,0.675h0.01875v-0.1225c0,-0.215 0.15,-0.44 0.525,-0.44h1.10625v1.0125h-0.36625c-0.12125,0 -0.20625,0.065 -0.20625,0.1875v3.29c0,1.64 -1.275,2.2575 -2.52125,2.2575c-0.6,0 -1.23625,-0.16875 -1.69625,-0.41125l0.36625,-0.9375c0,0 0.58875,0.31875 1.32,0.31875c0.7225,0 1.35125,-0.31 1.35125,-1.1725v-0.22375c0,-0.1125 0.00875,-0.25375 0.00875,-0.25375h-0.01875c-0.28125,0.40375 -0.69375,0.61875 -1.33125,0.61875c-1.3675,0 -2.14625,-1.10625 -2.14625,-2.41875c0,-1.3125 0.74,-2.38 2.11875,-2.38" fill="#ffffff"/><path d="M207.7245,181.54385c-0.01875,-0.57125 -0.4125,-0.965 -0.9,-0.965c-0.61,0 -1.04,0.36625 -1.17125,0.965zM206.8245,179.6601c1.36875,0 2.11875,1.0025 2.11875,2.26875c0,0.14 -0.02875,0.44 -0.02875,0.44h-3.3c0.095,0.84375 0.71375,1.285 1.435,1.285c0.76875,0 1.34,-0.535 1.34,-0.535l0.4975,0.825c0,0 -0.73125,0.72125 -1.92125,0.72125c-1.585,0 -2.56875,-1.14375 -2.56875,-2.5025c0,-1.47125 0.99375,-2.5025 2.4275,-2.5025" fill="#ffffff"/><path d="M209.92825,180.71885h-0.61875v-0.94625h0.64625v-1.3025h1.1625v1.3025h1.0875v0.94625h-1.0875v1.93c0,0.7875 0.61875,0.90125 0.9475,0.90125c0.07208,-0.00004 0.14401,-0.00631 0.215,-0.01875v1.04c0,0 -0.15,0.0275 -0.365,0.0275c-0.665,0 -1.9875,-0.19625 -1.9875,-1.79875z" fill="#ffffff"/><path d="M214.61575,183.7376c0.6375,0 1.0875,-0.675 1.0875,-1.25625v-0.1125h-0.20625c-0.61875,0 -1.6025,0.085 -1.6025,0.75c0,0.31875 0.23375,0.61875 0.72125,0.61875M215.53325,181.55385h0.15v-0.0375c0,-0.68375 -0.27125,-0.9375 -0.88125,-0.9375c-0.21375,0 -0.63625,0.05625 -0.63625,0.31875v0.25375h-1.10625v-0.5075c0,-0.89 1.25625,-0.98375 1.7525,-0.98375c1.59375,0 2.0625,0.835 2.0625,1.90375v1.78c0,0.13125 0.075,0.20625 0.20625,0.20625h0.37375v1.0025h-1.0675c-0.44125,0 -0.60875,-0.24375 -0.60875,-0.525c0,-0.12125 0.01,-0.20625 0.01,-0.20625h-0.02c0,0 -0.365,0.84375 -1.4425,0.84375c-0.85375,0 -1.63125,-0.53375 -1.63125,-1.49c0,-1.49875 2.06125,-1.62125 2.83875,-1.62125" fill="#ffffff"/><path d="M220.5295,183.6626c0.6475,0 1.2,-0.53375 1.2,-1.48125c0,-0.90875 -0.4875,-1.49875 -1.19,-1.49875c-0.61875,0 -1.2,0.45 -1.2,1.50875c0,0.74125 0.39375,1.47125 1.19,1.47125M218.18575,179.1176c0,-0.14125 -0.07375,-0.20625 -0.20625,-0.20625h-0.37375v-1.0125h1.13375c0.44,0 0.6375,0.19625 0.6375,0.6375v1.38625c0.00101,0.13483 -0.00525,0.2696 -0.01875,0.40375h0.01875c0,0 0.4225,-0.66625 1.43375,-0.66625c1.29375,0 2.1175,1.0225 2.1175,2.5025c0,1.51875 -0.9275,2.5025 -2.1925,2.5025c-0.99375,0 -1.425,-0.675 -1.425,-0.675h-0.01875c0,0 0.01875,0.1325 0.01875,0.31875v0.24375h-1.125z" fill="#ffffff"/><path d="M223.727,179.1176c0,-0.14125 -0.075,-0.20625 -0.20625,-0.20625h-0.375v-1.0125h1.13375c0.44125,0 0.6375,0.1975 0.6375,0.6375v4.8075c0,0.13125 0.07625,0.20625 0.20625,0.20625h0.36625v1.00375h-1.125c-0.45,0 -0.6375,-0.1875 -0.6375,-0.6375z" fill="#ffffff"/><path d="M229.14575,181.54385c-0.01875,-0.57125 -0.4125,-0.965 -0.9,-0.965c-0.61,0 -1.04,0.36625 -1.17125,0.965zM228.24575,179.6601c1.36875,0 2.11875,1.0025 2.11875,2.26875c0,0.14 -0.02875,0.44 -0.02875,0.44h-3.29875c0.09375,0.84375 0.71125,1.285 1.43375,1.285c0.76875,0 1.34,-0.535 1.34,-0.535l0.49625,0.825c0,0 -0.73,0.72125 -1.92,0.72125c-1.585,0 -2.56875,-1.14375 -2.56875,-2.5025c0,-1.47125 0.99375,-2.5025 2.4275,-2.5025" fill="#ffffff"/><path d="M231.3495,183.0351c0,0 0.61,0.70375 1.425,0.70375c0.365,0 0.64625,-0.15125 0.64625,-0.46875c0,-0.67625 -2.52125,-0.66625 -2.52125,-2.2125c0,-0.95625 0.8625,-1.39625 1.85625,-1.39625c0.64625,0 1.6775,0.215 1.6775,0.99375v0.49625h-1.05v-0.23375c0,-0.225 -0.3375,-0.3375 -0.6,-0.3375c-0.42125,0 -0.71125,0.14875 -0.71125,0.43125c0,0.74875 2.53875,0.59875 2.53875,2.1925c0,0.9 -0.79625,1.4625 -1.83625,1.4625c-1.3125,0 -1.9875,-0.8525 -1.9875,-0.8525z" fill="#ffffff"/></g></g></g></svg>