<svg version="1.1" xmlns="http://www.w3.org/2000/svg" xmlns:xlink="http://www.w3.org/1999/xlink" width="595.084" height="415.084" viewBox="0,0,595.084,415.084"><g transform="translate(112.084,2)"><g data-paper-data="{&quot;isPaintingLayer&quot;:true}" fill-rule="nonzero" stroke-linecap="butt" stroke-linejoin="miter" stroke-miterlimit="10" stroke-dasharray="" stroke-dashoffset="0" style="mix-blend-mode: normal"><path d="M-1,-2h484v363h-484z" fill="#000000" stroke="none" stroke-width="1"/><path d="M-18.545,8.89h319.44v371.47h-319.44z" fill="#ffffff" stroke="none" stroke-width="1"/><path d="M208.935,8.89h91.96l-0.605,89.54l-91.355,-89.54" fill="#000000" stroke="none" stroke-width="1"/><path d="M143.922,312.896h-53.083v-71.468h81.052l-27.969,71.468" fill="#fafaf0" stroke="none" stroke-width="1"/><path d="M330.141,413.084h-34.461l8.936,-402.379l6.382,-0.012l19.143,402.391" fill="#3c3c32" stroke="none" stroke-width="1"/><path d="M465.522,78.604c-3.382,-7.647 -6.77,-8.113 -14.841,-8.585c-1.095,-3.073 -1.004,-9.026 0.2,-15.228c4.392,1.622 9.444,0.345 13.679,2.493c4.573,2.317 5.753,6.982 7.26,11.447c3.533,33.831 0.49,136.016 0,152.405c-0.291,9.541 0.841,22.016 -3.679,30.795c-4.332,8.421 -13.993,9.311 -22.488,8.306c-0.542,-2.888 -0.731,-5.832 -0.562,-8.766c7.453,-1.767 14.84,-2.584 18.192,-10.539c3.515,-8.355 1.694,-19.548 2.027,-28.375c0.556,-14.356 2.311,-103.509 0.212,-133.953z" fill="#3c3c32" stroke="none" stroke-width="1"/><path d="M469.835,78.604c-3.382,-7.647 -6.77,-8.113 -14.84,-8.585c-1.096,-3.073 -1.005,-9.026 0.199,-15.228c4.393,1.622 9.444,0.345 13.679,2.493c4.574,2.317 5.754,6.982 7.26,11.447c3.533,33.831 0.49,136.016 0,152.405c-0.29,9.541 0.841,22.016 -3.678,30.795c-4.332,8.421 -13.994,9.311 -22.488,8.306c-0.535,-2.881 -0.718,-5.817 -0.544,-8.742c7.453,-1.767 14.84,-2.583 18.192,-10.539c3.515,-8.355 1.694,-19.548 2.027,-28.375c0.544,-14.38 2.293,-103.533 0.193,-133.977z" fill="#828278" stroke="none" stroke-width="1"/><path d="M360.53,392.66l78.105,-388.531c11.647,1.312 19.965,-1.779 20.57,12.584c1.023,23.232 0.218,271.578 -0.187,375.947z" fill="#fafaf0" stroke="none" stroke-width="1"/><path d="M438.617,4.141v398.09h-127.625v-397.927c71.663,-0.097 126.312,-0.115 127.625,-0.163z" fill="#828278" stroke="none" stroke-width="1"/><path d="M321.677,281.285l3.739,-265.135c0,0 90.568,-0.811 106.159,0.659l-1.283,264.5z" fill="#ffffff" stroke="none" stroke-width="1"/><path d="M390.865,156.377l-62.025,-0.315l6.443,-25.882l51.619,-0.102l3.963,26.299" fill="#e6e6dc" stroke="none" stroke-width="1"/><path d="M386.902,130.078l33.995,0.187l4.876,27.564l-48.019,-0.375l9.148,-27.376" fill="#c8c8be" stroke="none" stroke-width="1"/><path d="M384.373,137.598l0.502,23.419h-42.538v-23.437l42.036,0.018" fill="#ffdc00" stroke="none" stroke-width="1"/><path d="M384.373,137.598l13.274,-0.018v23.437h-22.016l8.742,-23.419" fill="#ffc800" stroke="none" stroke-width="1"/><path d="M396.788,137.58h17.52v23.437h-17.52z" fill="#fab414" stroke="none" stroke-width="1"/><path d="M399.183,196.67c0,0 11.919,12.1 12.04,13.147c-1.253,0.036 -20.607,3.472 -20.607,3.472l-16.764,-4.41z" fill="#828278" stroke="none" stroke-width="1"/><path d="M411.749,191.055c0,0 -8.252,1.295 -9.432,1.211c-2.535,-0.182 -12.064,-0.587 -12.668,-1.271c-0.339,-0.405 -0.128,-4.852 -0.128,-5.13l22.035,0.332c0.115,0.563 0.193,4.858 0.193,4.858z" fill="#828278" stroke="none" stroke-width="1"/><path d="M373.852,208.873l15.797,-17.878c0,0 10.69,3.025 12.638,5.155c-3.551,2.371 -28.435,12.723 -28.435,12.723z" fill="#c8c8be" stroke="none" stroke-width="1"/><path d="M426.832,209.665c-1.132,0.158 -13.02,1.9 -13.02,1.9l-7.096,-2.045c0,0 -12.203,-13.165 -17.128,-18.525c1.676,-0.605 22.161,0.073 22.161,0.073c0,0 13.171,15.415 15.083,18.597z" fill="#e6e6dc" stroke="none" stroke-width="1"/><path d="M426.541,279.192l-19.099,0.423l-9.584,-31.798l8.858,-38.291l20.116,0.145c0,0 0.26,44.341 0.103,52.297c-0.067,3.267 -0.394,17.224 -0.394,17.224z" fill="#c8c8be" stroke="none" stroke-width="1"/><path d="M407.472,279.615c0,0 -8.567,-0.078 -10.352,-0.151c-3.86,-0.151 -7.707,-0.206 -11.567,-0.302c-1.912,-0.049 -3.818,-0.224 -5.724,-0.297c-0.998,-0.042 -3.303,-0.091 -3.303,-0.091l-1.464,-0.986c0,0 -1.428,-64.977 -1.21,-68.915c4.223,-0.079 32.864,0.647 32.864,0.647z" fill="#e6e6dc" stroke="none" stroke-width="1"/><path d="M401.5,273.965c0,0 -20.57,0.151 -20.993,-0.545c-0.424,-0.696 -0.744,-54.571 -0.605,-57.39c2.668,-0.055 20.782,0.466 20.782,0.466z" fill="#ffffff" stroke="none" stroke-width="1"/><path d="M377.99,173.148l-37.008,108.476h-17.4v-107.2l54.408,-1.276" fill="#fafaf0" stroke="none" stroke-width="1"/><path d="M429.978,344.483h-109.191l0.884,-62.538h108.615l-0.308,62.538" fill="#000000" stroke="none" stroke-width="1"/><path d="M429.978,345.119l-0.291,59.072c-35.344,4.047 -74.281,1.391 -109.759,1.149l0.847,-60.221z" fill="#fafaf0" stroke="none" stroke-width="1"/><path d="M319.293,16.168h6.129v375.215h-6.129z" fill="#e6e6dc" stroke="none" stroke-width="1"/><path d="M409.244,302.92h4.732v2.481h-4.732z" fill="#a0aa1e" stroke="none" stroke-width="1"/><path d="M407.127,309.98h8.893v5.125h-8.893z" fill="#be0a3c" stroke="none" stroke-width="1"/><path d="M417.406,313.03h-11.652v-3.358c3.968,-0.109 7.84,0.109 11.652,0.042z" fill="#645a1e" stroke="none" stroke-width="1"/><path d="M412.348,296.985l1.198,9.88l-3.745,-0.188l1.065,-9.644l1.482,-0.048" fill="#a0aa1e" stroke="none" stroke-width="1"/><path d="M418.549,311.904h-13.915v-5.965c4.725,-0.194 9.354,0.194 13.915,0.079z" fill="#82783c" stroke="none" stroke-width="1"/><path d="M416.341,308.268h-9.517v-3.358c3.237,-0.108 6.401,0.109 9.517,0.043z" fill="#82783c" stroke="none" stroke-width="1"/><path d="M413.298,333.146l-14.284,-2.753c0.042,-0.726 0.133,-2.172 0.169,-2.378c0.43,-2.577 0.865,-5.184 2.033,-7.604c2.94,-6.202 9.238,-7.442 16.855,-5.101c3.116,2.245 4.308,7.127 5.058,10.231c0.115,0.448 0.315,2.801 0.454,4.84z" fill="#f01446" stroke="none" stroke-width="1"/><path d="M398.941,345.875c-0.03,-7.442 -0.084,-14.629 0.079,-17.92h24.563c0.26,4.005 0.054,10.932 -0.109,17.92z" fill="#be0a3c" stroke="none" stroke-width="1"/><path d="M400.254,333.091h12.124v12.784h-12.124z" fill="#f04650" stroke="none" stroke-width="1"/><path d="M380.307,312.358h4.731v2.481h-4.731z" fill="#ffdc00" stroke="none" stroke-width="1"/><path d="M378.19,319.424h8.893v5.125h-8.893z" fill="#ffc800" stroke="none" stroke-width="1"/><path d="M388.469,322.474h-11.653v-3.358c3.969,-0.109 7.841,0.109 11.653,0.042z" fill="#e6821e" stroke="none" stroke-width="1"/><path d="M383.411,306.423l1.198,9.88l-3.745,-0.182l1.065,-9.65l1.482,-0.048" fill="#ffdc00" stroke="none" stroke-width="1"/><path d="M389.612,321.348h-13.915v-5.965c4.725,-0.194 9.353,0.194 13.915,0.079z" fill="#ffc800" stroke="none" stroke-width="1"/><path d="M387.41,317.73h-9.517v-3.357c3.237,-0.109 6.401,0.109 9.517,0.042z" fill="#ffc800" stroke="none" stroke-width="1"/><path d="M393.902,333.963l-9.541,2.553l-13.558,-2.614l7.387,-9.359h8.893l6.819,9.42" fill="#ffdc00" stroke="none" stroke-width="1"/><path d="M369.647,345.875c0.133,-5.064 0.285,-9.492 0.412,-12.1h24.563c0.223,3.104 0.429,7.399 0.605,12.1z" fill="#ffc800" stroke="none" stroke-width="1"/><path d="M313.63,178.562l11.707,-23.97l0.157,33.681l-11.864,-9.711" fill="#828278" stroke="none" stroke-width="1"/><path d="M425.858,159.499l-9.959,20.025l-102.269,-0.611l0.139,-25.67l101.979,0.629l10.11,5.627" fill="#c8c8be" stroke="none" stroke-width="1"/><path d="M415.936,179.597l-0.188,-25.725l18.017,0.212l0.097,32.283l-17.926,-6.77" fill="#828278" stroke="none" stroke-width="1"/><path d="M313.63,294.069l11.707,-23.97l0.157,32.398l-11.864,-8.428" fill="#828278" stroke="none" stroke-width="1"/><path d="M425.858,275.005l-9.959,20.02l-102.269,-0.611l0.139,-25.67l101.979,0.629l10.11,5.632" fill="#c8c8be" stroke="none" stroke-width="1"/><path d="M415.936,295.097l-0.188,-25.724l18.017,0.218l0.097,31.635l-17.926,-6.129" fill="#828278" stroke="none" stroke-width="1"/><path d="M313.63,361.06l11.707,-23.97l0.157,32.398l-11.864,-8.428" fill="#828278" stroke="none" stroke-width="1"/><path d="M425.858,341.997l-9.959,20.019l-102.269,-0.611l0.139,-25.67l101.979,0.629l10.11,5.633" fill="#c8c8be" stroke="none" stroke-width="1"/><path d="M415.936,362.089l-0.188,-25.725l18.017,0.218l0.097,31.636l-17.926,-6.129" fill="#828278" stroke="none" stroke-width="1"/><path d="M58.931,25.104l-103.37,204.835l-1.277,-206.112l104.647,1.277" fill="#fafaf0" stroke="none" stroke-width="1"/><path d="M-37.657,25.915h135.405v42.083h-135.405z" fill="#000000" stroke="none" stroke-width="1"/><path d="M300.617,14.281v38.405c-11.695,0.121 -19.282,0.278 -24.122,-0.327c-20.297,-2.474 -17.781,-28.283 -17.781,-28.283c0,0 -208.755,0.084 -288.506,-0.666v-9.269c37.589,-0.236 330.409,0.14 330.409,0.14z" fill="#c8c8be" stroke="none" stroke-width="1"/><path d="M87.947,14.783h14.732v367.253h-14.732z" fill="#64645a" stroke="none" stroke-width="1"/><path d="M278.734,45.716c-8.446,0 -11.798,-6.128 -11.725,-12.965c0.073,-6.836 6.746,-10.89 12.396,-10.89c9.039,0 12.191,7.641 12.318,12.028c0.218,7.671 -4.543,11.827 -12.989,11.827z" fill="#ffffff" stroke="none" stroke-width="1"/><path d="M278.813,44.041c-7.279,0 -10.164,-5.3 -10.104,-11.169c0.06,-5.868 5.844,-9.365 10.684,-9.365c7.787,0 10.503,6.582 10.612,10.363c0.2,6.595 -3.914,10.171 -11.192,10.171z" fill="#ffffff" stroke="none" stroke-width="1"/><path d="M279.424,20.064v27.262" fill="none" stroke="#c8c8be" stroke-width="0.605"/><path d="M293.054,33.695h-27.261" fill="none" stroke="#c8c8be" stroke-width="0.605"/><path d="M289.061,24.057l-19.275,19.276" fill="none" stroke="#c8c8be" stroke-width="0.605"/><path d="M269.786,24.057l19.275,19.276" fill="none" stroke="#c8c8be" stroke-width="0.605"/><path d="M278.921,42.062c-5.874,0 -8.209,-4.271 -8.155,-9.014c0.054,-4.744 4.695,-7.563 8.627,-7.563c6.286,0 8.476,5.342 8.567,8.367c0.157,5.324 -3.164,8.21 -9.039,8.21z" fill="#c8c8be" stroke="none" stroke-width="1"/><path d="M276.423,39.322c-0.98,-0.548 -1.787,-1.359 -2.329,-2.342c-0.061,-1.21 6.533,-7.81 8.197,-8.736c0.913,0.445 1.673,1.15 2.184,2.027c-1.016,1.784 -6.316,8.222 -8.052,9.051z" fill="#828278" stroke="none" stroke-width="1"/><path d="M305.892,402.231h-338.479v-8.906h328.575v-376.159h-328.575v-10.66c9.142,-1.536 201.326,-2.002 337.203,-2.19z" fill="#828278" stroke="none" stroke-width="1"/><path d="M100.785,328.227h194.859c0.49,11.997 0.157,41.654 -0.4,66.344h-194.501c0.018,-3.321 0.042,-66.344 0.042,-66.344z" fill="#fafaf0" stroke="none" stroke-width="1"/><path d="M117.501,379.676c-4.301,-2.293 -11.107,-8.875 -5.408,-21.308c5.021,-10.956 12.892,-11.204 19.45,-9.898c11.023,2.191 18.241,12.034 11.386,24.63c-6.854,12.584 -21.126,8.869 -25.428,6.576z" fill="#a0aa1e" stroke="none" stroke-width="1"/><path d="M117.501,379.676c-4.301,-2.293 -11.107,-8.875 -5.408,-21.308c5.021,-10.956 12.892,-11.204 19.45,-9.898c11.023,2.191 18.241,12.034 11.386,24.63c-6.854,12.584 -21.126,8.869 -25.428,6.576z" fill="#a0aa1e" stroke="none" stroke-width="1"/><path d="M138.755,345.222c1.609,-1.767 4.628,-3.83 7.012,-2.541c2.19,1.21 1.779,4.331 -0.678,6.419c-2.069,1.754 -6.013,2.541 -6.824,2.807c-0.903,0.226 -1.821,0.39 -2.747,0.49c-0.774,0.139 -1.918,0.938 -2.728,0.641c1.713,-2.804 3.712,-5.424 5.965,-7.816z" fill="#dce614" stroke="none" stroke-width="1"/><path d="M132.705,353.014l0.514,-11.416h1.301c0,0 1.815,6.927 -1.815,11.416z" fill="#000000" stroke="none" stroke-width="1"/><path d="M219.68,395.818c-5.972,-0.418 -16.892,-4.38 -16.741,-21.175c0.14,-14.786 8.84,-19.021 16.844,-20.836c13.455,-3.068 26.48,4.356 25.107,21.901c-1.373,17.557 -19.239,20.527 -25.21,20.11z" fill="#f01446" stroke="none" stroke-width="1"/><path d="M219.68,395.818c-5.972,-0.418 -16.892,-4.38 -16.741,-21.175c0.14,-14.786 8.84,-19.021 16.844,-20.836c13.455,-3.068 26.48,4.356 25.107,21.901c-1.373,17.557 -19.239,20.527 -25.21,20.11z" fill="#f01446" stroke="none" stroke-width="1"/><path d="M224.695,346.395c0.92,-2.789 3.267,-6.612 6.589,-6.364c3.025,0.23 4.162,3.969 2.456,7.532c-1.44,3.025 -5.445,5.868 -6.244,6.564c-0.9,0.708 -1.848,1.353 -2.837,1.93c-0.799,0.545 -1.682,2.015 -2.741,2.087c0.518,-4.001 1.448,-7.939 2.777,-11.749z" fill="#dce614" stroke="none" stroke-width="1"/><path d="M221.64,358.701l-1.869,-13.915l1.548,-0.278c0,0 3.691,7.986 0.321,14.193z" fill="#000000" stroke="none" stroke-width="1"/><path d="M109.491,375.429c0,-19.62 0,-47.19 0,-47.19h177.435c0.363,8.978 0.278,27.885 0,47.19z" fill="#000000" stroke="none" stroke-width="1"/><path d="M216.195,331.748c-1.416,19.318 -35.604,19.687 -35.725,-0.296z" fill="#828278" stroke="none" stroke-width="1"/><path d="M208.614,332.843c-0.816,11.132 -20.521,11.344 -20.57,-0.169z" fill="#c8c8be" stroke="none" stroke-width="1"/><path d="M97.905,335.457c0.037,-4.489 0.146,-9.856 0.279,-14.774h201.313c0.025,4.961 -0.012,9.861 -0.115,14.774z" fill="#c8c8be" stroke="none" stroke-width="1"/><path d="M104.923,335.59c0.037,-1.869 0.133,-4.072 0.261,-6.104h187.295c0.019,2.05 -0.012,4.077 -0.108,6.104z" fill="#828278" stroke="none" stroke-width="1"/><path d="M-104.691,328.227h194.84c0.49,11.997 0.158,41.654 -0.399,66.344h-194.483c0.018,-3.321 0.042,-66.344 0.042,-66.344z" fill="#fafaf0" stroke="none" stroke-width="1"/><path d="M-95.555,375.429c0,-19.62 0,-47.19 0,-47.19h176.581c0.363,8.978 0.278,27.885 0,47.19z" fill="#000000" stroke="none" stroke-width="1"/><path d="M10.707,331.748c-1.416,19.318 -35.605,19.687 -35.725,-0.296z" fill="#828278" stroke="none" stroke-width="1"/><path d="M3.144,332.843c-0.817,11.132 -20.521,11.344 -20.57,-0.169z" fill="#c8c8be" stroke="none" stroke-width="1"/><path d="M-107.571,335.457c0.037,-4.489 0.145,-9.856 0.279,-14.774h201.319c0.025,4.961 -0.012,9.861 -0.115,14.774z" fill="#c8c8be" stroke="none" stroke-width="1"/><path d="M-100.547,335.59c0.037,-1.869 0.133,-4.072 0.26,-6.104h187.29c0.018,2.05 -0.012,4.077 -0.109,6.104z" fill="#828278" stroke="none" stroke-width="1"/><path d="M-58.475,317.591c0.067,-2.202 0.254,-4.84 0.496,-7.26h357.482c0.037,2.42 -0.03,4.84 -0.211,7.26z" fill="#c8c8be" stroke="none" stroke-width="1"/><path d="M67.196,155.56h-88.627c-1.692,-1.215 -3.107,-2.776 -4.15,-4.58c-1.96,-3.206 -3.491,-9.68 -3.491,-9.68h102.378c0,0 -0.69,5.403 -2.111,8.791c-0.913,2.096 -2.279,3.964 -3.999,5.469z" fill="#e6e6dc" stroke="none" stroke-width="1"/><path d="M-22.962,127.543h88.627c2.374,1.849 4.32,4.189 5.705,6.86c2.136,4.278 1.936,7.406 1.936,7.406h-102.378c0,0 -0.43,-4.193 2.238,-9.898c2.669,-5.705 3.872,-4.368 3.872,-4.368z" fill="#c8c8be" stroke="none" stroke-width="1"/><path d="M48.925,134.851h7.586v2.487h-7.586z" fill="#e6e6dc" stroke="none" stroke-width="1"/><path d="M60.643,156.915h-6.037l2.026,-6.661h1.985l2.026,6.661" fill="#c8c8be" stroke="none" stroke-width="1"/><path d="M44.308,156.915h-6.037l2.026,-6.661h1.985l2.026,6.661" fill="#c8c8be" stroke="none" stroke-width="1"/><path d="M27.973,156.915h-6.037l2.026,-6.661h1.985l2.026,6.661" fill="#c8c8be" stroke="none" stroke-width="1"/><path d="M11.638,156.915h-6.037l2.026,-6.661h1.985l2.026,6.661" fill="#c8c8be" stroke="none" stroke-width="1"/><path d="M-30.361,140.114h104.986v3.086h-104.986z" fill="#fafaf0" stroke="none" stroke-width="1"/><path d="M115.329,171.901c-2.268,0 -2.541,-10.829 -1.167,-13.582l3.273,-0.369c0.804,2.263 0.145,13.951 -2.106,13.951z" fill="#3c3c32" stroke="none" stroke-width="1"/><path d="M108.209,159.565h14.332v6.976h-14.332z" fill="#3c3c32" stroke="none" stroke-width="1"/><path d="M285.661,171.901c-2.269,0 -2.541,-10.829 -1.168,-13.582l3.274,-0.369c0.804,2.263 0.163,13.951 -2.106,13.951z" fill="#3c3c32" stroke="none" stroke-width="1"/><path d="M278.274,159.565h14.332v6.976h-14.332z" fill="#3c3c32" stroke="none" stroke-width="1"/><path d="M301.173,163.165h-204.586v-9.801h204.828c0.043,3.297 -0.036,6.546 -0.242,9.801z" fill="#c8c8be" stroke="none" stroke-width="1"/><path d="M76.991,171.901c-2.269,0 -2.541,-10.829 -1.168,-13.582l3.273,-0.369c0.811,2.263 0.169,13.951 -2.105,13.951z" fill="#3c3c32" stroke="none" stroke-width="1"/><path d="M69.603,159.565h14.333v6.976h-14.333z" fill="#3c3c32" stroke="none" stroke-width="1"/><path d="M92.509,163.165h-204.593v-9.801h204.859c0,3.297 -0.06,6.546 -0.266,9.801z" fill="#c8c8be" stroke="none" stroke-width="1"/><path d="M67.196,66.383h-25.689v-16.855l31.285,0.52l-5.596,16.335" fill="#c8c8be" stroke="none" stroke-width="1"/><path d="M47.993,66.383h-20.945l-5.657,-17.545l25.235,0.266l1.367,17.279" fill="#e6e6dc" stroke="none" stroke-width="1"/><path d="M20.036,47.731h54.438v5.929h-54.438z" fill="#fafaf0" stroke="none" stroke-width="1"/><path d="M16.539,45.396h61.94v3.999h-61.94z" fill="#c8c8be" stroke="none" stroke-width="1"/><path d="M76.991,80.649c-2.269,0 -2.541,-10.829 -1.168,-13.582l3.273,-0.369c0.811,2.256 0.169,13.951 -2.105,13.951z" fill="#3c3c32" stroke="none" stroke-width="1"/><path d="M69.603,68.307h14.333v6.976h-14.333z" fill="#3c3c32" stroke="none" stroke-width="1"/><path d="M92.509,71.931h-204.593v-9.801h204.859c0,3.273 -0.06,6.528 -0.266,9.801z" fill="#c8c8be" stroke="none" stroke-width="1"/><path d="M171.262,242.438h-31.745v-16.855l37.335,0.52l-5.59,16.335" fill="#c8c8be" stroke="none" stroke-width="1"/><path d="M146.003,242.438h-27.001l-5.657,-17.545l31.291,0.266l1.367,17.279" fill="#e6e6dc" stroke="none" stroke-width="1"/><path d="M111.99,223.786h66.55v5.929h-66.55z" fill="#fafaf0" stroke="none" stroke-width="1"/><path d="M108.487,221.451h74.052v3.999h-74.052z" fill="#c8c8be" stroke="none" stroke-width="1"/><path d="M20.181,312.939h-31.744v-16.855l37.334,0.52l-5.59,16.335" fill="#c8c8be" stroke="none" stroke-width="1"/><path d="M-39.091,294.287h66.55v5.929h-66.55z" fill="#fafaf0" stroke="none" stroke-width="1"/><path d="M-42.594,291.951h74.052v3.999h-74.052z" fill="#c8c8be" stroke="none" stroke-width="1"/><path d="M114.688,258.047c-2.269,0 -2.541,-10.829 -1.168,-13.582l3.273,-0.369c0.787,2.263 0.182,13.951 -2.105,13.951z" fill="#3c3c32" stroke="none" stroke-width="1"/><path d="M107.567,245.711h14.333v6.976h-14.333z" fill="#3c3c32" stroke="none" stroke-width="1"/><path d="M285.02,258.047c-2.269,0 -2.541,-10.829 -1.168,-13.582l3.273,-0.369c0.811,2.263 0.164,13.951 -2.105,13.951z" fill="#3c3c32" stroke="none" stroke-width="1"/><path d="M277.633,245.711h14.332v6.976h-14.332z" fill="#3c3c32" stroke="none" stroke-width="1"/><path d="M300.538,249.311h-204.593v-9.801h204.829c0.042,3.297 -0.03,6.54 -0.236,9.801z" fill="#c8c8be" stroke="none" stroke-width="1"/><path d="M339.21,132.733l21.689,-0.175l-3.092,13.122l-22.004,0.176l3.407,-13.123" fill="#fafaf0" stroke="none" stroke-width="1"/></g></g></svg>