<svg viewBox="0 0 32 32" y="0px" x="0px" xmlns="http://www.w3.org/2000/svg" id="Layer_1" version="1.1">
  <defs>
    <rect height="32" width="32" id="SVGID_1_"></rect>
  </defs>
  <clipPath id="SVGID_2_">
    <rect y="-2.913" x="-6.293" overflow="visible" height="32" width="32"></rect>
  </clipPath>
  <path style="stroke-width: 0.75px; stroke: rgb(0, 0, 0);" d="M12.6,13c0.5-0.2,1.4-0.1,1.7,0.5c0.2,0.5,0.4,1.2,0.4,1.1c0-0.4,0-1.2,0.1-1.6 c0.1-0.3,0.3-0.6,0.7-0.7c0.3-0.1,0.6-0.1,0.9-0.1c0.3,0.1,0.6,0.3,0.8,0.5c0.4,0.6,0.4,1.9,0.4,1.8c0.1-0.3,0.1-1.2,0.3-1.6 c0.1-0.2,0.5-0.4,0.7-0.5c0.3-0.1,0.7-0.1,1,0c0.2,0,0.6,0.3,0.7,0.5c0.2,0.3,0.3,1.3,0.4,1.7c0,0.1,0.1-0.4,0.3-0.7 c0.4-0.6,1.8-0.8,1.9,0.6c0,0.7,0,0.6,0,1.1c0,0.5,0,0.8,0,1.2c0,0.4-0.1,1.3-0.2,1.7c-0.1,0.3-0.4,1-0.7,1.4c0,0-1.1,1.2-1.2,1.8 c-0.1,0.6-0.1,0.6-0.1,1c0,0.4,0.1,0.9,0.1,0.9s-0.8,0.1-1.2,0c-0.4-0.1-0.9-0.8-1-1.1c-0.2-0.3-0.5-0.3-0.7,0 c-0.2,0.4-0.7,1.1-1,1.1c-0.7,0.1-2.1,0-3.1,0c0,0,0.2-1-0.2-1.4c-0.3-0.3-0.8-0.8-1.1-1.1l-0.8-0.9c-0.3-0.4-1-0.9-1.2-2 c-0.2-0.9-0.2-1.4,0-1.8c0.2-0.4,0.7-0.6,0.9-0.6c0.2,0,0.7,0,0.9,0.1c0.2,0.1,0.3,0.2,0.5,0.4c0.2,0.3,0.3,0.5,0.2,0.1 c-0.1-0.3-0.3-0.6-0.4-1c-0.1-0.4-0.4-0.9-0.4-1.5C11.7,13.9,11.8,13.3,12.6,13" fill="#FFFFFF"></path>
  <path style="" stroke-linecap="round" stroke-width="0.75" fill="none" clip-path="url(#SVGID_2_)" d="M 19.6 20.7 L 19.6 17.3"></path>
  <path style="" d="M 19.6 21.075 C 19.393 21.075 19.225 20.907 19.225 20.7 L 19.225 17.3 C 19.225 17.093 19.393 16.925 19.6 16.925 C 19.807 16.925 19.975 17.093 19.975 17.3 L 19.975 20.7 C 19.975 20.907 19.807 21.075 19.6 21.075 Z"></path>
  <path style="" stroke-linecap="round" stroke-width="0.75" fill="none" clip-path="url(#SVGID_2_)" d="M 17.6 20.7 L 17.5 17.3"></path>
  <path style="" d="M 17.611 21.075 C 17.404 21.081 17.231 20.918 17.225 20.711 L 17.125 17.311 C 17.119 17.104 17.282 16.931 17.489 16.925 C 17.696 16.919 17.869 17.082 17.875 17.289 L 17.975 20.689 C 17.981 20.896 17.818 21.069 17.611 21.075 Z"></path>
  <path style="" stroke-linecap="round" stroke-width="0.75" fill="none" clip-path="url(#SVGID_2_)" d="M 15.6 17.3 L 15.6 20.7"></path>
  <path style="" d="M 15.6 16.925 C 15.807 16.925 15.975 17.093 15.975 17.3 L 15.975 20.7 C 15.975 20.907 15.807 21.075 15.6 21.075 C 15.393 21.075 15.225 20.907 15.225 20.7 L 15.225 17.3 C 15.225 17.093 15.393 16.925 15.6 16.925 Z"></path>
</svg>