<svg viewBox="0,0,5449.68088,3554.95563" height="3554.95563" width="5449.68088" xmlns="http://www.w3.org/2000/svg" version="1.1">
  <g transform="translate(2484.84043,1599.95564)">
    <g stroke-miterlimit="10" fill="#976b4b">
      <path stroke-width="50" stroke="#1cd85e" d="M-2459.84043,-1570c9.12946,1.66 18.6389,9.09 21.78872,19.3l8.59949,25.82c10.63937,31.98 23.69859,67.97 27.45838,101.51c0.22668,2.0667 0.41998,4.1433 0.57997,6.23c10.37939,14.93 21.17875,29.6 30.87817,44.97c38.27774,60.64 71.76576,125.05 113.51329,183.46c26.85842,37.57 60.39643,76.12 81.13521,117.69c12.28928,24.64 14.00917,54.59 26.35844,79.09c4.9797,9.88 14.31916,17.41 18.20892,27.77c10.94936,29.21 14.37915,60.79 24.16857,90.41c27.59837,44.96 37.70777,97.32 68.54595,140.09c27.87835,38.65 66.45607,69.45 96.83427,105.93c6.23963,7.49 9.00947,17.65 15.91906,24.53c7.22957,7.21 18.29892,9.67 25.57849,16.83c24.34856,23.97 46.31726,51.21 68.40595,78.16c22.10869,17.08 43.14746,36.4 66.88605,49.93c23.6886,13.5 51.81694,23.38 77.04545,34.2c28.49831,12.22 59.57648,38.18 91.09461,42.35c26.44843,3.51 57.35661,-7.25 82.9851,0.96c14.88912,4.78 23.97858,20.56 37.98776,27.51c10.60938,5.27 23.6186,3.83 34.51796,8.5c9.69943,4.16 16.67901,13.35 26.35844,17.57c7.19958,3.15 73.32567,15.82 73.86564,15.93c0,0 7.60956,1.52 13.49921,7.1h837.55049c84.12503,0 174.42969,-10.07 257.70477,0.12c41.38756,5.06 84.79499,16.58 126.03255,23.45c97.05426,16.4 196.12841,-2.62 293.67265,6.52c78.40537,7.35 153.23095,31.32 230.45638,42.35c33.848,4.83 68.60594,5.2 101.59399,14.22c28.90829,7.91 55.18674,23.39 82.40513,35.94c14.41915,6.64 30.94817,8.04 45.17733,15.07c15.51908,7.67 28.46832,19.76 43.30744,28.66c38.06775,22.82 80.16526,40.6 119.81291,60.48c56.14668,18.79 109.73352,40.27 166.56016,56.55c31.16816,8.93 60.49643,24.73 92.45454,30.2c42.52749,7.28 88.46477,-4.24 130.99226,2.02c58.85652,8.66 113.79328,40.31 174.10971,44.91c94.61441,7.21 192.74861,-0.13 287.693,-0.13c80.16526,0 168.51005,10.78 247.82535,0.12c58.57654,-7.87 115.38318,-22.59 174.70967,-27.46c71.35579,-5.85 144.72145,4.84 215.65726,-2.57c41.60754,-4.35 81.2352,-20.91 122.35277,-26.99c49.78705,-7.37 103.41389,-3.08 153.58092,-3.13c48.9771,-0.06 97.95421,-0.03 146.92132,-0.03c13.32921,0 76.90545,-0.13 80.81522,0.67c61.98634,12.68 93.20449,54.47 136.08196,114.19v1819h-5399.68086z"></path>
      <path stroke-width="5" stroke="none" d="M-2455.35081,-1543.41509l-11.14934,2250.66"></path>
    </g>
  </g>
  <g transform="matrix(12.800121, 0, 0, 12.800121, -46539.621787, -20997.424141)" style="" id="Layer_1">
    <g transform="matrix(1, 0, 0, 1, 3720.466608, 1717.692164)">
      <path style="" d="M 11.861 13.31 C 12.341 13.131 13.288 13.241 13.538 13.784 C 13.751 14.245 13.934 15.024 13.944 14.858 C 13.968 14.489 13.92 8.691 14.081 8.274 C 14.198 7.97 14.428 7.684 14.767 7.583 C 15.052 7.497 15.388 7.468 15.684 7.528 C 15.996 7.592 16.326 7.815 16.449 8.027 C 16.811 8.65 16.817 14.926 16.834 14.858 C 16.898 14.587 16.904 13.629 17.117 13.274 C 17.258 13.04 17.614 12.829 17.805 12.795 C 18.099 12.742 18.46 12.727 18.769 12.787 C 19.018 12.836 19.355 13.131 19.446 13.273 C 19.665 13.617 19.788 14.589 19.825 14.931 C 19.841 15.072 19.899 14.538 20.118 14.195 C 20.524 13.556 21.962 13.432 22.016 14.834 C 22.041 15.488 22.036 15.459 22.036 15.898 C 22.036 16.414 22.024 16.726 21.996 17.101 C 21.966 17.499 21.88 18.404 21.755 18.843 C 21.669 19.144 21.384 19.82 21.103 20.226 C 21.103 20.226 20.029 21.476 19.912 22.038 C 19.795 22.6 19.834 22.604 19.81 23.003 C 19.786 23.402 19.931 23.927 19.931 23.927 C 19.931 23.927 19.129 24.031 18.697 23.96 C 18.306 23.898 17.822 23.12 17.697 22.882 C 17.525 22.554 17.158 22.616 17.015 22.859 C 16.79 23.242 16.306 23.929 15.964 23.972 C 15.295 24.056 13.909 24.003 12.824 23.992 C 12.824 23.992 13.009 22.982 12.597 22.635 C 12.292 22.375 11.767 21.852 11.453 21.574 L 10.621 20.654 C 10.338 20.295 9.619 19.724 9.378 18.67 C 9.165 17.732 9.186 17.274 9.415 16.899 C 9.647 16.518 10.085 16.31 10.269 16.274 C 10.477 16.232 10.961 16.235 11.144 16.336 C 11.367 16.459 11.457 16.494 11.632 16.727 C 11.862 17.033 11.944 17.184 11.845 16.848 C 11.769 16.586 11.523 16.252 11.411 15.877 C 11.302 15.517 11.01 14.935 11.031 14.352 C 11.037 14.131 11.132 13.581 11.861 13.31" fill="#FFFFFF"></path>
      <path style="fill: none;" d="M 11.686 12.842 C 12.001 12.737 12.502 12.701 12.894 12.789 C 13.29 12.877 13.759 13.189 13.992 13.576 C 14.11 13.835 14.22 14.174 14.293 14.406 C 14.33 14.522 14.356 14.604 14.372 14.647 C 14.376 14.658 14.338 14.578 14.283 14.525 C 14.237 14.48 14.057 14.383 13.937 14.383 C 13.793 14.383 13.559 14.541 13.508 14.627 C 13.468 14.695 13.447 14.805 13.444 14.828 C 13.467 14.477 13.436 8.607 13.613 8.097 C 13.769 7.726 14.16 7.291 14.623 7.107 C 14.959 7.012 15.416 6.977 15.783 7.041 C 16.185 7.143 16.681 7.485 16.88 7.779 C 17.094 8.203 17.22 10.046 17.269 11.69 C 17.294 12.512 17.307 13.314 17.316 13.903 C 17.32 14.198 17.323 14.44 17.326 14.605 C 17.327 14.688 17.328 14.749 17.329 14.79 C 17.329 14.809 17.33 14.818 17.33 14.823 C 17.33 14.822 17.329 14.806 17.327 14.795 C 17.325 14.777 17.304 14.683 17.269 14.62 C 17.24 14.568 17.108 14.429 16.998 14.391 C 16.917 14.363 16.736 14.365 16.657 14.395 C 16.593 14.419 16.495 14.491 16.462 14.527 C 16.402 14.593 16.358 14.708 16.348 14.74 C 16.405 14.525 16.439 13.502 16.687 13.02 C 16.915 12.7 17.441 12.372 17.716 12.307 C 18.044 12.25 18.497 12.236 18.864 12.301 C 19.229 12.407 19.729 12.814 19.866 13.009 C 20.122 13.456 20.283 14.533 20.32 14.879 C 20.318 14.87 20.309 14.818 20.297 14.784 C 20.283 14.745 20.22 14.636 20.16 14.583 C 20.112 14.54 19.977 14.474 19.899 14.463 C 19.819 14.452 19.667 14.481 19.607 14.511 C 19.465 14.582 19.369 14.775 19.367 14.779 C 19.373 14.759 19.387 14.703 19.411 14.616 C 19.457 14.449 19.557 14.162 19.694 13.931 C 19.854 13.707 20.132 13.475 20.385 13.37 C 20.635 13.267 20.992 13.216 21.273 13.259 C 21.554 13.302 21.919 13.481 22.133 13.734 C 22.334 13.971 22.483 14.387 22.513 14.819 C 22.526 15.148 22.531 15.31 22.533 15.443 C 22.535 15.579 22.534 15.685 22.534 15.902 C 22.534 16.428 22.521 16.759 22.493 17.143 C 22.463 17.546 22.368 18.501 22.234 18.985 C 22.138 19.314 21.818 20.064 21.512 20.515 L 21.496 20.538 L 21.48 20.556 C 21.48 20.556 20.492 21.7 20.399 22.144 C 20.344 22.408 20.329 22.515 20.323 22.618 C 20.317 22.714 20.32 22.813 20.307 23.037 C 20.288 23.355 20.411 23.798 20.411 23.798 L 20.567 24.36 L 19.993 24.427 C 19.993 24.427 19.121 24.529 18.616 24.458 C 18.052 24.281 17.386 23.372 17.252 23.118 C 17.277 23.062 17.374 23.159 17.362 23.16 C 17.351 23.16 17.429 23.083 17.444 23.117 C 17.208 23.517 16.54 24.325 16.024 24.473 C 15.314 24.559 13.895 24.508 12.817 24.497 L 12.209 24.491 L 12.33 23.907 C 12.33 23.907 12.367 23.704 12.363 23.458 C 12.358 23.199 12.391 23.045 12.271 23.021 C 11.952 22.748 11.423 22.222 11.12 21.954 L 11.099 21.936 L 11.08 21.915 L 10.226 20.969 C 9.984 20.651 9.217 19.98 8.888 18.786 C 8.669 17.781 8.72 17.138 8.986 16.644 C 9.324 16.167 9.926 15.845 10.17 15.789 C 10.429 15.742 11.081 15.772 11.384 15.904 C 11.577 16.013 11.746 16.117 12.03 16.432 C 12.152 16.594 12.203 16.67 12.199 16.666 C 12.186 16.654 12.133 16.614 12.096 16.595 C 12.024 16.559 11.767 16.535 11.641 16.604 C 11.523 16.668 11.403 16.877 11.391 16.952 C 11.385 16.989 11.385 17.049 11.386 17.066 C 11.387 17.076 11.385 17.067 11.363 16.993 C 11.326 16.81 11.081 16.478 10.93 16.026 C 10.836 15.705 10.535 15.044 10.529 14.34 C 10.535 14.202 10.576 13.886 10.74 13.604 C 10.816 13.473 10.951 13.303 11.102 13.178 C 11.244 13.06 11.538 12.932 11.538 12.932 C 11.57 12.909 12.147 13.722 12.179 13.7 C 12.179 13.7 11.824 13.878 11.743 13.946 C 11.67 14.007 11.645 14.039 11.605 14.107 C 11.538 14.223 11.53 14.287 11.529 14.372 C 11.482 14.834 11.763 15.339 11.888 15.739 C 11.962 16.037 12.209 16.375 12.324 16.716 C 12.351 16.809 12.376 16.909 12.382 16.975 C 12.385 17.006 12.385 17.077 12.377 17.122 C 12.363 17.205 12.241 17.419 12.119 17.485 C 11.989 17.555 11.727 17.531 11.648 17.492 C 11.604 17.47 11.544 17.424 11.521 17.404 C 11.443 17.332 11.339 17.179 11.23 17.036 C 11.164 16.886 11.153 16.919 10.9 16.782 C 10.836 16.712 10.522 16.735 10.365 16.772 C 10.24 16.788 9.965 16.882 9.839 17.167 C 9.646 17.423 9.655 17.695 9.862 18.567 C 10.015 19.481 10.666 19.938 10.995 20.334 L 11.802 21.227 C 12.128 21.518 12.627 22.016 12.918 22.263 C 13.21 22.586 13.356 23.111 13.362 23.443 C 13.368 23.788 13.362 23.487 13.362 23.508 C 14.329 23.525 15.271 23.566 15.899 23.484 C 16.068 23.545 16.367 22.979 16.581 22.614 C 16.74 22.405 17.072 22.174 17.324 22.165 C 17.574 22.156 17.94 22.386 18.137 22.658 C 18.253 22.88 18.555 23.527 18.772 23.474 C 19.131 23.544 19.135 23.502 19.333 23.491 C 19.311 23.326 19.279 23.461 19.308 22.981 C 19.319 22.806 19.315 22.704 19.324 22.557 C 19.333 22.418 19.357 22.242 19.419 21.944 C 19.561 21.264 20.7 19.932 20.7 19.932 C 20.952 19.57 21.194 18.986 21.27 18.713 C 21.387 18.319 21.464 17.464 21.493 17.071 C 21.52 16.705 21.532 16.412 21.532 15.906 C 21.532 15.683 21.533 15.585 21.531 15.462 C 21.529 15.337 21.524 15.187 21.512 14.861 C 21.516 14.592 21.464 14.498 21.368 14.384 C 21.284 14.285 21.254 14.272 21.118 14.251 C 20.982 14.23 20.9 14.242 20.764 14.298 C 20.631 14.353 20.578 14.375 20.535 14.471 C 20.453 14.583 20.414 14.736 20.372 14.886 C 20.352 14.958 20.335 15.03 20.319 15.081 C 20.307 15.121 20.202 15.334 20.052 15.409 C 19.992 15.439 19.839 15.469 19.758 15.458 C 19.679 15.447 19.544 15.38 19.494 15.337 C 19.433 15.283 19.368 15.171 19.353 15.129 C 19.338 15.088 19.327 15.023 19.323 14.997 C 19.287 14.659 19.201 13.794 19.02 13.552 C 18.974 13.463 18.8 13.279 18.668 13.287 C 18.417 13.232 18.149 13.247 17.889 13.296 C 17.782 13.299 17.595 13.393 17.541 13.541 C 17.364 13.77 17.387 14.655 17.316 14.982 C 17.306 15.013 17.259 15.138 17.199 15.204 C 17.166 15.24 17.068 15.312 17.004 15.336 C 16.924 15.366 16.744 15.368 16.663 15.34 C 16.553 15.301 16.42 15.163 16.391 15.111 C 16.355 15.047 16.335 14.952 16.332 14.932 C 16.33 14.916 16.328 14.893 16.328 14.883 C 16.327 14.868 16.326 14.846 16.326 14.822 C 16.325 14.778 16.324 14.711 16.322 14.627 C 16.319 14.46 16.316 14.218 16.312 13.924 C 16.303 13.336 16.29 12.542 16.265 11.726 C 16.216 10.093 16.158 8.487 16.011 8.288 C 15.964 8.158 15.8 8.054 15.578 8.028 C 15.353 7.972 15.14 7.996 14.906 8.072 C 14.69 8.09 14.621 8.227 14.542 8.464 C 14.398 8.789 14.462 14.491 14.437 14.899 C 14.432 14.942 14.409 15.068 14.365 15.143 C 14.312 15.233 14.076 15.392 13.93 15.392 C 13.807 15.392 13.624 15.293 13.575 15.245 C 13.508 15.179 13.452 15.062 13.434 15.016 C 13.407 14.945 13.372 14.835 13.335 14.719 C 13.261 14.488 13.174 14.207 13.078 14.005 C 13.06 13.848 12.931 13.834 12.671 13.776 C 12.407 13.717 12.194 13.716 12.03 13.79 Z"></path>
      <path style="fill: none;" d="M 11.686 12.842 C 12.001 12.737 12.502 12.701 12.894 12.789 C 13.29 12.877 13.759 13.189 13.992 13.576 C 14.11 13.835 14.22 14.174 14.293 14.406 C 14.33 14.522 14.356 14.604 14.372 14.647 C 14.376 14.658 14.338 14.578 14.283 14.525 C 14.237 14.48 14.057 14.383 13.937 14.383 C 13.793 14.383 13.559 14.541 13.508 14.627 C 13.468 14.695 13.447 14.805 13.444 14.828 C 13.467 14.477 13.436 8.607 13.613 8.097 C 13.769 7.726 14.16 7.291 14.623 7.107 C 14.959 7.012 15.416 6.977 15.783 7.041 C 16.185 7.143 16.681 7.485 16.88 7.779 C 17.094 8.203 17.22 10.046 17.269 11.69 C 17.294 12.512 17.307 13.314 17.316 13.903 C 17.32 14.198 17.323 14.44 17.326 14.605 C 17.327 14.688 17.328 14.749 17.329 14.79 C 17.329 14.809 17.33 14.818 17.33 14.823 C 17.33 14.822 17.329 14.806 17.327 14.795 C 17.325 14.777 17.304 14.683 17.269 14.62 C 17.24 14.568 17.108 14.429 16.998 14.391 C 16.917 14.363 16.736 14.365 16.657 14.395 C 16.593 14.419 16.495 14.491 16.462 14.527 C 16.402 14.593 16.358 14.708 16.348 14.74 C 16.404 14.51 16.439 13.502 16.687 13.02 C 16.915 12.7 17.441 12.372 17.716 12.307 C 18.044 12.25 18.497 12.236 18.864 12.301 C 19.229 12.407 19.729 12.814 19.866 13.009 C 20.122 13.456 20.283 14.533 20.32 14.879 C 20.318 14.87 20.309 14.818 20.297 14.784 C 20.283 14.745 20.22 14.636 20.16 14.583 C 20.112 14.54 19.977 14.474 19.899 14.463 C 19.819 14.452 19.667 14.481 19.607 14.511 C 19.465 14.582 19.369 14.775 19.367 14.779 C 19.373 14.759 19.387 14.703 19.411 14.616 C 19.457 14.449 19.557 14.162 19.694 13.931 C 19.854 13.707 20.132 13.475 20.385 13.37 C 20.635 13.267 20.992 13.216 21.273 13.259 C 21.554 13.302 21.919 13.481 22.133 13.734 C 22.334 13.971 22.483 14.387 22.513 14.819 C 22.526 15.148 22.531 15.31 22.533 15.443 C 22.535 15.579 22.534 15.685 22.534 15.902 C 22.534 16.428 22.521 16.759 22.493 17.143 C 22.463 17.546 22.368 18.501 22.234 18.985 C 22.138 19.314 21.818 20.064 21.512 20.515 L 21.496 20.538 L 21.48 20.556 C 21.48 20.556 20.492 21.7 20.399 22.144 C 20.344 22.408 20.329 22.515 20.323 22.618 C 20.317 22.714 20.32 22.813 20.307 23.037 C 20.288 23.355 20.411 23.798 20.411 23.798 L 20.567 24.36 L 19.993 24.427 C 19.993 24.427 19.121 24.529 18.616 24.458 C 18.052 24.281 17.386 23.372 17.252 23.118 C 17.277 23.062 17.374 23.159 17.362 23.16 C 17.351 23.16 17.429 23.083 17.444 23.117 C 17.208 23.517 16.54 24.325 16.024 24.473 C 15.314 24.559 13.895 24.508 12.817 24.497 L 12.209 24.491 L 12.33 23.907 C 12.33 23.907 12.367 23.704 12.363 23.458 C 12.358 23.199 12.391 23.045 12.271 23.021 C 11.952 22.748 11.423 22.222 11.12 21.954 L 11.099 21.936 L 11.08 21.915 L 10.226 20.969 C 9.984 20.651 9.217 19.98 8.888 18.786 C 8.669 17.781 8.72 17.138 8.986 16.644 C 9.324 16.167 9.926 15.845 10.17 15.789 C 10.429 15.742 11.081 15.772 11.384 15.904 C 11.577 16.013 11.746 16.117 12.03 16.432 C 12.152 16.594 12.203 16.67 12.199 16.666 C 12.186 16.654 12.133 16.614 12.096 16.595 C 12.024 16.559 11.767 16.535 11.641 16.604 C 11.523 16.668 11.403 16.877 11.391 16.952 C 11.385 16.989 11.385 17.049 11.386 17.066 C 11.387 17.076 11.385 17.067 11.363 16.993 C 11.326 16.81 11.081 16.478 10.93 16.026 C 10.836 15.705 10.535 15.044 10.529 14.34 C 10.535 14.202 10.576 13.886 10.74 13.604 C 10.816 13.473 10.951 13.303 11.102 13.178 C 11.244 13.06 11.538 12.932 11.538 12.932 C 11.57 12.909 12.147 13.722 12.179 13.7 C 12.179 13.7 11.824 13.878 11.743 13.946 C 11.67 14.007 11.645 14.039 11.605 14.107 C 11.538 14.223 11.53 14.287 11.529 14.372 C 11.482 14.834 11.763 15.339 11.888 15.739 C 11.962 16.037 12.209 16.375 12.324 16.716 C 12.351 16.809 12.376 16.909 12.382 16.975 C 12.385 17.006 12.385 17.077 12.377 17.122 C 12.363 17.205 12.241 17.419 12.119 17.485 C 11.989 17.555 11.727 17.531 11.648 17.492 C 11.604 17.47 11.544 17.424 11.521 17.404 C 11.443 17.332 11.339 17.179 11.23 17.036 C 11.164 16.886 11.153 16.919 10.9 16.782 C 10.836 16.712 10.522 16.735 10.365 16.772 C 10.24 16.788 9.965 16.882 9.839 17.167 C 9.646 17.423 9.655 17.696 9.862 18.567 C 10.015 19.481 10.666 19.938 10.995 20.334 L 11.802 21.227 C 12.128 21.518 12.627 22.016 12.918 22.263 C 13.21 22.586 13.356 23.111 13.362 23.443 C 13.368 23.788 13.362 23.487 13.362 23.508 C 14.329 23.525 15.271 23.566 15.899 23.484 C 16.068 23.545 16.367 22.979 16.581 22.614 C 16.74 22.405 17.072 22.174 17.324 22.165 C 17.574 22.156 17.94 22.386 18.137 22.658 C 18.253 22.88 18.555 23.527 18.772 23.474 C 19.131 23.544 19.135 23.502 19.333 23.491 C 19.311 23.326 19.279 23.461 19.308 22.981 C 19.319 22.806 19.315 22.704 19.324 22.557 C 19.333 22.418 19.357 22.242 19.419 21.944 C 19.561 21.264 20.7 19.932 20.7 19.932 C 20.952 19.57 21.194 18.986 21.27 18.713 C 21.387 18.319 21.464 17.464 21.493 17.071 C 21.52 16.705 21.532 16.412 21.532 15.906 C 21.532 15.683 21.533 15.585 21.531 15.462 C 21.529 15.337 21.524 15.187 21.512 14.861 C 21.516 14.592 21.464 14.498 21.368 14.384 C 21.284 14.285 21.254 14.272 21.118 14.251 C 20.982 14.23 20.9 14.242 20.764 14.298 C 20.631 14.353 20.578 14.375 20.535 14.471 C 20.453 14.583 20.414 14.736 20.372 14.886 C 20.352 14.958 20.335 15.03 20.319 15.081 C 20.307 15.121 20.202 15.334 20.052 15.409 C 19.992 15.439 19.839 15.469 19.758 15.458 C 19.679 15.447 19.544 15.38 19.494 15.337 C 19.433 15.283 19.368 15.171 19.353 15.129 C 19.338 15.088 19.327 15.023 19.323 14.997 C 19.287 14.659 19.201 13.794 19.02 13.552 C 18.974 13.463 18.8 13.279 18.668 13.287 C 18.417 13.232 18.149 13.247 17.889 13.296 C 17.782 13.299 17.595 13.393 17.541 13.541 C 17.364 13.77 17.387 14.655 17.316 14.982 C 17.306 15.013 17.259 15.138 17.199 15.204 C 17.166 15.24 17.068 15.312 17.004 15.336 C 16.924 15.366 16.744 15.368 16.663 15.34 C 16.553 15.301 16.42 15.163 16.391 15.111 C 16.355 15.047 16.335 14.952 16.332 14.932 C 16.33 14.916 16.328 14.893 16.328 14.883 C 16.327 14.868 16.326 14.846 16.326 14.822 C 16.325 14.778 16.324 14.711 16.322 14.627 C 16.319 14.46 16.316 14.218 16.312 13.924 C 16.303 13.336 16.29 12.542 16.265 11.726 C 16.216 10.093 16.158 8.487 16.011 8.288 C 15.964 8.158 15.8 8.054 15.578 8.028 C 15.353 7.972 15.14 7.996 14.906 8.072 C 14.69 8.09 14.621 8.227 14.542 8.464 C 14.398 8.789 14.462 14.491 14.437 14.899 C 14.432 14.942 14.409 15.068 14.365 15.143 C 14.312 15.233 14.076 15.392 13.93 15.392 C 13.807 15.392 13.624 15.293 13.575 15.245 C 13.508 15.179 13.452 15.062 13.434 15.016 C 13.407 14.945 13.372 14.835 13.335 14.719 C 13.261 14.488 13.174 14.207 13.078 14.005 C 13.06 13.848 12.931 13.834 12.671 13.776 C 12.407 13.717 12.194 13.716 12.03 13.79 Z"></path>
      <path style="" d="M 11.861 13.31 C 12.341 13.131 13.288 13.241 13.538 13.784 C 13.751 14.245 13.934 15.024 13.944 14.858 C 13.968 14.489 13.92 8.691 14.081 8.274 C 14.198 7.97 14.428 7.684 14.767 7.583 C 15.052 7.497 15.388 7.468 15.684 7.528 C 15.996 7.592 16.326 7.815 16.449 8.027 C 16.811 8.65 16.817 14.926 16.834 14.858 C 16.898 14.587 16.904 13.629 17.117 13.274 C 17.258 13.04 17.614 12.829 17.805 12.795 C 18.099 12.742 18.46 12.727 18.769 12.787 C 19.018 12.836 19.355 13.131 19.446 13.273 C 19.665 13.617 19.788 14.589 19.825 14.931 C 19.841 15.072 19.899 14.538 20.118 14.195 C 20.524 13.556 21.962 13.432 22.016 14.834 C 22.041 15.488 22.036 15.459 22.036 15.898 C 22.036 16.414 22.024 16.726 21.996 17.101 C 21.966 17.499 21.88 18.404 21.755 18.843 C 21.669 19.144 21.384 19.82 21.103 20.226 C 21.103 20.226 20.029 21.476 19.912 22.038 C 19.795 22.6 19.834 22.604 19.81 23.003 C 19.786 23.402 19.931 23.927 19.931 23.927 C 19.931 23.927 19.129 24.031 18.697 23.96 C 18.306 23.898 17.822 23.12 17.697 22.882 C 17.525 22.554 17.158 22.616 17.015 22.859 C 16.79 23.242 16.306 23.929 15.964 23.972 C 15.295 24.056 13.909 24.003 12.824 23.992 C 12.824 23.992 13.009 22.982 12.597 22.635 C 12.292 22.375 11.767 21.852 11.453 21.574 L 10.621 20.654 C 10.338 20.295 9.619 19.724 9.378 18.67 C 9.165 17.732 9.186 17.274 9.415 16.899 C 9.647 16.518 10.085 16.31 10.269 16.274 C 10.477 16.232 10.961 16.235 11.144 16.336 C 11.367 16.459 11.457 16.494 11.632 16.727 C 11.862 17.033 11.944 17.184 11.845 16.848 C 11.769 16.586 11.523 16.252 11.411 15.877 C 11.302 15.517 11.01 14.935 11.031 14.352 C 11.037 14.131 11.132 13.581 11.861 13.31 Z" stroke-linejoin="round" stroke-width="0.75" fill="none"></path>
      <path style="fill: rgb(1, 1, 1);" d="M 11.73 12.959 C 12.026 12.858 12.491 12.827 12.867 12.911 C 13.109 12.965 13.371 13.097 13.582 13.278 C 13.591 11.403 13.61 8.478 13.731 8.14 C 13.877 7.786 14.228 7.388 14.66 7.225 C 14.983 7.132 15.41 7.099 15.76 7.162 C 16.139 7.254 16.594 7.567 16.774 7.84 C 16.98 8.236 17.097 10.049 17.146 11.692 C 17.156 12.043 17.165 12.39 17.172 12.719 C 17.373 12.573 17.594 12.461 17.74 12.428 C 18.059 12.372 18.49 12.358 18.842 12.421 C 19.178 12.513 19.638 12.892 19.763 13.074 C 19.858 13.237 19.94 13.494 20.005 13.767 C 20.134 13.648 20.287 13.545 20.436 13.483 C 20.671 13.386 20.994 13.339 21.257 13.38 C 21.52 13.421 21.843 13.579 22.041 13.812 C 22.229 14.034 22.366 14.41 22.392 14.821 C 22.405 15.149 22.41 15.31 22.412 15.443 C 22.414 15.577 22.413 15.683 22.413 15.9 C 22.413 16.423 22.4 16.749 22.372 17.131 C 22.342 17.533 22.249 18.475 22.118 18.948 C 22.024 19.27 21.713 20.002 21.414 20.441 C 21.407 20.452 21.399 20.462 21.39 20.472 C 21.39 20.472 20.38 21.643 20.282 22.116 C 20.226 22.384 20.21 22.5 20.203 22.608 C 20.196 22.71 20.2 22.81 20.187 23.028 C 20.167 23.366 20.295 23.83 20.295 23.83 C 20.324 23.935 20.306 24.047 20.246 24.137 C 20.186 24.227 20.09 24.287 19.982 24.301 C 19.982 24.301 19.128 24.404 18.641 24.332 C 18.12 24.184 17.5 23.308 17.368 23.058 C 17.368 23.047 17.368 23.039 17.369 23.032 C 17.367 23.032 17.365 23.033 17.362 23.033 C 17.351 23.033 17.345 23.031 17.342 23.028 C 17.343 23.033 17.343 23.04 17.341 23.051 C 17.108 23.447 16.485 24.225 16.014 24.346 C 15.314 24.431 13.903 24.38 12.823 24.369 C 12.712 24.368 12.608 24.318 12.538 24.233 C 12.468 24.148 12.438 24.036 12.458 23.927 C 12.458 23.927 12.498 23.712 12.493 23.453 C 12.488 23.185 12.499 22.984 12.357 22.923 C 12.041 22.653 11.514 22.128 11.208 21.857 C 11.198 21.848 11.188 21.838 11.178 21.828 L 10.33 20.889 C 10.078 20.561 9.323 19.915 9.016 18.756 C 8.799 17.768 8.842 17.171 9.099 16.707 C 9.411 16.254 9.971 15.961 10.2 15.909 C 10.378 15.876 10.745 15.879 11.038 15.929 C 10.926 15.585 10.659 14.978 10.66 14.341 C 10.665 14.21 10.702 13.925 10.854 13.663 C 10.994 13.422 11.302 13.139 11.734 12.96 Z M 11.499 14.038 C 11.42 14.174 11.407 14.271 11.406 14.362 C 11.365 14.854 11.649 15.378 11.77 15.768 C 11.853 16.085 12.1 16.422 12.205 16.743 C 12.232 16.834 12.254 16.922 12.259 16.979 C 12.261 17.004 12.261 17.059 12.255 17.093 C 12.244 17.156 12.153 17.317 12.06 17.367 C 11.962 17.42 11.765 17.402 11.705 17.372 C 11.671 17.355 11.625 17.32 11.607 17.304 C 11.539 17.241 11.442 17.098 11.332 16.952 C 11.239 16.781 11.208 16.798 10.963 16.664 C 10.869 16.586 10.513 16.603 10.343 16.641 C 10.203 16.662 9.887 16.784 9.735 17.093 C 9.533 17.379 9.535 17.698 9.743 18.585 C 9.918 19.534 10.587 20.02 10.905 20.408 L 11.717 21.306 C 12.04 21.594 12.545 22.098 12.84 22.348 C 13.11 22.634 13.234 23.112 13.24 23.435 C 13.242 23.534 13.242 23.59 13.242 23.621 C 14.243 23.638 15.28 23.681 15.917 23.598 C 16.129 23.633 16.475 23.037 16.691 22.667 C 16.828 22.48 17.109 22.288 17.331 22.28 C 17.551 22.272 17.86 22.461 18.029 22.706 C 18.147 22.932 18.494 23.612 18.756 23.588 C 19.133 23.658 19.242 23.614 19.479 23.596 C 19.448 23.406 19.408 23.439 19.436 22.979 C 19.447 22.798 19.443 22.696 19.452 22.556 C 19.461 22.421 19.484 22.254 19.545 21.96 C 19.68 21.309 20.674 20.156 20.804 19.997 C 21.063 19.624 21.316 19.018 21.394 18.738 C 21.513 18.333 21.592 17.465 21.622 17.071 C 21.65 16.703 21.661 16.405 21.661 15.896 C 21.661 15.674 21.662 15.574 21.66 15.45 C 21.658 15.324 21.653 15.172 21.641 14.846 C 21.64 14.557 21.577 14.422 21.467 14.293 C 21.367 14.175 21.295 14.141 21.141 14.117 C 20.987 14.093 20.871 14.11 20.721 14.172 C 20.573 14.233 20.492 14.282 20.434 14.393 C 20.345 14.52 20.298 14.689 20.256 14.841 C 20.236 14.915 20.219 14.985 20.204 15.032 C 20.193 15.066 20.113 15.229 20.001 15.286 C 19.956 15.309 19.841 15.331 19.78 15.322 C 19.721 15.314 19.619 15.264 19.582 15.231 C 19.536 15.19 19.487 15.106 19.476 15.074 C 19.464 15.042 19.456 14.992 19.452 14.97 C 19.415 14.631 19.321 13.738 19.13 13.472 C 19.073 13.37 18.858 13.158 18.697 13.152 C 18.432 13.095 18.14 13.111 17.872 13.161 C 17.744 13.172 17.515 13.295 17.439 13.464 C 17.253 13.724 17.269 14.628 17.2 14.941 C 17.193 14.964 17.157 15.058 17.112 15.108 C 17.087 15.135 17.014 15.189 16.966 15.207 C 16.906 15.229 16.771 15.231 16.71 15.21 C 16.627 15.181 16.528 15.077 16.506 15.038 C 16.479 14.99 16.464 14.919 16.462 14.903 C 16.46 14.891 16.459 14.872 16.459 14.863 C 16.458 14.849 16.458 14.829 16.457 14.806 C 16.456 14.762 16.455 14.696 16.453 14.612 C 16.45 14.445 16.447 14.203 16.443 13.909 C 16.434 13.321 16.421 12.526 16.396 11.709 C 16.347 10.075 16.281 8.439 16.125 8.212 C 16.059 8.061 15.854 7.928 15.609 7.892 C 15.367 7.835 15.122 7.86 14.875 7.939 C 14.629 7.978 14.519 8.152 14.431 8.406 C 14.283 8.754 14.342 14.48 14.318 14.878 C 14.314 14.913 14.297 15.009 14.263 15.066 C 14.223 15.134 14.046 15.254 13.936 15.253 C 13.843 15.253 13.706 15.179 13.669 15.142 C 13.617 15.091 13.573 14.998 13.557 14.957 C 13.531 14.89 13.497 14.783 13.46 14.667 C 13.386 14.436 13.296 14.147 13.198 13.939 C 13.154 13.754 12.982 13.702 12.705 13.64 C 12.425 13.578 12.176 13.581 11.993 13.659 C 11.696 13.752 11.591 13.879 11.5 14.036 Z"></path>
      <line style="" y2="17.549" x2="18.854" y1="21.008" x1="18.854" stroke-linecap="round" stroke-width="0.75" fill="none"></line>
      <path style="fill: rgb(1, 1, 1);" d="M 18.854 21.383 C 18.647 21.383 18.479 21.215 18.479 21.008 L 18.479 17.549 C 18.479 17.342 18.647 17.174 18.854 17.174 C 19.061 17.174 19.229 17.342 19.229 17.549 L 19.229 21.008 C 19.229 21.215 19.061 21.383 18.854 21.383 Z"></path>
      <path style="fill: none;" d="M 18.854 21.883 C 18.648 21.883 18.366 21.758 18.235 21.627 C 18.104 21.496 18.001 21.214 17.979 21.008 L 17.979 17.549 C 18.001 17.343 18.104 17.061 18.235 16.93 C 18.366 16.799 18.648 16.674 18.854 16.674 C 19.06 16.674 19.342 16.799 19.473 16.93 C 19.604 17.061 19.707 17.343 19.729 17.549 L 19.729 21.008 C 19.707 21.214 19.604 21.496 19.473 21.627 C 19.342 21.758 19.06 21.883 18.854 21.883 Z M 18.766 20.92 C 18.775 20.918 18.853 20.884 18.854 20.883 C 18.855 20.884 18.933 20.918 18.942 20.92 C 18.94 20.927 18.959 21.009 18.979 21.008 L 18.979 17.549 C 18.959 17.548 18.94 17.63 18.942 17.637 C 18.933 17.639 18.855 17.673 18.854 17.674 C 18.853 17.673 18.775 17.639 18.766 17.637 C 18.768 17.63 18.749 17.548 18.729 17.549 L 18.729 21.008 C 18.749 21.009 18.768 20.927 18.766 20.92 Z"></path>
      <line style="" y2="17.547" x2="16.823" y1="21.02" x1="16.839" stroke-linecap="round" stroke-width="0.75" fill="none"></line>
      <path style="fill: rgb(1, 1, 1);" d="M 16.841 21.395 C 16.634 21.396 16.465 21.229 16.464 21.022 L 16.448 17.549 C 16.447 17.342 16.614 17.173 16.821 17.172 C 17.028 17.171 17.197 17.338 17.198 17.545 L 17.214 21.018 C 17.215 21.225 17.048 21.394 16.841 21.395 Z"></path>
      <path style="fill: none;" d="M 16.843 21.895 C 16.637 21.896 16.355 21.772 16.223 21.642 C 16.091 21.512 15.986 21.23 15.963 21.024 L 15.947 17.551 C 15.968 17.345 16.07 17.063 16.2 16.931 C 16.33 16.799 16.612 16.672 16.818 16.671 C 17.024 16.67 17.306 16.794 17.438 16.924 C 17.57 17.054 17.675 17.336 17.698 17.542 L 17.714 21.015 C 17.693 21.221 17.591 21.503 17.461 21.635 C 17.331 21.767 17.049 21.894 16.843 21.895 Z M 16.751 20.932 C 16.76 20.93 16.838 20.896 16.839 20.895 C 16.84 20.896 16.918 20.93 16.927 20.931 C 16.926 20.938 16.944 21.021 16.965 21.019 L 16.949 17.546 C 16.929 17.545 16.911 17.627 16.912 17.634 C 16.903 17.636 16.825 17.67 16.824 17.671 C 16.823 17.67 16.745 17.636 16.736 17.635 C 16.737 17.628 16.719 17.545 16.698 17.547 L 16.714 21.02 C 16.734 21.021 16.752 20.939 16.751 20.932 Z"></path>
      <line style="" y2="21.004" x2="14.864" y1="17.578" x1="14.843" stroke-linecap="round" stroke-width="0.75" fill="none"></line>
      <path style="fill: rgb(1, 1, 1);" d="M 14.841 17.203 C 15.048 17.202 15.217 17.369 15.218 17.576 L 15.239 21.002 C 15.24 21.209 15.073 21.378 14.866 21.379 C 14.659 21.38 14.49 21.213 14.489 21.006 L 14.468 17.58 C 14.467 17.373 14.634 17.204 14.841 17.203 Z"></path>
      <path style="fill: none;" d="M 14.839 16.703 C 15.045 16.702 15.327 16.826 15.459 16.956 C 15.591 17.086 15.696 17.367 15.719 17.573 L 15.74 21 C 15.719 21.206 15.617 21.488 15.487 21.62 C 15.357 21.752 15.075 21.879 14.869 21.88 C 14.663 21.881 14.381 21.757 14.249 21.627 C 14.117 21.497 14.012 21.216 13.989 21.01 L 13.968 17.583 C 13.989 17.377 14.091 17.095 14.221 16.963 C 14.351 16.831 14.633 16.704 14.839 16.703 Z M 14.931 17.666 C 14.922 17.668 14.844 17.702 14.843 17.703 C 14.842 17.702 14.764 17.668 14.755 17.667 C 14.756 17.66 14.738 17.578 14.717 17.579 L 14.738 21.004 C 14.758 21.005 14.776 20.923 14.775 20.916 C 14.784 20.914 14.862 20.88 14.863 20.879 C 14.864 20.88 14.942 20.914 14.951 20.915 C 14.95 20.922 14.968 21.004 14.989 21.003 L 14.968 17.578 C 14.948 17.577 14.93 17.659 14.931 17.666 Z"></path>
    </g>
  </g>
  <text x="1332.49" y="1078.59" transform="matrix(1.200597, 0, 0, 1.276959, -280.643223, -270.74268)" style="fill: rgb(51, 51, 51); font-family: C059; font-size: 28px; white-space: pre;"><tspan dy="1em" x="1332.489990234375">​</tspan>Were you ecpecting an award?<tspan dy="1em" x="1332.489990234375">​</tspan>       Well too bad. :3</text>
</svg>