<svg version="1.1" xmlns="http://www.w3.org/2000/svg" xmlns:xlink="http://www.w3.org/1999/xlink" width="8" height="8" viewBox="0,0,8,8"><g transform="translate(-236,-152)"><g fill="#790079" stroke="none" stroke-width="0" stroke-miterlimit="10"><path d="M237,153h-1v-1h1z"/><path d="M243,155h1v1h-1z"/><path d="M240,154h1v1h-1z"/><path d="M240,158h-1v-1h1z"/><path d="M240,160h-1v-1h1z"/><path d="M242,154h1v1h-1z"/><path d="M238,158h-1v-1h1z"/><path d="M238,160h-1v-1h1z"/><path d="M239,153h-1v-1h1z"/><path d="M241,155h1v1h-1z"/><path d="M238,154h1v1h-1z"/><path d="M242,158h-1v-1h1z"/><path d="M242,160h-1v-1h1z"/><path d="M238,154h-1v-1h1z"/><path d="M242,156h1v1h-1z"/><path d="M242,158h1v1h-1z"/><path d="M239,153h1v1h-1z"/><path d="M241,157h-1v-1h1z"/><path d="M241,159h-1v-1h1z"/><path d="M241,153h1v1h-1z"/><path d="M239,157h-1v-1h1z"/><path d="M239,159h-1v-1h1z"/><path d="M243,153h1v1h-1z"/><path d="M237,157h-1v-1h1z"/><path d="M237,159h-1v-1h1z"/><path d="M237,155h-1v-1h1z"/><path d="M243,157h1v1h-1z"/><path d="M243,159h1v1h-1z"/><path d="M240,152h1v1h-1z"/><path d="M240,156h-1v-1h1z"/><path d="M242,152h1v1h-1z"/><path d="M238,156h-1v-1h1z"/></g></g></svg>