<svg version="1.1" xmlns="http://www.w3.org/2000/svg" xmlns:xlink="http://www.w3.org/1999/xlink" width="203.72274" height="179.001" viewBox="0,0,203.72274,179.001"><g transform="translate(-138.13863,-140.11064)"><g stroke="none" stroke-miterlimit="10"><path d="M262.08267,153.4071c0,-7.31305 5.9834,-13.29645 13.29645,-13.29645h53.1858c7.31305,0 13.29645,5.9834 13.29645,13.29645v53.18581c0,7.31305 -5.9834,13.29645 -13.29645,13.29645h-53.1858c-7.31305,0 -13.29645,-5.9834 -13.29645,-13.29645z" fill="#d0d0d0"/><path d="M138.13863,153.40709c0,-7.31305 5.9834,-13.29645 13.29645,-13.29645h53.18581c7.31305,0 13.29645,5.9834 13.29645,13.29645v53.18581c0,7.31305 -5.9834,13.29645 -13.29645,13.29645h-53.18581c-7.31305,0 -13.29645,-5.9834 -13.29645,-13.29645z" fill="#d0d0d0"/><path d="M268.86386,198.21614v-44.41015c0,-6.11637 4.91969,-11.03606 11.03605,-11.03606h44.27718c6.11637,0 11.03605,4.91969 11.03605,11.03606v44.41015c0,6.11637 -4.91969,11.03605 -11.03605,11.03605h-44.41015c-6.11637,0 -11.03606,-4.91969 -11.03606,-11.03605z" fill="#ffffff"/><path d="M144.91981,198.21614v-44.41015c0,-6.11637 4.91969,-11.03606 11.03605,-11.03606h44.27718c6.11637,0 11.03605,4.91969 11.03605,11.03606v44.41015c0,6.11637 -4.91969,11.03605 -11.03605,11.03605h-44.41015c-6.11637,0 -11.03605,-4.91969 -11.03605,-11.03605z" fill="#ffffff"/><path d="M176.93102,155.53453h2.79226l15.29092,38.75915c1.79502,5.18562 3.52356,6.78119 7.31305,7.04712h0.26593v3.12467h-17.6178v-3.12467h1.32964c3.59004,0 5.38506,-1.26316 5.38506,-3.78949c0,-0.86427 -0.19945,-1.66206 -0.59834,-2.79226l-2.19391,-5.85044h-17.6178l-3.59004,8.90862c-0.39889,1.06372 -0.53186,1.46261 -0.53186,1.79502c0,1.06372 1.66206,1.72854 4.1219,1.72854h2.79226v3.12467h-20.6095v-3.12467h0.93075c3.45708,-0.06648 4.05542,-0.46538 5.58451,-4.25486zM180.18865,166.43762l-7.5125,18.88096h14.89202z" fill="#333333"/><path d="M278.60351,200.87543h1.26316c3.72301,-0.06648 4.98617,-0.26593 5.51802,-0.93075c0.39889,-0.59834 0.3989,-0.73131 0.3989,-4.1219v-31.64555c0,-3.39059 0,-3.52356 -0.3989,-4.1219c-0.53186,-0.66482 -1.79502,-0.86427 -5.51802,-0.93075h-1.26316v-3.12467h21.14136c7.57898,0 12.49866,1.06372 16.15519,3.39059c6.11637,3.98893 9.44048,11.16902 9.44048,20.34357c0,9.97234 -3.72301,17.55132 -10.43771,21.3408c-3.52356,1.99447 -8.04435,2.92522 -13.96127,2.92522h-22.33804zM301.53989,200.87543c10.77012,0 15.02499,-5.9834 15.02499,-20.87543c0,-14.69258 -4.72024,-20.87543 -16.08871,-20.87543h-3.45708c-3.32411,0 -3.78949,0.46538 -3.78949,3.72301v34.37132c0,3.25763 0.39889,3.65652 3.78949,3.65652z" fill="#333333"/><path d="M274.96592,242.373c4.05342,-4.05342 10.68629,-4.05342 14.73971,0l29.47944,29.47943c4.05342,4.05342 4.05342,10.68629 0,14.73971l-29.47944,29.47943c-4.05342,4.05342 -10.68629,4.05342 -14.73971,0c-4.05342,-4.05342 -4.05342,-69.64516 0,-73.69858z" fill="#333333"/><path d="M157.90783,287.05718v-15.66978c0,-6.11637 4.91969,-11.03606 11.03605,-11.03606h104.11369c6.11637,0 11.03605,4.91969 11.03605,11.03606v15.66978c0,6.11637 -4.91969,11.03605 -11.03605,11.03605h-104.24666c-6.11637,0 -11.03605,-4.91969 -11.03605,-11.03605z" fill="#333333"/></g></g></svg>