<svg viewBox="0 0 765 990" xmlns:xlink="http://www.w3.org/1999/xlink" xmlns="http://www.w3.org/2000/svg">
  <defs>
    <clipPath id="a">
      
    </clipPath>
    <clipPath id="b">
      
    </clipPath>
    <clipPath id="c">
      <path d="M165.08225 100.2036H305.216v141.5575H165.08225z" fill="none"></path>
    </clipPath>
    <clipPath id="d">
      <path d="M305.216 170.9836c0 39.09-31.37 70.7775-70.065 70.7775-38.6975 0-70.06875-31.6875-70.06875-70.7775 0-39.0925 31.37125-70.78 70.06875-70.78 38.695 0 70.065 31.6875 70.065 70.78" fill="none"></path>
    </clipPath>
    <clipPath id="f">
      <path d="M170.31225 167.4211c0-37.64125 30.515-68.15625 68.15625-68.15625s68.15625 30.515 68.15625 68.15625-30.515 68.15625-68.15625 68.15625-68.15625-30.515-68.15625-68.15625" fill="none"></path>
    </clipPath>
    <clipPath id="h">
      <path d="M172.56225 167.4211c0-36.4 29.50625-65.9075 65.90625-65.9075 36.39875 0 65.90625 29.5075 65.90625 65.9075 0 36.39875-29.5075 65.90625-65.90625 65.90625-36.4 0-65.90625-29.5075-65.90625-65.90625" fill="none"></path>
    </clipPath>
    <clipPath id="j">
      
    </clipPath>
    <clipPath id="k">
      
    </clipPath>
    <clipPath id="l">
      <path d="M290.736 108.2436h50.84625v51.36125H290.736z" fill="none"></path>
    </clipPath>
    <clipPath id="p">
      
    </clipPath>
    <clipPath id="r">
      
    </clipPath>
    <clipPath id="w">
      
    </clipPath>
    <linearGradient gradientUnits="userSpaceOnUse" y2="235.24322" y1="100.24133" x2="238.46847" x1="238.46847" id="g">
      <stop stop-color="#f4f4f4" offset="0"></stop>
      <stop stop-color="#d3d2d2" offset="1"></stop>
    </linearGradient>
    <linearGradient gradientUnits="userSpaceOnUse" y2="233.00438" y1="102.45874" x2="238.46847" x1="238.46847" id="i">
      <stop stop-color="#c8c7c7" offset="0"></stop>
      <stop stop-color="#fff" offset=".95529"></stop>
      <stop stop-color="#fff" offset="1"></stop>
    </linearGradient>
    <linearGradient gradientUnits="userSpaceOnUse" y2="155.73313" y1="104.47289" x2="317.40097" x1="317.40097" id="n">
      <stop stop-color="#fff" offset="0"></stop>
      <stop stop-color="#deddde" offset="1"></stop>
    </linearGradient>
    <linearGradient gradientUnits="userSpaceOnUse" y2="107.71699" y1="152.50085" x2="317.40097" x1="317.40097" id="o">
      <stop stop-color="#fff" offset="0"></stop>
      <stop stop-color="#c8c7c7" offset="1"></stop>
    </linearGradient>
    <linearGradient gradientUnits="userSpaceOnUse" y2="120.7759" y1="150.07409" x2="324.55238" x1="301.7308" id="q">
      <stop stop-color="#82bae7" offset="0"></stop>
      <stop stop-color="#4c83cc" offset="1"></stop>
    </linearGradient>
    <linearGradient gradientUnits="userSpaceOnUse" y2="203.67173" y1="168.0465" x2="200.52209" x1="233.3348" id="s">
      <stop stop-color="#b3db18" offset="0"></stop>
      <stop stop-color="#28ab43" offset="1"></stop>
    </linearGradient>
    <linearGradient gradientUnits="userSpaceOnUse" y2="129.14492" y1="156.14525" x2="203.16528" x1="233.35311" id="t">
      <stop stop-color="#f35b9d" offset="0"></stop>
      <stop stop-color="#e41d25" offset=".71166"></stop>
      <stop stop-color="#d01a21" offset=".99451"></stop>
      <stop stop-color="#d01a21" offset="1"></stop>
    </linearGradient>
    <linearGradient gradientUnits="userSpaceOnUse" y2="204.89452" y1="178.14417" x2="273.78342" x1="245.78293" id="u">
      <stop stop-color="#9d79c3" offset="0"></stop>
      <stop stop-color="#503685" offset="1"></stop>
    </linearGradient>
    <linearGradient gradientUnits="userSpaceOnUse" y2="131.08134" y1="167.58142" x2="276.22926" x1="246.22909" id="v">
      <stop stop-color="#e1a374" offset="0"></stop>
      <stop stop-color="#d45914" offset=".75461"></stop>
      <stop stop-color="#d45914" offset="1"></stop>
    </linearGradient>
    <radialGradient gradientUnits="userSpaceOnUse" fy="170.98229" fx="235.14815" r="70.0611" cy="170.98229" cx="235.14815" id="e">
      <stop stop-color="#868484" offset="0"></stop>
      <stop stop-color="#bdbcbc" offset=".92638"></stop>
      <stop stop-color="#bdbcbc" offset=".92638"></stop>
      <stop stop-color="#fff" offset="1"></stop>
    </radialGradient>
    <radialGradient gradientUnits="userSpaceOnUse" fy="133.92419" fx="316.16073" r="25.42089" cy="133.92419" cx="316.16073" id="m">
      <stop stop-color="#868484" offset="0"></stop>
      <stop stop-color="#bdbcbc" offset=".92638"></stop>
      <stop stop-color="#bdbcbc" offset=".92638"></stop>
      <stop stop-color="#fff" offset="1"></stop>
    </radialGradient>
    <path d="M-137.65275-177.14515h765v990h-765z" fill="none" id="reuse-0"></path>
  </defs>
  <g stroke-miterlimit="10">
    <g transform="translate(137.65275 177.14515)" clip-path="url(#a)">
      <path d="M322.9625 278.3791H165.78875c-13.25375 0-24.0375-10.78375-24.0375-24.04V114.41035c0-13.25375 10.78375-24.0375 24.0375-24.0375H322.9625c13.255 0 24.03875 10.78375 24.03875 24.0375V254.3391c0 13.25625-10.78375 24.04-24.03875 24.04" fill="#b3db18"></path>
      <path d="M322.9625 89.7481c13.6 0 24.6625 11.06375 24.6625 24.6625v139.92875c0 13.59875-11.0625 24.6625-24.6625 24.6625H165.78875c-13.6 0-24.66375-11.06375-24.66375-24.6625V114.4106c0-13.59875 11.06375-24.6625 24.66375-24.6625zm0 1.25H165.78875c-12.8775 0-23.41375 10.53625-23.41375 23.4125v139.92875c0 12.8775 10.53625 23.4125 23.41375 23.4125H322.9625c12.8775 0 23.4125-10.535 23.4125-23.4125V114.4106c0-12.87625-10.535-23.4125-23.4125-23.4125" fill="#fff"></path>
    </g>
    <g transform="translate(137.65275 177.14515)" clip-path="url(#b)">
      <g clip-path="url(#c)">
        <g clip-path="url(#d)">
          <path d="M305.216 170.9836c0 39.09-31.37 70.7775-70.065 70.7775-38.6975 0-70.06875-31.6875-70.06875-70.7775 0-39.0925 31.37125-70.78 70.06875-70.78 38.695 0 70.065 31.6875 70.065 70.78" fill="url(#e)"></path>
        </g>
      </g>
    </g>
    <g transform="translate(137.65275 177.14515)" clip-path="url(#f)">
      <path d="M170.31225 167.4211c0-37.64125 30.515-68.15625 68.15625-68.15625s68.15625 30.515 68.15625 68.15625-30.515 68.15625-68.15625 68.15625-68.15625-30.515-68.15625-68.15625" fill="url(#g)"></path>
    </g>
    <g transform="translate(137.65275 177.14515)" clip-path="url(#h)">
      <path d="M172.56225 167.4211c0-36.4 29.50625-65.9075 65.90625-65.9075 36.39875 0 65.90625 29.5075 65.90625 65.9075 0 36.39875-29.5075 65.90625-65.90625 65.90625-36.4 0-65.90625-29.5075-65.90625-65.90625" fill="url(#i)"></path>
    </g>
    <g transform="translate(137.65275 177.14515)" clip-path="url(#j)">
      <path d="M161.657 154.00785c-1.5625 1.35625-1.07125 5.63875-1.07125 8.745 0 3.1775 2.08125 43.975 2.0325 44.66-.1875 4.05375-1.8625 5.39375-3.91125 5.56125v.00375c-.005 0-.01-.00125-.015-.00125-.00375 0-.00875.00125-.01375.00125v-.00375c-2.04875-.1675-3.72375-1.5075-3.91125-5.56125-.04875-.685 2.03125-41.4825 2.03125-44.66 0-3.10625.4925-7.38875-1.07-8.745 0 0-3.7625-3.67625-3.8225-7.775-.05875-4.1 1.94625-24.49625 1.94625-24.49625h.0025c.015-.28375.20875-.51125.44875-.51125.23875 0 .4325.2275.4475.51125l.25375 20.74875c0 .33375.2375.6025.53125.605h.3725c.295-.0025.5325-.27125.5325-.605l.25-20.71v-.01375l.00125-.025h.00125c.01625-.28375.24-.51125.515-.51125.27625 0 .49875.2275.51625.51125l.24875 20.74875c0 .33375.23875.6025.5325.605h.3725c.295-.0025.53125-.27125.53125-.605l.2525-20.74875h.00125c.01625-.28375.23875-.51125.51375-.51125s.4975.2275.51375.51125l.2525 20.74875c0 .33375.23875.6025.5325.605h.37125c.295-.0025.53375-.27125.53375-.605 0 0 .24625-20.69.24625-20.7025 0-.3.20375-.54375.45625-.54375.25 0 .455.24375.455.54375 0 .00375 1.9975 20.4625 1.94125 24.45-.05875 4.09875-3.8225 7.775-3.8225 7.775" fill="#fff"></path>
    </g>
    <g transform="translate(137.65275 177.14515)" clip-path="url(#k)">
      <g clip-path="url(#l)">
        <path d="M341.58225 133.92485c0 14.18375-11.385 25.68-25.42375 25.68-14.04125 0-25.4225-11.49625-25.4225-25.68 0-14.1825 11.38125-25.68125 25.4225-25.68125 14.03875 0 25.42375 11.4975 25.42375 25.68125" fill="url(#m)"></path>
      </g>
    </g>
    <path transform="translate(137.65275 177.14515)" d="M291.39225 129.9586c0-14.36375 11.645-26.00875 26.01-26.00875 14.36625 0 26.01 11.645 26.01 26.00875 0 14.36625-11.64375 26.01125-26.01 26.01125-14.365 0-26.01-11.645-26.01-26.01125" fill="url(#n)"></path>
    <path transform="translate(137.65275 177.14515)" d="M293.921 129.9586c0-12.96625 10.51125-23.47875 23.48-23.47875 12.97 0 23.48125 10.5125 23.48125 23.47875 0 12.97-10.51125 23.48125-23.48125 23.48125-12.96875 0-23.48-10.51125-23.48-23.48125" fill="url(#o)"></path>
    <g transform="translate(137.65275 177.14515)" clip-path="url(#p)">
      <path d="M338.5875 129.95685c0 11.7-9.485 21.18875-21.18375 21.18875-11.70125 0-21.1875-9.48875-21.1875-21.18875s9.48625-21.18375 21.1875-21.18375c11.69875 0 21.18375 9.48375 21.18375 21.18375" fill="#3e6ba7"></path>
      <path d="M336.75638 129.95747c0 10.69-8.66375 19.355-19.3525 19.355s-19.355-8.665-19.355-19.355c0-10.68875 8.66625-19.3525 19.355-19.3525s19.3525 8.66375 19.3525 19.3525" fill="#82bae7"></path>
    </g>
    <path transform="translate(137.65275 177.14515)" d="M300.41725 129.95735c0-9.38125 7.60375-16.98375 16.98625-16.98375 9.3775 0 16.9825 7.6025 16.9825 16.98375 0 9.38-7.605 16.9875-16.9825 16.9875-9.3825 0-16.98625-7.6075-16.98625-16.9875" fill="url(#q)"></path>
    <g transform="translate(137.65275 177.14515)" clip-path="url(#r)">
      <path d="M237.89975 163.22223v61.57625c-.75375-.00875-1.5025-.03625-2.24875-.0725-.755-.0375-1.505-.09375-2.25125-.16-29.18875-2.585-52.0975-27.0175-52.24625-56.84375 0-.0975-.00375-.19375-.00375-.29125 0-.65625.015-1.30875.0375-1.95875.025-.75375.0625-1.50375.1175-2.25z" fill="#168235"></path>
      <path d="M235.6505 110.1351c.74625-.03625 1.495-.06375 2.25-.07125v50.40625h-56.32875c.09125-.755.19875-1.505.32-2.25.1225-.755.25875-1.505.41-2.25 4.98125-24.5625 25.65125-43.425 51.09875-45.67875.745-.065 1.495-.12 2.25-.15625" fill="#a9151a"></path>
      <path d="M295.54613 173.80573c-.08375.755-.18375 1.505-.29625 2.25q-.1725 1.1325-.38625 2.25c-4.67625 24.3625-24.75625 43.24125-49.71375 46.11125-.74625.08625-1.495.16-2.25.2175-.74625.05625-1.49625.10125-2.25.12875v-50.9575z" fill="#3f2a66"></path>
      <path d="M295.88975 166.55597c.005.29125.01.5825.01.875 0 .46-.01125.9175-.0225 1.375-.01875.7525-.0475 1.50375-.095 2.25h-55.1325v-60.9575c.755.0275 1.50375.075 2.25.13.755.0575 1.505.1325 2.25.21875 28.28125 3.2525 50.305 27.06 50.74 56.10875" fill="#a9460f"></path>
      <path d="M235.65 165.47323v57.53c-.75375-.03875-1.50375-.095-2.25-.1625-28.2375-2.58-50.3775-26.2425-50.525-55.1175 0-.0975-.00375-.19375-.00375-.29125 0-.65625.01375-1.3075.0375-1.95875z" fill="#b3db18"></path>
      <path d="M233.40013 112.01985q1.119375-.103125 2.25-.16125v46.3625h-52.01625c.12625-.75625.2675-1.505.42375-2.25 4.9425-23.61 24.8475-41.71375 49.3425-43.95125" fill="#f35b9d"></path>
      <path d="M293.50775 176.05673c-.11625.755-.25 1.505-.39875 2.25-4.6375 23.40875-23.95375 41.53125-47.95875 44.37875-.74625.08875-1.495.165-2.25.2225v-46.85125z" fill="#9d79c3"></path>
      <path d="M294.1685 166.55722c.005.29125.01.5825.01.875 0 .46-.01125.9175-.02375 1.375h-51.255v-56.85125c.755.05875 1.50375.13625 2.25.225 27.32875 3.2425 48.585 26.2775 49.01875 54.37625" fill="#e1a374"></path>
    </g>
    <path transform="translate(137.65275 177.14515)" d="M233.4035 167.72485v52.2375c-26.65125-2.57-47.50875-24.9475-47.6575-52.2375z" fill="url(#s)"></path>
    <path transform="translate(137.65275 177.14515)" d="M186.99475 155.9736c4.87625-22.02 23.50125-38.865 46.40875-41.07375v41.07375z" fill="url(#t)"></path>
    <path transform="translate(137.65275 177.14515)" d="M290.1885 178.3086c-4.57125 21.82-22.61625 38.685-45.035 41.49125V178.3086z" fill="url(#u)"></path>
    <path transform="translate(137.65275 177.14515)" d="M245.1535 115.06985c25.74125 3.225 45.71875 24.97625 46.15 51.48875h-46.15z" fill="url(#v)"></path>
    <g transform="translate(137.65275 177.14515)" clip-path="url(#w)">
      <path d="M152.92163 253.59098v-.03875c0-3.80875 2.8475-6.96375 6.81-6.96375 2.44375 0 3.905.86625 5.25125 2.135l-1.0375 1.11625c-1.135-1.0775-2.405-1.84625-4.2325-1.84625-2.9825 0-5.21375 2.42375-5.21375 5.52v.03875c0 3.11625 2.25125 5.56 5.21375 5.56 1.84625 0 3.0575-.71125 4.3475-1.94375l1 .98125c-1.40375 1.42375-2.94375 2.36625-5.38625 2.36625-3.88625 0-6.7525-3.0575-6.7525-6.925M166.5025 246.24235h1.48125v5.82875c.65375-1.07625 1.6925-1.9425 3.405-1.9425 2.405 0 3.80875 1.615 3.80875 3.9825v6.17375h-1.48125v-5.80875c0-1.84625-1-3-2.75125-3-1.71125 0-2.98125 1.25-2.98125 3.11625v5.6925h-1.48125zM185.14263 255.36098v-.0375c0-2.13625-1.59625-3.8875-3.69375-3.8875-2.155 0-3.635 1.75125-3.635 3.8475v.04c0 2.135 1.57625 3.86625 3.67375 3.86625 2.155 0 3.655-1.73125 3.655-3.82875m-8.84875 0v-.0375c0-2.80875 2.1925-5.195 5.19375-5.195 2.98125 0 5.175 2.34625 5.175 5.155v.04c0 2.80875-2.2125 5.1925-5.21375 5.1925-2.98125 0-5.155-2.34625-5.155-5.155M196.1265 255.36098v-.0375c0-2.13625-1.59625-3.8875-3.69375-3.8875-2.155 0-3.635 1.75125-3.635 3.8475v.04c0 2.135 1.57625 3.86625 3.67375 3.86625 2.155 0 3.655-1.73125 3.655-3.82875m-8.84875 0v-.0375c0-2.80875 2.1925-5.195 5.19375-5.195 2.98125 0 5.175 2.34625 5.175 5.155v.04c0 2.80875-2.2125 5.1925-5.21375 5.1925-2.98125 0-5.155-2.34625-5.155-5.155M198.04913 259.01635l.75-1.05875c1.0775.8075 2.27 1.27 3.44375 1.27 1.1925 0 2.0575-.61625 2.0575-1.5775v-.03875c0-.99875-1.1725-1.385-2.48-1.75-1.55875-.4425-3.29-.98125-3.29-2.80875v-.03875c0-1.71125 1.4225-2.8475 3.385-2.8475 1.2125 0 2.55875.42375 3.57875 1.0975l-.67375 1.115c-.92375-.59625-1.98125-.96125-2.9425-.96125-1.17375 0-1.925.615-1.925 1.4425v.03875c0 .9425 1.23125 1.3075 2.55875 1.7125 1.54.46125 3.19375 1.0575 3.19375 2.84625v.03875c0 1.885-1.55875 2.98125-3.54 2.98125-1.42375 0-3-.5575-4.11625-1.46125M214.304 254.72623c-.17375-1.8075-1.2125-3.3475-3.175-3.3475-1.71125 0-3.02 1.42375-3.23125 3.3475zm-2.905 4.5025c1.36625 0 2.3275-.55875 3.13625-1.405l.9225.8275c-1 1.115-2.2125 1.865-4.0975 1.865-2.7325 0-4.9625-2.09625-4.9625-5.1925 0-2.88625 2.01875-5.195 4.77-5.195 2.94375 0 4.63625 2.34625 4.63625 5.27125 0 .13375 0 .28875-.01875.51875h-7.8875c.21125 2.0975 1.75 3.31 3.50125 3.31" fill="#fff"></path>
      <path d="M217.13113 246.81973h4.69375l2.885 4.7325 2.88625-4.7325h4.69375v13.465h-4.4825v-6.67375l-3.0975 4.79h-.07625l-3.0975-4.79v6.67375h-4.405zM233.3275 262.3251l1.27-2.9825c.7875.4425 1.51875.69375 1.92375.69375.25 0 .48-.03875.71125-.15375l-4.11625-10.1h4.52l1.8275 5.54 1.67375-5.54h4.445l-3.63625 9.7725c-1.02 2.75-2.135 3.86625-4.56 3.86625-1.52 0-2.88625-.4425-4.05875-1.09625M252.08238 253.4176c1.155 0 1.92375-.51875 1.92375-1.48125v-.03875c0-.98-.71125-1.48-1.90375-1.48h-1.2325v3zm-5.7125-6.5975h6.05875c3.57875 0 6.0225 1.59625 6.0225 4.79v.0375c0 3.2525-2.48375 4.9825-6.11875 4.9825h-1.4625v3.655h-4.5zM259.33475 246.24235h4.36625v14.0425h-4.36625zM271.16438 256.39973v-.4425c-.25-.09625-.635-.1725-1-.1725-.86625 0-1.3475.51875-1.3475 1.1725v.04c0 .615.44375 1.01875 1.00125 1.01875.76875 0 1.34625-.61625 1.34625-1.61625m-6.52125.905v-.03875c0-2.09625 1.5575-3.27125 4-3.27125.88625 0 2.02125.1925 2.48375.385v-.17375c0-.96125-.5975-1.52-1.94375-1.52-1.07625 0-1.98125.2325-2.905.5975l-.76875-2.905c1.21-.4625 2.5975-.77 4.42375-.77 2.13625 0 3.52.4425 4.44375 1.36625.78875.78875 1.09625 1.80875 1.09625 3.32875v5.98125h-4.36625v-1.05625c-.73125.78875-1.7125 1.3075-3.02 1.3075-2.02 0-3.44375-1.15375-3.44375-3.23125M277.418 256.76598v-3.6175h-1.23125v-3.36625h1.23125v-2.635h4.3675v2.635h2.42375v3.36625h-2.42375v2.65375c0 .79.365 1.07875 1.0575 1.07875.40375 0 .865-.115 1.3275-.3275v3.36625c-.6925.365-1.73125.59625-2.79.59625-2.5775 0-3.9625-1.1925-3.9625-3.75M291.46225 254.12923c-.09625-1-.6925-1.5775-1.46125-1.5775-.73125 0-1.25125.61625-1.385 1.5775zm-6.88625.96375v-.04c0-3.13625 2.25-5.52125 5.405-5.52125 3.7325 0 5.465 2.5975 5.465 5.79125 0 .23125 0 .5-.02.73125h-6.7525c.3075.9225 1.03875 1.40375 1.98125 1.40375.78875 0 1.44375-.36625 2.13625-1.0775l2.34625 1.86625c-1.04 1.34625-2.52 2.28875-4.79125 2.28875-3.4425 0-5.77-2.1725-5.77-5.4425" fill="#231f20"></path>
      <path d="M297.23225 258.2661h1.77v2.02h-1.77zM308.524 254.8416v-.03875c0-2.04-1.77-3.36625-3.655-3.36625s-3.44375 1.30875-3.44375 3.3475v.03875c0 2 1.5975 3.38625 3.44375 3.38625 1.885 0 3.655-1.36625 3.655-3.3675m-8.15625 7.17625.67375-1.155c1.135.8275 2.40375 1.27 3.8275 1.27 2.1925 0 3.6175-1.2125 3.6175-3.54v-1.1725c-.86625 1.15375-2.0775 2.09625-3.905 2.09625-2.38625 0-4.67625-1.78875-4.67625-4.65625v-.0375c0-2.905 2.31-4.695 4.67625-4.695 1.865 0 3.0775.92375 3.885 2.0025v-1.79h1.48125v8.21375c0 1.54-.46125 2.7125-1.27 3.52125-.88375.885-2.21125 1.32625-3.78875 1.32625-1.65375 0-3.19375-.46125-4.52125-1.38375M320.0475 255.36098v-.0375c0-2.13625-1.59625-3.8875-3.69375-3.8875-2.155 0-3.63625 1.75125-3.63625 3.8475v.04c0 2.135 1.57625 3.86625 3.67375 3.86625 2.155 0 3.65625-1.73125 3.65625-3.82875m-8.85 0v-.0375c0-2.80875 2.1925-5.195 5.19375-5.195 2.9825 0 5.175 2.34625 5.175 5.155v.04c0 2.80875-2.2125 5.1925-5.2125 5.1925-2.9825 0-5.15625-2.34625-5.15625-5.155M321.23762 250.34023h1.63625l3.34625 8.25375 3.3675-8.25375h1.59625l-4.32875 10.0225h-1.3075zM253.97563 144.28435c1.63125 0 2.4275.84375 2.4275.84375l-.6925.88125s-.69375-.59125-1.70625-.59125c-1.1525 0-2.1375.91-2.1375 2.26 0 1.4525.99375 2.3425 2.185 2.3425 1.05875 0 1.68625-.69375 1.68625-.69375v-.49625c0-.14125-.07375-.20625-.20625-.20625h-.4025v-1.04h1.0775c.45 0 .6375.18625.6375.6275v2.84h-1.05v-.31875c0-.14125.01-.28125.01-.28125h-.02s-.71125.7125-1.9575.7125c-1.74375 0-3.235-1.33125-3.235-3.4775 0-1.9125 1.45375-3.4025 3.38375-3.4025M258.12113 147.48985c0-.14-.07625-.20625-.2075-.20625h-.375v-1.0125h1.0875c.4225 0 .6375.17875.6375.58125v.28125c0 .1775-.01875.3-.01875.3h.01875c.21625-.68375.7875-1.2275 1.51875-1.2275.1025 0 .21625.01875.21625.01875v1.17125s-.1225-.01875-.2925-.01875c-.505 0-1.08625.29125-1.30125 1.0025-.065.23375-.10375.4975-.10375.77875v1.89375h-1.18zM263.15413 150.23648c.63875 0 1.0875-.675 1.0875-1.25625v-.1125h-.20625c-.61875 0-1.6025.085-1.6025.75 0 .31875.23375.61875.72125.61875m.91875-2.18375h.14875v-.0375c0-.685-.27-.9375-.88-.9375-.215 0-.63625.05625-.63625.31875v.2525h-1.10625v-.50625c0-.89 1.25625-.98375 1.75125-.98375 1.595 0 2.06375.83375 2.06375 1.9025v1.78125c0 .13125.07375.20625.205.20625h.375v1.0025h-1.06875c-.44 0-.6075-.24375-.6075-.525 0-.12125.00875-.20625.00875-.20625h-.01875s-.36625.84375-1.44375.84375c-.85375 0-1.63-.535-1.63-1.49 0-1.5 2.06-1.62125 2.83875-1.62125M267.046 144.3961h1.03125v1.09625H267.046zm-.05625 3.09375c0-.14-.07625-.20625-.20625-.20625h-.375v-1.0125h1.13375c.44125 0 .6275.1975.6275.6375v2.93375c0 .13125.07625.20625.20625.20625h.375v1.00375h-1.13375c-.44125 0-.6275-.18875-.6275-.63875zM269.7545 147.48985c0-.14-.075-.20625-.20625-.20625h-.375v-1.0125h1.09625c.4225 0 .62875.1975.62875.535v.14c0 .1025-.01875.20625-.01875.20625h.01875c.20625-.4025.72125-.9925 1.6875-.9925 1.05875 0 1.66875.5525 1.66875 1.8175v1.865c0 .13125.07375.20625.205.20625h.375v1.00375h-1.135c-.44875 0-.6375-.18875-.6375-.63875v-2.1925c0-.58125-.14875-.975-.74875-.975-.6375 0-1.115.4025-1.28375.975-.065.19625-.09375.4125-.09375.6375v2.19375h-1.18125zM275.80188 149.53335s.60875.70375 1.425.70375c.365 0 .64625-.15125.64625-.46875 0-.67625-2.52125-.66625-2.52125-2.2125 0-.95625.8625-1.39625 1.85625-1.39625.6475 0 1.6775.215 1.6775.9925v.4975h-1.05v-.235c0-.225-.3375-.3375-.60125-.3375-.42 0-.71125.15-.71125.43125 0 .75 2.54.6 2.54 2.19375 0 .89875-.79625 1.4625-1.83625 1.4625-1.3125 0-1.9875-.85375-1.9875-.85375zM307.51325 131.47123h.6c1.33125 0 2.185-.79625 2.185-2.29625 0-1.48125-.8725-2.2775-2.185-2.2775h-.805v4.3675c0 .13125.075.20625.205.20625m-1.4325-4.57375h-.61125v-1.04125h2.71c2.0525 0 3.3925 1.21875 3.3925 3.31875 0 2.09875-1.34 3.3375-3.3925 3.3375h-1.4625c-.45 0-.63625-.18875-.63625-.63875zM314.13187 131.69635c.63875 0 1.0875-.675 1.0875-1.25625v-.1125h-.20625c-.6175 0-1.60125.085-1.60125.75 0 .31875.2325.61875.72.61875m.91876-2.18375h.15v-.0375c0-.685-.27125-.9375-.88125-.9375-.21375 0-.63625.05625-.63625.31875v.2525h-1.10625v-.50625c0-.89 1.25625-.98375 1.7525-.98375 1.59375 0 2.0625.83375 2.0625 1.9025v1.78125c0 .13125.07375.20625.20625.20625h.37375v1.0025h-1.0675c-.44125 0-.61-.24375-.61-.525 0-.12125.01-.20625.01-.20625h-.01875s-.365.84375-1.44375.84375c-.8525 0-1.63125-.535-1.63125-1.49 0-1.5 2.0625-1.62125 2.84-1.62125M318.0235 125.8561h1.03125v1.0975h-1.03125zm-.05625 3.09375c0-.14-.075-.20625-.20625-.20625h-.375v-1.0125h1.13375c.44125 0 .6275.1975.6275.6375v2.93375c0 .13125.07625.20625.20625.20625h.375v1.00375h-1.13375c-.44 0-.6275-.18875-.6275-.63875zM320.73225 128.94985c0-.14-.075-.20625-.20625-.20625h-.375v-1.0125h1.0875c.4225 0 .6375.17875.6375.58125v.28125c0 .1775-.01875.3-.01875.3h.01875c.215-.68375.7875-1.2275 1.51875-1.2275.1025 0 .21625.01875.21625.01875v1.17125s-.1225-.01875-.2925-.01875c-.505 0-1.08625.29125-1.30125 1.0025-.065.235-.10375.4975-.10375.77875v1.89375h-1.18125zM325.09138 133.47685c.32875 0 .61875-.1975.7875-.60875l.16-.36625-1.595-3.59c-.05625-.14-.12125-.16875-.2525-.16875h-.14v-1.01125h.7875c.33625 0 .50625.12125.62875.45l.93625 2.38875c.09375.245.17.63875.17.63875h.0175s.075-.39375.15875-.63875l.815-2.38875c.11375-.32875.31-.45.6375-.45h.8075v1.01125h-.1425c-.14 0-.21375.02875-.27.16875l-1.71625 4.32125c-.3375.8625-1.01125 1.24625-1.72375 1.24625-.75 0-1.20875-.48625-1.20875-.48625l.45875-.84375s.29125.3275.68375.3275M201.04538 139.45035h-.61v-1.04h3.79625c.45 0 .6375.19625.6375.6375v1.01125h-1.10625v-.4025c0-.13125-.075-.20625-.20625-.20625h-1.28375v1.88375h2.1275v1.04125h-2.1275v2.68875h-1.2275zM205.82625 141.50348c0-.14125-.075-.20625-.20625-.20625h-.375v-1.0125h1.0875c.42125 0 .6375.1775.6375.58125v.28125c0 .1775-.01875.3-.01875.3h.01875c.215-.685.7875-1.2275 1.51875-1.2275.1025 0 .215.0175.215.0175v1.1725s-.12125-.01875-.29125-.01875c-.505 0-1.08625.29-1.3025 1.0025-.065.23375-.1025.49625-.1025.7775v1.89375h-1.18125zM209.72638 141.50348c0-.14125-.075-.20625-.20625-.20625h-.375v-1.0125h1.13375c.44125 0 .62875.1975.62875.6275v2.2025c0 .58125.14875.975.74.975.8625 0 1.34-.75875 1.34-1.6125v-2.1925h1.19125v3.57125c0 .13.075.20625.20625.20625h.37375v1.0025h-1.09625c-.4125 0-.6275-.1975-.6275-.535v-.13125c0-.11125.00875-.215.00875-.215h-.0175c-.22625.4975-.82625.99375-1.65.99375-1.0225 0-1.65-.51625-1.65-1.81875zM215.81975 138.40985h1.03125v1.09625h-1.03125zm-.05625 3.09375c0-.14125-.075-.20625-.20625-.20625h-.37375v-1.0125h1.13375c.44 0 .6275.1975.6275.6375v2.93375c0 .13.075.20625.20625.20625h.375v1.0025h-1.135c-.44 0-.6275-.1875-.6275-.6375zM218.54775 141.23135h-.61875v-.94625h.64625v-1.30375h1.16375v1.30375h1.08625v.94625H219.739v1.93125c0 .7875.6175.9.945.9.13125 0 .21625-.01875.21625-.01875v1.04s-.15.0275-.36625.0275c-.665 0-1.98625-.19625-1.98625-1.79875zM222.0165 143.54635s.60875.7025 1.425.7025c.36625 0 .64625-.15.64625-.46875 0-.675-2.52125-.665-2.52125-2.2125 0-.955.8625-1.39625 1.85625-1.39625.64625 0 1.6775.21625 1.6775.99375v.4975h-1.05v-.235c0-.225-.3375-.33625-.6-.33625-.42125 0-.7125.14875-.7125.43 0 .75 2.54.6 2.54 2.19375 0 .9-.79625 1.4625-1.83625 1.4625-1.3125 0-1.9875-.8525-1.9875-.8525zM188.347 179.1451c-.05625-.16-.13125-.20625-.29-.20625h-.16875v-1.04125h.7775c.46875 0 .6375.1225.7875.54375l1.27375 3.7125c.1325.375.2525.975.2525.975h.02s.12125-.6.2525-.975l1.275-3.7125c.15-.42125.31-.54375.77875-.54375h.7875v1.04125h-.17875c-.16 0-.235.04625-.29.20625l-1.9875 5.4075h-1.29375zM197.13975 181.54385c-.01875-.57125-.4125-.965-.9-.965-.60875 0-1.04.36625-1.17125.965zm-.9-1.88375c1.36875 0 2.11875 1.0025 2.11875 2.26875 0 .14-.02875.44-.02875.44H195.031c.09375.84375.7125 1.285 1.43375 1.285.76875 0 1.34125-.535 1.34125-.535l.49625.825s-.73125.72125-1.92125.72125c-1.585 0-2.56875-1.14375-2.56875-2.5025 0-1.47125.99375-2.5025 2.4275-2.5025M202.36188 182.05035c0-1.0875-.54375-1.37875-1.19-1.37875-.72125 0-1.11625.525-1.11625 1.33125 0 .835.4225 1.45375 1.19 1.45375.5725 0 1.11625-.32875 1.11625-1.40625m-1.39625-2.39c1.10625 0 1.47125.675 1.47125.675h.01875v-.1225c0-.215.15-.44.525-.44h1.10625v1.0125h-.36625c-.12125 0-.20625.065-.20625.1875v3.29c0 1.64-1.275 2.2575-2.52125 2.2575-.6 0-1.23625-.16875-1.69625-.41125l.36625-.9375s.58875.31875 1.32.31875c.7225 0 1.35125-.31 1.35125-1.1725v-.22375c0-.1125.00875-.25375.00875-.25375h-.01875c-.28125.40375-.69375.61875-1.33125.61875-1.3675 0-2.14625-1.10625-2.14625-2.41875s.74-2.38 2.11875-2.38M207.7245 181.54385c-.01875-.57125-.4125-.965-.9-.965-.61 0-1.04.36625-1.17125.965zm-.9-1.88375c1.36875 0 2.11875 1.0025 2.11875 2.26875 0 .14-.02875.44-.02875.44h-3.3c.095.84375.71375 1.285 1.435 1.285.76875 0 1.34-.535 1.34-.535l.4975.825s-.73125.72125-1.92125.72125c-1.585 0-2.56875-1.14375-2.56875-2.5025 0-1.47125.99375-2.5025 2.4275-2.5025M209.92788 180.71923h-.61875v-.94625h.64625v-1.3025h1.1625v1.3025h1.0875v.94625h-1.0875v1.93c0 .7875.61875.90125.9475.90125.13 0 .215-.01875.215-.01875v1.04s-.15.0275-.365.0275c-.665 0-1.9875-.19625-1.9875-1.79875zM214.61538 183.73748c.6375 0 1.0875-.675 1.0875-1.25625v-.1125h-.20625c-.61875 0-1.6025.085-1.6025.75 0 .31875.23375.61875.72125.61875m.9175-2.18375h.15v-.0375c0-.68375-.27125-.9375-.88125-.9375-.21375 0-.63625.05625-.63625.31875v.25375h-1.10625v-.5075c0-.89 1.25625-.98375 1.7525-.98375 1.59375 0 2.0625.835 2.0625 1.90375v1.78c0 .13125.075.20625.20625.20625h.37375v1.0025h-1.0675c-.44125 0-.60875-.24375-.60875-.525 0-.12125.01-.20625.01-.20625h-.02s-.365.84375-1.4425.84375c-.85375 0-1.63125-.53375-1.63125-1.49 0-1.49875 2.06125-1.62125 2.83875-1.62125M220.53025 183.66235c.6475 0 1.2-.53375 1.2-1.48125 0-.90875-.4875-1.49875-1.19-1.49875-.61875 0-1.2.45-1.2 1.50875 0 .74125.39375 1.47125 1.19 1.47125m-2.34375-4.545c0-.14125-.07375-.20625-.20625-.20625h-.37375v-1.0125h1.13375c.44 0 .6375.19625.6375.6375v1.38625c0 .235-.01875.40375-.01875.40375h.01875s.4225-.66625 1.43375-.66625c1.29375 0 2.1175 1.0225 2.1175 2.5025 0 1.51875-.9275 2.5025-2.1925 2.5025-.99375 0-1.425-.675-1.425-.675h-.01875s.01875.1325.01875.31875v.24375h-1.125zM223.72788 179.1171c0-.14125-.075-.20625-.20625-.20625h-.375v-1.0125h1.13375c.44125 0 .6375.1975.6375.6375v4.8075c0 .13125.07625.20625.20625.20625h.36625v1.00375h-1.125c-.45 0-.6375-.1875-.6375-.6375zM229.146 181.54385c-.01875-.57125-.4125-.965-.9-.965-.61 0-1.04.36625-1.17125.965zm-.9-1.88375c1.36875 0 2.11875 1.0025 2.11875 2.26875 0 .14-.02875.44-.02875.44h-3.29875c.09375.84375.71125 1.285 1.43375 1.285.76875 0 1.34-.535 1.34-.535l.49625.825s-.73.72125-1.92.72125c-1.585 0-2.56875-1.14375-2.56875-2.5025 0-1.47125.99375-2.5025 2.4275-2.5025M231.34938 183.03435s.61.70375 1.425.70375c.365 0 .64625-.15125.64625-.46875 0-.67625-2.52125-.66625-2.52125-2.2125 0-.95625.8625-1.39625 1.85625-1.39625.64625 0 1.6775.215 1.6775.99375v.49625h-1.05v-.23375c0-.225-.3375-.3375-.6-.3375-.42125 0-.71125.14875-.71125.43125 0 .74875 2.53875.59875 2.53875 2.1925 0 .9-.79625 1.4625-1.83625 1.4625-1.3125 0-1.9875-.8525-1.9875-.8525zM251.91513 189.5296c.69375 0 1.0875-.44875 1.0875-1.14375 0-.68375-.39375-1.12375-1.0675-1.12375h-1.00375v2.2675zm-2.2125-2.2675h-.60875v-1.04h3.04625c1.2475 0 2.11875.87125 2.11875 2.16375 0 1.29375-.87125 2.19375-2.11875 2.19375h-1.20875v2.29625h-1.22875zM255.22563 189.31485c0-.14125-.07625-.20625-.20625-.20625h-.375v-1.0125h1.08625c.4225 0 .6375.1775.6375.58125v.28125c0 .1775-.01875.3-.01875.3h.01875c.21625-.685.78875-1.2275 1.51875-1.2275.1025 0 .21625.0175.21625.0175v1.1725s-.1225-.01875-.29125-.01875c-.50625 0-1.0875.29-1.3025 1.0025-.065.23375-.10375.49625-.10375.7775v1.89375h-1.18zM261.046 191.97598c.77875 0 1.42625-.59875 1.42625-1.49 0-.88-.6475-1.49-1.42625-1.49-.7675 0-1.415.61-1.415 1.49 0 .89125.6475 1.49 1.415 1.49m0-3.9925c1.4625 0 2.625 1.04125 2.625 2.5025 0 1.47125-1.1625 2.5025-2.625 2.5025-1.4525 0-2.615-1.03125-2.615-2.5025 0-1.46125 1.1625-2.5025 2.615-2.5025M264.76912 189.0426h-.61875v-.94625h.64625v-1.30375h1.1625v1.30375h1.0875v.94625h-1.0875v1.93125c0 .7875.61875.9.94625.9.13125 0 .21625-.01875.21625-.01875v1.04s-.15.0275-.365.0275c-.66625 0-1.9875-.19625-1.9875-1.79875zM270.9935 189.86785c-.01875-.5725-.4125-.965-.9-.965-.61 0-1.04125.365-1.17125.965zm-.9-1.88375c1.3675 0 2.11875 1.0025 2.11875 2.2675 0 .14125-.02875.44-.02875.44h-3.3c.095.84375.7125 1.285 1.435 1.285.76875 0 1.34-.535 1.34-.535l.49625.825s-.73.7225-1.92.7225c-1.585 0-2.56875-1.14375-2.56875-2.5025 0-1.4725.99375-2.5025 2.4275-2.5025M273.45975 186.2211h1.03125v1.09625h-1.03125zm-.05625 3.09375c0-.14125-.075-.20625-.20625-.20625h-.375v-1.0125h1.13375c.44125 0 .6275.1975.6275.6375v2.93375c0 .13.07625.20625.2075.20625h.37375v1.0025H274.031c-.44125 0-.6275-.1875-.6275-.6375zM276.168 189.31485c0-.14125-.075-.20625-.205-.20625h-.37625v-1.0125h1.0975c.42125 0 .6275.1975.6275.53375v.14125c0 .1025-.01875.205-.01875.205h.01875c.20625-.4025.72125-.9925 1.6875-.9925 1.05875 0 1.66875.5525 1.66875 1.81875v1.865c0 .13.07375.20625.20625.20625h.37375v1.0025h-1.13375c-.45 0-.6375-.1875-.6375-.6375v-2.19375c0-.58-.15-.97375-.75-.97375-.6375 0-1.115.4025-1.28375.97375-.065.1975-.09375.41375-.09375.63875v2.1925H276.168z" fill="#fff"></path>
    </g>
  </g>
</svg>
