<svg height="990" width="765" xmlns="http://www.w3.org/2000/svg"><defs><clipPath id="a"><path d="M-137.653-177.145h765v990h-765z" fill="none"></path></clipPath><clipPath id="b"><path d="M-137.653-177.145h765v990h-765z" fill="none"></path></clipPath><clipPath id="c"><path d="M165.082 100.204h140.134V241.76H165.082z" fill="none"></path></clipPath><clipPath id="d"><path d="M305.216 170.984c0 39.09-31.37 70.777-70.065 70.777-38.697 0-70.069-31.687-70.069-70.777 0-39.093 31.372-70.78 70.069-70.78 38.695 0 70.065 31.687 70.065 70.78" fill="none"></path></clipPath><clipPath id="f"><path d="M170.312 167.421c0-37.641 30.515-68.156 68.157-68.156 37.64 0 68.156 30.515 68.156 68.156s-30.515 68.156-68.156 68.156-68.157-30.515-68.157-68.156" fill="none"></path></clipPath><clipPath id="h"><path d="M172.562 167.421c0-36.4 29.506-65.907 65.907-65.907 36.398 0 65.906 29.507 65.906 65.907s-29.508 65.906-65.906 65.906c-36.4 0-65.907-29.507-65.907-65.906" fill="none"></path></clipPath><clipPath id="j"><path d="M-137.653-177.145h765v990h-765z" fill="none"></path></clipPath><clipPath id="k"><path d="M-137.653-177.145h765v990h-765z" fill="none"></path></clipPath><clipPath id="l"><path d="M290.736 108.244h50.846v51.36h-50.846z" fill="none"></path></clipPath><clipPath id="p"><path d="M-137.653-177.145h765v990h-765z" fill="none"></path></clipPath><clipPath id="r"><path d="M-137.653-177.145h765v990h-765z" fill="none"></path></clipPath><clipPath id="w"><path d="M-137.653-177.145h765v990h-765z" fill="none"></path></clipPath><linearGradient gradientUnits="userSpaceOnUse" y2="235.243" y1="100.241" x2="238.468" x1="238.468" id="g"><stop stop-color="#f4f4f4" offset="0"></stop><stop stop-color="#d3d2d2" offset="1"></stop></linearGradient><linearGradient gradientUnits="userSpaceOnUse" y2="233.004" y1="102.459" x2="238.468" x1="238.468" id="i"><stop stop-color="#c8c7c7" offset="0"></stop><stop stop-color="#fff" offset=".955"></stop><stop stop-color="#fff" offset="1"></stop></linearGradient><linearGradient gradientUnits="userSpaceOnUse" y2="155.733" y1="104.473" x2="317.401" x1="317.401" id="n"><stop stop-color="#fff" offset="0"></stop><stop stop-color="#deddde" offset="1"></stop></linearGradient><linearGradient gradientUnits="userSpaceOnUse" y2="107.717" y1="152.501" x2="317.401" x1="317.401" id="o"><stop stop-color="#fff" offset="0"></stop><stop stop-color="#c8c7c7" offset="1"></stop></linearGradient><linearGradient gradientUnits="userSpaceOnUse" y2="120.776" y1="150.074" x2="324.552" x1="301.731" id="q"><stop stop-color="#82bae7" offset="0"></stop><stop stop-color="#4c83cc" offset="1"></stop></linearGradient><linearGradient gradientUnits="userSpaceOnUse" y2="203.672" y1="168.047" x2="200.522" x1="233.335" id="s"><stop stop-color="#b3db18" offset="0"></stop><stop stop-color="#28ab43" offset="1"></stop></linearGradient><linearGradient gradientUnits="userSpaceOnUse" y2="129.145" y1="156.145" x2="203.165" x1="233.353" id="t"><stop stop-color="#f35b9d" offset="0"></stop><stop stop-color="#e41d25" offset=".712"></stop><stop stop-color="#d01a21" offset=".995"></stop><stop stop-color="#d01a21" offset="1"></stop></linearGradient><linearGradient gradientUnits="userSpaceOnUse" y2="204.895" y1="178.144" x2="273.783" x1="245.783" id="u"><stop stop-color="#9d79c3" offset="0"></stop><stop stop-color="#503685" offset="1"></stop></linearGradient><linearGradient gradientUnits="userSpaceOnUse" y2="131.081" y1="167.581" x2="276.229" x1="246.229" id="v"><stop stop-color="#e1a374" offset="0"></stop><stop stop-color="#d45914" offset=".755"></stop><stop stop-color="#d45914" offset="1"></stop></linearGradient><radialGradient gradientUnits="userSpaceOnUse" fy="170.982" fx="235.148" r="70.061" cy="170.982" cx="235.148" id="e"><stop stop-color="#868484" offset="0"></stop><stop stop-color="#bdbcbc" offset=".926"></stop><stop stop-color="#bdbcbc" offset=".926"></stop><stop stop-color="#fff" offset="1"></stop></radialGradient><radialGradient gradientUnits="userSpaceOnUse" fy="133.924" fx="316.161" r="25.421" cy="133.924" cx="316.161" id="m"><stop stop-color="#868484" offset="0"></stop><stop stop-color="#bdbcbc" offset=".926"></stop><stop stop-color="#bdbcbc" offset=".926"></stop><stop stop-color="#fff" offset="1"></stop></radialGradient></defs><g stroke-miterlimit="10"><g transform="translate(137.653 177.145)" clip-path="url(#a)"><path d="M322.963 278.38H165.788c-13.254 0-24.038-10.785-24.038-24.04V114.41c0-13.253 10.784-24.037 24.038-24.037h157.174c13.254 0 24.038 10.784 24.038 24.037v139.93c0 13.255-10.784 24.04-24.039 24.04" fill="#b3db18"></path><path d="M322.963 89.748c13.6 0 24.662 11.064 24.662 24.663v139.928c0 13.6-11.062 24.663-24.662 24.663H165.788c-13.6 0-24.664-11.064-24.664-24.663V114.411c0-13.6 11.064-24.663 24.664-24.663zm0 1.25H165.788c-12.878 0-23.414 10.536-23.414 23.413v139.928c0 12.878 10.536 23.413 23.414 23.413h157.174c12.877 0 23.412-10.535 23.412-23.413V114.411c0-12.877-10.535-23.413-23.412-23.413" fill="#fff"></path></g><g transform="translate(137.653 177.145)" clip-path="url(#b)"><g clip-path="url(#c)"><g clip-path="url(#d)"><path d="M305.216 170.984c0 39.09-31.37 70.777-70.065 70.777-38.697 0-70.069-31.687-70.069-70.777 0-39.093 31.372-70.78 70.069-70.78 38.695 0 70.065 31.687 70.065 70.78" fill="url(#e)"></path></g></g></g><g transform="translate(137.653 177.145)" clip-path="url(#f)"><path d="M170.312 167.421c0-37.641 30.515-68.156 68.157-68.156 37.64 0 68.156 30.515 68.156 68.156s-30.515 68.156-68.156 68.156-68.157-30.515-68.157-68.156" fill="url(#g)"></path></g><g transform="translate(137.653 177.145)" clip-path="url(#h)"><path d="M172.562 167.421c0-36.4 29.506-65.907 65.907-65.907 36.398 0 65.906 29.507 65.906 65.907s-29.508 65.906-65.906 65.906c-36.4 0-65.907-29.507-65.907-65.906" fill="url(#i)"></path></g><g transform="translate(137.653 177.145)" clip-path="url(#j)"><path d="M161.657 154.008c-1.562 1.356-1.071 5.639-1.071 8.745 0 3.177 2.081 43.975 2.032 44.66-.187 4.054-1.862 5.394-3.911 5.561v.004l-.015-.001h-.014v-.003c-2.048-.167-3.723-1.507-3.911-5.561-.049-.685 2.031-41.483 2.031-44.66 0-3.106.493-7.389-1.07-8.745 0 0-3.762-3.676-3.822-7.775-.059-4.1 1.946-24.496 1.946-24.496h.003c.015-.284.208-.512.448-.512.239 0 .433.228.448.512l.254 20.748c0 .334.237.603.53.605h.373c.295-.002.533-.27.533-.605l.25-20.71v-.013l.001-.025h.001a.53.53 0 0 1 .515-.512.53.53 0 0 1 .516.512l.25 20.748c0 .334.238.603.532.605h.372c.295-.002.531-.27.531-.605l.253-20.748h.001a.53.53 0 0 1 .514-.512c.275 0 .497.228.514.512l.252 20.748c0 .334.239.603.533.605h.371c.295-.002.534-.27.534-.605l.246-20.702c0-.3.204-.544.456-.544.25 0 .455.244.455.544 0 .004 1.998 20.462 1.941 24.45-.058 4.099-3.822 7.775-3.822 7.775" fill="#fff"></path></g><g transform="translate(137.653 177.145)" clip-path="url(#k)"><g clip-path="url(#l)"><path d="M341.582 133.925c0 14.184-11.385 25.68-25.424 25.68s-25.422-11.496-25.422-25.68 11.381-25.681 25.423-25.681c14.038 0 25.423 11.497 25.423 25.68" fill="url(#m)"></path></g></g><path transform="translate(137.653 177.145)" d="M291.392 129.959c0-14.364 11.645-26.01 26.01-26.01s26.01 11.646 26.01 26.01c0 14.366-11.644 26.01-26.01 26.01-14.365 0-26.01-11.644-26.01-26.01" fill="url(#n)"></path><path transform="translate(137.653 177.145)" d="M293.921 129.959c0-12.967 10.511-23.48 23.48-23.48s23.481 10.513 23.481 23.48c0 12.97-10.511 23.48-23.481 23.48-12.969 0-23.48-10.51-23.48-23.48" fill="url(#o)"></path><g transform="translate(137.653 177.145)" clip-path="url(#p)"><path d="M338.588 129.957c0 11.7-9.486 21.189-21.184 21.189-11.701 0-21.188-9.49-21.188-21.19s9.486-21.183 21.188-21.183c11.699 0 21.184 9.484 21.184 21.184" fill="#3e6ba7"></path><path d="M336.756 129.957c0 10.69-8.663 19.355-19.352 19.355s-19.355-8.665-19.355-19.355c0-10.688 8.666-19.352 19.355-19.352s19.352 8.664 19.352 19.352" fill="#82bae7"></path></g><path transform="translate(137.653 177.145)" d="M300.417 129.957c0-9.38 7.604-16.983 16.987-16.983 9.377 0 16.982 7.602 16.982 16.983s-7.605 16.988-16.982 16.988c-9.383 0-16.987-7.608-16.987-16.988" fill="url(#q)"></path><g transform="translate(137.653 177.145)" clip-path="url(#r)"><path d="M237.9 163.222v61.576a57.958 57.958 0 0 1-4.5-.232c-29.189-2.585-52.098-27.018-52.246-56.844q-.002-.145-.004-.291.002-.984.037-1.959.036-1.131.118-2.25z" fill="#168235"></path><path d="M235.65 110.135a58 58 0 0 1 2.25-.071v50.406h-56.328q.138-1.132.32-2.25.183-1.132.41-2.25c4.981-24.562 25.651-43.425 51.099-45.679.744-.065 1.494-.12 2.25-.156" fill="#a9151a"></path><path d="M295.546 173.806a58 58 0 0 1-.682 4.5c-4.677 24.362-24.757 43.241-49.714 46.111a58 58 0 0 1-4.5.346v-50.957z" fill="#3f2a66"></path><path d="M295.89 166.556q.009.436.01.875c0 .46-.011.917-.023 1.375a58 58 0 0 1-.095 2.25H240.65v-60.958a57.588 57.588 0 0 1 4.5.349c28.281 3.253 50.305 27.06 50.74 56.109" fill="#a9460f"></path><path d="M235.65 165.473v57.53a58 58 0 0 1-2.25-.162c-28.237-2.58-50.377-26.243-50.525-55.118q-.002-.145-.004-.291.001-.983.038-1.959z" fill="#b3db18"></path><path d="M233.4 112.02a56 56 0 0 1 2.25-.161v46.362h-52.016q.189-1.133.424-2.25c4.942-23.61 24.847-41.714 49.342-43.951" fill="#f35b9d"></path><path d="M293.508 176.057q-.175 1.132-.399 2.25c-4.637 23.408-23.954 41.531-47.959 44.378q-1.118.135-2.25.223v-46.851z" fill="#9d79c3"></path><path d="M294.169 166.557q.009.437.01.875c0 .46-.012.918-.024 1.375H242.9v-56.851q1.131.09 2.25.225c27.328 3.242 48.585 26.277 49.018 54.376" fill="#e1a374"></path></g><path transform="translate(137.653 177.145)" d="M233.404 167.725v52.237c-26.652-2.57-47.51-24.947-47.658-52.237z" fill="url(#s)"></path><path transform="translate(137.653 177.145)" d="M186.995 155.974c4.876-22.02 23.501-38.865 46.409-41.074v41.074z" fill="url(#t)"></path><path transform="translate(137.653 177.145)" d="M290.189 178.309c-4.572 21.82-22.617 38.685-45.036 41.49v-41.49z" fill="url(#u)"></path><path transform="translate(137.653 177.145)" d="M245.154 115.07c25.74 3.225 45.718 24.976 46.15 51.489h-46.15z" fill="url(#v)"></path><g transform="translate(137.653 177.145)" clip-path="url(#w)"><path d="M152.922 253.591v-.039c0-3.809 2.847-6.964 6.81-6.964 2.443 0 3.905.867 5.25 2.135l-1.037 1.117c-1.135-1.078-2.405-1.847-4.232-1.847-2.983 0-5.214 2.424-5.214 5.52v.04c0 3.115 2.251 5.56 5.214 5.56 1.846 0 3.057-.712 4.347-1.945l1 .982c-1.403 1.423-2.943 2.366-5.386 2.366-3.886 0-6.752-3.058-6.752-6.925M166.503 246.242h1.48v5.83c.654-1.077 1.693-1.943 3.406-1.943 2.405 0 3.808 1.615 3.808 3.982v6.174h-1.48v-5.809c0-1.846-1-3-2.752-3-1.711 0-2.981 1.25-2.981 3.116v5.693h-1.481zM185.143 255.361v-.038c0-2.136-1.597-3.887-3.694-3.887-2.155 0-3.635 1.751-3.635 3.847v.04c0 2.135 1.576 3.867 3.674 3.867 2.155 0 3.655-1.732 3.655-3.829m-8.85 0v-.038c0-2.808 2.193-5.195 5.195-5.195 2.98 0 5.175 2.347 5.175 5.155v.04c0 2.81-2.213 5.193-5.214 5.193-2.981 0-5.155-2.346-5.155-5.155M196.127 255.361v-.038c0-2.136-1.597-3.887-3.694-3.887-2.155 0-3.635 1.751-3.635 3.847v.04c0 2.135 1.576 3.867 3.674 3.867 2.155 0 3.655-1.732 3.655-3.829m-8.85 0v-.038c0-2.808 2.193-5.195 5.195-5.195 2.98 0 5.174 2.347 5.174 5.155v.04c0 2.81-2.212 5.193-5.213 5.193-2.981 0-5.155-2.346-5.155-5.155M198.05 259.016l.75-1.058c1.077.807 2.27 1.27 3.443 1.27 1.192 0 2.057-.617 2.057-1.578v-.039c0-.998-1.172-1.385-2.48-1.75-1.558-.442-3.29-.98-3.29-2.808v-.04c0-1.71 1.423-2.847 3.385-2.847 1.213 0 2.56.424 3.58 1.098l-.675 1.115c-.923-.596-1.98-.961-2.942-.961-1.174 0-1.925.615-1.925 1.442v.039c0 .942 1.231 1.307 2.559 1.712 1.54.462 3.193 1.058 3.193 2.847v.038c0 1.885-1.558 2.982-3.54 2.982-1.423 0-3-.558-4.116-1.462M214.304 254.726c-.174-1.807-1.212-3.347-3.175-3.347-1.711 0-3.02 1.423-3.231 3.347zm-2.905 4.503c1.366 0 2.328-.559 3.136-1.405l.923.827c-1 1.115-2.213 1.865-4.098 1.865-2.732 0-4.962-2.096-4.962-5.192 0-2.887 2.019-5.195 4.77-5.195 2.944 0 4.636 2.346 4.636 5.271 0 .134 0 .289-.019.519h-7.887c.211 2.097 1.75 3.31 3.501 3.31" fill="#fff"></path><path d="M217.131 246.82h4.694l2.885 4.732 2.886-4.732h4.694v13.465h-4.483v-6.674l-3.097 4.79h-.076l-3.098-4.79v6.674h-4.405zM233.328 262.325l1.27-2.982c.787.442 1.518.693 1.923.693.25 0 .48-.038.712-.153l-4.117-10.1h4.52l1.828 5.54 1.674-5.54h4.445l-3.637 9.772c-1.02 2.75-2.135 3.866-4.56 3.866-1.52 0-2.886-.442-4.058-1.096M252.082 253.418c1.155 0 1.924-.52 1.924-1.482v-.038c0-.98-.711-1.48-1.904-1.48h-1.232v3zm-5.712-6.598h6.059c3.578 0 6.022 1.596 6.022 4.79v.038c0 3.252-2.484 4.982-6.119 4.982h-1.462v3.655h-4.5zM259.335 246.242h4.366v14.043h-4.366zM271.164 256.4v-.443a3 3 0 0 0-1-.172c-.866 0-1.347.518-1.347 1.172v.04c0 .615.444 1.019 1.001 1.019.769 0 1.346-.616 1.346-1.616m-6.52.905v-.039c0-2.096 1.557-3.271 4-3.271.885 0 2.02.192 2.483.385v-.174c0-.961-.598-1.52-1.944-1.52-1.076 0-1.981.232-2.905.597l-.769-2.905c1.21-.462 2.598-.77 4.424-.77 2.136 0 3.52.443 4.444 1.367.789.788 1.096 1.808 1.096 3.328v5.982h-4.366v-1.057c-.731.79-1.713 1.308-3.02 1.308-2.02 0-3.444-1.154-3.444-3.231M277.418 256.766v-3.618h-1.231v-3.366h1.231v-2.635h4.368v2.635h2.423v3.366h-2.424v2.654c0 .79.365 1.079 1.058 1.079.404 0 .865-.115 1.328-.328v3.367c-.693.365-1.732.596-2.79.596-2.578 0-3.963-1.193-3.963-3.75M291.462 254.13c-.096-1-.692-1.578-1.461-1.578-.731 0-1.251.616-1.385 1.577zm-6.886.963v-.04c0-3.136 2.25-5.521 5.405-5.521 3.733 0 5.465 2.597 5.465 5.791 0 .231 0 .5-.02.731h-6.752c.307.923 1.038 1.404 1.98 1.404.79 0 1.444-.366 2.137-1.078l2.346 1.867c-1.04 1.346-2.52 2.288-4.791 2.288-3.442 0-5.77-2.172-5.77-5.442" fill="#231f20"></path><path d="M297.232 258.266h1.77v2.02h-1.77zM308.524 254.842v-.04c0-2.04-1.77-3.365-3.655-3.365s-3.444 1.308-3.444 3.347v.039c0 2 1.598 3.386 3.444 3.386 1.885 0 3.655-1.366 3.655-3.367m-8.156 7.176.674-1.155c1.135.827 2.403 1.27 3.827 1.27 2.192 0 3.617-1.213 3.617-3.54v-1.173c-.866 1.154-2.077 2.097-3.905 2.097-2.386 0-4.676-1.79-4.676-4.657v-.037c0-2.905 2.31-4.695 4.677-4.695 1.865 0 3.077.924 3.885 2.002v-1.79h1.48v8.214c0 1.54-.46 2.713-1.27 3.521-.883.885-2.21 1.327-3.788 1.327-1.654 0-3.194-.462-4.521-1.384M320.048 255.361v-.038c0-2.136-1.597-3.887-3.694-3.887-2.155 0-3.636 1.751-3.636 3.847v.04c0 2.135 1.576 3.867 3.673 3.867 2.155 0 3.656-1.732 3.656-3.829m-8.85 0v-.038c0-2.808 2.193-5.195 5.194-5.195 2.983 0 5.175 2.347 5.175 5.155v.04c0 2.81-2.212 5.193-5.212 5.193-2.983 0-5.156-2.346-5.156-5.155M321.238 250.34h1.636l3.346 8.254 3.368-8.254h1.596l-4.329 10.023h-1.307zM253.976 144.284c1.63 0 2.427.844 2.427.844l-.692.881s-.694-.59-1.707-.59c-1.152 0-2.137.91-2.137 2.26 0 1.452.994 2.342 2.185 2.342 1.059 0 1.686-.694 1.686-.694v-.496c0-.142-.074-.207-.206-.207h-.403v-1.04h1.078c.45 0 .637.187.637.628v2.84h-1.05v-.319c0-.141.01-.281.01-.281h-.02s-.71.712-1.957.712c-1.744 0-3.235-1.33-3.235-3.477 0-1.913 1.454-3.403 3.384-3.403M258.121 147.49c0-.14-.076-.206-.207-.206h-.375v-1.013h1.087c.423 0 .638.179.638.581v.282c0 .177-.02.3-.02.3h.02c.216-.684.787-1.228 1.518-1.228.103 0 .217.019.217.019v1.171s-.123-.019-.293-.019c-.505 0-1.086.292-1.301 1.003a3 3 0 0 0-.104.779v1.893h-1.18zM263.154 150.236c.639 0 1.088-.675 1.088-1.256v-.112h-.207c-.618 0-1.602.085-1.602.75 0 .318.234.618.721.618m.919-2.183h.149v-.038c0-.685-.27-.937-.88-.937-.215 0-.637.056-.637.318v.253H261.6v-.506c0-.89 1.256-.984 1.751-.984 1.595 0 2.064.834 2.064 1.902v1.782c0 .131.074.206.205.206h.375v1.002h-1.069c-.44 0-.607-.243-.607-.525 0-.12.009-.206.009-.206h-.02s-.365.844-1.443.844c-.854 0-1.63-.535-1.63-1.49 0-1.5 2.06-1.621 2.839-1.621M267.046 144.396h1.031v1.096h-1.031zm-.056 3.094c0-.14-.076-.206-.206-.206h-.375v-1.013h1.133c.442 0 .628.198.628.638v2.933c0 .132.076.207.206.207h.375v1.003h-1.134c-.441 0-.627-.188-.627-.638zM269.755 147.49c0-.14-.075-.206-.207-.206h-.375v-1.013h1.096c.423 0 .63.198.63.535v.14c0 .103-.02.206-.02.206h.02c.206-.402.72-.992 1.687-.992 1.059 0 1.669.552 1.669 1.817v1.865c0 .132.073.207.205.207h.375v1.003H273.7c-.45 0-.638-.188-.638-.638v-2.193c0-.581-.149-.975-.749-.975-.637 0-1.115.403-1.283.975a2 2 0 0 0-.094.638v2.193h-1.181zM275.802 149.533s.609.704 1.425.704c.365 0 .646-.151.646-.469 0-.676-2.521-.666-2.521-2.212 0-.956.862-1.396 1.856-1.396.648 0 1.678.215 1.678.992v.498h-1.05v-.235c0-.225-.338-.338-.602-.338-.42 0-.71.15-.71.431 0 .75 2.54.6 2.54 2.194 0 .899-.797 1.463-1.837 1.463-1.313 0-1.988-.854-1.988-.854zM307.513 131.471h.6c1.332 0 2.185-.796 2.185-2.296 0-1.481-.872-2.278-2.185-2.278h-.805v4.368c0 .131.075.206.205.206m-1.432-4.574h-.611v-1.04h2.71c2.052 0 3.392 1.218 3.392 3.318s-1.34 3.337-3.392 3.337h-1.463c-.45 0-.636-.188-.636-.638zM314.132 131.696c.639 0 1.087-.675 1.087-1.256v-.112h-.206c-.617 0-1.601.085-1.601.75 0 .318.232.618.72.618m.919-2.183h.15v-.038c0-.685-.272-.937-.882-.937-.213 0-.636.056-.636.318v.253h-1.106v-.506c0-.89 1.256-.984 1.752-.984 1.594 0 2.063.834 2.063 1.902v1.782c0 .13.074.206.206.206h.374v1.002h-1.068c-.44 0-.61-.243-.61-.525 0-.12.01-.206.01-.206h-.018s-.365.844-1.444.844c-.853 0-1.631-.535-1.631-1.49 0-1.5 2.062-1.621 2.84-1.621M318.024 125.856h1.03v1.098h-1.03zm-.057 3.094c0-.14-.075-.206-.206-.206h-.375v-1.013h1.134c.441 0 .627.198.627.638v2.933c0 .132.076.207.206.207h.375v1.003h-1.133c-.44 0-.628-.188-.628-.638zM320.732 128.95c0-.14-.075-.206-.206-.206h-.375v-1.013h1.088c.422 0 .637.179.637.581v.282c0 .177-.019.3-.019.3h.019c.215-.684.788-1.228 1.519-1.228.102 0 .216.019.216.019v1.171s-.122-.019-.292-.019c-.506 0-1.087.292-1.302 1.003a3 3 0 0 0-.104.779v1.893h-1.18zM325.091 133.477c.33 0 .62-.198.788-.609l.16-.366-1.595-3.59c-.056-.14-.121-.169-.253-.169h-.14v-1.011h.788c.336 0 .506.121.629.45l.936 2.389c.094.245.17.638.17.638h.017s.075-.393.16-.638l.814-2.39c.114-.328.31-.45.638-.45h.807v1.012h-.142c-.14 0-.214.029-.27.169l-1.717 4.321c-.337.863-1.01 1.246-1.723 1.246-.75 0-1.21-.486-1.21-.486l.46-.844s.29.328.683.328M201.045 139.45h-.61v-1.04h3.797c.45 0 .637.197.637.638v1.011h-1.106v-.402c0-.132-.075-.207-.206-.207h-1.284v1.884h2.127v1.041h-2.127v2.69h-1.228zM205.826 141.503c0-.14-.075-.206-.206-.206h-.375v-1.012h1.087c.422 0 .638.177.638.581v.281c0 .178-.019.3-.019.3h.019c.215-.685.787-1.227 1.519-1.227.102 0 .215.017.215.017v1.173s-.122-.019-.292-.019c-.505 0-1.086.29-1.302 1.002a3 3 0 0 0-.103.778v1.894h-1.18zM209.726 141.503c0-.14-.075-.206-.206-.206h-.375v-1.012h1.134c.441 0 .629.197.629.627v2.203c0 .581.148.975.74.975.862 0 1.34-.759 1.34-1.613v-2.192h1.19v3.571c0 .13.076.206.207.206h.374v1.003h-1.096c-.413 0-.628-.198-.628-.535v-.132c0-.11.009-.215.009-.215h-.018c-.226.498-.826.994-1.65.994-1.022 0-1.65-.516-1.65-1.819zM215.82 138.41h1.031v1.096h-1.031zm-.056 3.094c0-.142-.076-.207-.207-.207h-.374v-1.012h1.134c.44 0 .628.197.628.637v2.934c0 .13.075.206.206.206h.375v1.003h-1.135c-.44 0-.627-.188-.627-.638zM218.548 141.231h-.619v-.946h.646v-1.304h1.164v1.304h1.086v.946h-1.086v1.932c0 .787.618.9.945.9.131 0 .216-.02.216-.02v1.04s-.15.028-.366.028c-.665 0-1.986-.196-1.986-1.798zM222.017 143.546s.608.703 1.425.703c.366 0 .646-.15.646-.469 0-.675-2.521-.665-2.521-2.212 0-.955.862-1.397 1.856-1.397.646 0 1.677.217 1.677.994v.498h-1.05v-.235c0-.225-.337-.337-.6-.337-.421 0-.712.15-.712.43 0 .75 2.54.6 2.54 2.194 0 .9-.796 1.463-1.836 1.463-1.313 0-1.988-.853-1.988-.853zM188.347 179.145c-.056-.16-.131-.206-.29-.206h-.169v-1.041h.778c.469 0 .637.122.787.543l1.274 3.713c.133.375.253.975.253.975h.02s.12-.6.252-.975l1.275-3.713c.15-.42.31-.543.779-.543h.787v1.04h-.178c-.16 0-.235.047-.29.207l-1.988 5.408h-1.294zM197.14 181.544c-.019-.571-.413-.965-.9-.965-.609 0-1.04.366-1.172.965zm-.9-1.884c1.368 0 2.118 1.003 2.118 2.269 0 .14-.028.44-.028.44h-3.299c.094.844.712 1.285 1.434 1.285.768 0 1.341-.535 1.341-.535l.496.825s-.731.721-1.921.721c-1.585 0-2.569-1.144-2.569-2.502 0-1.472.994-2.503 2.428-2.503M202.362 182.05c0-1.087-.544-1.378-1.19-1.378-.721 0-1.116.525-1.116 1.33 0 .836.422 1.455 1.19 1.455.572 0 1.116-.33 1.116-1.407m-1.396-2.39c1.106 0 1.47.675 1.47.675h.02v-.122c0-.215.15-.44.525-.44h1.106v1.012h-.366c-.122 0-.207.065-.207.188v3.29c0 1.64-1.275 2.257-2.52 2.257-.6 0-1.237-.168-1.697-.41l.366-.938s.589.318 1.32.318c.723 0 1.351-.31 1.351-1.172v-.224c0-.112.01-.254.01-.254h-.02c-.28.404-.693.62-1.33.62-1.368 0-2.147-1.107-2.147-2.42s.74-2.38 2.119-2.38M207.725 181.544c-.02-.571-.413-.965-.9-.965-.61 0-1.04.366-1.172.965zm-.9-1.884c1.368 0 2.118 1.003 2.118 2.269 0 .14-.029.44-.029.44h-3.3c.095.844.714 1.285 1.435 1.285.77 0 1.34-.535 1.34-.535l.498.825s-.731.721-1.921.721c-1.585 0-2.569-1.144-2.569-2.502 0-1.472.994-2.503 2.428-2.503M209.928 180.72h-.619v-.947h.646v-1.303h1.163v1.303h1.087v.946h-1.087v1.93c0 .788.619.901.947.901a1 1 0 0 0 .215-.018v1.04s-.15.027-.365.027c-.665 0-1.987-.196-1.987-1.799zM214.615 183.737c.638 0 1.088-.675 1.088-1.256v-.112h-.206c-.62 0-1.603.085-1.603.75 0 .318.234.618.721.618m.918-2.183h.15v-.038c0-.684-.271-.937-.881-.937-.214 0-.637.056-.637.318v.254h-1.106v-.507c0-.89 1.256-.984 1.753-.984 1.593 0 2.062.835 2.062 1.904v1.78c0 .131.075.206.206.206h.374v1.002h-1.067c-.442 0-.61-.243-.61-.525 0-.12.01-.206.01-.206h-.02s-.364.844-1.442.844c-.853 0-1.63-.534-1.63-1.49 0-1.499 2.06-1.621 2.838-1.621M220.53 183.662c.648 0 1.2-.533 1.2-1.48 0-.91-.487-1.5-1.19-1.5-.619 0-1.2.45-1.2 1.51 0 .74.394 1.47 1.19 1.47m-2.344-4.545c0-.14-.073-.206-.206-.206h-.374V177.9h1.134c.44 0 .638.196.638.637v1.386c0 .235-.019.404-.019.404h.019s.422-.666 1.433-.666c1.294 0 2.118 1.022 2.118 2.502 0 1.52-.928 2.503-2.193 2.503-.993 0-1.425-.675-1.425-.675h-.018s.018.132.018.319v.243h-1.125zM223.728 179.117c0-.141-.075-.206-.206-.206h-.375v-1.013h1.133c.442 0 .638.198.638.638v4.807c0 .132.076.207.206.207h.366v1.003h-1.125c-.45 0-.637-.187-.637-.637zM229.146 181.544c-.019-.571-.412-.965-.9-.965-.61 0-1.04.366-1.171.965zm-.9-1.884c1.369 0 2.119 1.003 2.119 2.269 0 .14-.029.44-.029.44h-3.299c.094.844.711 1.285 1.434 1.285.769 0 1.34-.535 1.34-.535l.496.825s-.73.721-1.92.721c-1.585 0-2.568-1.144-2.568-2.502 0-1.472.993-2.503 2.427-2.503M231.35 183.034s.61.704 1.424.704c.365 0 .647-.151.647-.469 0-.676-2.522-.666-2.522-2.212 0-.956.863-1.396 1.857-1.396.646 0 1.677.215 1.677.993v.497h-1.05v-.234c0-.225-.337-.338-.6-.338-.421 0-.711.15-.711.432 0 .748 2.539.598 2.539 2.192 0 .9-.797 1.463-1.837 1.463-1.312 0-1.987-.853-1.987-.853zM251.915 189.53c.694 0 1.088-.45 1.088-1.144 0-.684-.394-1.124-1.068-1.124h-1.004v2.268zm-2.212-2.268h-.61v-1.04h3.047c1.248 0 2.119.871 2.119 2.164s-.871 2.194-2.119 2.194h-1.209v2.296h-1.228zM255.226 189.315c0-.141-.077-.206-.207-.206h-.375v-1.013h1.087c.422 0 .637.178.637.581v.282c0 .177-.019.3-.019.3h.02c.215-.685.788-1.228 1.518-1.228.102 0 .216.018.216.018v1.172s-.122-.019-.291-.019c-.506 0-1.088.29-1.303 1.003a3 3 0 0 0-.103.777v1.894h-1.18zM261.046 191.976c.779 0 1.426-.599 1.426-1.49 0-.88-.647-1.49-1.426-1.49-.767 0-1.415.61-1.415 1.49 0 .891.648 1.49 1.415 1.49m0-3.993c1.463 0 2.625 1.042 2.625 2.503 0 1.471-1.162 2.502-2.625 2.502-1.452 0-2.615-1.03-2.615-2.502 0-1.461 1.163-2.503 2.615-2.503M264.77 189.043h-.62v-.947h.647v-1.303h1.162v1.303h1.088v.947h-1.088v1.93c0 .788.619.9.946.9.132 0 .217-.018.217-.018v1.04s-.15.028-.365.028c-.667 0-1.988-.197-1.988-1.8zM270.994 189.868c-.02-.573-.413-.965-.9-.965-.61 0-1.042.365-1.172.965zm-.9-1.884c1.367 0 2.118 1.003 2.118 2.268 0 .14-.029.44-.029.44h-3.3c.095.843.713 1.285 1.435 1.285.77 0 1.34-.535 1.34-.535l.497.825s-.73.722-1.92.722c-1.585 0-2.569-1.144-2.569-2.502 0-1.473.994-2.503 2.427-2.503M273.46 186.221h1.031v1.096h-1.031zm-.056 3.094c0-.141-.075-.206-.207-.206h-.375v-1.013h1.134c.441 0 .628.198.628.638v2.933c0 .13.076.207.207.207h.374v1.002h-1.134c-.441 0-.628-.187-.628-.637zM276.168 189.315c0-.141-.075-.206-.205-.206h-.376v-1.013h1.097c.421 0 .628.198.628.534v.141c0 .103-.019.205-.019.205h.019c.206-.402.721-.992 1.687-.992 1.059 0 1.669.552 1.669 1.818v1.865c0 .13.074.207.206.207h.374v1.002h-1.134c-.45 0-.637-.187-.637-.637v-2.194c0-.58-.15-.974-.75-.974-.638 0-1.115.403-1.284.974a2 2 0 0 0-.094.639v2.192h-1.181z" fill="#fff"></path></g></g></svg>